<svg width="22" height="18" viewBox="0 0 22 18" fill="none" xmlns="http://www.w3.org/2000/svg">
<path d="M19.25 3.09375H16.0625L15.3031 0.965625C15.2507 0.820003 15.1545 0.694129 15.0278 0.605197C14.9011 0.516266 14.7501 0.468613 14.5953 0.46875H7.40469C7.08828 0.46875 6.80469 0.667969 6.69922 0.965625L5.9375 3.09375H2.75C1.71406 3.09375 0.875 3.93281 0.875 4.96875V15.6562C0.875 16.6922 1.71406 17.5312 2.75 17.5312H19.25C20.2859 17.5312 21.125 16.6922 21.125 15.6562V4.96875C21.125 3.93281 20.2859 3.09375 19.25 3.09375ZM11 13.7812C8.92813 13.7812 7.25 12.1031 7.25 10.0312C7.25 7.95937 8.92813 6.28125 11 6.28125C13.0719 6.28125 14.75 7.95937 14.75 10.0312C14.75 12.1031 13.0719 13.7812 11 13.7812ZM8.75 10.0312C8.75 10.628 8.98705 11.2003 9.40901 11.6222C9.83097 12.0442 10.4033 12.2812 11 12.2812C11.5967 12.2812 12.169 12.0442 12.591 11.6222C13.0129 11.2003 13.25 10.628 13.25 10.0312C13.25 9.43451 13.0129 8.86222 12.591 8.44026C12.169 8.0183 11.5967 7.78125 11 7.78125C10.4033 7.78125 9.83097 8.0183 9.40901 8.44026C8.98705 8.86222 8.75 9.43451 8.75 10.0312Z" fill="#E74216"/>
</svg>
