<svg width="123" height="41" viewBox="0 0 123 41" fill="none" xmlns="http://www.w3.org/2000/svg">
<path fill-rule="evenodd" clip-rule="evenodd" d="M16.9939 14.0905C16.5201 13.9326 16.0308 14.2852 16.0308 14.7847V27.7456H27.4742C28.3781 25.7647 30.0267 24.1951 32.0622 23.3947V19.8194C32.0622 19.6259 32.0129 19.4355 31.9189 19.2663L31.4579 18.4366C31.2623 18.0845 30.7656 18.0587 30.5346 18.3887C30.2341 18.8181 29.5599 18.6175 29.543 18.0936L29.4842 16.2697C29.4626 15.6012 28.5436 15.4365 28.2913 16.0559C27.9176 16.9731 26.5921 16.889 26.3373 15.9319L25.4185 12.4802C25.3145 12.0894 24.7563 12.1002 24.6674 12.4947L23.791 16.3836C23.5931 17.2617 22.3394 17.2548 22.1512 16.3745L22.0248 15.7834C21.8939 15.1709 21.0106 15.199 20.9188 15.8185C20.8309 16.4118 19.9993 16.4736 19.8247 15.8998L19.5526 15.006C19.4163 14.5581 18.7851 14.5498 18.637 14.994C18.5048 15.3906 17.9642 15.4409 17.7611 15.0754L17.4022 14.4293C17.3133 14.2693 17.1676 14.1484 16.9939 14.0905ZM21.7866 19.5251H23.4309V21.1693H21.7866V19.5251ZM25.8972 19.5251H24.2529V21.1693H25.8972V19.5251ZM21.7866 21.9914H23.4309V23.6356H21.7866V21.9914ZM25.8972 21.9914H24.2529V23.6356H25.8972V21.9914Z" fill="#F56842"/>
<path fill-rule="evenodd" clip-rule="evenodd" d="M27.1507 28.5684H16.0312V32.2679H26.7803C26.7393 31.9311 26.7183 31.5881 26.7183 31.2403C26.7183 30.3064 26.8702 29.4079 27.1507 28.5684Z" fill="#F56842"/>
<path fill-rule="evenodd" clip-rule="evenodd" d="M12.7421 19.5254V28.3632C15.414 30.213 23.2242 31.8573 28.157 31.4462C28.19 31.5895 28.2255 31.7448 28.2631 31.9095C28.6929 33.7923 29.4019 36.8987 30.0067 37.2011C29.2973 37.2172 28.5642 37.2495 27.8071 37.2828C22.1294 37.5325 15.0995 37.8417 6.57617 31.8573V22.4028C7.87787 22.5398 10.9334 21.8273 12.7421 19.5254ZM27.6019 34.7136C27.6628 35.1193 27.8165 35.7561 28.1088 35.9184C24.881 36.5947 17.9226 36.8767 13.1519 34.04C18.0515 35.5873 23.3348 36.5632 27.6019 34.7136Z" fill="white"/>
<path fill-rule="evenodd" clip-rule="evenodd" d="M40.7591 24.957C36.8933 22.4998 31.7676 23.6417 29.3105 27.5075C26.8533 31.3732 27.9952 36.4989 31.861 38.956C35.7267 41.4132 40.8524 40.2713 43.3096 36.4055C44.4121 34.671 44.79 32.6828 44.5224 30.7958C44.5087 30.6992 44.3961 30.6547 44.3185 30.7139C44.0995 30.8808 43.8489 31.0659 43.571 31.2644C43.2324 37.1646 39.0479 38.7773 36.9953 38.8457C40.3315 37.5748 41.3781 34.2827 41.5068 32.6403C39.7312 33.7479 37.5421 34.9279 35.4036 35.6607C35.0755 35.7732 34.7415 35.5247 34.7413 35.1777L34.7383 29.4187C34.7382 29.231 34.8395 29.0579 35.0033 28.9662L38.642 26.9277L38.6393 26.9258C38.8448 26.8573 38.4748 26.5147 35.3508 25.6926C36.0833 25.4262 37.994 25.1728 39.9124 26.216L41.211 25.4885C41.2917 25.4433 41.2998 25.3304 41.2253 25.2757C41.0746 25.1651 40.9192 25.0587 40.7591 24.957Z" fill="white"/>
<path fill-rule="evenodd" clip-rule="evenodd" d="M24.2528 0L9.24902 8.63231L11.7154 10.4821L12.7431 13.7706L24.2528 7.39913L34.9404 13.3595V22.814C36.6129 22.6467 38.0018 22.8622 39.0532 23.1956L40.078 12.5376L40.281 23.7027C40.6519 23.8985 40.9294 24.0934 41.1064 24.2527V9.8655L24.2528 0ZM39.248 23.26C39.2863 23.2715 39.3262 23.2857 39.3671 23.302C39.328 23.2878 39.2883 23.2738 39.248 23.26ZM24.2524 4.11035L12.3315 10.4818L13.1537 12.1261L24.2524 5.7546L34.3234 11.3039L24.2524 4.11035Z" fill="#FFBB00"/>
<path fill-rule="evenodd" clip-rule="evenodd" d="M13.154 14.5926C13.154 18.225 10.2094 21.1696 6.577 21.1696C6.44022 21.1696 6.30442 21.1655 6.16971 21.1572C6.07739 21.1516 6.02375 21.052 6.0676 20.9705L8.72357 16.038C8.79414 15.907 8.78835 15.748 8.70844 15.6225L6.25656 11.7695C6.10887 11.5374 5.77965 11.5131 5.60785 11.728C3.77604 14.0192 2.36262 17.1695 1.76112 18.7898C1.72716 18.8813 1.60858 18.9034 1.54569 18.8287C0.581195 17.6844 0 16.2064 0 14.5926C0 10.9602 2.94462 8.01562 6.577 8.01562C10.2094 8.01562 13.154 10.9602 13.154 14.5926ZM7.32662 20.4416C8.87785 20.2428 10.2866 19.436 11.2429 18.1985C12.1993 16.9611 12.6249 15.3945 12.4261 13.8432C12.2274 12.292 11.4205 10.8833 10.1831 9.92693C8.94569 8.97059 7.10078 8.639 5.54956 8.83775C7.31015 9.28629 8.15561 9.87128 8.8986 10.3854C8.99228 10.4502 9.08432 10.5139 9.17636 10.576C10.3809 11.3893 11.151 12.7789 11.3044 13.976C11.4578 15.1732 10.9212 16.9261 10.1831 17.8811C10.0461 18.0322 9.92819 18.1686 9.81614 18.2983C9.29939 18.8962 8.90652 19.3508 7.32662 20.4416Z" fill="#FFBB00"/>
<path d="M54.1549 22.0179H50.5083V19.288H54.1549C54.6518 19.288 55.0547 19.2041 55.3637 19.0362C55.6726 18.8683 55.8975 18.6366 56.0386 18.3411C56.1863 18.0389 56.2602 17.6998 56.2602 17.3237C56.2602 16.9208 56.1863 16.5481 56.0386 16.2056C55.8975 15.8631 55.6726 15.5877 55.3637 15.3796C55.0547 15.1647 54.6518 15.0572 54.1549 15.0572H51.838V26.9941H48.3022V12.3273H54.1549C55.3301 12.3273 56.3408 12.5422 57.1869 12.972C58.0398 13.4018 58.6946 13.9928 59.1512 14.7449C59.6079 15.4904 59.8362 16.3432 59.8362 17.3036C59.8362 18.2505 59.6079 19.0765 59.1512 19.7816C58.6946 20.4867 58.0398 21.0374 57.1869 21.4336C56.3408 21.8231 55.3301 22.0179 54.1549 22.0179ZM65.0039 18.7944V26.9941H61.6091V16.0948H64.7823L65.0039 18.7944ZM68.2273 16.0142L68.1669 19.1671C68.0326 19.1537 67.8513 19.1369 67.6229 19.1168C67.3946 19.0966 67.2032 19.0865 67.0488 19.0865C66.6525 19.0865 66.31 19.1336 66.0213 19.2276C65.7392 19.3149 65.5042 19.4492 65.3161 19.6305C65.1348 19.8051 65.0005 20.0267 64.9132 20.2954C64.8326 20.564 64.7957 20.8762 64.8024 21.2322L64.1879 20.8292C64.1879 20.0972 64.2584 19.4324 64.3995 18.8347C64.5472 18.2303 64.7554 17.7099 65.024 17.2733C65.2926 16.8301 65.6183 16.491 66.0011 16.2559C66.3839 16.0142 66.8137 15.8933 67.2905 15.8933C67.4584 15.8933 67.6229 15.9034 67.7841 15.9235C67.952 15.9437 68.0997 15.9739 68.2273 16.0142ZM68.6101 21.6553V21.4437C68.6101 20.6446 68.7243 19.9092 68.9526 19.2376C69.181 18.5594 69.5167 17.9718 69.96 17.4748C70.4032 16.9779 70.9505 16.5917 71.6019 16.3164C72.2533 16.0343 73.0055 15.8933 73.8584 15.8933C74.7179 15.8933 75.4735 16.0343 76.1249 16.3164C76.783 16.5917 77.3337 16.9779 77.7769 17.4748C78.2201 17.9718 78.5559 18.5594 78.7842 19.2376C79.0126 19.9092 79.1267 20.6446 79.1267 21.4437V21.6553C79.1267 22.4477 79.0126 23.1831 78.7842 23.8613C78.5559 24.5329 78.2201 25.1205 77.7769 25.6242C77.3337 26.1211 76.7863 26.5073 76.1349 26.7826C75.4835 27.0579 74.7314 27.1956 73.8785 27.1956C73.0256 27.1956 72.2701 27.0579 71.612 26.7826C70.9539 26.5073 70.4032 26.1211 69.96 25.6242C69.5167 25.1205 69.181 24.5329 68.9526 23.8613C68.7243 23.1831 68.6101 22.4477 68.6101 21.6553ZM72.0049 21.4437V21.6553C72.0049 22.0649 72.0351 22.4477 72.0955 22.8036C72.156 23.1595 72.2567 23.4718 72.3977 23.7404C72.5387 24.0024 72.7301 24.2072 72.9719 24.3549C73.2137 24.5027 73.5159 24.5765 73.8785 24.5765C74.2344 24.5765 74.5299 24.5027 74.765 24.3549C75.0067 24.2072 75.1981 24.0024 75.3391 23.7404C75.4802 23.4718 75.5809 23.1595 75.6413 22.8036C75.7018 22.4477 75.732 22.0649 75.732 21.6553V21.4437C75.732 21.0475 75.7018 20.6748 75.6413 20.3256C75.5809 19.9696 75.4802 19.6574 75.3391 19.3887C75.1981 19.1134 75.0067 18.8985 74.765 18.7441C74.5232 18.5896 74.221 18.5124 73.8584 18.5124C73.5024 18.5124 73.2036 18.5896 72.9618 18.7441C72.7268 18.8985 72.5387 19.1134 72.3977 19.3887C72.2567 19.6574 72.156 19.9696 72.0955 20.3256C72.0351 20.6748 72.0049 21.0475 72.0049 21.4437Z" fill="white"/>
<g filter="url(#filter0_i_1080_34503)">
<path d="M90.0021 16.0928C89.4245 15.7765 88.8331 15.5152 88.2279 15.3089C87.6365 15.1026 87.0795 14.9994 86.5569 14.9994C85.9105 14.9994 85.4016 15.1301 85.0302 15.3914C84.6589 15.6527 84.4732 16.0447 84.4732 16.5673C84.4732 16.9249 84.6108 17.2481 84.8858 17.5369C85.1747 17.812 85.5391 18.0596 85.9792 18.2796C86.4331 18.4997 86.9007 18.6991 87.3821 18.8779C87.8222 19.0429 88.2554 19.2424 88.6818 19.4762C89.1219 19.6962 89.5139 19.9782 89.8577 20.322C90.2016 20.6521 90.4766 21.0716 90.6829 21.5805C90.8892 22.0756 90.9924 22.6876 90.9924 23.4166C90.9924 24.1867 90.793 24.9019 90.3941 25.5621C89.9953 26.2223 89.4107 26.7587 88.6405 27.1713C87.8703 27.5701 86.9213 27.7695 85.7936 27.7695C85.2159 27.7695 84.6245 27.7145 84.0194 27.6045C83.428 27.4807 82.8434 27.3019 82.2658 27.0681C81.6881 26.8205 81.1311 26.5111 80.5947 26.1397L81.9151 23.8085C82.2727 24.0698 82.6578 24.3037 83.0704 24.51C83.4967 24.7025 83.9231 24.8538 84.3494 24.9638C84.7758 25.0738 85.1678 25.1289 85.5254 25.1289C85.883 25.1289 86.2406 25.0807 86.5981 24.9844C86.9695 24.8744 87.2721 24.6956 87.5059 24.4481C87.7534 24.2005 87.8772 23.8567 87.8772 23.4166C87.8772 23.114 87.7741 22.8389 87.5678 22.5913C87.3752 22.3438 87.107 22.1168 86.7632 21.9105C86.4331 21.7042 86.0686 21.5254 85.6698 21.3742C85.2022 21.1954 84.7208 20.9891 84.2257 20.7552C83.7305 20.5214 83.2629 20.2395 82.8228 19.9094C82.3964 19.5656 82.0457 19.1461 81.7707 18.651C81.5093 18.1421 81.3787 17.5232 81.3787 16.7942C81.3787 15.914 81.5712 15.1507 81.9563 14.5043C82.3552 13.8579 82.9122 13.349 83.6274 12.9776C84.3426 12.5925 85.1678 12.3794 86.103 12.3381C87.3271 12.3381 88.3173 12.4825 89.0738 12.7713C89.844 13.0602 90.5316 13.404 91.1368 13.8029L90.0021 16.0928ZM97.8831 27.8521C96.7828 27.8521 95.8475 27.6458 95.0773 27.2331C94.3209 26.8205 93.7432 26.2498 93.3444 25.5208C92.9455 24.7919 92.7461 23.9529 92.7461 23.0039C92.7461 22.0962 92.9799 21.2779 93.4475 20.5489C93.9152 19.82 94.541 19.2424 95.3249 18.816C96.1088 18.3759 96.9822 18.1558 97.9449 18.1558C99.2378 18.1558 100.297 18.5341 101.122 19.2905C101.961 20.0332 102.504 21.1128 102.752 22.5294L95.7375 24.7575L95.098 23.1896L100.173 21.4773L99.5747 21.7455C99.4647 21.3879 99.2653 21.0785 98.9765 20.8171C98.7014 20.5421 98.2819 20.4045 97.718 20.4045C97.2917 20.4045 96.9134 20.5077 96.5833 20.714C96.267 20.9065 96.0195 21.1885 95.8407 21.5598C95.6756 21.9174 95.5931 22.3438 95.5931 22.8389C95.5931 23.4028 95.6962 23.8773 95.9025 24.2624C96.1088 24.6337 96.3908 24.9157 96.7484 25.1082C97.106 25.3008 97.5048 25.3971 97.9449 25.3971C98.2613 25.3971 98.5639 25.342 98.8527 25.232C99.1553 25.122 99.451 24.9776 99.7398 24.7988L101.019 26.9443C100.537 27.2194 100.015 27.4395 99.451 27.6045C98.9008 27.7695 98.3782 27.8521 97.8831 27.8521ZM107.45 18.5891L107.718 21.0647L107.656 20.6934C107.918 20.157 108.275 19.7031 108.729 19.3318C109.183 18.9467 109.63 18.651 110.07 18.4447C110.524 18.2384 110.868 18.1352 111.102 18.1352L110.957 21.0234C110.283 20.9409 109.706 21.0509 109.224 21.3535C108.743 21.6561 108.371 22.055 108.11 22.5501C107.849 23.0452 107.718 23.5541 107.718 24.0767V27.6045H104.851V18.5891H107.45ZM117.438 27.7902L112.033 18.5891H115.458L118.532 24.8194L116.757 24.7575L119.419 18.5891H122.637L117.521 27.7902H117.438Z" fill="#F56842"/>
</g>
<defs>
<filter id="filter0_i_1080_34503" x="80.5947" y="12.3379" width="42.0425" height="16.5457" filterUnits="userSpaceOnUse" color-interpolation-filters="sRGB">
<feFlood flood-opacity="0" result="BackgroundImageFix"/>
<feBlend mode="normal" in="SourceGraphic" in2="BackgroundImageFix" result="shape"/>
<feColorMatrix in="SourceAlpha" type="matrix" values="0 0 0 0 0 0 0 0 0 0 0 0 0 0 0 0 0 0 127 0" result="hardAlpha"/>
<feOffset dy="1.03151"/>
<feGaussianBlur stdDeviation="0.515756"/>
<feComposite in2="hardAlpha" operator="arithmetic" k2="-1" k3="1"/>
<feColorMatrix type="matrix" values="0 0 0 0 0 0 0 0 0 0 0 0 0 0 0 0 0 0 0.25 0"/>
<feBlend mode="normal" in2="shape" result="effect1_innerShadow_1080_34503"/>
</filter>
</defs>
</svg>
