<svg width="24" height="24" viewBox="0 0 24 24" fill="none" xmlns="http://www.w3.org/2000/svg">
<g clipPath="url(#clip0_223_2443)">
<path d="M24 5.28625V4.3975C23.9625 4.1925 23.9237 3.9875 23.8881 3.7825C23.8356 3.4775 23.7006 3.23688 23.3881 3.13875C23.0656 3.03688 22.8169 3.16437 22.5906 3.3925C21.8048 4.18417 21.0144 4.97146 20.2194 5.75437C20.1308 5.83335 20.0184 5.88063 19.9 5.88875C19.5419 5.905 19.1819 5.895 18.8225 5.895H18.0944C18.0944 5.27625 18.0869 4.69187 18.1006 4.10875C18.1077 3.98272 18.1577 3.86292 18.2425 3.76938C19.0419 2.95688 19.8506 2.15625 20.6575 1.35188C20.8637 1.14688 20.9375 0.903125 20.8525 0.625C20.817 0.500024 20.7463 0.387922 20.6487 0.302124C20.5512 0.216326 20.431 0.160471 20.3025 0.14125C20.0525 0.0906251 19.7987 0.046875 19.5469 0H18.6562C18.6145 0.0176709 18.5712 0.0312757 18.5269 0.0406251C17.8112 0.116585 17.1214 0.350484 16.5071 0.725439C15.8929 1.10039 15.3696 1.60705 14.9749 2.20883C14.5803 2.81062 14.3241 3.49252 14.225 4.20531C14.1259 4.9181 14.1863 5.64401 14.4019 6.33063C14.4286 6.39293 14.4343 6.46222 14.4182 6.52806C14.402 6.5939 14.365 6.65271 14.3125 6.69563C11.7754 9.22062 9.24186 11.7494 6.71185 14.2819C6.58685 14.4069 6.48998 14.4237 6.32561 14.3713C3.77435 13.565 1.00497 15.0206 0.238722 17.5756C0.127472 17.9456 0.0768471 18.3337 -0.00190353 18.7137V19.5088C0.0362225 19.73 0.0762215 19.9513 0.113096 20.1731C0.163721 20.4794 0.303722 20.7175 0.613096 20.8162C0.936848 20.9181 1.18435 20.7881 1.40997 20.5606C2.19497 19.769 2.98518 18.9817 3.7806 18.1987C3.86879 18.1192 3.98142 18.072 4.09998 18.065C4.47498 18.0481 4.84998 18.0588 5.22498 18.0588H5.90623C5.90623 18.6775 5.91373 19.2619 5.89998 19.8456C5.8931 19.9715 5.84299 20.0912 5.7581 20.1844C4.95935 20.9969 4.1456 21.7938 3.3456 22.6038C2.91685 23.0381 3.10872 23.6775 3.70123 23.8125C4.27285 23.9425 4.86193 23.9777 5.44498 23.9169C8.47561 23.6125 10.4969 20.6081 9.61498 17.6956C9.54873 17.4762 9.59061 17.3506 9.74936 17.1956C12.2448 14.714 14.735 12.2277 17.22 9.73688C17.3831 9.57313 17.5144 9.53125 17.7437 9.59937C18.9732 9.96488 20.2973 9.82844 21.4264 9.21992C22.5555 8.61141 23.3975 7.58038 23.7681 6.3525C23.8719 6.005 23.9237 5.64188 24 5.28625Z" fill="#FFBB00"/>
<path d="M24 20.07C23.8862 19.6919 23.8162 19.2925 23.6468 18.9412C23.4787 18.5899 23.2543 18.2684 22.9825 17.9894C21.0175 16.0044 19.035 14.0356 17.0581 12.0625C17.0362 12.0412 17.0112 12.0225 17.01 12.0212L12.045 16.9762C12.0643 17.0012 12.0852 17.025 12.1075 17.0475C14.0625 18.9987 16.0183 20.9494 17.975 22.8994C19.1037 24.0187 20.6968 24.2644 22.0956 23.5625C22.1993 23.5106 22.2975 23.4469 22.4162 23.375C22.3481 23.3037 22.2912 23.2425 22.2337 23.1875C20.5216 21.4792 18.8091 19.7708 17.0962 18.0625C16.9168 17.8837 16.7837 17.6875 16.8056 17.4269C16.8091 17.301 16.8486 17.1788 16.9195 17.0748C16.9904 16.9707 17.0897 16.8892 17.2056 16.84C17.3222 16.7828 17.4527 16.76 17.5818 16.7744C17.7109 16.7888 17.8332 16.8398 17.9343 16.9212C18.0072 16.9799 18.0755 17.0441 18.1387 17.1131C19.835 18.8035 21.5304 20.495 23.225 22.1875C23.285 22.2575 23.3405 22.3312 23.3912 22.4081C23.6772 21.9919 23.8692 21.5185 23.9537 21.0206C23.9662 20.9525 23.985 20.8856 24.0012 20.8181L24 20.07Z" fill="#FFBB00"/>
<path d="M8.7738e-05 1.87125C0.656338 3.1775 1.32071 4.48 1.96384 5.79313C2.13884 6.15 2.37884 6.3425 2.77634 6.39188C3.72009 6.50875 4.66134 6.64813 5.60134 6.7925C5.74413 6.81603 5.87678 6.88127 5.98259 6.98C6.93759 7.91187 7.87509 8.85687 8.82134 9.79875C8.88384 9.86125 8.94634 9.91562 8.99259 9.96187L9.98071 8.97563C9.93446 8.92688 9.87696 8.86438 9.81696 8.805C8.87509 7.8625 7.92696 6.9225 6.98946 5.97437C6.89477 5.87569 6.83166 5.751 6.80821 5.61625C6.65738 4.63958 6.51655 3.66042 6.38571 2.67875C6.37255 2.5351 6.32114 2.39759 6.23684 2.28054C6.15253 2.16348 6.03841 2.07114 5.90634 2.01312C4.56134 1.34604 3.21759 0.675 1.87509 0H1.54696C1.41134 0.088125 1.26071 0.159375 1.14321 0.2675C0.885714 0.504375 0.636338 0.751875 0.400713 1.01C0.258259 1.18105 0.124546 1.35919 8.7738e-05 1.54375V1.87125Z" fill="#FFBB00"/>
</g>
<defs>
<clipPath id="clip0_223_2443">
<rect width="24" height="23.9562" fill="white" transform="matrix(-1 0 0 1 24 0)"/>
</clipPath>
</defs>
</svg>
