<svg width="208" height="68" viewBox="0 0 208 68" fill="none" xmlns="http://www.w3.org/2000/svg">
<path fill-rule="evenodd" clip-rule="evenodd" d="M28.7112 23.8075C27.9107 23.5406 27.084 24.1365 27.084 24.9803V46.8768H46.4183C47.9452 43.5307 50.7299 40.8792 54.168 39.5268V33.4861C54.168 33.1592 54.0847 32.8376 53.9259 32.5517L53.1471 31.1499C52.8167 30.5551 51.9775 30.5116 51.5873 31.069C51.0796 31.7944 49.9406 31.4555 49.9121 30.5705L49.8127 27.4891C49.7763 26.3597 48.2237 26.0815 47.7974 27.1279C47.166 28.6775 44.9267 28.5354 44.4963 26.9185L42.944 21.087C42.7682 20.4268 41.8251 20.4449 41.6749 21.1114L40.1944 27.6815C39.86 29.1651 37.742 29.1534 37.424 27.6662L37.2105 26.6675C36.9893 25.6327 35.497 25.6802 35.3419 26.7268C35.1934 27.7292 33.7886 27.8336 33.4935 26.8642L33.034 25.3542C32.8036 24.5974 31.7373 24.5834 31.4871 25.3339C31.2637 26.004 30.3503 26.0889 30.0073 25.4714L29.4009 24.3799C29.2507 24.1095 29.0046 23.9053 28.7112 23.8075ZM36.8063 32.9878H39.5842V35.7657H36.8063V32.9878ZM43.7508 32.9878H40.9729V35.7657H43.7508V32.9878ZM36.8063 37.1548H39.5842V39.9326H36.8063V37.1548ZM43.7508 37.1548H40.9729V39.9326H43.7508V37.1548Z" fill="#F56842"/>
<path fill-rule="evenodd" clip-rule="evenodd" d="M45.8706 48.2661H27.084V54.5163H45.245C45.1758 53.9472 45.1402 53.3677 45.1402 52.78C45.1402 51.2023 45.3968 49.6845 45.8706 48.2661Z" fill="#F56842"/>
<path fill-rule="evenodd" clip-rule="evenodd" d="M21.5283 32.9868V47.9178C26.0423 51.0429 39.2371 53.8207 47.5706 53.1262C47.6265 53.3683 47.6864 53.6307 47.7499 53.9089C48.476 57.0898 49.6739 62.3378 50.6957 62.8487C49.4972 62.876 48.2587 62.9304 46.9795 62.9867C37.3875 63.4086 25.5109 63.9311 11.1113 53.8207V37.8481C13.3105 38.0795 18.4726 36.8758 21.5283 32.9868ZM46.6315 58.6458C46.7344 59.3312 46.9939 60.4071 47.4878 60.6813C42.0346 61.8237 30.2789 62.3002 22.2191 57.5079C30.4968 60.1219 39.4225 61.7706 46.6315 58.6458Z" fill="white"/>
<path fill-rule="evenodd" clip-rule="evenodd" d="M68.8606 42.1605C62.3296 38.0094 53.6701 39.9385 49.5189 46.4695C45.3678 53.0004 47.2969 61.6599 53.8279 65.8111C60.3588 69.9623 69.0183 68.0331 73.1695 61.5022C75.0321 58.5718 75.6706 55.2129 75.2185 52.0249C75.1953 51.8617 75.0051 51.7866 74.874 51.8865C74.5041 52.1686 74.0807 52.4813 73.6111 52.8165C73.0398 62.7859 65.9698 65.5107 62.5018 65.6263C68.1393 63.4787 69.907 57.9152 70.1238 55.1411C67.1242 57.0123 63.4257 59.0058 59.813 60.2439C59.2585 60.4339 58.6943 60.014 58.694 59.4279L58.6889 49.6983C58.6887 49.3812 58.86 49.0888 59.1366 48.9339L65.2838 45.4901L65.279 45.4868C65.6263 45.371 65.0012 44.7923 59.7233 43.4034C60.9609 42.9534 64.189 42.5252 67.4302 44.2876L69.6241 43.0586C69.7604 42.9822 69.7742 42.7915 69.6482 42.6991C69.3937 42.5121 69.1311 42.3325 68.8606 42.1605Z" fill="white"/>
<path fill-rule="evenodd" clip-rule="evenodd" d="M40.9736 0L15.6257 14.5837L19.7925 17.7088L21.5287 23.2645L40.9736 12.5003L59.0297 22.57V38.5427C61.8557 38.2601 64.2025 38.6244 65.9788 39.1876L67.7102 21.1808L68.0532 40.0447C68.6794 40.3753 69.1478 40.7044 69.4466 40.9733V16.6671L40.9736 0ZM66.2865 39.2891C66.3657 39.3121 66.4492 39.3419 66.5353 39.3769C66.4537 39.3473 66.3708 39.318 66.2865 39.2891ZM40.9735 6.94509L20.834 17.7093L22.223 20.4871L40.9735 9.72295L57.9878 19.0982L40.9735 6.94509Z" fill="#FFBB00"/>
<path fill-rule="evenodd" clip-rule="evenodd" d="M22.2228 24.6539C22.2228 30.7905 17.2481 35.7653 11.1114 35.7653C10.8803 35.7653 10.6509 35.7582 10.4233 35.7443C10.2674 35.7348 10.1767 35.5665 10.2508 35.429L14.7379 27.0958C14.8571 26.8744 14.8473 26.6059 14.7123 26.3937L10.57 19.8844C10.3205 19.4923 9.76433 19.4513 9.4741 19.8143C6.37937 23.6851 3.9915 29.0074 2.9753 31.7448C2.91792 31.8993 2.71759 31.9366 2.61134 31.8105C0.981891 29.8772 0 27.3802 0 24.6539C0 18.5172 4.97475 13.5425 11.1114 13.5425C17.2481 13.5425 22.2228 18.5172 22.2228 24.6539ZM12.3774 34.5352C14.9981 34.1995 17.3781 32.8364 18.9938 30.7458C20.6095 28.6553 21.3285 26.0085 20.9927 23.3878C20.6569 20.7671 19.2938 18.3871 17.2033 16.7715C15.1127 15.1558 11.9959 14.5956 9.3752 14.9314C12.3496 15.6891 13.778 16.6774 15.0332 17.546C15.1915 17.6555 15.347 17.7631 15.5025 17.8681C17.5374 19.242 18.8385 21.5896 19.0976 23.6122C19.3568 25.6347 18.4502 28.5962 17.2033 30.2096C16.9717 30.4648 16.7726 30.6952 16.5833 30.9143C15.7103 31.9245 15.0466 32.6925 12.3774 34.5352Z" fill="#FFBB00"/>
<path d="M91.4915 37.0983H85.3309V32.4864H91.4915C92.3311 32.4864 93.0118 32.3446 93.5337 32.0609C94.0556 31.7773 94.4357 31.3859 94.6739 30.8867C94.9235 30.3761 95.0483 29.8032 95.0483 29.1678C95.0483 28.4871 94.9235 27.8574 94.6739 27.2788C94.4357 26.7002 94.0556 26.235 93.5337 25.8833C93.0118 25.5202 92.3311 25.3387 91.4915 25.3387H87.5773V45.5054H81.6039V20.7268H91.4915C93.477 20.7268 95.1845 21.0898 96.614 21.8159C98.0549 22.542 99.1611 23.5404 99.9326 24.8111C100.704 26.0705 101.09 27.5114 101.09 29.1338C101.09 30.7335 100.704 32.129 99.9326 33.3203C99.1611 34.5116 98.0549 35.4419 96.614 36.1113C95.1845 36.7693 93.477 37.0983 91.4915 37.0983ZM109.82 31.6525V45.5054H104.085V27.0916H109.446L109.82 31.6525ZM115.266 26.9554L115.164 32.2822C114.937 32.2595 114.631 32.2311 114.245 32.1971C113.859 32.163 113.536 32.146 113.275 32.146C112.606 32.146 112.027 32.2254 111.539 32.3843C111.063 32.5318 110.665 32.7587 110.348 33.065C110.041 33.36 109.815 33.7344 109.667 34.1882C109.531 34.642 109.468 35.1696 109.48 35.7709L108.442 35.0902C108.442 33.8535 108.561 32.7303 108.799 31.7206C109.049 30.6995 109.4 29.8202 109.854 29.0827C110.308 28.3339 110.858 27.761 111.505 27.3639C112.152 26.9554 112.878 26.7512 113.683 26.7512C113.967 26.7512 114.245 26.7682 114.517 26.8023C114.801 26.8363 115.05 26.8874 115.266 26.9554ZM115.913 36.4857V36.1283C115.913 34.7782 116.106 33.5358 116.491 32.4013C116.877 31.2554 117.444 30.2627 118.193 29.4231C118.942 28.5835 119.867 27.9312 120.967 27.466C122.068 26.9895 123.338 26.7512 124.779 26.7512C126.231 26.7512 127.508 26.9895 128.608 27.466C129.72 27.9312 130.651 28.5835 131.399 29.4231C132.148 30.2627 132.715 31.2554 133.101 32.4013C133.487 33.5358 133.68 34.7782 133.68 36.1283V36.4857C133.68 37.8245 133.487 39.0668 133.101 40.2127C132.715 41.3472 132.148 42.34 131.399 43.1909C130.651 44.0305 129.726 44.6828 128.625 45.148C127.525 45.6132 126.254 45.8457 124.813 45.8457C123.372 45.8457 122.096 45.6132 120.984 45.148C119.872 44.6828 118.942 44.0305 118.193 43.1909C117.444 42.34 116.877 41.3472 116.491 40.2127C116.106 39.0668 115.913 37.8245 115.913 36.4857ZM121.648 36.1283V36.4857C121.648 37.1778 121.699 37.8245 121.801 38.4258C121.903 39.0271 122.073 39.5546 122.312 40.0085C122.55 40.4509 122.873 40.797 123.282 41.0466C123.69 41.2962 124.201 41.421 124.813 41.421C125.415 41.421 125.914 41.2962 126.311 41.0466C126.719 40.797 127.043 40.4509 127.281 40.0085C127.519 39.5546 127.689 39.0271 127.791 38.4258C127.894 37.8245 127.945 37.1778 127.945 36.4857V36.1283C127.945 35.4589 127.894 34.8292 127.791 34.2393C127.689 33.638 127.519 33.1104 127.281 32.6566C127.043 32.1914 126.719 31.8283 126.311 31.5674C125.902 31.3065 125.392 31.176 124.779 31.176C124.178 31.176 123.673 31.3065 123.265 31.5674C122.868 31.8283 122.55 32.1914 122.312 32.6566C122.073 33.1104 121.903 33.638 121.801 34.2393C121.699 34.8292 121.648 35.4589 121.648 36.1283Z" fill="white"/>
<g filter="url(#filter0_i_684_2495)">
<path d="M152.053 26.1563C151.077 25.6219 150.078 25.1804 149.056 24.8318C148.057 24.4833 147.116 24.309 146.233 24.309C145.141 24.309 144.281 24.5298 143.653 24.9713C143.026 25.4127 142.712 26.0749 142.712 26.9579C142.712 27.562 142.945 28.1081 143.41 28.596C143.897 29.0607 144.513 29.479 145.257 29.8507C146.024 30.2225 146.814 30.5594 147.627 30.8615C148.37 31.1403 149.102 31.4772 149.823 31.8722C150.566 32.244 151.228 32.7203 151.809 33.3012C152.39 33.8589 152.855 34.5676 153.203 35.4273C153.552 36.2638 153.726 37.2978 153.726 38.5292C153.726 39.8304 153.389 41.0387 152.715 42.154C152.042 43.2693 151.054 44.1755 149.753 44.8726C148.452 45.5464 146.848 45.8833 144.943 45.8833C143.967 45.8833 142.968 45.7904 141.946 45.6045C140.947 45.3954 139.959 45.0933 138.983 44.6983C138.007 44.2801 137.066 43.7573 136.16 43.1299L138.391 39.1915C138.995 39.6329 139.645 40.0279 140.342 40.3765C141.063 40.7018 141.783 40.9574 142.503 41.1433C143.224 41.3291 143.886 41.4221 144.49 41.4221C145.094 41.4221 145.698 41.3408 146.302 41.1781C146.93 40.9922 147.441 40.6902 147.836 40.2719C148.254 39.8537 148.463 39.2728 148.463 38.5292C148.463 38.0181 148.289 37.5533 147.94 37.1351C147.615 36.7169 147.162 36.3335 146.581 35.9849C146.024 35.6364 145.408 35.3343 144.734 35.0788C143.944 34.7767 143.131 34.4282 142.294 34.0331C141.458 33.6381 140.668 33.1618 139.924 32.6042C139.204 32.0233 138.611 31.3146 138.147 30.4781C137.705 29.6184 137.484 28.5728 137.484 27.3413C137.484 25.8542 137.81 24.5646 138.46 23.4726C139.134 22.3805 140.075 21.5208 141.283 20.8934C142.492 20.2428 143.886 19.8826 145.466 19.8129C147.534 19.8129 149.207 20.0569 150.485 20.5449C151.786 21.0328 152.948 21.6137 153.97 22.2875L152.053 26.1563ZM165.367 46.0227C163.509 46.0227 161.929 45.6742 160.627 44.9771C159.349 44.2801 158.374 43.3158 157.7 42.0843C157.026 40.8528 156.689 39.4354 156.689 37.8322C156.689 36.2986 157.084 34.9161 157.874 33.6846C158.664 32.4531 159.721 31.4772 161.046 30.7569C162.37 30.0134 163.846 29.6416 165.472 29.6416C167.656 29.6416 169.445 30.2806 170.839 31.5586C172.257 32.8133 173.175 34.6373 173.593 37.0305L161.743 40.7947L160.662 38.1459L169.236 35.253L168.225 35.7061C168.04 35.102 167.703 34.5792 167.215 34.1377C166.75 33.673 166.041 33.4406 165.089 33.4406C164.368 33.4406 163.729 33.6149 163.172 33.9634C162.637 34.2887 162.219 34.7651 161.917 35.3924C161.638 35.9966 161.499 36.7169 161.499 37.5533C161.499 38.506 161.673 39.3076 162.022 39.9582C162.37 40.5856 162.846 41.0619 163.451 41.3872C164.055 41.7125 164.728 41.8752 165.472 41.8752C166.006 41.8752 166.518 41.7822 167.006 41.5963C167.517 41.4105 168.016 41.1665 168.504 40.8644L170.665 44.4892C169.852 44.9539 168.969 45.3257 168.016 45.6045C167.087 45.8833 166.204 46.0227 165.367 46.0227ZM181.53 30.3735L181.983 34.556L181.879 33.9286C182.32 33.0224 182.924 32.2556 183.691 31.6283C184.458 30.9777 185.213 30.4781 185.957 30.1296C186.723 29.781 187.304 29.6068 187.699 29.6068L187.455 34.4862C186.317 34.3468 185.341 34.5327 184.528 35.0439C183.714 35.5551 183.087 36.2289 182.645 37.0654C182.204 37.9019 181.983 38.7616 181.983 39.6446V45.6045H177.139V30.3735H181.53ZM198.405 45.9182L189.273 30.3735H195.059L200.252 40.8993L197.255 40.7947L201.751 30.3735H207.188L198.544 45.9182H198.405Z" fill="#F56842"/>
</g>
<defs>
<filter id="filter0_i_684_2495" x="136.16" y="19.813" width="71.0278" height="27.9526" filterUnits="userSpaceOnUse" color-interpolation-filters="sRGB">
<feFlood flood-opacity="0" result="BackgroundImageFix"/>
<feBlend mode="normal" in="SourceGraphic" in2="BackgroundImageFix" result="shape"/>
<feColorMatrix in="SourceAlpha" type="matrix" values="0 0 0 0 0 0 0 0 0 0 0 0 0 0 0 0 0 0 127 0" result="hardAlpha"/>
<feOffset dy="1.74267"/>
<feGaussianBlur stdDeviation="0.871336"/>
<feComposite in2="hardAlpha" operator="arithmetic" k2="-1" k3="1"/>
<feColorMatrix type="matrix" values="0 0 0 0 0 0 0 0 0 0 0 0 0 0 0 0 0 0 0.25 0"/>
<feBlend mode="normal" in2="shape" result="effect1_innerShadow_684_2495"/>
</filter>
</defs>
</svg>
