<svg width="100" height="100" viewBox="0 0 100 100" fill="none" xmlns="http://www.w3.org/2000/svg">
<circle cx="50" cy="50" r="47.5" stroke="#FFBB00" strokeWidth="5"/>
<path d="M8.42652 69C8.42652 78.8891 2.93243 69.556 8.4265 77.7785C13.9206 86.0009 21.7295 92.4096 30.8658 96.194C40.0021 99.9783 50.0554 100.969 59.7545 99.0392C69.4535 97.11 78.3627 92.3479 85.3553 85.3553C92.3479 78.3627 97.11 69.4535 99.0392 59.7545C100.969 50.0554 99.9783 40.0021 96.194 30.8658C92.4096 21.7295 86.0009 13.9206 77.7785 8.4265C69.556 2.93243 59.889 -2.28882e-05 50 -2.28882e-05V50L8.42652 69Z" fill="#FFBB00"/>
<g clipPath="url(#clip0_223_2451)">
<path d="M38.5545 59.456L39.8322 58.1783H49.1802L43.2156 47.4011L38.8047 48.2983C37.6479 48.5332 36.7248 49.4046 36.423 50.5461L31.1865 67.6355C30.9399 68.5656 31.1407 69.558 31.7279 70.319C32.3151 71.0823 33.2229 71.5286 34.1859 71.5286H38.5557L38.5545 59.456Z" fill="black"/>
<path d="M68.8158 67.6355L63.5793 50.546C63.2727 49.3905 62.3321 48.5132 61.1577 48.2901L56.7632 47.4586L50.8232 58.1771H60.8759L62.1536 59.4548V71.5262H65.8188C66.7806 71.5262 67.6896 71.0799 68.2767 70.3166C68.8627 69.5532 69.06 68.5656 68.8158 67.6355Z" fill="black"/>
<path d="M41.111 71.5286H40.7563V71.5332L59.2433 71.5321V71.5286H59.5968V60.7361H41.111V71.5286Z" fill="black"/>
<path d="M63.9949 72.6888H36.0061V75H63.9949V72.6888Z" fill="black"/>
<path d="M40.0365 39.8605C40.0858 39.9615 40.1504 40.1165 40.2185 40.2785C40.4898 40.9315 40.7106 41.4189 41.0171 41.7054C42.4369 46.3383 46.101 49.5455 49.994 49.5338C53.8706 49.5208 57.49 46.2854 58.857 41.6396C59.1576 41.3507 59.3713 40.8657 59.6356 40.2175C59.7025 40.0519 59.7636 39.8957 59.8117 39.7947C60.3367 38.7096 60.1558 37.534 59.4218 36.9621C59.4218 36.9269 59.4218 36.8905 59.4218 36.8553C59.4042 31.1044 58.6538 24.9706 49.9094 25C41.1005 25.0282 40.3841 30.9035 40.4029 36.9175C40.4029 36.9539 40.4041 36.9891 40.4041 37.0244C39.676 37.6045 39.5045 38.7812 40.0365 39.8605ZM41.2661 38.0085L41.2919 37.9979C41.4364 37.9451 41.5514 37.8429 41.6254 37.7161L43.1509 37.9521C43.2977 37.9733 43.4398 37.8946 43.4986 37.7595L44.4627 35.5329C45.5537 35.7948 49.6851 36.7284 52.9229 36.7167C53.9258 36.7143 54.7584 36.6169 55.4031 36.4278L56.015 37.904C56.0655 38.0284 56.1865 38.106 56.3145 38.1048C56.3415 38.1048 56.3732 38.1001 56.4014 38.093L58.1782 37.5939C58.2486 37.7501 58.379 37.8781 58.5458 37.9404L58.5704 37.9486C58.8347 38.0801 58.9216 38.6567 58.6432 39.2298C58.5763 39.3684 58.507 39.5434 58.4295 39.7289C58.3215 39.9979 58.0995 40.5451 57.9644 40.6919C57.8176 40.7765 57.7061 40.9162 57.6615 41.0818C56.5 45.2837 53.3398 48.2255 49.9823 48.2373C46.6071 48.2478 43.4034 45.3272 42.1927 41.1347C42.1445 40.9691 42.0353 40.8317 41.8861 40.7483C41.7499 40.6015 41.5197 40.0507 41.4082 39.7806C41.333 39.5986 41.2602 39.4248 41.1921 39.2885C40.9185 38.7178 41.0007 38.1412 41.2661 38.0085Z" fill="black"/>
</g>
<defs>
<clipPath id="clip0_223_2451">
<rect width="50" height="50" fill="white" transform="translate(25 25)"/>
</clipPath>
</defs>
</svg>
