<svg width="100" height="100" viewBox="0 0 100 100" fill="none" xmlns="http://www.w3.org/2000/svg">
<circle cx="50" cy="50.0009" r="47.5" stroke="#FFBB00" strokeWidth="5"/>
<path d="M52.5 2.56583C57.8834 2.84956 63.1857 4.04805 68.1775 6.11572C73.9404 8.50282 79.1768 12.0016 83.5876 16.4124C87.9984 20.8232 91.4972 26.0596 93.8843 31.8225C96.2714 37.5855 97.5 43.7622 97.5 50C97.5 56.2378 96.2714 62.4145 93.8843 68.1775C91.6179 73.6491 88.3493 78.646 84.2495 82.9123C84.2402 82.8886 84.2305 82.8649 84.2205 82.8411C83.8801 82.0376 83.2665 81.5726 82.7768 81.3216C82.301 81.0777 81.8073 80.9615 81.3929 80.8982C81.3191 80.8869 81.2443 80.8768 81.1684 80.8678L52.5 49.0401L52.5 2.56583Z" fill="#FFBB00" stroke="#FFBB00" strokeWidth="5"/>
<g clipPath="url(#clip0_223_2465)">
<path d="M25 50.5023C25.1551 49.7759 25.245 49.0293 25.4741 48.3276C26.7166 44.5174 29.3176 41.9976 33.0001 40.5406C34.2615 40.0418 35.5793 39.749 36.9349 39.662C37.9527 39.5967 38.5283 40.1607 38.4703 41.1959C38.4311 41.9092 38.3079 42.6167 38.2543 43.33C38.176 44.358 38.2195 45.3815 38.5834 46.3616C39.1329 47.8448 40.6798 48.9104 42.2485 48.9017C43.1445 48.8973 43.7955 48.445 44.1376 47.549C44.5726 46.4124 44.4726 45.2496 44.2638 44.0868C44.2029 43.7519 44.1028 43.4243 44.0391 43.0894C43.8883 42.3021 44.2275 41.7222 44.9524 41.4163C45.3178 41.2626 45.6585 41.0466 45.9949 40.8334C46.4211 40.5638 46.8517 40.2956 47.2432 39.9824C48.1377 39.2633 49.1395 39.2546 50.1457 39.5837C51.1765 39.9215 52.2247 40.2709 53.1686 40.7885C56.1175 42.4065 59.0404 44.0738 61.9313 45.7918C63.0143 46.4356 64.0321 47.2141 64.9933 48.0347C66.0097 48.9017 66.7795 49.9746 66.9419 51.3664C66.9752 51.6535 66.9593 51.9507 66.9346 52.2392C66.8926 52.7176 66.8259 53.1946 66.7665 53.6716C66.6534 54.5749 65.2383 55.2229 64.3395 54.743C63.9625 54.5415 63.6001 54.2501 63.3304 53.9195C60.8657 50.9068 57.6993 48.7828 54.385 46.8531C53.9587 46.6052 53.4556 46.4747 52.9743 46.3355C52.7641 46.2746 52.5205 46.3254 52.2914 46.3254C52.2842 46.366 52.2784 46.408 52.2711 46.4486C52.4451 46.5588 52.6206 46.669 52.7945 46.7821C55.6362 48.6132 58.5054 50.4066 61.3137 52.2885C63.5334 53.7774 64.1046 56.0537 64.006 58.5691C63.9669 59.5796 63.7305 60.5336 62.9795 61.2846C62.1401 62.1226 61.1093 62.0516 60.5612 61.0034C60.2162 60.3437 59.9827 59.5796 59.8943 58.8388C59.7102 57.302 58.949 56.1682 57.7442 55.278C56.0305 54.0123 54.3139 52.7495 52.5945 51.4911C51.7724 50.888 51.0098 51.1475 50.6169 52.1884C50.7546 52.2798 50.9025 52.3769 51.0475 52.4755C53.1483 53.8963 55.2679 55.2925 57.347 56.7452C59.3013 58.111 59.8972 60.0682 59.5927 62.3517C59.4898 63.1259 59.1853 63.8334 58.5677 64.3452C57.9863 64.828 57.3049 64.957 56.6003 64.6598C55.7681 64.3075 55.3941 63.6029 55.2955 62.7446C55.2331 62.1966 55.2389 61.6398 55.1824 61.0903C55.0852 60.1393 54.6749 59.2926 53.9225 58.746C52.664 57.8326 51.3244 57.0337 50.0094 56.2001C49.8253 56.0827 49.589 56.0479 49.3324 56.045C49.4759 56.1494 49.6194 56.2537 49.7615 56.3596C50.817 57.1454 51.9116 57.8848 52.9192 58.7286C54.3502 59.9276 54.8025 61.5688 54.7373 63.3709C54.7155 63.9842 54.5894 64.5946 54.4836 65.202C54.443 65.4384 54.3444 65.6703 54.2386 65.8878C53.8645 66.6562 53.1381 67.0796 52.3509 67.0085C51.6347 66.9433 50.9852 66.3996 50.7822 65.6051C50.6633 65.1383 50.6241 64.6439 50.601 64.1596C50.5517 63.1375 50.6038 62.1067 50.4908 61.0933C50.369 60.0073 49.6586 59.5332 48.5669 59.6492C48.4045 59.6666 48.2435 59.684 48.0826 59.7043C47.3374 59.7986 46.872 59.4187 46.7212 58.6633C46.5951 58.0341 46.498 57.373 46.2196 56.8076C45.6658 55.6796 44.3102 55.2853 43.1315 55.3621C43.0097 55.3708 42.8864 55.4969 42.7821 55.5897C42.0586 56.2363 41.2815 56.1276 40.7886 55.3041C40.7306 55.207 40.6784 55.104 40.6189 55.0083C40.01 54.0181 39.1401 53.6905 38.0774 54.1385C37.2974 54.4676 36.5957 54.9228 36.1883 55.7362C35.8751 56.361 35.0168 56.4582 34.4557 56.0363C34.2049 55.8478 33.8671 55.7057 33.5554 55.6753C32.629 55.5854 31.7417 55.8086 30.908 56.2001C30.6877 56.303 30.4847 56.5336 30.3687 56.7539C30.0947 57.2817 29.6641 57.4716 29.0914 57.3426C26.5702 56.7728 25.5002 54.9924 25.0986 52.6335C25.0768 52.5074 25.0362 52.3842 25.0043 52.2595C25 51.6752 25 51.088 25 50.5023Z" fill="black"/>
<path d="M38.9706 44.1694C38.9938 42.3528 39.204 40.5318 39.8941 38.8674C40.2986 37.8917 40.5335 36.7724 41.4194 35.9997C42.3545 35.1834 43.394 34.5716 44.5292 34.1135C45.9703 33.5335 47.4709 33.1841 49.0164 33.0304C50.6953 32.8637 52.2365 33.3596 53.7124 34.0787C54.6461 34.5339 55.5624 35.0327 56.4496 35.5749C59.0579 37.1668 61.6458 38.7935 64.2482 40.3955C64.4918 40.5449 64.7803 40.6304 65.0558 40.7189C69.0384 41.9816 72.1005 44.371 74.0026 48.1289C74.9059 49.9151 75.206 51.8274 74.8537 53.818C74.3709 56.5466 72.1512 58.7633 69.2951 59.3853C68.3367 59.5941 67.3842 59.7695 66.4027 59.5187C65.1109 59.1896 64.4701 58.2617 64.6658 56.9453C64.776 56.2015 65.4588 56.0304 65.9663 55.6984C66.22 55.5317 66.536 55.4635 66.8101 55.3244C68.4063 54.5067 68.9181 53.1728 68.3106 51.491C67.8771 50.2935 67.1508 49.2815 66.3519 48.3101C64.2395 45.7468 61.5226 43.9955 58.6186 42.4717C55.2158 40.6855 51.5753 39.6416 47.8435 38.8544C47.7275 38.8297 47.5666 38.8196 47.4796 38.879C46.4154 39.6199 45.3469 40.3578 44.3132 41.1408C44.0406 41.3466 43.8652 41.6946 43.6738 41.9947C43.4114 42.405 43.3534 42.824 43.4926 43.3271C43.8014 44.4463 43.9217 45.5932 43.6376 46.7472C43.4491 47.5127 43.0431 48.0999 42.2284 48.2565C41.3367 48.4276 40.5031 48.2811 39.8593 47.5751C39.2113 46.8632 39.0547 45.9629 38.9706 45.048C38.9489 44.7581 38.9706 44.4623 38.9706 44.1694Z" fill="black"/>
<path d="M46.0934 58.4357C46.0586 60.4742 45.4526 62.1473 44.142 63.5377C43.5823 64.1306 42.9096 64.4771 42.0861 64.1596C41.2757 63.8479 40.8451 63.1737 40.8378 62.3444C40.8306 61.5775 40.8799 60.7627 41.1379 60.0523C41.5279 58.9809 42.0455 57.937 42.6487 56.9685C43.1445 56.1711 43.8013 56.0812 44.6987 56.4147C44.8045 56.4538 44.9162 56.477 45.0264 56.506C45.673 56.6713 45.9267 56.9497 46.0108 57.6079C46.0514 57.9297 46.0746 58.2531 46.0934 58.4357Z" fill="black"/>
<path d="M35.6592 59.4795C35.752 58.2558 35.9767 56.909 36.9075 55.8129C37.818 54.7415 39.3258 54.4776 40.5755 55.9013C40.7379 56.0869 40.8264 56.4146 40.8075 56.6668C40.6799 58.3414 40.2986 59.9449 39.2881 61.3338C38.4834 62.44 37.1453 62.6111 36.3116 61.7282C35.8854 61.2729 35.6577 60.5422 35.6592 59.4795Z" fill="black"/>
<path d="M45.6875 63.8566C45.7223 62.9867 45.9934 62.0646 46.6589 61.2933C47.32 60.5264 48.145 60.3045 48.9699 60.6409C49.8964 61.0179 50.4545 61.8385 50.3733 62.8171C50.2719 64.0523 49.6861 65.0542 48.6843 65.766C48.071 66.2024 47.3505 66.2996 46.6516 65.9298C45.8789 65.521 45.6861 64.7975 45.6875 63.8566Z" fill="black"/>
<path d="M30.7673 58.6299C30.8456 57.6774 31.1022 56.7915 32.049 56.2928C32.9189 55.8346 33.7192 56.2203 34.4339 56.6451C35.0632 57.0177 35.14 57.7368 35.0907 58.424C35.0298 59.2794 34.6572 59.9782 33.941 60.4683C33.2741 60.9235 32.5564 61.0322 31.8272 60.6524C31.0312 60.2363 30.7876 59.4998 30.7673 58.6299Z" fill="black"/>
</g>
<defs>
<clipPath id="clip0_223_2465">
<rect width="50" height="34.0143" fill="white" transform="translate(25 33)"/>
</clipPath>
</defs>
</svg>
