<svg width="59" height="60" viewBox="0 0 59 60" fill="none" xmlns="http://www.w3.org/2000/svg">
<path d="M30.6872 0.000976563C31.6683 0.189938 32.6635 0.323786 33.6272 0.577309C40.6329 2.42126 45.5994 8.15309 46.4136 15.4376C46.9584 20.3159 45.5522 24.6479 42.4422 28.435C42.395 28.4932 42.3304 28.5389 42.2123 28.6475C41.7368 24.9423 39.9117 22.1914 36.6883 20.3978C40.7573 15.4029 38.8803 9.16403 35.3294 6.4052C31.5486 3.46527 26.2167 3.64951 22.7052 6.85398C19.2204 10.0348 18.2111 15.8611 21.8801 20.3852C18.6614 22.1803 16.8064 24.9108 16.2096 28.6759C16.1183 28.531 16.0396 28.3767 15.9341 28.2428C11.8856 23.0511 10.8258 17.291 13.1563 11.1513C15.4884 5.01003 20.1054 1.40559 26.5821 0.218282C27.0041 0.141123 27.4292 0.0734118 27.8528 0.000976562C28.7976 0.000976563 29.7424 0.000976563 30.6872 0.000976563Z" fill="white"/>
<path d="M21.4693 59.2531C21.7574 57.5839 22.0645 55.8628 22.3511 54.137C22.8487 51.1325 23.0833 51.9812 21.011 49.9294C19.808 48.739 18.5671 47.5879 17.3688 46.3943C17.1735 46.2006 16.9956 45.8526 17.0318 45.6101C17.057 45.4463 17.4617 45.2652 17.7184 45.2258C19.8552 44.8936 21.9936 44.5692 24.1383 44.2952C24.9178 44.196 25.4107 43.8779 25.7555 43.1473C26.661 41.2293 27.6263 39.3381 28.5994 37.4517C28.7443 37.1714 29.0576 36.9777 29.2938 36.7446C29.5143 36.9714 29.8056 37.1603 29.9426 37.4296C30.9173 39.3365 31.8873 41.2466 32.8022 43.1835C33.1392 43.8952 33.6289 44.1944 34.3848 44.2905C36.5484 44.5676 38.7073 44.8873 40.8646 45.2211C41.115 45.2605 41.4771 45.451 41.5307 45.6416C41.5874 45.8447 41.3968 46.1943 41.211 46.3754C39.6253 47.9343 38.0302 49.4822 36.4098 51.0049C35.939 51.4474 35.8051 51.923 35.9169 52.5371C36.3027 54.6645 36.6696 56.795 37.0428 58.924C37.057 59.0011 37.0854 59.0846 37.0696 59.157C37.0161 59.4105 37.0224 59.7664 36.8617 59.8798C36.7011 59.9948 36.3311 59.9396 36.1154 59.8326C34.969 59.2688 33.8431 58.6657 32.7109 58.0752C31.8574 57.6296 30.9913 57.2044 30.1536 56.732C29.5663 56.3998 29.0435 56.3935 28.4356 56.7194C26.4452 57.7886 24.4328 58.8185 22.4251 59.8546C21.8031 60.1774 21.4315 59.9538 21.4693 59.2531ZM23.4376 48.739C24.7934 48.5421 26.1996 48.3736 27.5869 48.1059C27.9081 48.0445 28.2593 47.6918 28.4309 47.3816C29.0466 46.2651 29.5962 45.1109 30.1583 43.9661C30.5032 43.2654 30.3284 42.6355 29.7363 42.3536C29.1379 42.0686 28.5742 42.3143 28.2105 43.0339C27.7759 43.8921 27.3286 44.7456 26.9303 45.6211C26.7586 45.999 26.5145 46.1329 26.1272 46.1801C25.1146 46.3077 24.1006 46.4431 23.0991 46.632C22.4834 46.7486 22.1857 47.2698 22.2897 47.8697C22.3794 48.3831 22.8455 48.75 23.4376 48.739Z" fill="white"/>
<path d="M29.2481 34.5542C25.4121 34.5086 21.9478 33.359 18.8804 31.0458C18.7103 30.9183 18.5103 30.701 18.4962 30.5136C18.2269 26.8178 19.9622 23.9188 22.8234 22.3631C23.3666 22.067 23.7698 22.045 24.3618 22.3804C27.7238 24.2842 31.1015 24.2322 34.424 22.2418C34.75 22.0465 34.9941 22.0166 35.3342 22.1772C38.2284 23.5409 40.3322 26.4525 40.0441 30.5026C40.0299 30.7057 39.811 30.9403 39.6268 31.0789C36.5546 33.3842 33.0855 34.5227 29.2481 34.5542Z" fill="white"/>
<path d="M29.2953 6.48855C33.4603 6.49642 36.8333 9.8804 36.8285 14.0486C36.8238 18.201 33.4241 21.6007 29.2748 21.6039C25.1019 21.607 21.699 18.1837 21.7132 13.9982C21.7274 9.83789 25.1176 6.4791 29.2953 6.48855Z" fill="white"/>
<path d="M43.2264 50.6395C43.4312 49.438 43.6406 48.2381 43.839 47.0351C44.2579 44.4873 44.5035 45.1171 42.6706 43.3251C41.8691 42.5409 41.0424 41.7804 40.2582 40.9789C40.0755 40.7931 39.8629 40.4088 39.9417 40.2514C40.0487 40.0341 40.403 39.8624 40.677 39.8183C42.2486 39.5601 43.8248 39.3349 45.4026 39.1239C45.927 39.053 46.2577 38.7916 46.4845 38.3318C47.1883 36.9036 47.8922 35.4754 48.6276 34.0629C48.7457 33.8377 49.0307 33.5542 49.2338 33.5574C49.4417 33.5621 49.7141 33.8487 49.8338 34.077C50.5518 35.4533 51.2479 36.8422 51.9218 38.2405C52.1753 38.7664 52.5281 39.0625 53.1233 39.1396C54.6838 39.3396 56.2396 39.568 57.7922 39.8168C58.0536 39.8593 58.4536 40.0262 58.4945 40.2041C58.5481 40.434 58.3717 40.7994 58.1796 40.9915C57.0836 42.0937 55.9656 43.174 54.8318 44.2385C54.383 44.6605 54.2445 45.1156 54.3594 45.7202C54.6539 47.265 54.9169 48.816 55.1609 50.3687C55.1971 50.6033 55.1294 50.9702 54.972 51.0836C54.8129 51.197 54.446 51.145 54.2319 51.0379C52.8792 50.3608 51.5266 49.6774 50.2086 48.9342C49.511 48.5405 48.9205 48.5562 48.226 48.9483C46.8923 49.7026 45.5192 50.3876 44.1555 51.0883C43.6453 51.3513 43.239 51.1387 43.2264 50.6395Z" fill="white"/>
<path d="M3.29264 50.534C3.57451 48.9074 3.83591 47.2776 4.14455 45.6556C4.25792 45.062 4.08628 44.6337 3.66427 44.2353C2.5368 43.1661 1.41405 42.0906 0.318074 40.9883C0.127538 40.7962 -0.0441018 40.4324 0.00943733 40.2025C0.050379 40.0262 0.448773 39.8608 0.70702 39.8183C2.27855 39.5648 3.8548 39.3349 5.43263 39.127C5.9822 39.0546 6.31445 38.7743 6.54908 38.294C7.23879 36.8815 7.9348 35.4722 8.65915 34.077C8.77883 33.8471 9.05282 33.5574 9.26068 33.5542C9.46696 33.5511 9.75513 33.8329 9.87323 34.0597C10.6007 35.4533 11.2999 36.8611 11.9864 38.2751C12.2321 38.779 12.5785 39.0593 13.1501 39.1333C14.7091 39.3349 16.2664 39.5616 17.8175 39.8167C18.0931 39.8624 18.4867 40.0388 18.5544 40.245C18.6206 40.445 18.3954 40.8166 18.1986 41.0135C17.1278 42.0858 16.0428 43.144 14.9295 44.1691C14.4351 44.6242 14.3012 45.1187 14.4209 45.7548C14.6917 47.2035 14.9358 48.657 15.1893 50.1104C15.2098 50.2269 15.224 50.3435 15.2334 50.4616C15.2917 51.1324 14.939 51.3906 14.3374 51.0836C13.0257 50.4127 11.7014 49.7577 10.4275 49.0207C9.62285 48.5546 8.94102 48.5373 8.12691 49.0176C6.85929 49.764 5.52711 50.4064 4.21541 51.0773C3.64537 51.3701 3.258 51.1308 3.29264 50.534Z" fill="white"/>
</svg>
