<svg width="505" height="441" viewBox="0 0 505 441" fill="none" xmlns="http://www.w3.org/2000/svg">
<path d="M504.283 351.681C504.262 351.264 504.239 350.848 504.214 350.429C488.042 200.014 355.418 217.805 261.61 96.5025C167.802 -24.8002 82.0819 30.1905 82.0819 30.1905C-18.1945 102.972 51.3525 187.076 49.7352 227.509C48.1175 267.944 -3.63828 318.082 19.0049 403.802C19.0445 403.952 19.0836 404.101 19.1232 404.25C24.7133 425.234 43.3888 439.96 64.9152 440.945H256.737V441.001H419.403C468.046 441.001 506.869 400.253 504.283 351.681Z" fill="#FFEEE7"/>
<path d="M373.964 410.08C380.788 405.8 381.338 416.149 376.974 422.453C372.607 428.755 366.767 424.497 366.767 424.497C362.315 420.555 367.142 414.36 373.964 410.08ZM390.887 404.217C389.974 410.337 383.88 405.046 383.88 405.046C384.439 398.36 391.803 398.097 390.887 404.217ZM354.779 421.42C348.212 423.229 328.971 412.196 324.268 412.065C319.398 414.736 318.866 427.391 317.938 431.438C317.011 435.484 359.735 428.708 356.7 433.691C353.666 438.676 325.826 434.191 323.268 435.025C321.952 435.454 321.784 438.025 322.691 440.722H371.966C375.476 437.684 377.97 434.558 379.494 432.362C377.698 435.361 376.303 438.142 375.239 440.722H385.622C386.315 439.139 387.254 438.014 387.998 437.548C388.63 437.15 389.7 438.558 391.247 440.722H437.55C440.55 437.719 442.339 435.198 442.207 434.348C441.82 431.893 417.486 434.837 413.054 431.456C408.623 428.076 408.791 425.273 414.459 423.258C420.126 421.245 440.228 430.582 446.514 425.869C452.799 421.157 458.175 410.084 457.546 406.628C456.919 403.172 443.796 412.942 431.526 414.864C419.254 416.786 410.814 414.38 412.743 410.089C414.672 405.8 442.784 407.032 451.074 401.832C459.363 396.633 460.514 381.278 459.127 379.069C457.74 376.858 427.036 397.273 420.188 396.178C413.34 395.084 417.274 390.305 425.087 389.254C432.899 388.204 452.766 379.977 454.555 374.236C456.343 368.493 453.523 356.017 451.068 356.401C448.614 356.785 443.444 366.958 437.956 372.326C432.467 377.694 425.592 380.853 424.335 373.94C423.08 367.026 444.231 361.46 447.406 357.928C450.582 354.396 446.72 340.261 444.884 337.948C443.047 335.634 414.72 329.145 409.747 332.265C404.192 339.984 403.192 362.944 405.619 366.812C408.046 370.681 406.642 378.877 400.72 373.736C395.108 367.245 402.356 337.67 402.215 336.218C402.075 334.766 396.474 334.43 390.843 338.348C385.214 342.262 386.875 363.938 389.583 370.71C392.291 377.484 395.084 394.213 383.935 385.034C372.787 375.856 379.379 347.078 375.642 344.802C371.903 342.526 363.895 350.63 360.823 353.712C357.751 356.794 358.248 364.953 361.855 371.932C365.463 378.91 382.222 394.581 374.1 396.978C365.98 399.377 355.063 362.33 352.019 361.16C348.974 359.989 341.687 364.946 338.727 373.733C335.872 382.07 366.364 401.832 362.224 407.509C349.954 409.43 340.368 383.1 335.422 381.968C330.476 380.834 325.962 390.212 323.62 396.301C321.279 402.389 324.362 405.462 332.98 411.221C341.599 416.981 359.508 417.298 354.779 421.42Z" fill="#E8CCAB"/>
<path d="M159.539 440.945H104.004C104.09 440.091 104.106 439.227 103.995 438.345C103.475 437.941 102.859 437.753 102.159 437.753C100.368 437.753 98.0285 438.98 95.3418 440.945H60.5725C60.8192 440.848 61.0658 440.749 61.3138 440.651C75.7418 434.888 91.4885 427.752 89.7978 421.321C89.2058 419.068 87.8552 418.141 85.9898 418.141C78.3885 418.141 62.2618 433.551 54.3178 437.358C53.4378 437.78 52.5445 438.167 51.6472 438.517C48.3762 439.796 45.0305 440.606 41.9018 440.945H35.6986C32.7586 440.567 30.3336 439.608 28.8425 438.029C24.6696 433.609 13.6961 422.089 17.0316 416.968C17.7477 415.867 20.1513 415.484 23.6169 415.411C24.0685 415.401 24.5377 415.396 25.0242 415.396C27.3674 415.396 30.0972 415.497 33.0581 415.598C36.0196 415.7 39.2101 415.801 42.4784 415.801C54.2778 415.8 67.0685 414.483 73.5418 407.089C81.2005 398.34 76.6405 395.697 69.5712 395.697C64.3805 395.697 57.8365 397.123 53.7858 398.601C49.369 400.215 40.5305 401.381 31.7773 401.381C26.9325 401.381 22.1149 401.024 18.0882 400.187C13.6305 399.26 10.1414 397.744 8.66224 395.473C3.43304 387.451 4.14037 379.645 6.1721 379.511C6.1841 379.509 6.19771 379.509 6.21224 379.509C6.85344 379.509 10.0414 380.257 14.5742 381.237C16.6018 381.675 18.8982 382.159 21.357 382.644C29.3138 384.211 38.9644 385.779 46.6742 385.779C51.8512 385.779 56.1552 385.071 58.4778 383.183C63.7538 377.467 59.5418 374.648 54.6858 374.648C52.7058 374.648 50.6152 375.117 49.021 376.052C47.4393 376.979 43.668 377.444 38.845 377.444C31.5945 377.444 21.9669 376.392 13.8388 374.281C8.5669 372.911 3.92623 371.096 0.971567 368.831C-3.17323 361.756 7.08103 322.489 10.3882 320.024C11.6278 319.1 15.1972 317.848 19.43 316.887C23.0914 316.055 27.2486 315.439 30.8205 315.439C34.1325 315.439 36.9425 315.968 38.3852 317.347C43.0669 321.819 49.7285 350.281 59.0698 350.279C59.2978 350.279 59.5285 350.261 59.7605 350.227C69.4632 348.765 65.3458 339.035 58.0845 331.147C50.8218 323.257 36.8398 315.612 36.4076 312.171C36.0852 309.607 45.7325 307.06 53.9578 307.06C56.7752 307.06 59.4258 307.359 61.4512 308.057C69.3898 310.796 80.0352 338.876 81.1712 349.825C81.9045 356.901 84.8805 361.783 87.3845 361.783C88.7552 361.783 89.9845 360.32 90.6272 356.956C92.4458 347.443 65.2458 303.721 68.3898 301.879C69.0152 301.513 70.3578 301.309 72.1645 301.309C79.4565 301.309 94.2885 304.633 99.8258 314.084C106.734 325.873 103.823 365.063 109.731 367.936C110.334 368.229 110.914 368.371 111.467 368.371C116.335 368.371 119.134 357.376 117.19 341.92C115.027 324.711 101.942 305.98 106.792 305.249C107 305.217 107.226 305.203 107.471 305.203C112.803 305.203 126.487 312.521 132.751 320.865V341.548C130.308 351.429 126.778 361.716 128.188 366.097C129.418 369.919 130.95 371.995 132.751 372.461V411.889C132.751 427.153 144.561 439.707 159.523 440.904C159.529 440.917 159.534 440.932 159.539 440.945ZM113.002 414.109C108.066 414.109 104.878 416.601 108.079 422.065C112.297 429.265 118.034 434.976 123.038 434.976C124.779 434.976 126.432 434.284 127.902 432.722C127.902 432.722 134.094 424.749 125.479 418.389C121.715 415.61 116.832 414.109 113.002 414.109ZM98.9698 398.04C92.1605 398.04 92.8058 407.023 101.474 408.011C101.474 408.011 109.117 399.732 100.613 398.195C100.023 398.089 99.4765 398.04 98.9698 398.04Z" fill="url(#paint0_linear_223_5958)"/>
<path d="M333.303 -0.000244141H161.863C145.81 -0.000244141 132.751 13.0598 132.751 29.1131V411.889C132.751 427.357 144.878 440.041 160.123 440.945H256.737V441.001H333.303C349.355 441.001 362.417 427.941 362.417 411.889V29.1131C362.417 13.0598 349.355 -0.000244141 333.303 -0.000244141Z" fill="#030303"/>
<path d="M333.305 434.532H161.863C149.358 434.532 139.219 424.394 139.219 411.889V407.847H225.522C228.202 407.847 230.375 405.673 230.375 402.993V382.776C230.375 380.096 228.202 377.924 225.522 377.924H139.219V235.979C145.094 237.487 151.249 238.292 157.593 238.292C190.838 238.292 218.953 216.328 228.218 186.119V305.683C228.218 314.02 234.977 320.777 243.314 320.777H323.103C331.441 320.777 338.199 314.02 338.199 305.683V250.152H355.947V411.889C355.947 424.394 345.81 434.532 333.305 434.532ZM228.218 142.745C221.827 121.907 206.466 104.992 186.639 96.5026H211.371C213.827 96.5026 215.818 94.5106 215.818 92.0546V84.7772C215.818 82.3199 213.827 80.3292 211.371 80.3292H156.379C153.923 80.3292 151.931 82.3199 151.931 84.7772V90.7879C147.578 91.1199 143.33 91.8306 139.219 92.8853V29.1133C139.219 16.6066 149.358 6.46924 161.863 6.46924H189.747L194.822 15.4466C197.489 20.1653 202.49 23.0826 207.91 23.0826H229.207H265.959H287.257C292.677 23.0826 297.678 20.1653 300.345 15.4466L305.419 6.46924H333.305C345.81 6.46924 355.947 16.6066 355.947 29.1133V97.5812H338.199V69.5466C338.199 61.2092 331.441 54.4506 323.103 54.4506H243.314C234.977 54.4506 228.218 61.2092 228.218 69.5466V142.745ZM156.379 56.0679C153.923 56.0679 151.931 58.0599 151.931 60.5159V67.7946C151.931 70.2505 153.923 72.2426 156.379 72.2426H211.371C213.827 72.2426 215.818 70.2505 215.818 67.7946V60.5159C215.818 58.0599 213.827 56.0679 211.371 56.0679H156.379Z" fill="url(#paint1_linear_223_5958)"/>
<path d="M274.583 14.5557H221.208C220.018 14.5557 219.052 13.5903 219.052 12.3997C219.052 11.2077 220.018 10.2424 221.208 10.2424H274.583C275.772 10.2424 276.739 11.2077 276.739 12.3997C276.739 13.5903 275.772 14.5557 274.583 14.5557Z" fill="#EBE9F6"/>
<path d="M197.758 268.752H115.811C111.642 268.752 108.263 265.373 108.263 261.204V253.656C108.263 249.488 111.642 246.109 115.811 246.109H197.758C201.926 246.109 205.306 249.488 205.306 253.656V261.204C205.306 265.373 201.926 268.752 197.758 268.752Z" fill="white"/>
<path d="M196.814 359.324H116.754C112.065 359.324 108.263 355.524 108.263 350.833V287.756C108.263 283.066 112.065 279.265 116.754 279.265H196.814C201.503 279.265 205.306 283.066 205.306 287.756V350.833C205.306 355.524 201.503 359.324 196.814 359.324Z" fill="white"/>
<path d="M171.138 260.261H120.191C118.963 260.261 117.967 259.265 117.967 258.037C117.967 256.808 118.963 255.813 120.191 255.813H171.138C172.367 255.813 173.362 256.808 173.362 258.037C173.362 259.265 172.367 260.261 171.138 260.261Z" fill="#E8CCAB"/>
<path d="M171.138 300.694H120.191C118.963 300.694 117.967 299.698 117.967 298.472C117.967 297.244 118.963 296.248 120.191 296.248H171.138C172.367 296.248 173.362 297.244 173.362 298.472C173.362 299.698 172.367 300.694 171.138 300.694Z" fill="#E8CCAB"/>
<path d="M171.138 322.933H120.191C118.963 322.933 117.967 321.938 117.967 320.709C117.967 319.481 118.963 318.486 120.191 318.486H171.138C172.367 318.486 173.362 319.481 173.362 320.709C173.362 321.938 172.367 322.933 171.138 322.933Z" fill="#E8CCAB"/>
<path d="M171.138 345.173H120.191C118.963 345.173 117.967 344.177 117.967 342.949C117.967 341.721 118.963 340.725 120.191 340.725H171.138C172.367 340.725 173.362 341.721 173.362 342.949C173.362 344.177 172.367 345.173 171.138 345.173Z" fill="#E8CCAB"/>
<path d="M192.366 311.612H120.191C118.963 311.612 117.967 310.617 117.967 309.388C117.967 308.16 118.963 307.165 120.191 307.165H192.366C193.595 307.165 194.59 308.16 194.59 309.388C194.59 310.617 193.595 311.612 192.366 311.612Z" fill="#E8CCAB"/>
<path d="M194.59 260.261H181.247C180.018 260.261 179.023 259.265 179.023 258.037C179.023 256.808 180.018 255.813 181.247 255.813H194.59C195.819 255.813 196.814 256.808 196.814 258.037C196.814 259.265 195.819 260.261 194.59 260.261Z" fill="#E8CCAB"/>
<path d="M188.546 345.609L183.266 348.387C182.769 348.647 182.187 348.225 182.283 347.672L183.291 341.792C183.329 341.572 183.257 341.348 183.097 341.192L178.823 337.028C178.422 336.636 178.645 335.952 179.199 335.871L185.103 335.015C185.325 334.981 185.515 334.843 185.614 334.643L188.254 329.293C188.503 328.789 189.221 328.789 189.47 329.293L192.11 334.643C192.209 334.843 192.399 334.981 192.621 335.015L198.525 335.871C199.081 335.952 199.302 336.636 198.901 337.028L194.627 341.192C194.467 341.348 194.395 341.572 194.433 341.792L195.442 347.672C195.537 348.225 194.955 348.647 194.459 348.387L189.178 345.609C188.981 345.507 188.745 345.507 188.546 345.609Z" fill="url(#paint2_linear_223_5958)"/>
<path d="M323.103 320.777H243.314C234.976 320.777 228.218 314.02 228.218 305.683V186.119C230.32 179.261 231.452 171.979 231.452 164.432C231.452 156.885 230.32 149.603 228.218 142.745V69.5467C228.218 61.2093 234.976 54.4507 243.314 54.4507H323.103C331.44 54.4507 338.199 61.2093 338.199 69.5467V97.5813H271.886C266.23 97.5813 261.644 102.167 261.644 107.824V239.909C261.644 245.567 266.23 250.152 271.886 250.152H338.199V305.683C338.199 314.02 331.44 320.777 323.103 320.777ZM257.466 274.96C254.64 274.96 252.351 277.249 252.351 280.075C252.351 282.899 254.64 285.188 257.466 285.189H275.256V284.523V283.856H257.466C255.376 283.852 253.688 282.161 253.684 280.075C253.688 277.985 255.376 276.297 257.466 276.293H275.256C277.344 276.297 279.034 277.985 279.038 280.075C279.034 282.161 277.344 283.852 275.256 283.856V284.523V285.189C278.082 285.188 280.37 282.899 280.371 280.075C280.37 277.249 278.082 274.96 275.256 274.96H257.466ZM257.466 260.807C254.64 260.808 252.351 263.096 252.351 265.921C252.351 268.747 254.64 271.036 257.466 271.036H316.499V270.369V269.703H257.466C255.376 269.699 253.688 268.011 253.684 265.921C253.688 263.833 255.376 262.144 257.466 262.141H316.499C318.587 262.144 320.276 263.833 320.28 265.921C320.276 268.011 318.587 269.699 316.499 269.703V270.369V271.036C319.323 271.036 321.614 268.748 321.614 265.921C321.614 263.096 319.323 260.808 316.499 260.807H257.466Z" fill="url(#paint3_linear_223_5958)"/>
<path d="M407.947 323.473C407.947 352.356 384.535 375.768 355.654 375.768C326.771 375.768 303.358 352.356 303.358 323.473C303.358 294.59 326.771 271.178 355.654 271.178C384.535 271.178 407.947 294.59 407.947 323.473Z" fill="#955033"/>
<path d="M355.923 258.247V323.743H290.427C290.573 359.645 319.715 388.707 355.654 388.707C391.681 388.707 420.886 359.501 420.886 323.473C420.886 287.536 391.825 258.392 355.923 258.247Z" fill="url(#paint4_linear_223_5958)"/>
<path d="M391.774 323.473C391.774 343.421 375.602 359.594 355.654 359.594C335.704 359.594 319.532 343.421 319.532 323.473C319.532 303.524 335.704 287.352 355.654 287.352C375.602 287.352 391.774 303.524 391.774 323.473Z" fill="url(#paint5_linear_223_5958)"/>
<path d="M380.251 323.473C380.251 337.058 369.238 348.07 355.654 348.07C342.069 348.07 331.055 337.058 331.055 323.473C331.055 309.888 342.069 298.876 355.654 298.876C369.238 298.876 380.251 309.888 380.251 323.473Z" fill="#E8CCAB"/>
<path d="M349.972 318.781V319.819L346.201 328.534H344.165L347.936 320.288H343.08V318.781H349.972ZM353.04 324.093L351.499 323.724L352.055 318.781H357.534V320.342H353.643L353.402 322.505C353.531 322.429 353.728 322.349 353.991 322.264C354.255 322.175 354.549 322.13 354.875 322.13C355.349 322.13 355.768 322.204 356.135 322.351C356.501 322.499 356.811 322.713 357.066 322.994C357.325 323.276 357.521 323.619 357.655 324.026C357.789 324.432 357.856 324.892 357.856 325.406C357.856 325.839 357.789 326.252 357.655 326.645C357.521 327.033 357.318 327.382 357.045 327.69C356.773 327.993 356.431 328.232 356.021 328.406C355.61 328.581 355.123 328.668 354.56 328.668C354.141 328.668 353.734 328.605 353.341 328.48C352.953 328.355 352.602 328.17 352.29 327.924C351.982 327.679 351.734 327.382 351.546 327.033C351.363 326.681 351.267 326.279 351.258 325.828H353.174C353.201 326.104 353.272 326.343 353.388 326.544C353.509 326.741 353.667 326.893 353.864 327C354.06 327.107 354.29 327.161 354.554 327.161C354.799 327.161 355.009 327.114 355.183 327.02C355.358 326.926 355.498 326.797 355.605 326.631C355.713 326.462 355.791 326.265 355.84 326.042C355.893 325.814 355.92 325.569 355.92 325.305C355.92 325.042 355.889 324.803 355.826 324.588C355.764 324.374 355.668 324.189 355.538 324.032C355.409 323.876 355.244 323.756 355.043 323.671C354.846 323.586 354.616 323.544 354.353 323.544C353.996 323.544 353.719 323.599 353.522 323.711C353.33 323.823 353.169 323.95 353.04 324.093ZM359.075 321.172V320.657C359.075 320.286 359.155 319.949 359.316 319.645C359.477 319.341 359.714 319.098 360.026 318.915C360.339 318.732 360.723 318.64 361.178 318.64C361.647 318.64 362.038 318.732 362.35 318.915C362.668 319.098 362.904 319.341 363.06 319.645C363.221 319.949 363.302 320.286 363.302 320.657V321.172C363.302 321.534 363.221 321.867 363.06 322.17C362.904 322.474 362.67 322.717 362.357 322.9C362.045 323.084 361.658 323.175 361.198 323.175C360.734 323.175 360.343 323.084 360.026 322.9C359.714 322.717 359.477 322.474 359.316 322.17C359.155 321.867 359.075 321.534 359.075 321.172ZM360.354 320.657V321.172C360.354 321.329 360.383 321.478 360.441 321.621C360.504 321.76 360.598 321.873 360.723 321.963C360.852 322.048 361.009 322.09 361.192 322.09C361.384 322.09 361.54 322.048 361.661 321.963C361.781 321.873 361.87 321.76 361.928 321.621C361.987 321.478 362.016 321.329 362.016 321.172V320.657C362.016 320.491 361.984 320.34 361.922 320.201C361.864 320.058 361.772 319.944 361.647 319.859C361.527 319.77 361.37 319.726 361.178 319.726C361 319.726 360.848 319.77 360.723 319.859C360.598 319.944 360.504 320.058 360.441 320.201C360.383 320.34 360.354 320.491 360.354 320.657ZM363.737 326.658V326.142C363.737 325.776 363.817 325.441 363.978 325.138C364.143 324.834 364.382 324.591 364.695 324.408C365.012 324.224 365.4 324.133 365.86 324.133C366.325 324.133 366.713 324.224 367.026 324.408C367.338 324.591 367.575 324.834 367.736 325.138C367.897 325.441 367.977 325.776 367.977 326.142V326.658C367.977 327.024 367.897 327.359 367.736 327.663C367.58 327.967 367.345 328.21 367.033 328.393C366.72 328.576 366.334 328.668 365.874 328.668C365.409 328.668 365.019 328.576 364.702 328.393C364.385 328.21 364.143 327.967 363.978 327.663C363.817 327.359 363.737 327.024 363.737 326.658ZM365.023 326.142V326.658C365.023 326.819 365.059 326.971 365.13 327.114C365.202 327.257 365.3 327.37 365.425 327.455C365.554 327.54 365.704 327.583 365.874 327.583C366.088 327.583 366.256 327.54 366.376 327.455C366.497 327.37 366.579 327.257 366.624 327.114C366.673 326.971 366.698 326.819 366.698 326.658V326.142C366.698 325.982 366.666 325.832 366.604 325.694C366.541 325.551 366.448 325.437 366.323 325.352C366.202 325.263 366.048 325.218 365.86 325.218C365.673 325.218 365.517 325.263 365.391 325.352C365.271 325.437 365.179 325.551 365.117 325.694C365.054 325.832 365.023 325.982 365.023 326.142ZM366.336 320.174L361.573 327.797L360.636 327.301L365.398 319.679L366.336 320.174Z" fill="white"/>
<path d="M355.947 250.152H362.417V97.5812H355.947V250.152Z" fill="#E3D3BB"/>
<path d="M338.199 250.152H355.947V97.5812H338.199V250.152Z" fill="url(#paint6_linear_223_5958)"/>
<path d="M338.199 250.152H271.886C266.23 250.152 261.645 245.567 261.645 239.909V107.824C261.645 102.167 266.23 97.5812 271.886 97.5812H338.199V250.152Z" fill="url(#paint7_linear_223_5958)"/>
<path d="M390.764 240.179H280.782C275.124 240.179 270.539 235.592 270.539 229.935V97.8507C270.539 92.1934 275.124 87.608 280.782 87.608H390.764C396.42 87.608 401.006 92.1934 401.006 97.8507V229.935C401.006 235.592 396.42 240.179 390.764 240.179Z" fill="url(#paint8_linear_223_5958)"/>
<path d="M334.695 115.103V87.6079H280.782C275.124 87.6079 270.539 92.1932 270.539 97.8506V115.103H334.695Z" fill="#E8CCAB"/>
<path d="M291.848 106.6L295.541 98.5197H296.384L300.077 106.6H299.177L295.784 99.0161H296.13L292.736 106.6H291.848ZM293.302 104.441L293.556 103.749H298.254L298.508 104.441H293.302ZM301.414 106.6V98.5197H304.438C305.123 98.5197 305.712 98.6313 306.204 98.8545C306.697 99.0699 307.074 99.3854 307.335 99.801C307.605 100.209 307.739 100.705 307.739 101.29C307.739 101.859 307.605 102.352 307.335 102.767C307.074 103.175 306.697 103.491 306.204 103.714C305.712 103.937 305.123 104.049 304.438 104.049H301.887L302.268 103.645V106.6H301.414ZM302.268 103.714L301.887 103.298H304.415C305.223 103.298 305.835 103.125 306.25 102.779C306.674 102.425 306.885 101.929 306.885 101.29C306.885 100.644 306.674 100.143 306.25 99.7894C305.835 99.4355 305.223 99.2585 304.415 99.2585H301.887L302.268 98.8545V103.714ZM309.586 106.6V98.5197H312.611C313.295 98.5197 313.884 98.6313 314.377 98.8545C314.869 99.0699 315.246 99.3854 315.508 99.801C315.777 100.209 315.912 100.705 315.912 101.29C315.912 101.859 315.777 102.352 315.508 102.767C315.246 103.175 314.869 103.491 314.377 103.714C313.884 103.929 313.295 104.037 312.611 104.037H310.06L310.441 103.645V106.6H309.586ZM315.104 106.6L313.026 103.668H313.949L316.039 106.6H315.104ZM310.441 103.714L310.06 103.31H312.587C313.395 103.31 314.007 103.133 314.423 102.779C314.846 102.425 315.058 101.929 315.058 101.29C315.058 100.644 314.846 100.143 314.423 99.7894C314.007 99.4355 313.395 99.2585 312.587 99.2585H310.06L310.441 98.8545V103.714Z" fill="white"/>
<path d="M352.444 106.6V98.5197H353.148L356.842 104.822H356.473L360.132 98.5197H360.836V106.6H360.016V99.801H360.212L356.842 105.572H356.438L353.045 99.801H353.264V106.6H352.444ZM362.176 106.6L365.869 98.5197H366.712L370.406 106.6H369.505L366.112 99.0161H366.458L363.064 106.6H362.176ZM363.63 104.441L363.884 103.749H368.582L368.836 104.441H363.63ZM373.196 106.6V103.599L373.393 104.129L369.964 98.5197H370.876L373.889 103.448H373.404L376.417 98.5197H377.271L373.843 104.129L374.039 103.599V106.6H373.196Z" fill="#CDB693"/>
<path d="M299.517 150.684H285.366C283.69 150.684 282.333 149.326 282.333 147.652V133.5C282.333 131.825 283.69 130.468 285.366 130.468H299.517C301.193 130.468 302.549 131.825 302.549 133.5V147.652C302.549 149.326 301.193 150.684 299.517 150.684Z" fill="#E8CCAB"/>
<path d="M328.224 150.684H314.074C312.398 150.684 311.042 149.326 311.042 147.652V133.5C311.042 131.825 312.398 130.468 314.074 130.468H328.224C329.9 130.468 331.258 131.825 331.258 133.5V147.652C331.258 149.326 329.9 150.684 328.224 150.684Z" fill="#E8CCAB"/>
<path d="M356.932 150.684H342.782C341.106 150.684 339.75 149.326 339.75 147.652V133.5C339.75 131.825 341.106 130.468 342.782 130.468H356.932C358.607 130.468 359.966 131.825 359.966 133.5V147.652C359.966 149.326 358.607 150.684 356.932 150.684Z" fill="#E8CCAB"/>
<path d="M385.642 150.684H371.489C369.815 150.684 368.457 149.326 368.457 147.652V133.5C368.457 131.825 369.815 130.468 371.489 130.468H385.642C387.317 130.468 388.674 131.825 388.674 133.5V147.652C388.674 149.326 387.317 150.684 385.642 150.684Z" fill="#E8CCAB"/>
<path d="M299.517 182.223H285.366C283.69 182.223 282.333 180.865 282.333 179.191V165.039C282.333 163.364 283.69 162.005 285.366 162.005H299.517C301.193 162.005 302.549 163.364 302.549 165.039V179.191C302.549 180.865 301.193 182.223 299.517 182.223Z" fill="#E8CCAB"/>
<path d="M328.224 182.223H314.074C312.398 182.223 311.042 180.865 311.042 179.191V165.039C311.042 163.364 312.398 162.005 314.074 162.005H328.224C329.9 162.005 331.258 163.364 331.258 165.039V179.191C331.258 180.865 329.9 182.223 328.224 182.223Z" fill="#E8CCAB"/>
<path d="M356.932 182.223H342.782C341.106 182.223 339.75 180.865 339.75 179.191V165.039C339.75 163.364 341.106 162.005 342.782 162.005H356.932C358.607 162.005 359.966 163.364 359.966 165.039V179.191C359.966 180.865 358.607 182.223 356.932 182.223Z" fill="#F57E13"/>
<path d="M385.642 182.223H371.489C369.815 182.223 368.457 180.865 368.457 179.191V165.039C368.457 163.364 369.815 162.005 371.489 162.005H385.642C387.317 162.005 388.674 163.364 388.674 165.039V179.191C388.674 180.865 387.317 182.223 385.642 182.223Z" fill="#E8CCAB"/>
<path d="M299.517 213.761H285.366C283.69 213.761 282.333 212.404 282.333 210.729V196.577C282.333 194.903 283.69 193.545 285.366 193.545H299.517C301.193 193.545 302.549 194.903 302.549 196.577V210.729C302.549 212.404 301.193 213.761 299.517 213.761Z" fill="#E8CCAB"/>
<path d="M328.224 213.761H314.074C312.398 213.761 311.042 212.404 311.042 210.729V196.577C311.042 194.903 312.398 193.545 314.074 193.545H328.224C329.9 193.545 331.258 194.903 331.258 196.577V210.729C331.258 212.404 329.9 213.761 328.224 213.761Z" fill="#E8CCAB"/>
<path d="M356.932 213.761H342.782C341.106 213.761 339.75 212.404 339.75 210.729V196.577C339.75 194.903 341.106 193.545 342.782 193.545H356.932C358.607 193.545 359.966 194.903 359.966 196.577V210.729C359.966 212.404 358.607 213.761 356.932 213.761Z" fill="#E8CCAB"/>
<path d="M385.642 213.761H371.489C369.815 213.761 368.457 212.404 368.457 210.729V196.577C368.457 194.903 369.815 193.545 371.489 193.545H385.642C387.317 193.545 388.674 194.903 388.674 196.577V210.729C388.674 212.404 387.317 213.761 385.642 213.761Z" fill="#E8CCAB"/>
<path d="M211.371 72.2427H156.379C153.923 72.2427 151.931 70.2507 151.931 67.7947V60.516C151.931 58.06 153.923 56.068 156.379 56.068H211.371C213.827 56.068 215.818 58.06 215.818 60.516V67.7947C215.818 70.2507 213.827 72.2427 211.371 72.2427Z" fill="url(#paint9_linear_223_5958)"/>
<path d="M211.371 96.5024H186.639C177.723 92.6851 167.904 90.5718 157.592 90.5718C155.687 90.5718 153.8 90.6451 151.931 90.7878V84.7771C151.931 82.3198 153.923 80.3291 156.379 80.3291H211.371C213.827 80.3291 215.818 82.3198 215.818 84.7771V92.0545C215.818 94.5105 213.827 96.5024 211.371 96.5024Z" fill="url(#paint10_linear_223_5958)"/>
<path d="M139.219 235.979C137.022 235.415 134.865 234.752 132.751 233.997V228.833C134.859 229.648 137.017 230.36 139.219 230.967V235.979Z" fill="#AB7B4F"/>
<path d="M157.593 238.292C151.249 238.292 145.094 237.487 139.219 235.979V230.967C145.07 232.579 151.231 233.44 157.593 233.44C195.705 233.44 226.601 202.544 226.601 164.432C226.601 130.489 202.095 102.269 169.81 96.5027H186.639C206.466 104.992 221.827 121.907 228.218 142.745V186.119C218.953 216.328 190.838 238.292 157.593 238.292Z" fill="url(#paint11_linear_223_5958)"/>
<path d="M228.218 186.119V142.745C230.32 149.603 231.452 156.885 231.452 164.432C231.452 171.979 230.32 179.261 228.218 186.119Z" fill="url(#paint12_linear_223_5958)"/>
<path d="M132.751 100.03V94.8663C134.865 94.1116 137.022 93.449 139.219 92.885V97.8969C137.017 98.5036 134.859 99.2169 132.751 100.03Z" fill="#AB7B4F"/>
<path d="M139.219 97.897V92.885C143.33 91.8303 147.578 91.1197 151.931 90.7877V92.0543C151.931 93.465 152.589 94.7223 153.613 95.537C148.657 95.8183 143.842 96.6236 139.219 97.897Z" fill="url(#paint13_linear_223_5958)"/>
<path d="M186.639 96.5024H169.81C165.844 95.7944 161.76 95.4238 157.592 95.4238C156.258 95.4238 154.93 95.4624 153.612 95.5371C152.588 94.7224 151.931 93.4651 151.931 92.0545V90.7878C153.8 90.6451 155.687 90.5718 157.592 90.5718C167.904 90.5718 177.723 92.6851 186.639 96.5024Z" fill="url(#paint14_linear_223_5958)"/>
<path d="M226.601 164.432C226.601 202.544 195.705 233.44 157.593 233.44C119.482 233.44 88.5859 202.544 88.5859 164.432C88.5859 126.32 119.482 95.4239 157.593 95.4239C195.705 95.4239 226.601 126.32 226.601 164.432Z" fill="#E8D0AB"/>
<path d="M219.862 164.432C219.862 198.822 191.983 226.7 157.592 226.7C123.203 226.7 95.3245 198.822 95.3245 164.432C95.3245 130.042 123.203 102.164 157.592 102.164C191.983 102.164 219.862 130.042 219.862 164.432Z" fill="white"/>
<path d="M157.456 189.805V189.672H156.39V189.539H155.723V189.405H155.056V189.272H154.523V189.139H153.99V189.005H153.456V188.872H152.923V188.739H152.523V188.605H152.123V188.472H151.723V188.339H151.323V188.205H151.056V188.072H150.656V187.939H150.256V187.805H149.99V187.672H149.59V187.539H149.323V187.405H149.056V187.272H148.656V187.139H148.39V187.005H148.123V186.872H147.856V186.739H147.59V186.605H147.323V186.472H147.056V186.339H146.79V186.205H146.523V186.072H146.39V185.939H146.123V185.805H145.856V185.672H145.59V185.539H145.456V185.405H145.19V185.272H145.056V185.139H144.79V185.005H144.656V184.872H144.39V184.739H144.123V184.605H143.99V184.472H143.856V184.339H143.59V184.205H143.456V184.072H143.323V183.939H143.056V183.805H142.923V183.672H142.79V183.539H142.523V183.405H142.39V183.272H142.256V183.139H142.123V183.005H141.99V182.872H141.856V182.739H141.59V182.605H141.456V182.472H141.323V182.339H141.19V182.205H141.056V182.072H140.923V181.939H140.79V181.805H140.656V181.672H140.523V181.539H140.39V181.405H140.256V181.139H140.123V181.005H139.99V180.872H139.856V180.739H139.723V180.472H139.59V180.339H139.456V180.205H139.323V179.939H139.19V179.805H139.056V179.539H138.923V179.272H138.79V179.139H138.656V178.872H138.523V178.605H138.39V178.339H138.256V178.072H138.123V177.805H137.99V177.005H138.123V176.472H138.256V175.939H138.39V175.539H138.523V175.005H138.656V174.605H138.79V174.205H138.923V173.805H139.056V173.405H139.19V173.139H139.323V172.739H139.456V172.339H139.59V172.072H139.723V171.672H139.856V171.405H139.99V171.139H140.123V170.739H140.256V170.472H140.39V170.072H140.523V169.805H140.656V169.405H140.79V169.139H140.923V168.739H141.056V168.339H141.19V168.072H141.323V167.672H141.456V167.405H141.59V167.005H141.723V166.605H141.856V166.205H141.99V165.805H142.123V165.405H142.256V165.005H142.39V164.605H142.523V164.072H142.656V163.672H142.79V163.139H142.923V162.605H143.056V162.472H143.19V162.739H143.323V163.005H143.456V163.272H143.59V163.405H143.723V163.672H143.856V163.939H143.99V164.072H144.123V164.339H144.256V164.472H144.39V164.739H144.523V164.872H144.656V165.005H144.79V165.272H144.923V165.405H145.056V165.672H145.19V165.805H145.323V165.939H145.456V166.205H145.59V166.339H145.723V166.472H145.856V166.605H145.99V166.739H146.123V167.005H146.256V167.139H146.39V167.272H146.523V167.405H146.656V167.539H146.79V167.672H146.923V167.805H147.056V167.939H147.19V168.205H147.323V168.339H147.456V168.472H147.59V168.605H147.856V168.739H147.99V168.872H148.123V169.005H148.256V169.139H148.39V169.272H148.523V169.405H148.656V169.539H148.79V169.672H148.923V169.805H149.19V169.939H149.323V170.072H149.456V170.205H149.59V170.339H149.723V170.472H149.99V170.605H150.123V170.739H150.256V170.872H150.523V171.005H150.656V171.139H150.923V171.272H151.056V171.405H151.323V171.539H151.456V171.672H151.59V171.805H151.856V171.939H151.99V172.072H152.256V172.205H152.39V172.339H152.656V172.472H152.923V172.605H153.19V172.739H153.456V172.872H153.723V173.005H153.856V173.139H154.123V173.272H154.39V173.405H154.656V173.539H154.923V173.672H155.19V173.805H155.456V173.939H155.723V174.072H155.99V174.205H156.39V174.339H156.79V174.472H157.056V174.605H157.456V174.739H157.723V174.872H158.123V175.005H158.39V175.139H158.79V175.272H159.056V175.405H159.59V175.539H159.99V175.672H160.523V175.805H160.923V175.939H161.456V176.072H161.856V176.205H162.39V176.339H163.056V176.472H163.59V177.005H163.456V179.805H163.59V181.672H163.723V182.472H163.856V183.272H163.99V183.939H164.123V184.472H164.256V184.872H164.39V185.405H164.523V185.672H164.656V187.272H164.523V187.672H164.39V187.939H164.256V188.205H164.123V188.339H163.99V188.472H163.856V188.605H163.723V188.739H163.59V188.872H163.456V189.005H163.19V189.139H162.923V189.272H162.656V189.405H162.256V189.539H161.856V189.672H161.056V189.805H157.456ZM143.99 157.272V156.339H144.123V154.739H144.256V152.205H144.39V151.139H144.523V150.605H144.656V151.139H144.79V152.872H144.923V154.205H145.056V155.272H145.19V156.205H145.323V156.739H145.056V156.872H144.79V157.005H144.523V157.139H144.256V157.272" fill="url(#paint15_linear_223_5958)"/>
<path d="M163.479 176.577C163.478 176.577 163.478 176.577 163.476 176.577C163.578 175.01 163.78 173.472 164.034 172.034H164.035C163.783 173.473 163.58 175.01 163.479 176.577ZM143.076 162.602C143.075 162.601 143.075 162.6 143.074 162.6C143.47 160.986 143.806 159.205 144.039 157.189H144.04C143.807 159.205 143.471 160.989 143.076 162.602Z" fill="#FDDDCD"/>
<path d="M162.923 176.605V176.472H162.256V176.338H161.723V176.205H161.323V176.072H160.79V175.938H160.39V175.805H159.856V175.672H159.456V175.538H158.923V175.405H158.656V175.272H158.256V175.138H157.99V175.005H157.59V174.872H157.323V174.738H156.923V174.605H156.656V174.472H156.256V174.338H155.856V174.205H155.59V174.072H155.323V173.938H155.056V173.805H154.79V173.672H154.523V173.538H154.256V173.405H153.99V173.272H153.723V173.138H153.59V173.005H153.323V172.872H153.056V172.738H152.79V172.605H152.523V172.472H152.256V172.338H152.123V172.205H151.856V172.072H151.723V171.938H151.456V171.805H151.323V171.672H151.19V171.538H150.923V171.405H150.79V171.272H150.523V171.138H150.39V171.005H150.123V170.872H149.99V170.738H149.856V170.605H149.59V170.472H149.456V170.338H149.323V170.205H149.19V170.072H149.056V169.938H148.79V169.805H148.656V169.672H148.523V169.538H148.39V169.405H148.256V169.272H148.123V169.138H147.99V169.005H147.856V168.872H147.723V168.738H147.456V168.605H147.323V168.472H147.19V168.338H147.056V168.072H146.923V167.938H146.79V167.805H146.656V167.672H146.523V167.538H146.39V167.405H146.256V167.272H146.123V167.138H145.99V166.872H145.856V166.738H145.723V166.605H145.59V166.472H145.456V166.338H145.323V166.072H145.19V165.938H145.056V165.805H144.923V165.538H144.79V165.405H144.656V165.138H144.523V165.005H144.39V164.872H144.256V164.605H144.123V164.472H143.99V164.205H143.856V164.072H143.723V163.805H143.59V163.538H143.456V163.405H143.323V163.138H143.19V162.872H143.056V162.072H143.19V161.405H143.323V160.738H143.456V160.072H143.59V159.272H143.723V158.472H143.856V157.538H143.99V157.138H144.123V157.005H144.39V156.872H144.656V156.738H144.923V156.605H145.323V157.005H145.456V157.672H145.59V158.205H145.723V158.872H145.856V159.272H145.99V159.672H146.123V160.205H146.256V160.605H146.39V161.005H146.523V161.405H146.656V161.672H146.79V161.938H146.923V162.338H147.056V162.605H147.19V162.872H147.323V163.138H147.456V163.405H147.59V163.538H147.723V163.805H147.856V163.938H147.99V164.205H148.123V164.338H148.256V164.472H148.39V164.738H148.523V164.872H148.656V165.005H148.79V165.138H148.923V165.272H149.056V165.405H149.19V165.538H149.323V165.672H149.456V165.805H149.59V165.938H149.723V166.072H149.99V166.205H150.123V166.338H150.256V166.472H150.39V166.605H150.523V166.738H150.79V166.872H150.923V167.005H151.056V167.138H151.19V167.272H151.323V167.405H151.59V167.538H151.723V167.672H151.99V167.805H152.123V167.938H152.39V168.072H152.523V168.205H152.79V168.338H152.923V168.472H153.19V168.605H153.323V168.738H153.59V168.872H153.856V169.005H154.123V169.138H154.39V169.272H154.523V169.405H154.79V169.538H155.056V169.672H155.323V169.805H155.59V169.938H155.99V170.072H156.256V170.205H156.523V170.338H156.923V170.472H157.19V170.605H157.59V170.738H157.99V170.872H158.39V171.005H158.79V171.138H159.19V171.272H159.723V171.405H160.39V171.538H160.923V171.672H161.59V171.805H162.79V171.938H164.123V172.338H163.99V173.272H163.856V174.205H163.723V175.405H163.59V176.605" fill="url(#paint16_linear_223_5958)"/>
<path d="M162.657 172.072V171.938H161.457V171.805H160.79V171.672H160.257V171.538H159.59V171.405H159.057V171.272H158.657V171.138H158.257V171.005H157.857V170.872H157.457V170.738H157.057V170.605H156.79V170.472H156.39V170.338H156.123V170.205H155.857V170.072H155.457V169.938H155.19V169.805H154.923V169.672H154.657V169.538H154.39V169.405H154.257V169.272H153.99V169.138H153.723V169.005H153.457V168.872H153.19V168.738H153.057V168.605H152.79V168.472H152.657V168.338H152.39V168.205H152.257V168.072H151.99V167.938H151.857V167.805H151.59V167.672H151.457V167.538H151.19V167.405H151.057V167.272H150.923V167.138H150.79V167.005H150.657V166.872H150.39V166.738H150.257V166.605H150.123V166.472H149.99V166.338H149.857V166.205H149.59V166.072H149.457V165.938H149.323V165.805H149.19V165.672H149.057V165.538H148.923V165.405H148.79V165.272H148.657V165.138H148.523V165.005H148.39V164.872H148.257V164.605H148.123V164.472H147.99V164.338H147.857V164.072H147.723V163.938H147.59V163.672H147.457V163.538H147.323V163.272H147.19V163.005H147.057V162.738H146.923V162.338H146.79V162.072H146.657V161.805H146.523V161.538H146.39V161.138H146.257V160.738H146.123V160.338H145.99V159.805H145.857V159.405H145.723V159.005H145.59V158.338H145.457V157.805H145.323V157.138H145.19V156.338H145.057V155.405H144.923V154.338H144.79V153.005H144.657V151.272H144.523V146.472H144.657V144.338H144.79V143.005H144.923V141.938H145.057V141.138H145.19V140.338H145.323V139.538H145.457V139.005H145.59V138.338H145.723V137.805H145.857V137.272H145.99V136.738H146.123V136.338H146.257V135.938H146.39V135.538H146.523V135.138H146.657V134.738H146.79V134.472H146.923V134.072H147.057V133.805H147.19V133.405H147.323V133.138H147.457V132.872H147.59V132.605H147.723V132.338H147.857V132.072H147.99V131.938H148.123V131.672H148.257V131.405H148.39V131.138H148.523V131.005H148.657V130.872H148.79V130.605H148.923V130.472H149.057V130.205H149.19V130.072H149.323V129.938H149.457V129.805H149.59V129.672H149.723V129.538H149.857V129.405H149.99V129.272H150.123V129.138H150.257V129.005H150.39V128.872H150.523V128.738H150.657V128.605H150.923V128.472H151.057V128.338H151.19V128.205H151.457V128.072H151.723V127.938H151.857V127.805H152.123V127.672H152.523V127.538H152.79V127.405H153.19V127.272H153.457V127.138H153.857V127.005H154.257V126.872H154.79V126.738H155.19V126.605H155.723V126.472H156.257V126.338H157.057V126.205H157.857V126.072H161.457V126.205H162.523V126.338H162.923V126.472H163.457V126.605H163.99V126.738H164.39V126.872H164.923V127.005H165.19V127.138H165.457V127.272H165.723V127.405H165.99V127.538H166.257V127.672H166.523V127.805H166.79V127.938H167.057V128.072H167.323V128.205H167.59V128.338H167.857V128.472H167.99V128.605H168.123V128.738H168.39V128.872H168.523V129.005H168.657V129.138H168.923V129.272H169.057V129.405H169.19V129.538H169.323V129.672H169.457V129.805H169.723V129.938H169.857V130.072H169.99V130.338H170.123V130.472H170.257V130.605H170.39V130.738H170.523V130.872H170.657V131.005H170.923V131.272H171.057V131.405H171.19V131.538H171.323V131.805H171.457V131.938H171.59V132.072H171.723V132.205H171.857V132.338H171.99V132.605H172.123V132.738H172.257V132.872H172.39V133.138H172.523V133.405H172.657V133.538H172.79V133.805H172.923V133.938H173.057V134.205H173.19V134.338H173.323V134.605H173.457V134.872H173.59V135.138H173.723V135.405H173.857V135.672H173.99V135.938H174.123V136.338H174.257V136.605H174.39V136.872H174.523V137.138H174.657V137.405H174.79V137.805H174.923V138.072H175.057V138.338H175.19V138.605H175.323V139.005H175.457V139.538H175.59V139.938H175.723V140.338H175.857V140.738H175.99V141.138H176.123V141.538H176.257V142.072H176.39V142.605H176.523V143.005H176.657V143.405H176.79V143.805H176.923V144.205H177.057V144.738H177.19V145.138H177.323V145.672H177.457V146.205H177.59V146.605H177.723V147.138H177.857V147.805H177.99V148.338H178.123V148.872H178.257V149.538H178.39V150.205H178.523V151.005H178.657V151.805H178.79V152.738H178.923V153.805H179.057V155.405H179.19V159.138H179.057V160.472H178.923V161.405H178.79V161.938H178.657V162.472H178.523V163.005H178.39V163.405H178.257V163.672H178.123V163.938H177.99V164.338H177.857V164.605H177.723V164.872H177.59V165.138H177.457V165.272H177.323V165.538H177.19V165.805H177.057V165.938H176.923V166.072H176.79V166.338H176.657V166.472H176.523V166.605H176.39V166.738H176.257V166.872H176.123V167.005H175.99V167.138H175.857V167.272H175.723V167.405H175.59V167.538H175.457V167.672H175.323V167.805H175.19V167.938H175.057V168.072H174.923V168.205H174.79V168.338H174.523V168.472H174.39V168.605H174.257V168.738H174.123V168.872H173.99V169.005H173.723V169.138H173.59V169.272H173.323V169.405H173.19V169.538H172.923V169.672H172.79V169.805H172.523V169.938H172.39V170.072H172.123V170.205H171.857V170.338H171.59V170.472H171.323V170.605H171.057V170.738H170.79V170.872H170.39V171.005H170.123V171.138H169.723V171.272H169.457V171.405H168.923V171.538H168.39V171.672H167.857V171.805H167.19V171.938H166.257V172.072H162.657ZM148.257 157.405V157.672H148.39V156.205H148.523V155.538H148.657V155.138H148.79V154.738H148.923V154.472H149.057V154.205H149.19V153.805H149.323V153.672H149.457V153.405H149.59V153.138H149.723V152.872H149.857V152.738H149.99V152.472H150.123V152.205H150.257V152.072H150.39V151.805H150.523V151.538H150.657V151.405H150.79V151.138H150.923V151.005H151.057V150.738H151.19V150.605H151.323V150.338H151.457V150.205H151.59V149.938H151.723V149.672H151.857V149.538H151.99V149.272H152.123V149.138H152.257V148.872H152.39V148.605H152.523V148.472H152.657V148.205H152.79V147.938H152.923V147.805H153.057V147.538H153.19V147.272H153.323V147.005H153.457V146.738H153.59V146.338H153.723V146.072H153.857V145.805H153.99V145.272H154.123V144.738H154.257V144.205H154.39V143.405H154.523V140.472H154.39V139.538H154.257V139.005H154.123V138.472H153.99V138.072H153.857V137.805H153.723V137.538H153.857V137.405H156.523V137.538H158.123V137.672H159.857V137.805H161.323V137.672H163.057V137.538H164.123V137.405H164.923V137.272H165.857V137.138H166.39V137.005H167.057V136.872H167.723V136.738H168.123V136.605H168.657V136.472H169.19V136.338H169.723V136.205H170.123V136.072H170.657V135.938H171.057V135.805H171.457V135.672H171.857V135.538H172.257V135.405H172.657V135.272H173.057V135.138H173.457V135.005H173.323V134.872H173.19V134.605H173.057V134.338H172.923V134.205H172.79V133.938H172.657V133.805H172.523V133.538H172.39V133.405H172.257V133.138H172.123V133.005H171.99V132.738H171.857V132.605H171.723V132.338H171.59V132.205H171.457V132.072H171.323V131.938H171.19V131.672H171.057V131.538H170.923V131.405H170.79V131.272H170.657V131.138H170.523V131.005H170.39V130.872H170.257V130.738H170.123V130.605H169.99V130.472H169.857V130.338H169.723V130.205H169.59V130.072H169.457V129.938H169.323V129.805H169.19V129.672H169.057V129.538H168.79V129.405H168.657V129.272H168.523V129.138H168.257V129.005H168.123V128.872H167.99V128.738H167.723V128.605H167.59V128.472H166.257V128.605H164.123V128.738H161.99V128.872H159.857V129.005H157.59V129.138H155.457V129.272H153.323V129.405H151.857V129.538H151.723V129.672H151.59V129.805H151.457V129.938H151.323V130.072H151.19V130.338H151.057V130.472H150.923V130.605H150.79V130.738H150.657V130.872H150.523V131.005H150.39V131.138H150.257V131.272H150.123V131.405H149.99V131.538H149.857V131.672H149.723V131.805H149.59V131.938H149.457V132.072H149.323V132.205H149.19V132.472H149.057V132.605H148.923V132.738H148.79V132.872H148.657V133.005H148.523V133.138H148.39V133.272H148.257V133.405H148.123V133.538H147.99V133.672H147.857V133.805H147.723V133.938H147.59V134.072H147.457V134.205H147.323V134.338H147.19V134.472H147.057V134.738H146.923V134.872H146.79V135.272H146.657V135.672H146.523V136.072H146.39V138.072H146.523V140.205H146.657V142.205H146.79V144.072H146.923V145.805H147.057V147.538H147.19V149.005H147.323V150.472H147.457V151.805H147.59V153.005H147.723V154.072H147.857V155.138H147.99V156.072H148.123V156.872H148.257V157.405Z" fill="url(#paint17_linear_223_5958)"/>
<path d="M148.657 159.539V159.272H148.523V158.872H148.39V158.339H148.257V157.672H148.123V157.005H147.99V156.205H147.857V155.272H147.723V154.205H147.59V153.139H147.457V151.939H147.323V150.605H147.19V149.139H147.057V147.539H146.923V145.939H146.79V144.205H146.657V142.339H146.523V140.339H146.39V138.205H146.257V135.939H146.39V135.539H146.523V135.139H146.657V134.739H146.79V134.605H146.923V134.339H147.057V134.205H147.19V134.072H147.323V133.939H147.457V133.805H147.59V133.672H147.723V133.539H147.857V133.405H147.99V133.272H148.123V133.139H148.257V133.005H148.39V132.872H148.523V132.739H148.657V132.605H148.79V132.472H148.923V132.339H149.057V132.072H149.19V131.939H149.323V131.805H149.457V131.672H149.59V131.539H149.723V131.405H149.857V131.272H149.99V131.139H150.123V131.005H150.257V130.872H150.39V130.739H150.523V130.605H150.657V130.472H150.79V130.339H150.923V130.205H151.057V130.072H151.19V129.805H151.323V129.672H151.457V129.539H151.59V129.405H151.723V129.272H153.19V129.139H155.323V129.005H157.457V128.872H159.723V128.739H161.857V128.605H163.99V128.472H166.123V128.339H167.857V128.472H167.99V128.605H168.123V128.739H168.39V128.872H168.523V129.005H168.657V129.139H168.923V129.272H169.057V129.405H169.19V129.539H169.323V129.672H169.457V129.805H169.59V129.939H169.723V130.072H169.857V130.205H169.99V130.339H170.123V130.472H170.257V130.605H170.39V130.739H170.523V130.872H170.657V131.005H170.923V131.272H171.057V131.405H171.19V131.539H171.323V131.805H171.457V131.939H171.59V132.072H171.723V132.205H171.857V132.472H171.99V132.605H172.123V132.739H172.257V132.872H172.39V133.139H172.523V133.405H172.657V133.539H172.79V133.805H172.923V133.939H173.057V134.205H173.19V134.339H173.323V134.605H173.457V134.872H173.59V135.272H173.19V135.405H172.79V135.539H172.39V135.672H171.99V135.805H171.59V135.939H171.19V136.072H170.79V136.205H170.257V136.339H169.857V136.472H169.323V136.605H168.79V136.739H168.257V136.872H167.857V137.005H167.19V137.139H166.523V137.272H165.99V137.405H165.057V137.539H164.257V137.672H163.19V137.805H161.457V137.939H159.59V137.805H157.99V137.672H156.39V137.539H153.99V137.939H154.123V138.339H154.257V138.872H154.39V139.405H154.523V140.339H154.657V143.539H154.523V144.339H154.39V144.872H154.257V145.405H154.123V145.939H153.99V146.205H153.857V146.472H153.723V146.872H153.59V147.139H153.457V147.405H153.323V147.672H153.19V147.939H153.057V148.072H152.923V148.339H152.79V148.605H152.657V148.739H152.523V149.005H152.39V149.272H152.257V149.405H152.123V149.672H151.99V149.805H151.857V150.072H151.723V150.339H151.59V150.472H151.457V150.739H151.323V150.872H151.19V151.139H151.057V151.272H150.923V151.539H150.79V151.672H150.657V151.939H150.523V152.205H150.39V152.339H150.257V152.605H150.123V152.872H149.99V153.005H149.857V153.272H149.723V153.539H149.59V153.805H149.457V153.939H149.323V154.339H149.19V154.605H149.057V154.872H148.923V155.272H148.79V155.672H148.657V156.339H148.523V158.472H148.657V159.139H148.79V159.539" fill="url(#paint18_linear_223_5958)"/>
<path d="M148.79 160.072V159.938H148.257V159.805H147.99V159.672H147.857V159.538H147.59V159.405H147.457V159.272H147.323V159.138H147.057V159.005H146.923V158.872H146.79V158.738H146.657V158.605H146.523V158.472H146.39V158.338H146.257V158.205H146.123V158.072H145.857V157.938H145.723V157.672H145.59V157.538H145.457V157.405H145.323V157.272H145.19V157.138H145.057V157.005H144.923V156.872H144.79V156.605H144.657V156.472H144.523V156.338H144.39V156.072H144.257V155.938H144.123V155.672H143.99V155.405H143.857V155.138H143.723V155.005H143.59V154.872H143.323V154.738H142.79V154.605H141.59V154.738H138.657V154.605H138.257V154.472H137.857V154.338H137.723V154.205H137.457V154.072H137.323V153.938H137.19V153.805H137.057V153.405H136.923V153.138H136.79V151.938H136.923V151.405H137.057V151.138H137.19V150.872H137.323V150.605H137.457V150.472H137.59V150.338H137.723V150.072H137.857V149.938H137.99V149.805H138.123V149.538H137.99V149.405H137.857V149.272H137.723V149.138H137.59V149.005H137.457V148.738H137.323V148.605H137.19V148.472H137.057V148.338H136.923V148.205H136.79V147.938H136.657V147.805H136.523V147.672H136.39V147.405H136.257V147.272H136.123V147.138H135.99V146.872H135.857V146.738H135.723V146.605H135.59V146.338H135.457V146.205H135.323V145.938H135.19V145.805H135.057V145.538H134.923V145.272H134.79V145.138H134.657V144.872H134.523V144.738H134.39V144.472H134.257V144.205H134.123V143.938H133.99V143.672H133.857V143.405H133.723V143.138H133.59V142.872H133.457V142.605H133.323V142.205H133.19V141.938H133.057V141.538H132.923V141.138H132.79V140.738H132.657V140.072H132.523V139.272H132.39V137.138H132.523V136.472H132.657V136.072H132.79V135.672H132.923V135.405H133.057V135.138H133.19V135.005H133.323V134.738H133.457V134.605H133.59V134.338H133.723V134.205H133.857V134.072H133.99V133.938H134.123V133.805H134.257V133.672H134.523V133.538H134.657V133.405H134.923V133.272H135.057V133.138H135.323V133.005H135.59V132.872H135.99V132.738H136.257V132.605H136.657V132.472H137.19V132.338H137.99V132.205H139.323V132.072H139.057V131.938H138.79V131.805H138.523V131.672H138.39V131.538H138.123V131.405H137.99V131.272H137.723V131.138H137.457V131.005H137.323V130.872H137.19V130.738H136.923V130.605H136.79V130.472H136.657V130.338H136.523V130.205H136.257V130.072H136.123V129.938H135.99V129.805H135.857V129.672H135.723V129.538H135.59V129.405H135.457V129.138H135.323V129.005H135.19V128.738H135.057V128.072H135.857V128.205H136.257V128.338H136.657V128.472H136.923V128.605H137.19V128.738H137.457V128.872H137.723V129.005H137.857V129.138H138.123V129.272H138.39V129.405H138.523V129.538H138.79V129.672H138.923V129.805H139.19V129.938H139.323V130.072H139.457V130.205H139.723V130.338H139.857V130.472H139.99V130.605H140.123V130.738H140.257V130.872H140.39V129.405H140.523V129.005H140.657V128.605H140.79V128.338H140.923V128.205H141.057V127.938H141.19V127.805H141.323V127.538H141.59V127.405H141.857V127.538H141.99V130.072H141.857V130.472H141.99V130.205H142.123V129.938H142.257V129.672H142.39V129.405H142.523V129.138H142.657V129.005H142.79V128.738H142.923V128.472H143.057V128.205H143.19V128.072H143.323V127.805H143.457V127.672H143.59V127.405H143.723V127.272H143.857V127.005H143.99V126.872H144.123V126.605H144.257V126.472H144.39V126.338H144.523V126.072H144.657V125.938H144.79V125.805H144.923V125.672H145.057V125.405H145.19V125.272H145.323V125.138H145.457V125.005H145.59V124.738H145.723V124.605H145.857V124.472H145.99V124.338H146.123V124.205H146.39V124.072H146.523V123.938H146.657V123.805H146.79V123.672H147.057V123.538H147.323V123.405H147.59V123.272H147.857V123.138H148.123V123.005H148.523V122.872H149.057V122.738H149.59V122.605H150.39V122.472H151.723V122.338H153.323V122.205H154.523V122.072H155.457V121.938H155.99V121.805H156.523V121.672H157.057V121.538H157.457V121.405H157.723V121.272H158.123V121.138H158.39V121.005H158.657V120.872H158.79V120.738H159.057V120.605H159.19V120.472H159.457V120.338H159.59V120.205H159.723V120.072H159.857V119.938H159.99V119.805H160.257V119.672H160.39V119.405H160.523V119.272H160.657V119.138H160.79V119.005H160.923V118.872H161.057V118.605H161.19V118.472H161.323V118.205H161.457V118.072H161.59V117.805H161.723V117.538H161.857V117.405H161.99V117.138H162.123V116.872H162.257V116.605H162.39V116.338H162.523V115.938H162.657V115.672H162.79V115.405H162.923V115.138H163.057V114.872H163.19V114.605H163.323V114.338H163.457V114.072H163.59V113.938H163.723V113.672H163.99V113.538H164.123V113.405H164.257V113.272H164.39V113.138H164.523V113.005H164.923V112.872H166.523V113.005H167.057V113.138H167.323V113.272H167.723V113.405H167.99V113.538H168.123V113.672H168.39V113.805H168.657V113.938H168.79V114.072H169.057V114.205H169.19V114.338H169.323V114.472H169.457V114.605H169.723V114.738H169.857V114.872H169.99V115.005H170.123V115.138H170.257V115.272H170.39V115.405H170.523V115.672H170.657V115.805H170.79V115.938H170.923V116.072H171.057V116.205H171.19V116.472H171.323V116.605H171.457V116.872H171.59V117.005H171.723V117.272H171.857V117.538H171.99V117.672H172.123V117.938H172.257V118.205H172.39V118.605H172.523V118.872H172.657V119.138H172.79V119.672H172.923V120.072H173.057V120.472H173.19V121.138H173.323V121.938H173.457V124.738H173.59V124.072H173.723V123.138H173.857V121.805H173.99V117.672H174.39V117.805H174.523V117.938H174.657V118.072H174.79V118.338H174.923V118.472H175.057V118.738H175.19V119.138H175.323V119.538H175.457V119.938H175.59V120.605H175.723V121.405H175.857V124.205H175.723V125.005H175.59V125.538H175.457V125.938H175.323V126.205H175.19V126.605H175.057V126.872H174.923V127.138H174.79V127.272H174.657V127.538H174.523V127.672H174.39V127.938H174.257V128.072H174.123V128.205H173.99V128.338H173.857V128.472H173.723V128.605H173.59V128.738H173.457V128.872H173.59V128.738H173.857V128.605H173.99V128.472H174.257V128.338H174.39V128.205H174.657V128.072H174.79V127.938H174.923V127.805H175.057V127.672H175.19V127.538H175.323V127.405H175.457V127.272H175.59V127.138H175.723V127.005H175.857V126.872H175.99V126.605H176.123V126.472H176.257V126.205H176.39V126.072H176.523V125.805H176.657V125.672H176.79V125.405H176.923V125.138H177.057V124.872H177.19V124.605H177.323V124.205H177.457V123.938H177.59V123.805H177.723V123.672H178.123V123.805H178.257V123.938H178.39V124.338H178.523V126.072H178.39V126.605H178.257V127.138H178.123V127.538H177.99V127.938H177.857V128.205H177.723V128.472H177.59V128.738H177.457V129.005H177.323V129.138H177.19V129.405H177.057V129.538H176.923V129.805H176.79V129.938H176.657V130.072H176.523V130.205H176.39V130.338H176.257V130.605H176.123V130.738H175.99V130.872H175.857V131.005H175.59V131.138H175.457V131.272H175.323V131.405H175.19V131.538H175.057V131.672H174.923V131.805H174.657V131.938H174.523V132.072H174.257V132.205H174.123V132.338H173.857V132.472H173.723V132.605H173.457V132.738H173.19V132.872H172.923V133.005H172.657V133.138H172.39V133.272H172.123V133.405H171.857V133.538H171.457V133.672H171.057V133.805H170.79V133.938H170.257V134.072H169.857V134.205H169.323V134.338H168.79V134.472H168.123V134.605H167.59V134.738H166.923V134.872H166.123V135.005H165.057V135.138H163.99V135.272H161.59V135.405H159.323V135.272H156.123V135.138H153.457V135.272H152.523V135.405H151.99V135.538H151.59V135.672H151.323V135.805H151.057V136.072H151.19V136.472H151.323V136.738H151.457V137.138H151.59V137.672H151.723V138.205H151.857V139.005H151.99V142.472H151.857V143.538H151.723V144.205H151.59V144.738H151.457V145.272H151.323V145.805H151.19V146.205H151.057V146.605H150.923V147.005H150.79V147.405H150.657V147.672H150.523V147.938H150.39V148.338H150.257V148.605H150.123V149.005H149.99V149.272H149.857V149.538H149.723V149.805H149.59V150.072H149.457V150.338H149.323V150.605H149.19V150.872H149.057V151.405H148.923V151.938H148.79V152.738H148.657V153.672H148.523V156.472H148.657V157.405H148.79V157.938H148.923V158.472H149.057V159.005H149.19V159.272H149.323V159.672H149.19V159.938H148.923V160.072" fill="url(#paint19_linear_223_5958)"/>
<path d="M152.063 157.741C152.063 160.63 154.406 162.973 157.295 162.973C160.185 162.973 162.527 160.63 162.527 157.741C162.527 154.85 160.185 152.508 157.295 152.508C154.406 152.508 152.063 154.85 152.063 157.741Z" fill="#F25861"/>
<path d="M144.523 161.539V161.405H144.123V161.272H143.723V161.139H143.457V161.005H143.057V160.872H142.79V160.739H142.523V160.605H142.39V160.472H142.123V160.339H141.857V160.205H141.723V160.072H141.457V159.939H141.19V159.805H141.057V159.672H140.923V159.539H140.657V159.405H140.523V159.272H140.39V159.139H140.123V159.005H139.99V158.872H139.857V158.739H139.723V158.605H139.59V158.472H139.457V158.339H139.323V158.205H139.19V158.072H139.057V157.939H138.923V157.805H138.79V157.672H138.657V157.539H138.523V157.272H138.39V157.139H138.257V157.005H138.123V156.739H137.99V156.472H137.857V156.205H137.723V155.805H137.59V155.272H137.457V155.005H137.59V154.205H137.723V153.805H137.857V153.672H137.99V153.405H138.123V153.272H138.257V153.139H138.39V153.005H138.657V152.872H138.79V152.739H139.19V152.605H140.923V152.739H141.19V152.872H141.457V153.005H141.723V153.139H141.99V153.272H142.123V153.405H142.39V153.539H142.523V153.672H142.657V153.805H142.923V153.939H143.057V154.072H143.19V154.205H143.323V154.339H143.457V154.472H143.59V154.605H143.723V154.739H143.857V154.872H143.99V155.005H144.123V155.139H144.257V155.272H144.39V155.405H144.523V155.672H144.657V155.805H144.79V155.939H144.923V156.072H145.057V156.339H145.19V156.472H145.323V156.605H145.457V156.739H145.59V157.005H145.723V157.139H145.857V157.405H145.99V157.672H146.123V157.939H146.257V158.339H146.39V158.739H146.523V159.539H146.657V160.872H146.523V161.139H146.39V161.272H146.257V161.405H146.123V161.539" fill="url(#paint20_linear_223_5958)"/>
<path d="M144.149 158.944C144.149 158.944 141.879 154.768 138.974 154.768C138.158 154.043 140.517 154.315 141.789 155.313C143.059 156.311 145.055 158.127 144.149 158.944Z" fill="#F3644E"/>
<path d="M144.238 158.217C144.238 158.217 141.515 155.556 140.125 156.462C139.459 157.552 144.845 160.214 144.238 158.217Z" fill="#F3644E"/>
<path d="M154.123 226.738V226.605H152.39V226.472H150.79V226.338H149.856V226.205H148.79V226.072H147.856V225.938H147.056V225.805H146.256V225.672H145.59V225.538H144.79V225.405H144.256V225.272H143.723V225.138H143.056V225.005H142.523V224.872H141.99V224.738H141.456V224.605H141.056V224.472H140.523V224.338H140.123V224.205H139.59V224.072H139.19V223.938H138.79V223.805H138.39V223.672H137.99V223.538H137.59V223.405H137.19V223.272H136.79V223.138H136.39V223.005H135.99V222.872H135.59V222.738H135.323V222.605H134.923V222.472H134.656V222.338H134.256V222.205H133.99V222.072H133.59V221.938H133.323V221.805H133.056V221.672H132.656V221.538H132.39V221.405H132.123V221.272H131.856V221.138H131.456V221.005H131.19V220.872H130.923V220.738H130.656V220.605H130.39V220.472H130.123V220.338H129.856V220.205H129.59V220.072H129.323V219.938H129.056V219.805H128.79V219.672H128.523V219.538H128.256V219.405H127.99V219.272H127.723V219.138H127.59V219.005H127.323V218.872H127.056V218.738H126.79V218.605H126.656V218.472H126.39V218.338H126.123V218.205H125.856V218.072H125.723V217.938H125.456V217.805H125.19V217.672H125.056V217.538H124.79V217.405H124.656V217.272H124.39V217.138H124.123V217.005H123.99V216.872H123.723V216.738H123.59V216.605H123.323V216.472H123.19V216.338H122.923V216.205H122.656V216.072H122.523V215.938H122.39V215.805H122.123V215.672H121.99V215.538H121.723V215.405H121.59V215.272H121.456V215.138H121.19V215.005H121.056V214.872H120.79V214.738H120.656V214.605H120.523V214.472H120.256V214.338H120.123V214.205H119.99V214.072H119.723V213.938H119.59V213.805H119.456V213.672H119.323V213.538H119.056V213.405H118.923V213.272H118.79V213.138H118.523V213.005H118.39V212.872H118.256V212.738H118.123V212.605H117.856V212.472H117.723V212.338H117.59V212.205H117.456V212.072H117.323V211.938H117.19V211.805H116.923V211.672H116.79V211.538H116.656V211.405H116.523V211.272H116.39V211.138H116.256V211.005H116.123V210.872H115.856V210.738H115.723V210.605H115.59V210.472H115.456V210.338H115.323V210.205H115.19V210.072H115.056V209.938H114.923V209.805H114.79V209.672H114.656V209.538H114.523V209.405H114.39V209.272H114.256V209.138H114.123V209.005H113.99V208.872H113.723V208.738H113.59V208.605H113.456V208.472H113.323V208.338H113.19V208.072H113.056V207.938H112.923V207.805H112.79V207.672H112.656V207.538H112.523V207.405H112.39V207.272H112.256V207.138H112.123V207.005H112.256V206.072H112.39V205.138H112.523V204.338H112.656V203.538H112.79V202.872H112.923V202.072H113.056V201.272H113.19V200.605H113.323V199.938H113.456V199.272H113.59V198.738H113.723V198.205H113.856V197.672H113.99V197.138H114.123V196.605H114.256V196.072H114.39V195.672H114.523V195.138H114.656V194.872H114.79V194.472H114.923V194.072H115.056V193.805H115.19V193.538H115.323V193.272H115.456V193.005H115.59V192.738H115.723V192.605H115.856V192.338H115.99V192.205H116.123V191.938H116.256V191.805H116.39V191.538H116.523V191.405H116.656V191.138H116.79V191.005H116.923V190.738H117.056V190.605H117.19V190.472H117.323V190.338H117.456V190.072H117.59V189.938H117.723V189.805H117.856V189.672H117.99V189.538H118.123V189.272H118.256V189.138H118.39V189.005H118.523V188.872H118.656V188.738H118.79V188.605H118.923V188.472H119.056V188.338H119.19V188.205H119.323V188.072H119.456V187.938H119.59V187.805H119.723V187.672H119.856V187.538H119.99V187.405H120.123V187.272H120.256V187.138H120.39V187.005H120.656V186.872H120.79V186.738H120.923V186.605H121.056V186.472H121.19V186.338H121.323V186.205H121.456V186.072H121.723V185.938H121.856V185.805H121.99V185.672H122.123V185.538H122.256V185.405H122.523V185.272H122.656V185.138H122.79V185.005H123.056V184.872H123.19V184.738H123.323V184.605H123.456V184.472H123.723V184.338H123.856V184.205H123.99V184.072H124.256V183.938H124.39V183.805H124.523V183.672H124.79V183.538H124.923V183.405H125.19V183.272H125.323V183.138H125.456V183.005H125.723V182.872H125.856V182.738H126.123V182.605H126.256V182.472H126.523V182.338H126.656V182.205H126.923V182.072H127.056V181.938H127.323V181.805H127.456V181.672H127.723V181.538H127.856V181.405H128.123V181.272H128.256V181.138H128.523V181.005H128.79V180.872H128.923V180.738H129.19V180.605H129.323V180.472H129.59V180.338H129.856V180.205H129.99V180.072H130.256V179.938H130.523V179.805H130.656V179.672H130.923V179.538H131.19V179.405H131.456V179.272H131.59V179.138H131.856V179.005H132.123V178.872H132.256V178.738H132.523V178.605H132.79V178.472H133.056V178.338H133.323V178.205H133.59V178.072H133.723V177.938H133.99V177.805H134.256V177.672H134.523V177.538H134.79V177.405H135.056V177.272H135.323V177.138H135.59V177.005H135.856V176.872H136.123V176.738H136.39V176.605H136.656V176.472H136.923V176.338H137.19V176.205H137.456V176.072H137.723V175.938H137.99V175.805H138.256V175.672H138.523V175.538H138.923V175.672H139.056V175.805H139.19V176.072H139.323V176.205H139.456V176.472H139.59V176.605H139.723V176.738H139.856V177.005H139.99V177.138H140.123V177.272H140.256V177.538H140.39V177.672H140.523V177.805H140.656V177.938H140.79V178.205H140.923V178.338H141.056V178.472H141.19V178.605H141.323V178.738H141.456V179.005H141.59V179.138H141.723V179.272H141.856V179.405H141.99V179.538H142.123V179.672H142.256V179.805H142.39V179.938H142.523V180.072H142.656V180.205H142.79V180.338H142.923V180.472H143.056V180.605H143.19V180.738H143.323V180.872H143.456V181.005H143.59V181.138H143.723V181.272H143.856V181.405H143.99V181.538H144.123V181.672H144.256V181.805H144.39V181.938H144.523V182.072H144.656V182.205H144.79V182.338H145.056V182.472H145.19V182.605H145.323V182.738H145.456V182.872H145.723V183.005H145.856V183.138H145.99V183.272H146.123V183.405H146.39V183.538H146.523V183.672H146.656V183.805H146.923V183.938H147.056V184.072H147.323V184.205H147.456V184.338H147.59V184.472H147.856V184.605H147.99V184.738H148.256V184.872H148.523V185.005H148.656V185.138H148.923V185.272H149.19V185.405H149.323V185.538H149.59V185.672H149.856V185.805H150.123V185.938H150.39V186.072H150.656V186.205H150.923V186.338H151.323V186.472H151.59V186.605H151.856V186.738H152.256V186.872H152.656V187.005H152.923V187.138H153.323V187.272H153.723V187.405H154.256V187.538H154.923V187.672H155.456V187.805H156.123V187.938H157.59V188.072H160.39V187.938H160.79V187.805H160.923V187.672H161.056V187.538H161.19V187.405H161.323V187.272H161.456V187.138H161.723V187.005H161.856V186.738H161.99V186.605H162.123V186.472H162.256V186.338H162.39V186.205H162.523V186.072H162.656V185.805H162.79V185.538H162.923V185.405H163.056V185.138H163.19V184.872H163.323V184.472H163.456V184.072H163.59V183.538H163.723V182.472H163.856V182.605H163.99V182.738H164.123V182.872H164.256V183.005H164.39V183.138H164.523V183.272H164.656V183.405H164.79V183.538H164.923V183.672H165.19V183.805H165.323V183.938H165.456V184.072H165.59V184.205H165.723V184.338H165.856V184.472H166.123V184.605H166.256V184.738H166.39V184.872H166.523V185.005H166.79V185.138H166.923V185.272H167.056V185.405H167.323V185.538H167.456V185.672H167.723V185.805H167.856V185.938H168.123V186.072H168.256V186.205H168.523V186.338H168.656V186.472H168.923V186.605H169.19V186.738H169.323V186.872H169.59V187.005H169.856V187.138H169.99V187.272H170.256V187.405H170.523V187.538H170.656V187.672H170.923V187.805H171.19V187.938H171.323V188.072H171.59V188.205H171.856V188.338H171.99V188.472H172.256V188.605H172.39V188.738H172.656V188.872H172.923V189.005H173.056V189.138H173.323V189.272H173.456V189.405H173.723V189.538H173.856V189.672H174.123V189.805H174.256V189.938H174.523V190.072H174.656V190.205H174.923V190.338H175.056V190.472H175.323V190.605H175.456V190.738H175.59V190.872H175.856V191.005H175.99V191.138H176.123V191.272H176.39V191.405H176.523V191.538H176.79V191.672H176.923V191.805H177.056V191.938H177.19V192.072H177.456V192.205H177.59V192.338H177.723V192.472H177.856V192.605H177.99V192.738H178.123V192.872H178.39V193.005H178.523V193.138H178.656V193.272H178.79V193.405H178.923V193.538H179.056V193.672H179.19V193.805H179.323V193.938H179.456V194.072H179.59V194.205H179.723V194.338H179.856V194.472H179.99V194.605H180.123V194.738H180.256V194.872H180.39V195.005H180.523V195.138H180.656V195.405H180.79V195.538H180.923V195.672H181.056V195.938H181.19V196.072H181.323V196.205H181.456V196.472H181.59V196.738H181.723V196.872H181.856V197.138H181.99V197.405H182.123V197.672H182.256V197.938H182.39V198.205H182.523V198.338H182.656V198.605H182.79V199.005H182.923V199.272H183.056V199.538H183.19V199.805H183.323V200.205H183.456V200.472H183.59V200.738H183.723V201.138H183.856V201.538H183.99V201.805H184.123V202.205H184.256V202.605H184.39V203.005H184.523V203.405H184.656V203.938H184.79V204.338H184.923V204.872H185.056V205.405H185.19V205.805H185.323V206.472H185.456V207.138H185.59V207.672H185.723V208.472H185.856V209.272H185.99V210.338H186.123V211.405H186.256V213.138H186.39V219.805H186.123V219.938H185.856V220.072H185.59V220.205H185.323V220.338H185.056V220.472H184.79V220.605H184.523V220.738H184.256V220.872H183.99V221.005H183.723V221.138H183.323V221.272H183.056V221.405H182.79V221.538H182.523V221.672H182.256V221.805H181.856V221.938H181.59V222.072H181.19V222.205H180.923V222.338H180.523V222.472H180.256V222.605H179.856V222.738H179.59V222.872H179.19V223.005H178.79V223.138H178.39V223.272H177.99V223.405H177.59V223.538H177.19V223.672H176.79V223.805H176.523V223.938H175.99V224.072H175.59V224.205H175.056V224.338H174.656V224.472H174.123V224.605H173.723V224.738H173.19V224.872H172.656V225.005H172.123V225.138H171.456V225.272H170.923V225.405H170.39V225.538H169.59V225.672H168.923V225.805H168.123V225.938H167.323V226.072H166.39V226.205H165.323V226.338H164.39V226.472H162.79V226.605H161.056V226.738" fill="url(#paint21_linear_223_5958)"/>
<path d="M227.679 131.006C227.679 140.832 219.714 148.797 209.887 148.797C200.062 148.797 192.096 140.832 192.096 131.006C192.096 121.181 200.062 113.216 209.887 113.216C219.714 113.216 227.679 121.181 227.679 131.006Z" fill="url(#paint22_linear_223_5958)"/>
<path d="M201.936 132.219L207.596 137.88C207.846 138.128 208.188 138.271 208.54 138.271C208.891 138.271 209.234 138.128 209.483 137.88L220.198 127.165C220.718 126.644 220.718 125.8 220.198 125.279C219.676 124.759 218.832 124.759 218.312 125.279L208.54 135.051L203.822 130.333C203.3 129.812 202.456 129.812 201.936 130.333C201.415 130.853 201.415 131.699 201.936 132.219Z" fill="white"/>
<path d="M132.751 407.847H139.219V377.924H132.751V407.847Z" fill="#E3D3BB"/>
<path d="M225.522 407.847H139.219V377.924H225.522C228.202 377.924 230.375 380.096 230.375 382.776V402.993C230.375 405.673 228.202 407.847 225.522 407.847Z" fill="url(#paint23_linear_223_5958)"/>
<path d="M219.862 402.185H112.307C109.627 402.185 107.455 400.013 107.455 397.333V377.116C107.455 374.436 109.627 372.264 112.307 372.264H219.862C222.542 372.264 224.714 374.436 224.714 377.116V397.333C224.714 400.013 222.542 402.185 219.862 402.185Z" fill="white"/>
<path d="M128.346 380.755C124.407 380.755 121.202 383.96 121.202 387.899C121.202 391.836 124.407 395.041 128.346 395.041C132.284 395.041 135.488 391.836 135.488 387.899C135.488 383.96 132.284 380.755 128.346 380.755ZM128.346 398.276C122.623 398.276 117.967 393.621 117.967 387.899C117.967 382.177 122.623 377.521 128.346 377.521C134.068 377.521 138.724 382.177 138.724 387.899C138.724 393.621 134.068 398.276 128.346 398.276Z" fill="#E8CCAB"/>
<path d="M130.502 389.448H127.874C127.427 389.448 127.066 389.086 127.066 388.64V383.382C127.066 382.936 127.427 382.574 127.874 382.574C128.321 382.574 128.682 382.936 128.682 383.382V387.83H130.502C130.949 387.83 131.311 388.193 131.311 388.64C131.311 389.086 130.949 389.448 130.502 389.448Z" fill="#E8CCAB"/>
<path d="M153.809 387.404V389.209C153.809 389.992 153.725 390.668 153.558 391.236C153.391 391.799 153.15 392.263 152.834 392.625C152.524 392.984 152.154 393.249 151.724 393.421C151.294 393.592 150.817 393.678 150.292 393.678C149.871 393.678 149.48 393.626 149.117 393.521C148.754 393.411 148.427 393.241 148.135 393.012C147.849 392.783 147.601 392.494 147.391 392.146C147.185 391.792 147.028 391.372 146.918 390.885C146.808 390.398 146.753 389.839 146.753 389.209V387.404C146.753 386.62 146.837 385.949 147.004 385.391C147.176 384.827 147.417 384.366 147.727 384.008C148.042 383.65 148.415 383.387 148.845 383.22C149.274 383.048 149.752 382.962 150.277 382.962C150.697 382.962 151.087 383.017 151.445 383.127C151.808 383.232 152.135 383.397 152.426 383.621C152.717 383.846 152.966 384.135 153.171 384.488C153.376 384.837 153.534 385.255 153.644 385.742C153.754 386.224 153.809 386.778 153.809 387.404ZM151.739 389.481V387.124C151.739 386.747 151.717 386.417 151.674 386.136C151.636 385.854 151.576 385.615 151.495 385.419C151.414 385.219 151.314 385.056 151.194 384.932C151.075 384.808 150.939 384.717 150.786 384.66C150.633 384.603 150.463 384.574 150.277 384.574C150.043 384.574 149.836 384.62 149.654 384.71C149.477 384.801 149.327 384.947 149.203 385.147C149.079 385.343 148.983 385.606 148.916 385.935C148.854 386.26 148.823 386.656 148.823 387.124V389.481C148.823 389.858 148.842 390.19 148.88 390.477C148.923 390.763 148.985 391.009 149.067 391.214C149.153 391.415 149.253 391.58 149.368 391.709C149.487 391.833 149.623 391.923 149.776 391.981C149.933 392.038 150.105 392.067 150.292 392.067C150.521 392.067 150.724 392.021 150.9 391.931C151.082 391.835 151.235 391.687 151.359 391.487C151.488 391.281 151.583 391.014 151.645 390.684C151.707 390.355 151.739 389.954 151.739 389.481ZM157.326 387.425H158.429C158.782 387.425 159.074 387.365 159.303 387.246C159.532 387.122 159.701 386.95 159.811 386.73C159.926 386.506 159.983 386.246 159.983 385.949C159.983 385.682 159.931 385.446 159.826 385.24C159.725 385.03 159.57 384.868 159.36 384.753C159.15 384.634 158.885 384.574 158.565 384.574C158.312 384.574 158.078 384.624 157.863 384.725C157.648 384.825 157.476 384.966 157.347 385.147C157.218 385.329 157.154 385.548 157.154 385.806H155.084C155.084 385.233 155.236 384.734 155.542 384.309C155.853 383.884 156.268 383.552 156.788 383.313C157.309 383.075 157.882 382.955 158.508 382.955C159.214 382.955 159.833 383.07 160.363 383.299C160.893 383.524 161.306 383.855 161.602 384.295C161.898 384.734 162.046 385.279 162.046 385.928C162.046 386.257 161.97 386.577 161.817 386.888C161.664 387.193 161.444 387.47 161.158 387.719C160.876 387.962 160.532 388.158 160.126 388.306C159.721 388.449 159.265 388.521 158.758 388.521H157.326V387.425ZM157.326 388.994V387.926H158.758C159.327 387.926 159.826 387.991 160.255 388.12C160.685 388.249 161.046 388.435 161.337 388.679C161.628 388.917 161.848 389.201 161.996 389.531C162.144 389.856 162.218 390.216 162.218 390.613C162.218 391.1 162.125 391.534 161.939 391.916C161.753 392.294 161.49 392.614 161.151 392.876C160.817 393.139 160.425 393.339 159.976 393.478C159.527 393.612 159.038 393.678 158.508 393.678C158.068 393.678 157.636 393.619 157.211 393.499C156.791 393.375 156.409 393.191 156.065 392.948C155.726 392.699 155.454 392.389 155.248 392.017C155.048 391.639 154.948 391.193 154.948 390.677H157.018C157.018 390.945 157.085 391.183 157.218 391.393C157.352 391.604 157.536 391.768 157.77 391.888C158.009 392.007 158.274 392.067 158.565 392.067C158.894 392.067 159.176 392.007 159.41 391.888C159.649 391.763 159.83 391.592 159.955 391.372C160.084 391.147 160.148 390.887 160.148 390.591C160.148 390.209 160.079 389.903 159.94 389.674C159.802 389.44 159.604 389.268 159.346 389.159C159.088 389.049 158.782 388.994 158.429 388.994H157.326ZM163.801 392.539C163.801 392.234 163.906 391.978 164.116 391.773C164.331 391.568 164.615 391.465 164.969 391.465C165.322 391.465 165.604 391.568 165.814 391.773C166.029 391.978 166.136 392.234 166.136 392.539C166.136 392.845 166.029 393.101 165.814 393.306C165.604 393.511 165.322 393.614 164.969 393.614C164.615 393.614 164.331 393.511 164.116 393.306C163.906 393.101 163.801 392.845 163.801 392.539ZM163.801 386.63C163.801 386.324 163.906 386.069 164.116 385.863C164.331 385.658 164.615 385.555 164.969 385.555C165.322 385.555 165.604 385.658 165.814 385.863C166.029 386.069 166.136 386.324 166.136 386.63C166.136 386.936 166.029 387.191 165.814 387.396C165.604 387.602 165.322 387.704 164.969 387.704C164.615 387.704 164.331 387.602 164.116 387.396C163.906 387.191 163.801 386.936 163.801 386.63ZM174.796 387.404V389.209C174.796 389.992 174.713 390.668 174.546 391.236C174.379 391.799 174.137 392.263 173.822 392.625C173.512 392.984 173.142 393.249 172.712 393.421C172.282 393.592 171.805 393.678 171.279 393.678C170.859 393.678 170.468 393.626 170.105 393.521C169.742 393.411 169.415 393.241 169.123 393.012C168.837 392.783 168.588 392.494 168.378 392.146C168.173 391.792 168.015 391.372 167.906 390.885C167.796 390.398 167.741 389.839 167.741 389.209V387.404C167.741 386.62 167.824 385.949 167.992 385.391C168.163 384.827 168.405 384.366 168.715 384.008C169.03 383.65 169.403 383.387 169.832 383.22C170.262 383.048 170.74 382.962 171.265 382.962C171.685 382.962 172.075 383.017 172.433 383.127C172.796 383.232 173.123 383.397 173.414 383.621C173.705 383.846 173.954 384.135 174.159 384.488C174.364 384.837 174.522 385.255 174.632 385.742C174.742 386.224 174.796 386.778 174.796 387.404ZM172.726 389.481V387.124C172.726 386.747 172.705 386.417 172.662 386.136C172.624 385.854 172.564 385.615 172.483 385.419C172.402 385.219 172.301 385.056 172.182 384.932C172.063 384.808 171.926 384.717 171.774 384.66C171.621 384.603 171.451 384.574 171.265 384.574C171.031 384.574 170.823 384.62 170.642 384.71C170.465 384.801 170.315 384.947 170.191 385.147C170.066 385.343 169.971 385.606 169.904 385.935C169.842 386.26 169.811 386.656 169.811 387.124V389.481C169.811 389.858 169.83 390.19 169.868 390.477C169.911 390.763 169.973 391.009 170.055 391.214C170.14 391.415 170.241 391.58 170.355 391.709C170.475 391.833 170.611 391.923 170.764 391.981C170.921 392.038 171.093 392.067 171.279 392.067C171.509 392.067 171.712 392.021 171.888 391.931C172.07 391.835 172.223 391.687 172.347 391.487C172.476 391.281 172.571 391.014 172.633 390.684C172.695 390.355 172.726 389.954 172.726 389.481ZM183.22 387.404V389.209C183.22 389.992 183.137 390.668 182.97 391.236C182.802 391.799 182.561 392.263 182.246 392.625C181.936 392.984 181.566 393.249 181.136 393.421C180.706 393.592 180.228 393.678 179.703 393.678C179.283 393.678 178.891 393.626 178.528 393.521C178.166 393.411 177.838 393.241 177.547 393.012C177.261 392.783 177.012 392.494 176.802 392.146C176.597 391.792 176.439 391.372 176.329 390.885C176.22 390.398 176.165 389.839 176.165 389.209V387.404C176.165 386.62 176.248 385.949 176.415 385.391C176.587 384.827 176.828 384.366 177.139 384.008C177.454 383.65 177.826 383.387 178.256 383.22C178.686 383.048 179.164 382.962 179.689 382.962C180.109 382.962 180.498 383.017 180.856 383.127C181.219 383.232 181.546 383.397 181.838 383.621C182.129 383.846 182.377 384.135 182.583 384.488C182.788 384.837 182.946 385.255 183.056 385.742C183.165 386.224 183.22 386.778 183.22 387.404ZM181.15 389.481V387.124C181.15 386.747 181.129 386.417 181.086 386.136C181.047 385.854 180.988 385.615 180.907 385.419C180.825 385.219 180.725 385.056 180.606 384.932C180.486 384.808 180.35 384.717 180.197 384.66C180.045 384.603 179.875 384.574 179.689 384.574C179.455 384.574 179.247 384.62 179.066 384.71C178.889 384.801 178.739 384.947 178.614 385.147C178.49 385.343 178.395 385.606 178.328 385.935C178.266 386.26 178.235 386.656 178.235 387.124V389.481C178.235 389.858 178.254 390.19 178.292 390.477C178.335 390.763 178.397 391.009 178.478 391.214C178.564 391.415 178.665 391.58 178.779 391.709C178.899 391.833 179.035 391.923 179.187 391.981C179.345 392.038 179.517 392.067 179.703 392.067C179.932 392.067 180.135 392.021 180.312 391.931C180.494 391.835 180.646 391.687 180.77 391.487C180.899 391.281 180.995 391.014 181.057 390.684C181.119 390.355 181.15 389.954 181.15 389.481Z" fill="#CDB693"/>
<path d="M192.756 389.818H190.098V388.141H192.756C193.167 388.141 193.501 388.074 193.759 387.941C194.017 387.802 194.205 387.611 194.325 387.368C194.444 387.124 194.504 386.85 194.504 386.544C194.504 386.234 194.444 385.945 194.325 385.677C194.205 385.41 194.017 385.195 193.759 385.033C193.501 384.87 193.167 384.789 192.756 384.789H190.843V393.535H188.694V383.106H192.756C193.572 383.106 194.272 383.254 194.855 383.55C195.442 383.841 195.891 384.245 196.201 384.76C196.512 385.276 196.667 385.866 196.667 386.53C196.667 387.203 196.512 387.786 196.201 388.277C195.891 388.769 195.442 389.149 194.855 389.416C194.272 389.684 193.572 389.818 192.756 389.818ZM199.131 383.106H200.95L203.629 390.763L206.308 383.106H208.128L204.36 393.535H202.899L199.131 383.106ZM198.15 383.106H199.962L200.291 390.57V393.535H198.15V383.106ZM207.297 383.106H209.116V393.535H206.967V390.57L207.297 383.106Z" fill="#936B55"/>
<path d="M232.397 368.625C232.397 370.412 230.949 371.86 229.162 371.86C227.375 371.86 225.927 370.412 225.927 368.625C225.927 366.839 227.375 365.391 229.162 365.391C230.949 365.391 232.397 366.839 232.397 368.625Z" fill="white"/>
<path d="M316.499 271.036H257.466C254.64 271.036 252.351 268.746 252.351 265.921C252.351 263.096 254.64 260.808 257.466 260.806H316.499C319.323 260.808 321.614 263.096 321.614 265.921C321.614 268.748 319.323 271.036 316.499 271.036V270.369V269.702C318.587 269.698 320.276 268.01 320.28 265.921C320.276 263.833 318.587 262.144 316.499 262.141H257.466C255.376 262.144 253.688 263.833 253.684 265.921C253.688 268.01 255.376 269.698 257.466 269.702H316.499V270.369V271.036Z" fill="#FCB800"/>
<path d="M275.256 285.189H257.466C254.64 285.188 252.351 282.898 252.351 280.074C252.351 277.249 254.64 274.96 257.466 274.96H275.256C278.082 274.96 280.37 277.249 280.371 280.074C280.37 282.898 278.082 285.188 275.256 285.189V284.522V283.856C277.344 283.852 279.034 282.161 279.038 280.074C279.034 277.985 277.344 276.297 275.256 276.293H257.466C255.376 276.297 253.688 277.985 253.684 280.074C253.688 282.161 255.376 283.852 257.466 283.856H275.256V284.522V285.189Z" fill="#FCB800"/>
<path d="M111.228 101.893C111.228 104.276 109.298 106.207 106.915 106.207C104.534 106.207 102.602 104.276 102.602 101.893C102.602 99.5119 104.534 97.5812 106.915 97.5812C109.298 97.5812 111.228 99.5119 111.228 101.893Z" fill="#E8CCAB"/>
<defs>
<linearGradient id="paint0_linear_223_5958" x1="101.244" y1="668.428" x2="171.544" y2="54.862" gradientUnits="userSpaceOnUse">
<stop stop-color="#A8784B"/>
<stop offset="1" stop-color="#B18257"/>
</linearGradient>
<linearGradient id="paint1_linear_223_5958" x1="195.698" y1="469.283" x2="321.853" y2="-135.613" gradientUnits="userSpaceOnUse">
<stop stop-color="#B18359"/>
<stop offset="1" stop-color="#C2A875"/>
</linearGradient>
<linearGradient id="paint2_linear_223_5958" x1="178.619" y1="338.691" x2="199.106" y2="338.691" gradientUnits="userSpaceOnUse">
<stop stop-color="#F57E13"/>
<stop offset="1" stop-color="#FBC13D"/>
</linearGradient>
<linearGradient id="paint3_linear_223_5958" x1="195.698" y1="469.283" x2="321.852" y2="-135.613" gradientUnits="userSpaceOnUse">
<stop stop-color="#B5835F"/>
<stop offset="1" stop-color="#C8C181"/>
</linearGradient>
<linearGradient id="paint4_linear_223_5958" x1="290.426" y1="323.476" x2="420.887" y2="323.476" gradientUnits="userSpaceOnUse">
<stop stop-color="#F57E13"/>
<stop offset="1" stop-color="#FBC13D"/>
</linearGradient>
<linearGradient id="paint5_linear_223_5958" x1="319.531" y1="323.473" x2="391.774" y2="323.473" gradientUnits="userSpaceOnUse">
<stop stop-color="#DAE2F4"/>
<stop offset="1" stop-color="white"/>
</linearGradient>
<linearGradient id="paint6_linear_223_5958" x1="349.462" y1="498.707" x2="686.709" y2="199.025" gradientUnits="userSpaceOnUse">
<stop stop-color="#A8784B"/>
<stop offset="1" stop-color="#B18257"/>
</linearGradient>
<linearGradient id="paint7_linear_223_5958" x1="310.226" y1="498.707" x2="476.133" y2="-137.212" gradientUnits="userSpaceOnUse">
<stop stop-color="#A8784B"/>
<stop offset="1" stop-color="#B18257"/>
</linearGradient>
<linearGradient id="paint8_linear_223_5958" x1="287.448" y1="251.436" x2="361.847" y2="116.656" gradientUnits="userSpaceOnUse">
<stop stop-color="#DDE5F5"/>
<stop offset="1" stop-color="white"/>
</linearGradient>
<linearGradient id="paint9_linear_223_5958" x1="195.698" y1="469.283" x2="321.853" y2="-135.613" gradientUnits="userSpaceOnUse">
<stop stop-color="#B5935F"/>
<stop offset="1" stop-color="#C8AC81"/>
</linearGradient>
<linearGradient id="paint10_linear_223_5958" x1="195.698" y1="469.283" x2="321.853" y2="-135.614" gradientUnits="userSpaceOnUse">
<stop stop-color="#B5885F"/>
<stop offset="1" stop-color="#C8B481"/>
</linearGradient>
<linearGradient id="paint11_linear_223_5958" x1="195.698" y1="469.283" x2="321.853" y2="-135.613" gradientUnits="userSpaceOnUse">
<stop stop-color="#A8784B"/>
<stop offset="1" stop-color="#B18257"/>
</linearGradient>
<linearGradient id="paint12_linear_223_5958" x1="195.698" y1="469.283" x2="321.852" y2="-135.613" gradientUnits="userSpaceOnUse">
<stop stop-color="#AB814F"/>
<stop offset="1" stop-color="#B4915D"/>
</linearGradient>
<linearGradient id="paint13_linear_223_5958" x1="195.698" y1="469.281" x2="321.852" y2="-135.613" gradientUnits="userSpaceOnUse">
<stop stop-color="#A8784B"/>
<stop offset="1" stop-color="#B18D57"/>
</linearGradient>
<linearGradient id="paint14_linear_223_5958" x1="195.698" y1="469.282" x2="321.852" y2="-135.613" gradientUnits="userSpaceOnUse">
<stop stop-color="#AB7B4F"/>
<stop offset="1" stop-color="#B4825D"/>
</linearGradient>
<linearGradient id="paint15_linear_223_5958" x1="146.036" y1="184.648" x2="156.977" y2="164.45" gradientUnits="userSpaceOnUse">
<stop stop-color="#F9A87F"/>
<stop offset="1" stop-color="#F5884D"/>
</linearGradient>
<linearGradient id="paint16_linear_223_5958" x1="146.036" y1="184.648" x2="156.977" y2="164.45" gradientUnits="userSpaceOnUse">
<stop stop-color="#F78F65"/>
<stop offset="1" stop-color="#F4723E"/>
</linearGradient>
<linearGradient id="paint17_linear_223_5958" x1="165.566" y1="132.764" x2="158.123" y2="171.066" gradientUnits="userSpaceOnUse">
<stop stop-color="#F9A87F"/>
<stop offset="1" stop-color="#F5884D"/>
</linearGradient>
<linearGradient id="paint18_linear_223_5958" x1="165.566" y1="132.764" x2="158.123" y2="171.066" gradientUnits="userSpaceOnUse">
<stop stop-color="#F78F65"/>
<stop offset="1" stop-color="#F4723E"/>
</linearGradient>
<linearGradient id="paint19_linear_223_5958" x1="161.755" y1="121.285" x2="139.481" y2="150.823" gradientUnits="userSpaceOnUse">
<stop stop-color="#B32722"/>
<stop offset="1" stop-color="#79161A"/>
</linearGradient>
<linearGradient id="paint20_linear_223_5958" x1="146.586" y1="134.455" x2="140.809" y2="164.187" gradientUnits="userSpaceOnUse">
<stop stop-color="#F9A87F"/>
<stop offset="1" stop-color="#F5884D"/>
</linearGradient>
<linearGradient id="paint21_linear_223_5958" x1="104.002" y1="313.101" x2="180.257" y2="216.179" gradientUnits="userSpaceOnUse">
<stop stop-color="#3F97C8"/>
<stop offset="1" stop-color="#45B7CB"/>
</linearGradient>
<linearGradient id="paint22_linear_223_5958" x1="192.096" y1="131.006" x2="227.679" y2="131.006" gradientUnits="userSpaceOnUse">
<stop stop-color="#F57E13"/>
<stop offset="1" stop-color="#FBC13D"/>
</linearGradient>
<linearGradient id="paint23_linear_223_5958" x1="197.067" y1="456.594" x2="202.78" y2="323.632" gradientUnits="userSpaceOnUse">
<stop stop-color="#A8784B"/>
<stop offset="1" stop-color="#B18257"/>
</linearGradient>
</defs>
</svg>
