<svg width="239" height="181" viewBox="0 0 239 181" fill="none" xmlns="http://www.w3.org/2000/svg">
<path xmlns="http://www.w3.org/2000/svg" fill-rule="evenodd" clip-rule="evenodd" d="M153.164 178.545C150.819 178.545 142.455 165.253 142.455 162.857C206.868 113.51 196.705 103.307 197.082 101.787C197.459 100.266 176.187 107.574 163.531 104.18C134.98 96.4889 118.255 67.872 126.236 40.3873C132.705 18.1172 153.983 2.55884 177.979 2.55884C182.867 2.55884 187.748 3.20807 192.487 4.48573C211.315 9.55247 225.47 24.6025 232.348 46.8542C238.556 66.9294 238.4 91.2234 231.93 113.51C212.582 164.693 155.51 178.545 153.164 178.545Z" stroke="#777777" stroke-opacity="0.15" stroke-width="5" stroke-linecap="" stroke-linejoin=""/>
<path xmlns="http://www.w3.org/2000/svg" fill-rule="evenodd" clip-rule="evenodd" d="M153.164 178.545C150.819 178.545 142.455 165.253 142.455 162.857C206.868 113.51 196.705 103.307 197.082 101.787C197.459 100.266 176.187 107.574 163.531 104.18C134.98 96.4889 118.255 67.872 126.236 40.3873C132.705 18.1172 153.983 2.55884 177.979 2.55884C182.867 2.55884 187.748 3.20807 192.487 4.48573C211.315 9.55247 225.47 24.6025 232.348 46.8542C238.556 66.9294 238.4 91.2234 231.93 113.51C212.582 164.693 155.51 178.545 153.164 178.545Z" stroke="#777777" stroke-opacity="0.15" stroke-width="5" stroke-linecap="" stroke-linejoin=""/>
</svg>