<svg width="79" height="99" viewBox="0 0 79 99" fill="none" xmlns="http://www.w3.org/2000/svg">
<path d="M79 79.7346C79 89.0888 61.3133 99 39.4983 99C17.6832 99 0 89.0888 0 79.7346C0 70.3805 17.6867 62.7955 39.5018 62.7955C61.3168 62.7955 79 70.3805 79 79.7346Z" fill="url(#paint0_radial_785_3128)"/>
<path d="M76.422 75.4254L74.0654 63.4997C73.5402 60.8441 71.7753 58.6019 69.3172 57.4668L50.7831 48.5155H28.3238L10.392 57.4668C7.93383 58.5984 6.16902 60.8441 5.64377 63.4997L3.14012 76.1786C2.77595 78.0144 3.43075 79.9063 4.85241 81.122C14.1317 89.0643 26.1808 93.864 39.3503 93.864C52.9681 93.864 65.3884 88.7314 74.7867 80.2987C76.1559 79.076 76.7792 77.2227 76.422 75.4254Z" fill="url(#paint1_linear_785_3128)"/>
<path d="M39.355 93.864C41.547 93.864 43.7075 93.7308 45.833 93.4716L42.1423 59.674H36.9774L33.2832 93.5206C35.2721 93.7484 37.2996 93.864 39.355 93.864Z" fill="url(#paint2_linear_785_3128)"/>
<path d="M50.214 52.1451C49.9129 54.8462 48.2286 60.2065 48.2286 60.2065C46.0016 56.7696 43.0497 55.2667 43.0497 55.2667L39.7302 52.9089L39.5586 52.6111L50.214 52.1451Z" fill="#C4C6C8"/>
<path d="M28.8262 52.1451C29.1273 54.8462 30.8116 60.2065 30.8116 60.2065C33.0386 56.7696 35.9905 55.2667 35.9905 55.2667L39.31 52.9089L39.4816 52.6111L28.8262 52.1451Z" fill="#C4C6C8"/>
<path d="M49.5662 48.6592C49.5662 48.6592 45.1927 52.9088 39.387 52.9088C33.5813 52.9088 29.4004 48.6592 29.4004 48.6592V35.8331H49.5662V48.6592Z" fill="url(#paint3_radial_785_3128)"/>
<path d="M56.0009 22.6497C55.6158 22.2503 55.115 22.0401 54.5548 22.0401C54.3027 22.0401 54.0681 22.0821 53.8685 22.1382C53.2137 4.92933 40.8319 5.46185 39.4908 5.57396C38.1392 5.45835 25.6874 4.93634 25.1062 22.3029C24.9521 22.2888 24.777 22.2748 24.5914 22.2748C23.8631 22.2748 23.2993 22.492 22.8756 22.9405C22.2313 23.6201 21.9617 24.7833 22.0493 26.4895C22.2489 30.2872 24.9311 32.3962 25.712 32.9323C26.3317 34.3757 29.042 40.314 33.1354 43.7999C33.3875 44.0136 33.6116 44.2168 33.8252 44.4095C35.1418 45.6007 36.0942 46.4625 39.4873 46.4625C42.8419 46.4625 43.7453 45.6532 44.9919 44.5356C45.2125 44.3394 45.4436 44.1292 45.7062 43.912C49.8731 40.4401 52.6324 34.4002 53.2627 32.9323C54.0575 32.3857 56.7958 30.2416 56.9289 26.486C56.9954 24.6467 56.6838 23.3574 56.0009 22.6497Z" fill="#BE6F48"/>
<path d="M39.4875 46.0421C35.7163 46.0421 35.1875 44.9946 33.4122 43.4811C29.2838 39.9637 26.5946 33.9307 26.0553 32.652C25.2289 32.1125 22.6622 30.0454 22.4732 26.4719C22.2315 21.8929 24.7737 22.7723 25.5196 22.7653C25.8907 5.26216 38.304 5.88927 39.491 6.00138C40.6746 5.88927 53.0913 5.25865 53.4625 22.7653C54.2819 22.2923 56.6735 21.7598 56.5089 26.4719C56.3863 30.0454 53.7531 32.1125 52.9267 32.652C52.3805 33.9448 49.6422 40.0863 45.4403 43.5862C43.6895 45.0436 43.2588 46.0421 39.4875 46.0421Z" fill="url(#paint4_radial_785_3128)"/>
<path d="M53.2566 5.73862C49.1912 0.746231 44.0438 0 41.3371 0C37.6464 0 34.3093 1.3278 32.7231 3.40534C32.4535 3.35279 32.0193 3.29323 31.487 3.29323C30.0373 3.29323 27.3551 3.7732 25.6778 6.97884C23.3458 11.4387 22.6349 17.2019 23.7835 22.3974C23.829 22.6006 24.0041 22.7373 24.2177 22.7303C24.2282 22.7303 24.5468 22.7128 25.1211 22.7443L25.3627 25.7818C25.3802 25.992 25.5448 26.1566 25.7549 26.1706C25.965 26.1882 26.1541 26.048 26.1996 25.8448C26.2101 25.7993 27.2641 21.42 29.1865 17.9551C30.0829 16.3365 32.1313 14.0558 32.9052 13.2149C33.6825 13.9927 35.8395 15.9126 39.3411 17.1738C40.8538 17.7204 42.3175 17.9971 43.6867 17.9971C46.1343 17.9971 47.8431 17.1248 48.9776 16.5502C49.4958 16.2875 49.9405 16.0597 50.1892 16.0597C50.2487 16.0597 50.4273 16.0597 50.5848 16.7955C51.2186 19.7488 52.8749 25.7993 52.8924 25.8623C52.9449 26.048 53.113 26.1741 53.3021 26.1741C53.3161 26.1741 53.3336 26.1741 53.3476 26.1706C53.5542 26.1461 53.7153 25.978 53.7258 25.7677L53.8729 22.6567C54.0549 22.6077 54.3176 22.5551 54.5942 22.5551C54.8673 22.5551 55.0984 22.6077 55.2805 22.7128C55.3996 22.7793 55.5431 22.7863 55.6657 22.7303C55.7917 22.6742 55.8793 22.5621 55.9073 22.429C55.9983 21.9875 58.0503 11.6279 53.2566 5.73862Z" fill="#552618"/>
<path d="M32.9041 12.5948C32.9041 12.5948 35.1557 15.2154 39.4837 16.7744C47.737 19.7488 50.2406 13.1764 50.997 16.7044C51.6343 19.6788 53.2976 25.7467 53.2976 25.7467L53.4586 22.3414C53.4586 22.3414 54.6492 21.8579 55.4861 22.3414C55.4861 22.3414 57.6431 11.8101 52.9194 6.00488C46.4589 -1.93039 35.6949 -0.231228 32.8971 3.8783C32.8971 3.8783 28.4361 2.60305 26.048 7.17153C23.6564 11.74 23.1136 17.4261 24.1921 22.2993C24.1921 22.2993 24.6823 22.2748 25.5087 22.3344L25.7783 25.7397C25.7783 25.7397 26.8358 21.2974 28.8072 17.7414C29.9663 15.6709 32.9041 12.5948 32.9041 12.5948Z" fill="url(#paint5_linear_785_3128)"/>
<path d="M34.075 4.44586C34.075 4.44586 33.3677 10.3176 37.4016 13.0853C41.4389 15.853 46.7474 15.6428 49.2966 14.9316C51.8457 14.2204 53.8277 16.0667 53.8277 16.0667C53.8277 16.0667 53.439 12.241 49.9864 10.2581C46.5338 8.27511 41.9327 6.25713 43.4173 5.54944C44.9055 4.83824 48.092 4.02895 49.5767 5.54944C49.5767 5.54944 46.2852 1.86383 41.6105 1.86383C36.9429 1.86032 34.075 4.44586 34.075 4.44586Z" fill="#6D3E36"/>
<path opacity="0.1" d="M44.4277 16.4276C43.7904 16.5012 43.1566 16.5292 42.5298 16.4731C41.0136 16.3365 39.529 15.8495 38.1248 15.2855C36.318 14.5568 34.5391 13.6599 32.9004 12.5948C32.9004 12.5948 35.1519 15.2154 39.4799 16.7744C45.1456 18.8169 48.1009 16.361 49.6416 15.7619C49.2495 15.9161 48.4931 15.8075 48.0694 15.8565C46.8789 15.9897 45.6498 16.2875 44.4277 16.4276Z" fill="white"/>
<path opacity="0.2" d="M35.541 9.67648C35.541 9.67648 35.6531 9.7921 35.8527 9.98829C36.0523 10.188 36.3499 10.4542 36.7106 10.7661C36.8891 10.9237 37.0922 11.0849 37.3023 11.26C37.5124 11.4317 37.747 11.5999 37.9816 11.782C38.2268 11.9502 38.4719 12.1359 38.7345 12.3041C38.9936 12.4757 39.2597 12.6509 39.5364 12.8015C39.806 12.9697 40.0826 13.1169 40.3627 13.2605C40.6359 13.4111 40.916 13.5338 41.1856 13.6599C41.4517 13.7895 41.7214 13.8876 41.977 13.9892C42.2291 14.0943 42.4707 14.1819 42.7018 14.2485C42.9294 14.3185 43.136 14.3991 43.3216 14.4517C43.5107 14.5007 43.6753 14.5428 43.8118 14.5778C44.085 14.6479 44.239 14.6969 44.239 14.6969C44.239 14.6969 44.078 14.6864 43.7978 14.6584C43.6578 14.6444 43.4862 14.6268 43.2901 14.6058C43.094 14.5813 42.8769 14.5322 42.6388 14.4832C42.5197 14.4587 42.3937 14.4306 42.2676 14.4061C42.1416 14.3676 42.012 14.329 41.8789 14.2905C41.6128 14.2064 41.3257 14.1293 41.0456 14.0067C40.7654 13.8911 40.4643 13.786 40.1842 13.6319C39.897 13.4917 39.6064 13.3446 39.3263 13.1729C39.0426 13.0118 38.773 12.8296 38.5104 12.6474C38.2408 12.4757 38.0026 12.2655 37.761 12.0833C37.2918 11.6945 36.8751 11.3091 36.5495 10.9482C36.2133 10.5979 35.9682 10.2721 35.7966 10.0478C35.6216 9.81662 35.541 9.67648 35.541 9.67648Z" fill="white"/>
<path opacity="0.1" d="M43.5254 12.5948C43.5254 12.5948 43.823 12.763 44.2712 13.0117C44.4918 13.1344 44.7545 13.271 45.0346 13.4146C45.3182 13.5548 45.6124 13.7054 45.9205 13.8351C46.0711 13.9051 46.2251 13.9752 46.3757 14.0312C46.5298 14.0908 46.6768 14.1574 46.8239 14.2064C47.1145 14.3185 47.3947 14.4026 47.6363 14.4762C47.7588 14.5077 47.8709 14.5428 47.9689 14.5743C48.0705 14.5988 48.158 14.6198 48.2316 14.6373C48.3786 14.6759 48.4627 14.7004 48.4627 14.7004C48.4627 14.7004 48.3751 14.7074 48.2246 14.7214C48.074 14.7354 47.8534 14.7424 47.5943 14.7179C47.4612 14.7144 47.3211 14.6899 47.1741 14.6654C47.0235 14.6444 46.8694 14.6128 46.7119 14.5673C46.3932 14.4937 46.0641 14.3676 45.7454 14.2274C45.4268 14.0838 45.1221 13.9191 44.8455 13.7405C44.5724 13.5618 44.3273 13.3831 44.1312 13.2114C43.7355 12.8751 43.5254 12.5948 43.5254 12.5948Z" fill="white"/>
<path d="M53.8652 28.9629C53.8652 28.9629 53.9038 26.6471 54.443 25.1757C54.9822 23.7042 55.4235 24.0861 55.5775 24.3839C55.7351 24.6817 54.3099 26.1286 53.8652 28.9629Z" fill="#BE6F48"/>
<path d="M24.97 28.9629C24.97 28.9629 24.9315 26.6471 24.3922 25.1757C23.853 23.7042 23.4118 24.0861 23.2577 24.3839C23.1036 24.6817 24.5253 26.1286 24.97 28.9629Z" fill="#BE6F48"/>
<path opacity="0.2" d="M27.8071 24.1036C27.8071 24.1036 27.6145 25.2352 27.6565 26.9099C27.667 27.3268 27.702 27.7787 27.751 28.2517C27.8036 28.7246 27.8841 29.2186 27.9891 29.7231C28.0347 29.9789 28.1117 30.2276 28.1712 30.4869C28.2483 30.7426 28.3288 31.0019 28.4093 31.2646C28.5004 31.5169 28.5914 31.7726 28.6825 32.0284L28.9906 32.8061C29.2007 33.3247 29.4143 33.8432 29.6419 34.3477C29.866 34.8557 30.0901 35.3531 30.3037 35.8366C30.7414 36.8001 31.1476 37.7039 31.4978 38.4747C32.2016 40.0197 32.6393 41.0742 32.6393 41.0742C32.6393 41.0742 31.9495 40.1634 31.0636 38.7024C30.8395 38.3381 30.6013 37.9422 30.3632 37.5148C30.1251 37.0873 29.866 36.6389 29.6279 36.1624C29.3828 35.6895 29.1272 35.199 28.8926 34.6875C28.6544 34.1795 28.4233 33.654 28.2027 33.125L27.8981 32.3192C27.8036 32.0424 27.7125 31.7656 27.618 31.4924C27.4569 30.9668 27.3308 30.3923 27.2503 29.8563C27.1593 29.3167 27.1277 28.7877 27.1172 28.2902C27.1032 27.7927 27.1277 27.3198 27.1698 26.8889C27.2503 26.027 27.4079 25.3228 27.5479 24.8428C27.6915 24.3664 27.8071 24.1036 27.8071 24.1036Z" fill="white"/>
<path d="M50.5809 16.792C50.4233 16.0562 50.2448 16.0562 50.1852 16.0562C49.9366 16.0562 49.4919 16.284 48.9737 16.5467C47.8426 17.1248 46.1304 17.9936 43.6827 17.9936C42.3136 17.9936 40.8534 17.7169 39.3372 17.1703C35.8391 15.9091 33.6786 13.9892 32.9012 13.2114C32.1239 14.0523 30.0789 16.333 29.1825 17.9516C27.9219 20.2253 27.036 22.8914 26.5703 24.4715C26.5703 24.468 29.9599 17.1949 32.6351 16.3821C32.6351 16.3821 35.7866 19.3214 39.8835 20.0677C43.9804 20.8104 49.7895 17.5697 49.7895 17.5697L52.1391 23.0771C51.6139 21.0767 50.9381 18.4491 50.5809 16.792Z" fill="#CE9874"/>
<path d="M42.7508 53.3433C42.4846 53.0455 42.103 52.8738 41.7038 52.8738H37.3618C36.9626 52.8738 36.5809 53.0455 36.3148 53.3433C36.0487 53.6411 35.9226 54.0405 35.9681 54.4363L36.5459 59.4918C36.6264 60.203 37.2252 60.7355 37.9395 60.7355H41.126C41.8403 60.7355 42.4391 60.1995 42.5197 59.4918L43.0974 54.4363C43.1429 54.0405 43.0169 53.6411 42.7508 53.3433Z" fill="url(#paint6_linear_785_3128)"/>
<path d="M29.449 45.5411C29.449 45.5411 32.6039 49.2723 36.6028 50.8593C37.6848 51.2903 38.8053 52.2817 39.5406 52.9018C39.5406 52.9018 34.2182 53.5079 30.8531 60.203C30.8531 60.2065 26.196 48.7292 29.449 45.5411Z" fill="#D3D2DD"/>
<path d="M49.6327 45.5411C49.6327 45.5411 46.4777 49.2723 42.4789 50.8593C41.3969 51.2903 40.2764 52.2817 39.541 52.9018C39.541 52.9018 44.8635 53.5079 48.2285 60.203C48.2285 60.2065 52.8892 48.7292 49.6327 45.5411Z" fill="#D3D2DD"/>
<path d="M41.334 52.6251C41.334 52.6251 46.5759 54.3593 48.1691 58.3287C48.1691 58.3287 50.6133 50.4634 49.6924 47.0266C49.6889 47.0301 44.9617 51.8123 41.334 52.6251Z" fill="url(#paint7_linear_785_3128)"/>
<path d="M37.7865 52.6251C37.7865 52.6251 32.5446 54.3593 30.9513 58.3287C30.9513 58.3287 28.5072 50.4634 29.4281 47.0266C29.4316 47.0301 34.1588 51.8123 37.7865 52.6251Z" fill="url(#paint8_linear_785_3128)"/>
<path d="M31.9143 5.08348C31.9143 5.08348 31.5256 8.30664 32.1979 10.3632C32.1979 10.3632 27.0295 12.8786 25.1876 18.2634C25.1876 18.2634 24.7254 7.38874 31.9143 5.08348Z" fill="#6D3E36"/>
<path d="M32.3193 10.7345C32.3193 10.7345 31.9867 10.9938 31.5385 11.4177C31.3144 11.6279 31.0552 11.8766 30.7891 12.1569C30.6526 12.2935 30.523 12.4407 30.3864 12.5913C30.2464 12.735 30.1203 12.8961 29.9872 13.0503C29.7211 13.3586 29.476 13.6879 29.2449 13.9927C29.0243 14.3045 28.8107 14.5953 28.6426 14.8581C28.5621 14.9877 28.471 15.1033 28.4045 15.2119C28.338 15.3205 28.2785 15.4116 28.2294 15.4887C28.1314 15.6428 28.0684 15.7304 28.0684 15.7304C28.0684 15.7304 28.0964 15.6288 28.1559 15.4536C28.2189 15.282 28.2925 15.0262 28.429 14.7424C28.4956 14.5988 28.5586 14.4376 28.6496 14.2835C28.7372 14.1258 28.8247 13.9542 28.9333 13.786C29.0453 13.6213 29.1469 13.4427 29.2729 13.278C29.4025 13.1134 29.525 12.9417 29.6616 12.7805C29.9382 12.4617 30.2289 12.1499 30.53 11.8907C30.8241 11.6244 31.1218 11.4037 31.3879 11.2285C31.6505 11.0498 31.8886 10.9342 32.0532 10.8501C32.2213 10.7696 32.3193 10.7345 32.3193 10.7345Z" fill="#6D3E36"/>
<path d="M64.1151 80.4003H49.4434V83.3221H64.1151V80.4003Z" fill="#EAEAEE"/>
<defs>
<radialGradient id="paint0_radial_785_3128" cx="0" cy="0" r="1" gradientUnits="userSpaceOnUse" gradientTransform="translate(39.5006 80.8991) scale(38.8051 17.9606)">
<stop/>
<stop offset="0.9833" stop-opacity="0.0167"/>
<stop offset="1" stop-opacity="0"/>
</radialGradient>
<linearGradient id="paint1_linear_785_3128" x1="39.7829" y1="48.5142" x2="39.7829" y2="93.8645" gradientUnits="userSpaceOnUse">
<stop stop-color="#EAEAEE"/>
<stop offset="0.5282" stop-color="#DBDAE3"/>
<stop offset="1" stop-color="#D3D2DD"/>
</linearGradient>
<linearGradient id="paint2_linear_785_3128" x1="39.5555" y1="59.5712" x2="39.5555" y2="93.0357" gradientUnits="userSpaceOnUse">
<stop offset="0.00510204" stop-color="#2A7531"/>
<stop offset="0.016" stop-color="#2C7832"/>
<stop offset="0.1006" stop-color="#37883A"/>
<stop offset="0.1897" stop-color="#3E943F"/>
<stop offset="0.284" stop-color="#439C43"/>
<stop offset="0.387" stop-color="#45A146"/>
<stop offset="0.5153" stop-color="#46A347"/>
<stop offset="0.7667" stop-color="#3A8D3C"/>
<stop offset="1" stop-color="#2A7531"/>
</linearGradient>
<radialGradient id="paint3_radial_785_3128" cx="0" cy="0" r="1" gradientUnits="userSpaceOnUse" gradientTransform="translate(39.6948 47.1401) scale(11.3081 11.3139)">
<stop stop-color="#F0B89A"/>
<stop offset="0.2392" stop-color="#EDB596"/>
<stop offset="0.4474" stop-color="#E5AC8B"/>
<stop offset="0.6441" stop-color="#DAA07B"/>
<stop offset="0.8326" stop-color="#CC9268"/>
<stop offset="1" stop-color="#BD8152"/>
</radialGradient>
<radialGradient id="paint4_radial_785_3128" cx="0" cy="0" r="1" gradientUnits="userSpaceOnUse" gradientTransform="translate(39.4854 26.0052) scale(13.4955 21.8538)">
<stop stop-color="#F0B89A"/>
<stop offset="0.2254" stop-color="#EFB697"/>
<stop offset="0.4376" stop-color="#EBB08E"/>
<stop offset="0.6446" stop-color="#E4A77F"/>
<stop offset="0.8472" stop-color="#DB9B6D"/>
<stop offset="1" stop-color="#D3905B"/>
</radialGradient>
<linearGradient id="paint5_linear_785_3128" x1="39.8256" y1="0.054582" x2="39.8256" y2="25.2952" gradientUnits="userSpaceOnUse">
<stop stop-color="#472B28"/>
<stop offset="0.0272" stop-color="#4A2C28"/>
<stop offset="0.1855" stop-color="#5A312A"/>
<stop offset="0.3682" stop-color="#66342A"/>
<stop offset="0.5949" stop-color="#6E362A"/>
<stop offset="1" stop-color="#70362A"/>
</linearGradient>
<linearGradient id="paint6_linear_785_3128" x1="39.5342" y1="53.0861" x2="39.5342" y2="61.1805" gradientUnits="userSpaceOnUse">
<stop offset="0.00510204" stop-color="#2A7531"/>
<stop offset="0.2422" stop-color="#37893A"/>
<stop offset="0.5177" stop-color="#429B43"/>
<stop offset="0.6633" stop-color="#46A347"/>
</linearGradient>
<linearGradient id="paint7_linear_785_3128" x1="45.1593" y1="54.8336" x2="49.8364" y2="47.5028" gradientUnits="userSpaceOnUse">
<stop stop-color="white"/>
<stop offset="0.1244" stop-color="white" stop-opacity="0.8756"/>
<stop offset="1" stop-color="white" stop-opacity="0"/>
</linearGradient>
<linearGradient id="paint8_linear_785_3128" x1="33.9591" y1="54.8336" x2="29.282" y2="47.5028" gradientUnits="userSpaceOnUse">
<stop stop-color="white"/>
<stop offset="0.1244" stop-color="white" stop-opacity="0.8756"/>
<stop offset="1" stop-color="white" stop-opacity="0"/>
</linearGradient>
</defs>
</svg>
