<svg width="40" height="40" viewBox="0 0 40 40" fill="none" xmlns="http://www.w3.org/2000/svg">
<path d="M20.8595 40C20.3147 39.8375 19.7376 39.7427 19.2313 39.5011C17.1928 38.5292 16.1063 36.8969 16.0438 34.6281C16.0199 33.7313 16.0438 32.8323 16.0438 31.9333V31.6C15.4636 31.4219 14.9136 31.3334 14.4418 31.0917C13.4907 30.6052 13.0043 29.7636 12.923 28.7021C12.9063 28.4823 12.847 28.3729 12.6313 28.2792C11.9886 28.0011 11.6418 27.4948 11.6366 26.7844C11.6293 25.7688 11.6188 24.7531 11.6449 23.7386C11.6551 23.4821 11.7389 23.234 11.8866 23.024C11.9509 22.9461 11.995 22.8535 12.0148 22.7544C12.0346 22.6553 12.0296 22.5529 12.0001 22.4563C11.6876 21.1438 11.0126 20.0302 10.1522 19.0188C9.09072 17.7688 8.39071 16.3552 8.17301 14.7219C7.91063 12.8869 8.24701 10.9535 9.21884 9.37503C9.43863 9.01148 10.8993 7.7344 11.2076 7.91044C11.5159 8.08648 10.6938 9.15315 10.4688 9.53128C9.81611 10.6044 9.30074 12.3669 9.30217 13.6229C9.30217 15.3021 9.86884 16.7823 10.9397 18.0698C11.8772 19.199 12.6876 20.399 13.0813 21.8386C13.2897 22.6146 13.3011 22.6125 14.123 22.6125C15.9063 22.6125 17.6897 22.6073 19.473 22.6125C19.7501 22.6125 19.8782 22.5511 19.9449 22.2521C20.2782 20.7479 21.0043 19.4396 22.0022 18.274C23.8032 16.1688 24.3491 13.7854 23.3564 11.1854C22.3636 8.58544 20.3376 7.09378 17.5938 6.66669C15.6928 6.37398 12.1876 6.97919 10.4688 9.53128C9.94176 9.89169 9.46363 9.7094 9.21884 9.37503C9.86789 8.32086 10.6732 7.40836 11.2076 7.03128C16.0857 3.61044 23.4157 6.01773 24.7886 11.7625C25.4136 14.3886 24.8074 16.7719 23.0803 18.8459C22.2022 19.899 21.4772 21.0209 21.1397 22.3656C21.0824 22.5948 21.0876 22.7542 21.2657 22.9552C21.4406 23.16 21.5451 23.4156 21.5636 23.6844C21.5949 24.7375 21.5876 25.7927 21.5709 26.8469C21.5616 27.4896 21.2178 27.9375 20.6678 28.2542C20.6027 28.2921 20.546 28.343 20.5015 28.4038C20.4568 28.4645 20.4252 28.5338 20.4084 28.6073C20.2834 30.2615 19.1761 31.3698 17.5188 31.4708C17.4438 31.4708 17.3688 31.4823 17.2949 31.4886C17.2949 32.7573 17.173 34.0177 17.322 35.2448C17.5761 37.3365 19.3157 38.7438 21.5251 38.7865C23.3084 38.8177 25.0921 38.8177 26.8761 38.7865C28.9595 38.7521 30.5939 37.4761 31.0428 35.5573C31.1188 35.2153 31.1562 34.866 31.1543 34.5156C31.1626 31.8208 31.1543 29.1261 31.1647 26.4313C31.1647 26.1479 31.0959 26.0448 30.798 25.9792C28.7584 25.5365 27.373 23.8156 27.3522 21.7209C27.3386 20.4323 27.3522 19.1427 27.3522 17.8542C27.3522 17.2615 27.4855 17.1052 28.1178 16.9886C28.1178 16.1802 28.1084 15.3636 28.1178 14.5459C28.1176 14.2113 28.2248 13.8855 28.4235 13.6165C28.6223 13.3474 28.9022 13.1492 29.222 13.0511C30.2793 12.725 31.298 13.4677 31.3189 14.6042C31.3334 15.3959 31.3189 16.1875 31.3189 17H32.1876C32.1876 16.1823 32.1762 15.3792 32.1876 14.5761C32.1864 14.324 32.2447 14.0752 32.358 13.85C32.4714 13.6248 32.6364 13.4297 32.8396 13.2805C33.0428 13.1314 33.2784 13.0324 33.5272 12.9919C33.7759 12.9513 34.0308 12.9701 34.2709 13.0469C34.5916 13.1421 34.8732 13.3377 35.0744 13.6049C35.2756 13.8721 35.3857 14.1968 35.3887 14.5313C35.4012 15.349 35.3887 16.1677 35.3887 16.9771C36.0459 17.1198 36.1543 17.2563 36.1543 17.9146C36.1543 19.1646 36.1897 20.4146 36.1387 21.6646C35.8855 24.1667 34.9782 24.8438 34.323 25.3125L34.0626 25.4688C34.0626 25.4688 33.5418 25.7245 33.4532 25.7594C33.3768 25.7986 33.5868 25.573 33.5009 25.5756C33.4151 25.5781 33.3298 25.5616 33.2512 25.5271C32.9272 25.4031 32.8345 25.0792 32.9293 24.6792C34.9262 24.0625 34.8925 21.9889 34.9262 21.4865C34.9637 20.4209 34.9376 19.3542 34.9376 18.2573H28.5834C28.5761 18.3865 28.5616 18.5115 28.5605 18.6365C28.5605 19.6136 28.5907 20.5906 28.5543 21.5656C28.4647 23.9615 30.8345 25.4729 32.9293 24.6792C33.4199 24.4938 33.8032 24.6875 33.8501 25.1167C33.8741 25.2539 33.8469 25.395 33.7738 25.5135C33.6459 25.5729 33.5866 25.7194 33.4532 25.7594C33.1126 25.8823 32.7595 25.9677 32.3512 26.0938V26.5104C32.3512 29.1406 32.3012 31.7708 32.3647 34.4C32.4051 35.733 31.953 37.0343 31.0949 38.0551C30.2368 39.076 29.0327 39.745 27.7126 39.9344C27.6645 39.9487 27.6189 39.9701 27.5772 39.9979L20.8595 40ZM12.8241 23.8448C12.8241 24.8271 12.8241 25.7625 12.8241 26.6979C12.8241 27.0531 13.0105 27.2188 13.3636 27.2084C13.7168 27.1979 14.0928 27.2084 14.4563 27.2084C16.2386 27.2084 18.0209 27.2084 19.8022 27.2084C20.0939 27.2084 20.3626 27.1438 20.3699 26.8167C20.3918 25.8323 20.3782 24.8469 20.3782 23.8438L12.8241 23.8448ZM14.1584 28.449C14.0949 29.3792 14.7386 30.1813 15.6345 30.2365C16.3209 30.2802 17.0095 30.2802 17.6959 30.2365C18.5845 30.1771 19.2261 29.3688 19.1626 28.45L14.1584 28.449ZM30.0959 17.0052C30.0959 16.1719 30.1116 15.3615 30.0782 14.5511C30.0782 14.4271 29.8564 14.2386 29.7095 14.2084C29.473 14.1563 29.323 14.3365 29.3116 14.5771C29.2959 14.8896 29.3053 15.2021 29.3043 15.5094V17.0052H30.0959ZM34.2022 17.0052C34.2022 16.2104 34.2022 15.4375 34.2022 14.6636C34.2022 14.3979 34.098 14.2 33.8012 14.1979C33.5043 14.1959 33.4032 14.3948 33.4022 14.6615C33.4022 15.2955 33.4022 15.9299 33.4022 16.5646C33.4022 16.7136 33.4178 16.8615 33.4272 17.0052H34.2022Z" fill="#383737"/>
<path d="M16.8751 0C17.1876 0.203125 17.2772 0.497918 17.2699 0.863543C17.2511 1.73438 17.2699 2.60417 17.2626 3.475C17.2626 3.95938 17.0491 4.22188 16.6668 4.22604C16.2845 4.23021 16.0626 3.97604 16.0584 3.48854C16.0522 2.59271 16.0657 1.69583 16.0522 0.799999C16.047 0.438541 16.1563 0.167708 16.4845 0H16.8751Z" fill="#FFBB00"/>
<path fill-rule="evenodd" clip-rule="evenodd" d="M12.9687 22.6042L11.25 19.5313L9.0625 15.5209V11.4584L11.25 8.02085L15.0521 6.19794L19.2708 6.56252L22.5521 8.64585L24.2708 11.7188V15.8854L20.8333 21.1979L19.9479 23.1771H12.9687V22.6042ZM15.5708 15.4584H16.7865C16.6958 15.625 16.6385 15.7292 16.5729 15.8386C16.3692 16.1684 16.1649 16.4977 15.9606 16.827C15.6301 17.3599 15.2996 17.8927 14.9719 18.4271C14.7281 18.8261 14.8052 19.1927 15.1208 19.375C15.4365 19.5573 15.7531 19.4479 15.9979 19.0552C16.7771 17.8052 17.5514 16.5552 18.3208 15.3052C18.6885 14.7073 18.4344 14.2469 17.7365 14.2365C17.4942 14.233 17.2519 14.2341 16.992 14.2352C16.8552 14.2359 16.7136 14.2365 16.5646 14.2365C16.605 14.1706 16.639 14.1139 16.6694 14.0632C16.7198 13.9793 16.7602 13.9119 16.8031 13.8469C16.9712 13.594 17.1397 13.3414 17.3081 13.0888C17.6449 12.5838 17.9817 12.0788 18.3156 11.5719C18.5802 11.1698 18.5365 10.8219 18.2271 10.6156C17.9177 10.4094 17.574 10.5146 17.3104 10.9084C17.1661 11.1244 17.0216 11.3403 16.877 11.5562C16.2473 12.4966 15.6177 13.4369 15.0094 14.3917C14.8845 14.6088 14.8447 14.8646 14.8979 15.1094C14.974 15.4021 15.2781 15.4584 15.5708 15.4584Z" fill="#383737"/>
<path d="M27.3426 9.06873C27.8228 9.06873 28.302 9.06248 28.7822 9.06873C29.1989 9.07498 29.4551 9.29894 29.4634 9.65519C29.4718 10.0114 29.2364 10.2656 28.8145 10.2708C27.8158 10.2833 26.8169 10.2833 25.8176 10.2708C25.401 10.2656 25.151 10.025 25.1541 9.66664C25.1572 9.30831 25.4082 9.07498 25.8239 9.06769C26.3301 9.06248 26.8364 9.06873 27.3426 9.06873Z" fill="#FFBB00"/>
<path d="M6.01666 9.06876C6.49583 9.06876 6.97604 9.06876 7.45624 9.06876C7.89374 9.07397 8.16562 9.31147 8.16562 9.67293C8.16562 10.0344 7.90104 10.2708 7.4552 10.274C6.48298 10.2823 5.51075 10.2823 4.53854 10.274C4.10833 10.274 3.8302 10.0052 3.84479 9.64897C3.85937 9.29272 4.12708 9.07189 4.54062 9.06668C5.0302 9.06251 5.52083 9.06876 6.01666 9.06876Z" fill="#FFBB00"/>
<path d="M24.9145 3.13542C24.7843 3.35209 24.7198 3.52917 24.602 3.64896C23.9076 4.33855 23.208 5.0198 22.5031 5.69271C22.1906 5.99063 21.8594 5.99792 21.6041 5.74271C21.3489 5.48751 21.3562 5.14271 21.6562 4.84584C22.35 4.15938 23.0541 3.4823 23.7541 2.80209C23.9562 2.6073 24.2021 2.48021 24.4562 2.63646C24.6312 2.74688 24.752 2.95313 24.9145 3.13542Z" fill="#FFBB00"/>
<path d="M11.8594 5.3854C11.7396 5.53227 11.6385 5.76352 11.4698 5.83332C11.301 5.90311 10.9875 5.89998 10.8646 5.78852C10.0667 5.05936 9.29269 4.30832 8.53644 3.53852C8.31248 3.3104 8.3479 2.99894 8.57811 2.76248C8.80832 2.52602 9.11562 2.48331 9.35208 2.70311C10.1437 3.43748 10.9146 4.19686 11.6771 4.95727C11.7604 5.03957 11.7781 5.18852 11.8594 5.3854Z" fill="#FFBB00"/>
<path d="M35.3647 17.6562H28.073V21.9792C28.073 24.8542 30.5383 25.6076 31.7709 25.625C34.5626 25.625 35.33 23.1945 35.3647 21.9792V17.6562Z" fill="#FFBB00"/>
</svg>
