<svg width="583" height="330" viewBox="0 0 583 330" fill="none" xmlns="http://www.w3.org/2000/svg">
<path d="M528.538 327.187C528.538 327.187 637.363 160.178 521.826 114.503C492.724 102.997 482.571 -58.0797 353.305 22.4605C301.898 54.491 227.874 15.7314 156.988 36.9155C91.8854 56.3709 90.3904 112.493 98.6214 132.698C107.615 154.775 71.7495 181.17 35.0175 199.295C-22.603 227.727 19.7687 327.661 74.1999 328.139C128.635 328.616 528.538 327.187 528.538 327.187Z" fill="#FFF9E9"/>
<path d="M405.554 160.968C409.486 140.815 413.087 121.525 413.087 121.525C413.087 121.525 401.897 123.219 397.079 127.237C392.261 131.251 391.773 156.82 390.168 164.048C389.852 165.467 389.57 167.759 389.322 170.55C388.408 180.946 389.546 196.511 390.405 200.876C390.346 201.295 389.993 203.357 388.095 207.306C388.095 207.306 387.113 210.341 393.539 214.891C397.632 217.792 401.282 182.874 405.554 160.968Z" fill="#FF7955"/>
<path d="M413.087 121.525C413.087 121.525 411.012 132.643 408.29 146.816C407.427 151.315 406.499 156.116 405.551 160.968C401.698 168.519 398.395 173.65 397.375 172.684C395.292 170.719 391.635 170.475 389.322 170.547C389.566 167.756 389.852 165.464 390.168 164.044C390.295 163.474 390.415 162.786 390.529 162.01C391.876 152.916 392.639 130.931 397.079 127.233C401.897 123.219 413.087 121.525 413.087 121.525Z" fill="#FFCC40"/>
<path d="M408.29 146.816C407.427 151.315 406.499 156.116 405.551 160.968C401.698 168.519 398.395 173.65 397.375 172.684C395.292 170.718 391.635 170.474 389.322 170.547C389.566 167.756 389.852 165.464 390.168 164.044C390.295 163.474 390.415 162.786 390.529 162.01L402.076 134.134L408.29 146.816Z" fill="#FFCC40"/>
<path d="M429.068 121.239C429.154 117.349 429.089 112.702 428.563 108.778L413.032 111.314C413.032 111.314 413.032 116.053 413.101 121.311C413.091 121.311 413.087 121.315 413.087 121.315C413.087 121.315 412.664 126.192 418.672 126.906C424.679 127.621 429.233 125.006 429.068 121.239Z" fill="#FF7955"/>
<path d="M412.991 112.277C412.991 112.277 416.651 119.772 420.844 119.772C425.037 119.772 428.965 112.723 428.965 112.723L412.991 112.277Z" fill="#EF6343"/>
<path d="M423.343 327.232C423.343 327.232 423.906 322.712 425.216 320.093C426.525 317.475 434.852 319.141 434.852 319.141C434.852 319.141 436.519 320.568 436.877 327.232H423.343Z" fill="#131F2D"/>
<path d="M394.969 327.197C396.924 326.001 395.811 317.093 395.811 317.093C395.811 317.093 386.693 309.797 385.438 315.382C384.184 320.966 376.774 323.475 372.558 324.159C369.647 324.63 368.746 326.245 368.464 327.197H394.969Z" fill="#131F2D"/>
<path d="M430.55 104.3C430.55 104.3 440.918 87.9547 421.009 86.8721C421.009 86.8721 413.541 87.7519 411.854 86.061C411.854 86.061 406.063 94.8625 411.472 104.3C416.878 113.737 430.55 104.3 430.55 104.3Z" fill="#131F2D"/>
<path d="M413.496 112.83C415.005 114.016 419.428 115.198 420.71 115.335C420.71 115.335 427.27 113.871 428.463 113.153C430.308 112.033 430.192 109.768 430.284 106.616C430.398 102.887 430.772 99.9592 430.357 97.8078C429.862 95.2371 428.229 93.7731 423.665 93.3744C415.283 92.6458 411.791 94.7457 411.647 97.5569C411.609 98.313 411.575 99.0313 411.551 99.7118C411.217 108.475 411.908 111.582 413.496 112.83Z" fill="#FF7955"/>
<path d="M413.857 260.84C413.486 262.885 413.249 264.562 413.187 265.765C412.338 282.299 399.268 320.103 396.931 320.987C393.312 322.351 387.618 319.45 384.638 318.502C383.404 318.107 382.569 316.863 382.844 315.598C389.315 285.843 391.697 242.993 392.56 217.623C392.996 204.845 395.189 196.02 395.189 196.02C395.189 196.02 427.068 187.514 427.257 198.274C427.426 207.794 416.699 245.131 413.857 260.84Z" fill="#364154"/>
<path d="M413.857 260.84L392.56 217.623C392.996 204.845 395.189 196.02 395.189 196.02C395.189 196.02 427.068 187.514 427.257 198.274C427.425 207.794 416.699 245.131 413.857 260.84Z" fill="#131F2D"/>
<path d="M406.763 198.309L423.617 320.451C423.617 320.451 431.016 322.234 436.773 320.808C436.773 320.808 441.708 255.847 441.296 240.144C440.883 224.438 444.835 198.123 440.395 195.219C435.948 192.315 406.763 198.309 406.763 198.309Z" fill="#364154"/>
<path d="M442.815 195.216C442.87 196.632 441.75 197.81 440.337 197.831L413.781 198.237L394.274 198.536C393.36 198.553 396.247 191.243 396.306 143.596C396.319 132.962 412.781 121.521 413.084 121.521L413.087 121.525C413.087 123.058 415.5 125.883 419.218 126.127C423.631 126.415 429.044 124.219 429.044 121.68C429.044 121.652 429.556 122.205 430.381 123.405C432.584 126.615 437.021 134.437 439.853 148.057C442.09 158.814 441.227 173.193 442.839 191.748C442.953 193.088 442.781 194.277 442.815 195.216Z" fill="#131F2D"/>
<path d="M441.836 197.982C441.836 197.982 438.306 199.563 431.704 200.931C426.793 201.952 420.188 202.852 412.07 202.904C399.162 202.986 394.274 198.536 394.274 198.536C393.36 198.553 396.247 191.243 396.306 143.596C396.319 132.962 412.781 121.521 413.084 121.521L413.087 121.525C413.087 121.525 412.665 135.684 416.947 139.846C416.947 139.846 422.954 135.207 430.749 121.999C432.952 125.209 437.017 134.433 439.849 148.053C440.423 150.823 440.794 153.834 441.055 157.095C441.808 166.495 441.64 177.967 442.836 191.745C442.953 193.085 442.781 194.274 442.815 195.212C442.87 196.632 443.248 197.958 441.836 197.982Z" fill="#FFCC40"/>
<path d="M441.835 197.982C441.835 197.982 438.306 199.563 431.704 200.931C429.628 197.762 427.009 192.047 426.645 183.036C426.03 167.797 440.505 148.177 440.505 148.177L441.059 157.102C441.811 166.502 441.643 177.974 442.839 191.752C442.956 193.092 442.784 194.281 442.818 195.219C442.87 196.632 443.248 197.958 441.835 197.982Z" fill="#FFCC40"/>
<path d="M429.284 146.386L404.614 160.63L424.154 194.472L448.824 180.229L429.284 146.386Z" fill="#364154"/>
<path d="M444.667 126.642C441.647 124.357 434.55 122.738 431.054 122.047C429.824 121.803 429.041 121.676 429.041 121.676C429.405 123.357 430.223 125.989 431.295 129.151C435.78 142.407 444.674 164.945 442.884 165.423C441.427 165.814 439.56 166.158 437.509 166.457C429.707 167.598 419.211 168.103 418.115 168.155C418.029 168.076 414.29 164.591 412.836 164.591C411.362 164.591 407.118 166.137 406.685 167.327C406.251 168.516 406.08 170.657 407.289 171.135C408.503 171.609 413.527 172.801 414.826 172.918C415.005 172.935 415.218 172.935 415.452 172.911C424.786 175.654 432.818 177.001 439.011 177.637C447.647 178.524 452.699 178.032 452.699 178.032C458.957 164.57 448.754 129.732 444.667 126.642Z" fill="#FF7955"/>
<path d="M452.7 178.039C452.7 178.039 447.648 178.53 439.011 177.644C439.489 175.296 439.929 170.715 437.509 166.46C439.561 166.161 441.427 165.818 442.884 165.426C444.675 164.945 435.784 142.407 431.295 129.155C430.938 124.869 430.749 122.003 430.749 122.003L431.058 122.051C434.55 122.738 441.647 124.36 444.671 126.646C448.754 129.732 458.958 164.57 452.7 178.039Z" fill="#FFCC40"/>
<path d="M416.946 139.846C416.946 139.846 428.961 134.55 429.14 134.134C429.319 133.718 428.545 130.505 427.714 129.553C427.714 129.553 433.484 130.089 433.841 129.374C434.199 128.66 434.467 122.786 434.467 122.786C434.467 122.786 432.065 120.301 429.092 120.061C429.092 120.061 426.48 126.549 425.514 128.481C422.954 133.602 416.946 139.846 416.946 139.846Z" fill="#FFCC40"/>
<path d="M414.091 129.378C414.091 129.378 414.864 135.564 416.947 139.846C416.947 139.846 410.672 135.475 410.135 134.045C409.599 132.619 411.651 129.852 411.651 129.852C411.651 129.852 407.905 129.763 407.816 128.515C407.726 127.268 408.977 122.36 408.977 122.36C408.977 122.36 412.201 120.006 413.094 120.095L414.091 129.378Z" fill="#FFCC40"/>
<path d="M434.433 95.1959L407.747 95.4812C407.747 95.4812 407.355 87.4357 411.981 82.3047C412.19 82.0675 412.417 81.8373 412.651 81.6139C413.647 80.6653 414.85 79.8474 416.297 79.246C421.631 77.0224 426.054 79.0741 428.821 81.1774C429.092 81.3836 429.35 81.5898 429.587 81.796C431.089 83.0745 431.931 84.2121 431.931 84.2121C431.931 84.2121 434.522 87.745 434.433 95.1959Z" fill="#FFCC40"/>
<path d="M426.937 95.2747C426.865 94.1921 426.394 84.9644 429.635 81.8335C429.398 81.6273 429.466 81.6686 429.191 81.4658C425.734 85.0641 425.459 94.144 425.476 95.2919L416.946 95.3846C416.692 88.8479 413.087 82.3422 412.654 81.6136C412.417 81.837 412.372 81.8817 412.162 82.1188C412.788 83.2186 415.142 89.5216 415.369 95.4018L407.75 95.4843C407.75 95.4843 414.857 97.323 420.211 97.2542C425.566 97.1889 434.436 95.1991 434.436 95.1991L426.937 95.2747Z" fill="#FFCC40"/>
<path d="M462.964 170.753H467.336C469.367 169.832 480.316 165.089 490.836 165.03C498.428 164.989 507.078 170.66 507.601 170.722C508.92 170.876 503.202 170.928 503.202 170.928C503.202 170.928 494.634 167.137 490.785 167.048C487.114 166.962 478.969 169.629 475.715 170.753H500.219C502.267 170.753 503.944 172.43 503.944 174.478V202.419C503.944 204.467 502.267 206.144 500.219 206.144H462.964C460.916 206.144 459.239 204.467 459.239 202.419V174.478C459.239 172.43 460.916 170.753 462.964 170.753Z" fill="#FFCC40"/>
<path d="M475.072 170.752H512.326C514.374 170.752 516.051 172.43 516.051 174.478V202.419C516.051 204.467 514.374 206.144 512.326 206.144H475.072C473.023 206.144 471.346 204.467 471.346 202.419V174.478C471.346 172.43 473.023 170.752 475.072 170.752Z" fill="#523332"/>
<path d="M276.743 31.6228H78.5254V171.416H276.743V31.6228Z" fill="black"/>
<path d="M269.88 38.8882H85.3887V164.151H269.88V38.8882Z" fill="white"/>
<path d="M231.543 321.409H227.192L200.001 312.013C188.426 308.013 180.659 297.112 180.659 284.867V169.261C180.659 167.632 179.404 166.227 177.779 166.151C176.04 166.068 174.603 167.453 174.603 169.175V284.863C174.603 297.112 166.836 308.01 155.261 312.01L128.066 321.409H123.114C121.485 321.409 120.079 322.664 120.004 324.289C119.921 326.028 121.306 327.465 123.028 327.465H128.554C128.561 327.465 128.568 327.465 128.575 327.465C128.582 327.465 128.588 327.465 128.595 327.465H140.717C142.318 327.465 143.7 326.252 143.813 324.657C143.868 323.877 143.624 323.155 143.188 322.592L163.169 315.687C172.538 312.45 182.721 312.45 192.089 315.687L211.603 322.43C211.105 322.99 210.809 323.733 210.84 324.547C210.899 326.19 212.308 327.465 213.95 327.465H226.663C226.67 327.465 226.677 327.465 226.684 327.465C226.69 327.465 226.697 327.465 226.704 327.465H231.629C233.351 327.465 234.736 326.028 234.653 324.289C234.578 322.664 233.176 321.409 231.543 321.409Z" fill="black"/>
<path d="M279.369 31.6228H276.743V171.416H279.369V31.6228Z" fill="#35488B"/>
<path d="M180.662 171.416H174.606V177.035H180.662V171.416Z" fill="#35488B"/>
<path d="M527.709 162.794L519.681 164.223C518.887 164.364 518.32 164.966 518.423 165.557L547.178 327.098C547.285 327.689 548.023 328.053 548.817 327.912L556.846 326.482C557.643 326.341 558.207 325.743 558.103 325.152L529.348 163.611C529.242 163.02 528.506 162.653 527.709 162.794Z" fill="#FFBB00"/>
<path d="M527.709 162.794L519.681 164.223C518.887 164.364 518.32 164.966 518.423 165.557L519.313 170.564L530.235 168.619L529.345 163.611C529.242 163.02 528.506 162.653 527.709 162.794Z" fill="#364154"/>
<path d="M547.181 327.097C547.287 327.688 548.026 328.053 548.82 327.912L556.849 326.482C557.646 326.341 558.209 325.743 558.106 325.152L557.337 320.835L546.415 322.781L547.181 327.097Z" fill="#364154"/>
<path d="M525.646 174.083C525.193 174.166 524.87 174.506 524.928 174.843L550.236 317.035C550.295 317.372 550.718 317.581 551.171 317.499C551.625 317.416 551.948 317.076 551.889 316.739L526.581 174.547C526.523 174.211 526.104 174.001 525.646 174.083Z" fill="#131F2D"/>
<path d="M126.925 322.623L132.197 322.551C132.197 322.551 124.269 313.749 121.835 309.275L115.141 296.913L106.377 299.081L117.498 314.842L126.925 322.623Z" fill="#FF7955"/>
<path d="M77.4637 82.0401C75.4429 80.8922 73.02 80.7651 71.3256 80.8648C71.7621 80.4145 72.6213 80.2496 72.6213 80.2496C71.5697 80.0949 69.2258 81.1363 69.2258 81.1363C54.6127 75.5069 58.1629 96.7735 58.4688 101.77C58.7746 106.768 47.7118 108.651 40.1097 112.589C25.6032 120.106 24.3281 130.168 24.3281 130.168C24.4415 130.234 24.5584 130.309 24.6855 130.399C25.4038 129.179 26.8885 126.89 28.136 126.543C28.0879 126.653 26.6582 129.694 26.1255 131.437C30.4043 134.691 38.4119 141.905 43.9898 147.019C43.9657 146.019 44.0035 144.599 44.3712 143.85L45.062 148.002C48.0486 150.748 50.1072 152.679 50.1072 152.679C49.7394 148.641 68.3769 127.319 78.1029 120.937C80.4708 117.452 81.3128 111.294 81.3747 110.809C80.9657 115.689 80.1306 118.428 79.3848 119.972C87.6158 112.397 82.8216 85.0851 77.4637 82.0401Z" fill="#131F2D"/>
<path d="M77.5218 121.257C77.5699 121.278 72.8272 123.742 69.2564 122.766C65.8987 121.851 63.7061 117.497 63.7542 117.487C65.177 117.205 65.586 115.249 65.5551 106.857L66.1977 106.984L77.0029 109.125C77.0029 109.125 76.7554 112.524 76.7485 115.731C76.7451 118.422 76.9066 120.972 77.5218 121.257Z" fill="#FF7955"/>
<path d="M65.3042 85.5627C65.3042 85.5627 70.6346 79.8886 77.3259 85.274C77.3259 85.274 73.4321 84.6004 65.3042 85.5627Z" fill="#E37970"/>
<path d="M77.0058 109.125C77.0058 109.125 76.7584 112.524 76.7515 115.73C70.7063 115.559 67.5101 110.043 66.2007 106.987L77.0058 109.125Z" fill="#EF6343"/>
<path d="M65.0844 105.812C65.0844 105.812 61.9157 100.805 61.1562 96.526C60.6132 93.4707 62.17 82.1398 73.556 83.7722C73.556 83.7722 76.8621 84.0987 79.969 86.1986C82.44 87.8689 86.0073 91.4706 82.0207 101.358L80.9862 104.699L65.0844 105.812Z" fill="#131F2D"/>
<path d="M120.072 304.951L114.343 305.126L108.143 305.315C108.143 305.315 93.8221 289.372 85.7904 263.813C85.6014 263.218 85.4055 262.617 85.1958 262.009C80.8002 249.19 71.686 233.102 66.8848 218.537C66.1219 216.217 65.4345 214.035 64.8194 211.966C64.6235 211.303 64.431 210.653 64.2489 210.014C60.709 197.717 59.6849 189.645 58.7397 181.018L89.4058 181.262C89.4058 181.269 99.015 240.206 120.072 304.951Z" fill="#364154"/>
<path d="M88.5641 161.374C88.9697 177.87 90.9836 184.957 90.9836 184.957C90.9836 184.957 76.1368 192.501 58.4892 186.947C58.2829 186.882 59.6336 118.775 64.6375 116.899C65.7888 118.332 69.2187 119.727 72.2705 119.659C75.7863 119.58 76.9273 118.078 76.7417 116.435C80.4912 118.514 87.9799 137.753 88.5641 161.374Z" fill="#E7F1FD"/>
<path d="M79.0237 112.16C79.0237 112.16 64.72 112.397 64.7097 103.485C64.6994 94.5739 62.8469 88.6043 71.9818 88.075C81.1167 87.5492 82.8935 90.9447 83.6187 93.9209C84.3438 96.8937 82.7457 111.868 79.0237 112.16Z" fill="#FF7955"/>
<path d="M83.1929 88.9652C80.9865 86.288 79.3163 86.8723 78.3781 87.6765C75.285 83.0575 65.5143 89.7385 65.5143 89.7385C60.7063 94.3197 59.9468 99.7944 59.9468 99.7944C59.9468 99.7944 62.5553 101.406 68.5661 99.8597C73.2951 98.6431 76.7284 91.9105 77.9794 89.0958C78.8283 89.8519 80.6257 91.6012 81.1618 93.3093C81.8732 95.5776 82.1963 100.252 83.5572 100.09C83.5572 100.09 86.5094 92.9862 83.1929 88.9652Z" fill="#131F2D"/>
<path d="M136.589 126.948C136.589 126.948 138.607 119.679 146.597 120.707C147.515 120.995 150.192 122.064 148.481 124.93C147.219 127.044 146.673 125.955 144.686 128.797C142.7 131.639 140.545 132.282 138.081 131.941L136.589 126.948Z" fill="#FF7955"/>
<path d="M68.3081 322.114C67.8201 319.437 66.8956 314.808 66.8956 314.808L67.1087 298.376H57.1318L60.8641 314.103C60.9398 314.832 61.146 317.667 60.0977 320.671C60.0977 320.671 59.1389 325.035 63.4383 325.118C67.7376 325.197 68.7927 324.791 68.3081 322.114Z" fill="#FF7955"/>
<path d="M60.0977 320.667C60.0977 320.667 59.2453 325.276 59.7334 327.465C59.7334 327.465 60.9946 327.465 64.1186 327.465C67.0811 327.465 68.7686 327.465 68.7686 327.465C68.7686 327.465 68.8064 322.461 68.0159 320.554C68.0125 320.557 64.9641 325.131 60.0977 320.667Z" fill="#131F2D"/>
<path d="M132.287 322.595C132.256 322.582 132.228 322.568 132.197 322.551C130.087 322.616 127.963 321.843 126.035 319.674C120.179 313.076 116.886 312.34 115.739 312.34C114.749 314.378 113.659 316.667 115.062 319.248L117.158 327.465H119.419L119.443 319.708C120.932 320.1 122.385 320.815 123.035 322.107C124.616 325.273 125.715 327.465 127.186 327.465C128.015 327.465 137.352 327.465 137.352 327.465C137.352 327.465 137.153 324.788 132.287 322.595Z" fill="#131F2D"/>
<path d="M136.59 126.948C136.59 126.948 127.201 132.2 123.846 133.712C121.935 134.574 117.533 136.637 114.433 138.09C112.46 139.018 110.116 138.51 108.697 136.853C103.607 130.907 90.417 118.009 76.804 116.428L76.8212 116.463L76.7422 116.428C76.7422 116.428 85.0179 136.874 85.2619 141.015C85.5059 145.153 86.2345 208.685 86.2345 208.685C86.2345 208.685 85.7465 211.606 91.3449 210.389C96.9434 209.173 98.404 207.956 98.404 207.956C98.404 207.956 93.0496 168.767 94.5102 155.137C94.7989 152.449 94.5342 149.428 93.9328 146.311C102.226 151.353 112.038 153.597 112.038 153.597C112.038 153.597 119.372 150.397 129.4 143.05C132.548 140.743 138.078 131.945 138.078 131.945L136.59 126.948Z" fill="#FFCC40"/>
<path d="M114.344 305.127L108.144 305.316C108.144 305.316 93.8227 289.373 85.791 263.813C85.602 263.219 85.4061 262.617 85.1965 262.009C80.8009 249.19 71.6866 233.103 66.8855 218.538C66.1225 216.218 65.4352 214.036 64.82 211.967C64.6241 211.303 64.4317 210.654 64.2495 210.015L69.3565 206.138C69.3565 206.138 84.6879 230.965 89.434 254.331C93.5581 274.632 110.068 299.054 114.344 305.127Z" fill="#131F2D"/>
<path d="M69.8857 256.513C69.9716 267.875 69.3977 293.998 67.9199 304.813H62.428C59.3933 304.813 57.8777 304.769 57.8777 304.769C54.166 285.966 51.5232 270.405 49.602 256.998C48.0246 245.997 46.6224 236.563 45.5432 228.442C44.4572 220.269 43.7046 213.427 43.4331 207.646C43.3918 206.736 43.3609 205.849 43.3437 204.99C43.3265 204.127 43.3231 203.285 43.33 202.471L73.295 199.549C72.9169 219.465 69.8376 249.911 69.8857 256.513Z" fill="#364154"/>
<path d="M62.428 304.813C59.3934 304.813 57.8778 304.769 57.8778 304.769C54.1661 285.966 51.5232 270.405 49.6021 256.998C48.0246 245.997 46.6224 236.563 45.5433 228.442C44.4573 220.269 43.7046 213.427 43.4331 207.646L54.4273 214.114C54.4273 214.114 47.4094 216.589 50.0867 235.333C52.7673 254.08 58.7026 302.16 62.428 304.813Z" fill="#131F2D"/>
<path d="M63.8439 207.468C63.8439 207.468 61.7337 215.094 54.4306 214.121C47.1275 213.148 36.7451 208.767 36.7451 208.767C36.7451 208.767 39.8657 198.907 43.7458 185.953C48.4438 170.272 54.2588 150.053 56.9979 137.299C57.7677 133.725 58.2935 130.742 58.486 128.604L64.6343 116.899C64.6343 116.899 73.5767 137.124 74.0648 142.235C74.5528 147.345 63.8439 207.468 63.8439 207.468Z" fill="#FFCC40"/>
<path d="M63.5207 152.944C63.1942 161.219 61.2455 177.286 43.8831 185.885C43.8384 185.905 43.7903 185.93 43.7456 185.95C48.4436 170.268 54.2586 150.05 56.9977 137.296C60.187 142.063 63.6994 148.387 63.5207 152.944Z" fill="#FFCC40"/>
<path d="M94.9392 148.418C94.9289 149.411 92.0695 156.325 87.0278 160.456C86.0518 161.257 85.2682 161.646 84.6462 161.752C76.4358 164.563 69.3114 166.021 63.5273 166.732V157.573C70.6723 157.116 79.4738 156.638 83.0962 156.442C83.6942 155.494 84.3918 154.147 84.6255 152.789C85.0586 150.27 86.4092 148.4 89.9216 147.94C93.4374 147.476 94.9461 147.428 94.9392 148.418Z" fill="#FF7955"/>
<path d="M64.6378 116.899C64.6378 116.899 49.7257 117.892 46.1584 125.845C42.5876 133.797 41.4535 160.247 45.9969 168.034C45.9969 168.034 52.2517 169.815 63.3146 167.746C63.4487 167.722 63.5861 167.694 63.7236 167.667C63.7236 167.667 67.2531 159.027 64.0879 157.322C64.0879 157.322 54.7571 157.81 55.7297 154.724C56.7058 151.644 64.6378 116.899 64.6378 116.899Z" fill="#FFCC40"/>
<path d="M378.9 194.67L370.154 194.553C370.054 194.522 369.962 194.505 369.858 194.501C369.762 194.501 369.669 194.512 369.577 194.542C368.432 194.89 367.525 197.381 367.497 200.406C367.494 200.564 367.494 200.718 367.501 200.873C367.528 202.206 367.731 203.416 368.051 204.358C368.394 205.368 368.872 206.066 369.419 206.276C369.429 206.282 369.443 206.286 369.449 206.289C369.553 206.324 369.656 206.344 369.759 206.344C369.858 206.344 369.958 206.327 370.058 206.293L446.536 207.324L446.615 201.474L446.69 195.58L378.9 194.67Z" fill="#F4F4F4"/>
<path d="M412.275 205.767C396.15 207.111 386.427 199.921 378.904 194.67L370.158 194.553C370.058 194.522 369.965 194.505 369.862 194.501C369.766 194.501 369.673 194.512 369.58 194.542C368.436 194.89 367.529 197.381 367.501 200.406C367.498 200.564 367.498 200.718 367.505 200.873C367.532 202.206 367.735 203.416 368.055 204.358C368.625 205.434 369.151 206.141 369.422 206.276C369.433 206.282 369.446 206.286 369.453 206.289C369.556 206.324 369.66 206.344 369.763 206.344C369.862 206.344 369.962 206.327 370.062 206.293L446.54 207.324L446.619 201.474C445.495 201.784 437.903 203.629 412.275 205.767Z" fill="#D5D6DA"/>
<path d="M446.821 195.515C445.543 195.505 444.488 198.147 444.46 201.419C444.433 204.691 445.446 207.351 446.721 207.361C448 207.372 449.055 204.729 449.082 201.457C449.11 198.185 448.096 195.525 446.821 195.515Z" fill="#D5D6DA"/>
<path d="M67.9954 77.6894C65.0569 78.4283 62.8505 79.6071 61.2043 81.0264C61.0428 81.1674 60.8813 81.3117 60.7301 81.456L60.7266 81.4595C54.6367 87.2676 57.0665 96.5159 57.0665 96.5159C57.0665 96.5159 57.8776 98.8528 58.4343 99.7567C58.9911 100.664 67.0812 99.6158 67.5005 97.8734C67.9197 96.131 69.5213 94.3163 69.5213 94.3163C69.5213 94.3163 78.0478 93.7287 78.6218 93.6874C80.5464 93.5465 86.0451 91.6357 86.0451 91.6357C85.9833 91.0996 82.8902 73.9467 67.9954 77.6894Z" fill="#FFCC40"/>
<path d="M91.0968 89.828C90.0726 89.5771 88.3302 89.2987 85.4571 89.1956C85.4571 89.1956 79.8964 91.3642 75.0987 92.8867C72.8442 90.0445 69.569 83.0301 61.2039 81.0265C61.1799 81.0196 61.1558 81.0127 61.1318 81.0093C60.9531 81.2327 60.8534 81.3083 60.7297 81.4595L60.7262 81.4629C60.6884 81.5076 60.6472 81.5592 60.606 81.6245C67.4142 82.8101 71.0262 90.7112 73.2463 93.574C71.3389 94.0414 72.0091 94.1583 69.5243 94.3232C69.5243 94.3232 84.4261 94.6016 91.2377 91.0136C91.7532 90.7353 91.6673 89.9654 91.0968 89.828Z" fill="#FFCC40"/>
<path d="M317.352 88.821C323.181 78.284 338.873 79.5452 338.873 79.5452C322.882 75.7373 314.923 88.2883 314.923 88.2883L314.232 88.0546L310.596 89.0341L342.994 95.557L317.352 88.821Z" fill="#FFCC40"/>
<path d="M285.277 210.685H279.321V327.943H285.277V210.685Z" fill="black"/>
<path d="M508.865 210.685H502.909V327.943H508.865V210.685Z" fill="black"/>
<path d="M525.547 212.1V206.144L260.894 206.144V212.1L525.547 212.1Z" fill="black"/>
<path d="M285.277 212.1H279.321V216.575H285.277V212.1Z" fill="#35488B"/>
<path d="M508.865 212.1H502.909V216.575H508.865V212.1Z" fill="#35488B"/>
<path d="M518.923 195.295C518.923 195.295 518.105 194.171 516.634 192.906C516.401 192.704 516.15 192.497 515.885 192.295C513.18 190.212 508.84 188.171 503.588 190.329C502.166 190.913 500.98 191.71 499.994 192.638C499.76 192.858 499.54 193.082 499.33 193.312C494.756 198.33 495.1 206.241 495.1 206.241L521.329 206.1C521.453 198.783 518.923 195.295 518.923 195.295Z" fill="#FFCC40"/>
<path d="M513.957 206.145C513.888 205.041 513.435 195.989 516.631 192.91C516.397 192.704 516.452 192.741 516.187 192.535C512.778 196.075 512.514 204.986 512.521 206.152L504.135 206.196C503.922 199.77 500.409 193.357 499.987 192.638C499.753 192.858 499.708 192.899 499.499 193.133C500.107 194.219 502.389 200.426 502.581 206.203L495.093 206.244C495.093 206.244 502.069 208.086 507.331 208.052C512.593 208.014 521.322 206.107 521.322 206.107L513.957 206.145Z" fill="#FFCC40"/>
<path d="M430.885 194.498L430.889 200.392V206.244L354.404 206.272C354.304 206.306 354.204 206.327 354.105 206.327C353.998 206.327 353.895 206.31 353.796 206.275C352.723 205.915 351.871 203.674 351.775 200.887C351.768 200.732 351.764 200.577 351.764 200.419C351.747 197.395 352.62 194.893 353.761 194.529C353.854 194.498 353.947 194.484 354.046 194.48C354.146 194.48 354.242 194.498 354.342 194.529L430.885 194.498Z" fill="#F4F4F4"/>
<path d="M430.889 200.392V206.244L354.404 206.272C354.304 206.306 354.205 206.327 354.105 206.327C353.998 206.327 353.895 206.31 353.796 206.275C352.723 205.914 351.871 203.674 351.775 200.886C355.291 202.175 375.052 206.688 395.951 200.917C420.74 194.071 429.772 200.711 430.889 200.392Z" fill="#D5D6DA"/>
<path d="M431.009 194.425C429.73 194.432 428.71 197.089 428.727 200.361C428.744 203.632 429.796 206.279 431.071 206.272C432.349 206.265 433.37 203.608 433.353 200.337C433.335 197.065 432.287 194.418 431.009 194.425Z" fill="#D5D6DA"/>
<path d="M339.637 117.099C339.637 117.099 358.35 136.417 359.247 143.702C360.144 150.988 350.342 162.381 350.342 162.381L339.637 117.099Z" fill="#FFCC40"/>
<path d="M331.636 317.506C331.636 317.506 331 327.775 329.014 327.923C328.749 327.943 318.937 327.943 318.937 327.943L306.41 327.871C306.41 327.871 306.493 324.853 310.153 324.214C313.813 323.575 319.944 321.001 322.161 316.162C324.494 311.072 331.636 317.506 331.636 317.506Z" fill="#131F2D"/>
<path d="M359.535 317.506C359.535 317.506 358.899 327.775 356.913 327.923C356.648 327.943 346.836 327.943 346.836 327.943L334.271 327.898C334.271 327.898 334.392 324.853 338.052 324.214C341.712 323.575 347.843 321.001 350.06 316.162C352.393 311.072 359.535 317.506 359.535 317.506Z" fill="#131F2D"/>
<path d="M317.761 207.375C317.761 207.375 321.036 228.329 333.261 265.528C345.482 302.724 347.149 318.832 347.149 318.832C347.149 318.832 350.455 319.31 353.947 319.31C356.157 319.31 360.26 318.465 360.26 318.465C360.26 318.465 360.373 277.811 354.741 259.108C349.108 240.402 353.524 191.673 353.524 191.673L317.761 207.375Z" fill="#131F2D"/>
<path d="M311.38 192.821C311.38 192.821 310.916 224.397 316.38 263.167C321.845 301.937 319.992 318.396 319.992 318.396C319.992 318.396 324.491 319.2 326.072 319.255C327.763 319.31 333.08 318.832 333.08 318.832C333.08 318.832 340.898 280.045 338.657 260.641C336.417 241.234 349.366 194.051 349.366 194.051L311.38 192.821Z" fill="#364154"/>
<path d="M336.712 118.927L330.539 123.498L321.621 121.621C321.745 120.807 322.333 117.436 322.869 114.384C322.9 114.205 322.934 114.023 322.965 113.848C323.425 111.249 323.821 109.019 323.821 109.019L332.151 104.867L335.258 103.321C335.251 103.376 335.018 106.204 334.987 106.617C334.402 113.944 336.712 118.927 336.712 118.927Z" fill="#FF7955"/>
<path d="M322.243 116.617C322.439 116.535 334.374 113.012 335.674 113.442C336.969 113.871 337.739 116.38 337.739 116.38L318.211 120.793C318.211 120.793 319.751 117.669 322.243 116.617Z" fill="#FFCC40"/>
<path d="M354.39 196.718C352.366 205.949 318.689 207.042 310.008 198.663C309.022 197.708 308.974 193.264 309.345 187.274C310.074 175.568 312.414 157.958 312.503 148.964C312.548 144.62 313.146 140.176 313.94 136.142C315.631 127.543 318.212 120.793 318.212 120.793C318.212 120.793 334.66 115.476 337.739 116.38C352.569 120.738 356.415 187.487 354.39 196.718Z" fill="#FFCC40"/>
<path d="M309.345 187.274C310.073 175.568 312.414 157.958 312.503 148.964C312.548 144.62 313.146 140.176 313.94 136.142L323.834 134.396C323.837 134.396 333.512 173.908 309.345 187.274Z" fill="#FFCC40"/>
<path d="M314.703 170.96C314.703 170.96 315.377 172.572 313.961 173.654C312.545 174.737 311.627 176.489 311.95 177.771C312.273 179.053 315.38 181.143 316.459 180.806C317.535 180.469 319.727 178.782 319.494 178.105C319.257 177.428 320.968 172.173 318.342 170.149C315.717 168.124 314.703 170.96 314.703 170.96Z" fill="#FF7955"/>
<path d="M325.769 118.425C325.769 118.425 316.119 120.23 308.431 131.564C300.743 142.895 295.684 151.318 297.1 155.405C298.516 159.488 311.428 173.654 313.655 173.654C315.882 173.654 319.473 172.035 319.676 168.392C319.676 168.392 310.586 154.769 312.376 152.727C313.143 151.855 324.178 142.895 325.752 146.943C328.357 153.638 325.769 118.425 325.769 118.425Z" fill="#FFCC40"/>
<path d="M334.357 106.74C332.529 110.242 325.71 113.267 322.868 114.38C322.899 114.201 322.933 114.019 322.964 113.844C323.425 111.246 323.82 109.015 323.82 109.015L332.151 104.864C333.993 104.833 335.113 105.3 334.357 106.74Z" fill="#EF6343"/>
<path d="M321.164 109.878C321.164 109.878 335.877 111.569 336.788 102.389C337.699 93.2097 340.214 87.2469 330.859 85.7794C321.505 84.3119 319.329 87.6318 318.278 90.6218C317.229 93.6118 317.363 109.201 321.164 109.878Z" fill="#FF7955"/>
<path d="M318.665 89.6837C318.665 89.6837 321.473 99.6297 323.484 98.7911C325.491 97.956 327.326 97.2686 327.601 100.375C327.876 103.482 325.642 107.555 332.192 106.867C338.739 106.18 344.846 87.7969 342.475 84.9857C335.636 76.8749 309.176 80.0093 318.665 89.6837Z" fill="#131F2D"/>
<path d="M342.994 95.5569L310.599 89.0339L314.235 88.0544C314.235 88.0544 317.559 74.3418 333.969 77.6205C347.613 80.3493 342.994 95.5569 342.994 95.5569Z" fill="#FFCC40"/>
<line x1="122.544" y1="114.742" x2="204.745" y2="114.742" stroke="black" stroke-width="1.15777"/>
<line x1="122.544" y1="126.32" x2="204.745" y2="126.32" stroke="black" stroke-width="1.15777"/>
<line x1="122.544" y1="137.897" x2="204.745" y2="137.897" stroke="black" stroke-width="1.15777"/>
<line x1="122.544" y1="149.475" x2="204.745" y2="149.475" stroke="black" stroke-width="1.15777"/>
<line x1="122.544" y1="68.4314" x2="244.109" y2="68.4314" stroke="black" stroke-width="1.15777"/>
<line x1="122.544" y1="80.009" x2="244.109" y2="80.009" stroke="black" stroke-width="1.15777"/>
<line x1="122.544" y1="91.5866" x2="244.109" y2="91.5866" stroke="black" stroke-width="1.15777"/>
<line x1="122.544" y1="103.164" x2="244.109" y2="103.164" stroke="black" stroke-width="1.15777"/>
<line x1="122.544" y1="56.8537" x2="244.109" y2="56.8537" stroke="black" stroke-width="1.15777"/>
<path d="M580.958 329.279H1.48471C0.910776 329.279 0.439941 328.809 0.439941 328.235C0.439941 327.661 0.910776 327.19 1.48471 327.19H580.958C581.532 327.19 582.003 327.661 582.003 328.235C582.003 328.809 581.532 329.279 580.958 329.279Z" fill="#131F2D"/>
</svg>
