<svg width="40" height="40" viewBox="0 0 40 40" fill="none" xmlns="http://www.w3.org/2000/svg">
<g clipPath="url(#clip0_277_981)">
<path d="M20.3863 40C20.2422 39.9633 20.0947 39.9356 19.9543 39.8882C19.0614 39.5882 18.4701 38.7661 18.4741 37.8235C18.4868 34.7932 18.5015 31.7626 18.5185 28.7323C18.5205 28.3513 18.5786 27.9733 18.7588 27.6349C18.8665 27.4327 19.0057 27.2349 19.1715 27.078C21.0423 25.31 22.9202 23.5493 24.7997 21.7902C24.9051 21.6915 24.9361 21.606 24.9034 21.4602C24.6422 20.2954 24.3909 19.1283 24.14 17.9615C24.127 17.9001 24.1233 17.824 24.148 17.7696C24.465 17.0726 24.7876 16.3783 25.114 15.6723C25.1547 15.6889 25.1907 15.699 25.2217 15.7173C27.1553 16.8444 29.0892 17.9712 31.0197 19.1036C31.0855 19.1423 31.1465 19.2287 31.1646 19.3038C31.7898 21.9053 32.4098 24.5085 33.0304 27.1111C33.0434 27.1651 33.0571 27.2189 33.0778 27.3019C33.3494 27.2642 33.624 27.2352 33.8952 27.1868C34.74 27.036 35.5408 26.7704 36.2432 26.2572C37.0383 25.6763 37.4701 24.8812 37.6002 23.9183C37.8017 22.4272 37.426 21.0585 36.6496 19.7966C36.2632 19.1687 35.8128 18.5804 35.395 17.9715C35.33 17.8767 35.2579 17.8661 35.1545 17.8904C34.7227 17.9922 34.2936 18.125 33.8552 18.1774C32.9623 18.2841 32.1629 17.7246 31.9353 16.8501C31.7034 15.9582 31.4989 15.0597 31.2827 14.1638C30.895 12.5556 30.5022 10.9483 30.1219 9.33843C29.887 8.34412 30.4438 7.40988 31.4355 7.15697C32.6347 6.85067 33.8382 6.56005 35.045 6.28545C36.0233 6.0629 36.9495 6.66082 37.1928 7.66112C37.7927 10.1262 38.3856 12.5929 38.9749 15.0607C39.2274 16.119 38.6392 17.0566 37.5802 17.3102C37.2412 17.3913 36.9018 17.472 36.5391 17.5588C36.5912 17.6315 36.6312 17.6892 36.6729 17.7456C37.3933 18.7122 38.0306 19.7286 38.4176 20.877C38.8778 22.2433 38.9702 23.631 38.5141 25.0184C38.1244 26.2039 37.3202 27.041 36.2285 27.6159C35.356 28.0754 34.4154 28.3009 33.4438 28.4177C33.4168 28.421 33.3901 28.425 33.3177 28.4347C33.4021 28.6649 33.4451 28.9018 33.5649 29.0903C35.1578 31.6001 36.7514 34.1092 38.3679 36.6037C38.8284 37.314 38.8554 38.7284 37.9182 39.4584C37.5862 39.717 37.2228 39.8915 36.8097 39.9663C36.773 39.9729 36.7377 39.9883 36.7016 39.9996C36.5124 39.9996 36.3236 39.9996 36.1344 39.9996C36.1261 39.9926 36.1184 39.981 36.1091 39.9796C35.405 39.8795 34.9322 39.4671 34.5619 38.8836C32.7908 36.0935 31.0074 33.3115 29.2393 30.5194C29.0758 30.2612 28.9504 29.9642 28.875 29.6679C28.6094 28.6249 28.3732 27.5742 28.1256 26.5262C28.0315 26.1288 27.9364 25.7317 27.8376 25.3183C27.7929 25.349 27.7656 25.3654 27.7409 25.3857C26.3188 26.5522 24.8964 27.7183 23.475 28.8858C23.3085 29.0226 23.0863 29.1374 23.0016 29.3156C22.9162 29.4947 22.9669 29.7403 22.9632 29.9569C22.9212 32.6525 22.8825 35.3481 22.8377 38.0434C22.8244 38.8552 22.2945 39.5746 21.5265 39.8372C21.3286 39.9049 21.1217 39.9463 20.9192 39.9996C20.742 40 20.5642 40 20.3863 40Z" fill="#383737"/>
<path d="M30.8404 17.9402C29.044 16.8922 27.2806 15.8631 25.5069 14.8281C25.6687 14.4791 25.8279 14.1438 25.9794 13.8051C26.0968 13.5432 25.9997 13.2796 25.7568 13.1755C25.5159 13.0724 25.2764 13.1678 25.1529 13.4294C24.8736 14.022 24.6004 14.6173 24.3244 15.2115C23.9527 16.012 23.5817 16.8131 23.2077 17.6125C23.0642 17.9195 22.8226 18.126 22.509 18.2441C20.6091 18.9615 18.7076 19.6755 16.8078 20.3926C16.0143 20.6919 15.0974 20.3025 14.8345 19.5501C14.5893 18.8484 14.9913 17.9962 15.6867 17.748C17.3119 17.1678 18.9375 16.5875 20.5641 16.011C20.6689 15.9739 20.7229 15.9182 20.7603 15.8144C21.4893 13.8061 22.2017 11.7912 22.9624 9.79488C23.3568 8.75986 24.5106 7.55902 26.1289 7.56903C26.8769 7.5737 27.4935 7.88367 28.0023 8.41853C28.6056 9.05315 28.9299 9.8199 29.1248 10.6681C29.671 13.0427 30.2445 15.411 30.8071 17.782C30.8164 17.8194 30.8231 17.8568 30.8404 17.9402Z" fill="#383737"/>
<path d="M24.99 4.18877C21.6063 4.18877 18.2514 4.18877 14.8865 4.18877C14.8865 3.84277 14.8865 3.50644 14.8865 3.14709C16.0499 3.14709 17.2131 3.14709 18.3772 3.14709C18.4129 2.94056 18.4366 2.75371 18.4783 2.5712C18.8166 1.09776 20.0839 0.0544085 21.5943 0.00202406C23.4291 -0.0620384 24.9943 1.45044 24.9916 3.28522C24.9913 3.53547 24.9903 3.78538 24.99 4.03562C24.99 4.08834 24.99 4.14073 24.99 4.18877Z" fill="#FFBB00"/>
<path d="M22.3021 10.7728C19.3683 11.0528 16.3583 8.77087 16.1638 5.03925C19.0967 5.03925 22.0292 5.03925 24.9757 5.03925C24.9684 5.54741 24.8476 6.01987 24.6087 6.45896C24.1356 7.32881 23.4096 7.87167 22.4456 8.08988C22.3228 8.11757 22.2998 8.16595 22.3001 8.27673C22.3038 9.04381 22.3021 9.81089 22.3021 10.578C22.3021 10.6434 22.3021 10.7091 22.3021 10.7728ZM17.3179 6.03588C17.7153 7.99112 19.4303 9.59234 21.2998 9.75717C21.2998 8.51963 21.2998 7.28309 21.2998 6.03588C19.9712 6.03588 18.6509 6.03588 17.3179 6.03588Z" fill="#383737"/>
<path d="M6.2605 30.6035C6.33257 30.4577 6.38729 30.2999 6.47938 30.1684C7.55443 28.6346 8.63481 27.1048 9.7142 25.5743C10.9347 23.8439 12.1562 22.1143 13.3751 20.3829C13.4949 20.2127 13.6337 20.0759 13.8479 20.0456C14.1268 20.0059 14.3567 20.0963 14.5082 20.3369C14.672 20.5968 14.6377 20.853 14.4635 21.0996C13.7805 22.0662 13.0985 23.0342 12.4165 24.0018C10.7866 26.314 9.15632 28.6256 7.52807 30.9389C7.3529 31.1878 7.13168 31.3256 6.81971 31.2648C6.50474 31.2035 6.29687 30.9432 6.2605 30.6035Z" fill="#FFBB00"/>
<path d="M34.7312 5.40294C33.5193 5.69556 32.3295 5.98284 31.1213 6.27446C30.9655 5.62917 30.8123 4.99588 30.6555 4.34658C31.859 4.05563 33.0495 3.76802 34.264 3.47473C34.4195 4.11736 34.573 4.74997 34.7312 5.40294Z" fill="#FFBB00"/>
<path d="M6.16313 34.6455C5.83848 34.6495 5.58057 34.3922 5.58057 34.0649C5.5809 33.7573 5.83815 33.497 6.14145 33.4977C6.46176 33.4983 6.71767 33.7463 6.72468 34.0622C6.73135 34.3782 6.47777 34.6418 6.16313 34.6455Z" fill="#FFBB00"/>
<path d="M2.99623 33.0469C2.99823 33.3542 2.72763 33.6251 2.42134 33.6221C2.10937 33.6191 1.84244 33.3542 1.84277 33.0479C1.84311 32.7386 2.10837 32.4757 2.42034 32.4753C2.73664 32.4753 2.99423 32.7306 2.99623 33.0469Z" fill="#FFBB00"/>
<path d="M5.68047 35.9754C5.68514 35.6687 5.94273 35.4108 6.24468 35.4108C6.56466 35.4108 6.83726 35.6801 6.83225 35.9914C6.82758 36.302 6.55532 36.5576 6.22833 36.5586C5.94172 36.56 5.67613 36.2774 5.68047 35.9754Z" fill="#FFBB00"/>
<path d="M1.14748 33.5434C1.15115 33.857 0.894899 34.12 0.580926 34.1246C0.270289 34.1293 0.00302876 33.8681 2.58285e-05 33.5571C-0.0029771 33.2411 0.256276 32.9748 0.565577 32.9765C0.882887 32.9778 1.14381 33.2321 1.14748 33.5434Z" fill="#FFBB00"/>
<path d="M4.58993 34.6454C4.27796 34.6454 4.0127 34.3855 4.01003 34.0769C4.00736 33.7623 4.27229 33.5067 4.60261 33.5057C4.91692 33.5043 5.16549 33.7643 5.15982 34.0879C5.15448 34.3935 4.89723 34.6454 4.58993 34.6454Z" fill="#FFBB00"/>
<path d="M6.03583 32.7297C5.72052 32.7223 5.46527 32.457 5.47461 32.146C5.48396 31.8354 5.75489 31.5798 6.06485 31.5888C6.38183 31.5981 6.63541 31.8641 6.62406 32.1751C6.61205 32.4958 6.35647 32.737 6.03583 32.7297Z" fill="#FFBB00"/>
<path d="M4.07568 35.6585C4.07501 35.9778 3.82077 36.2314 3.50412 36.229C3.19482 36.2264 2.93524 35.9621 2.93457 35.6498C2.93424 35.3312 3.18315 35.088 3.5108 35.0873C3.83278 35.0863 4.07635 35.3328 4.07568 35.6585Z" fill="#FFBB00"/>
<path d="M6.34111 37.3205C6.65875 37.3181 6.92435 37.569 6.93169 37.879C6.93936 38.1912 6.68311 38.4571 6.3688 38.4635C6.04749 38.4702 5.77722 38.2059 5.77956 37.888C5.78223 37.579 6.03547 37.3228 6.34111 37.3205Z" fill="#FFBB00"/>
<path d="M3.69923 32.5354C3.70123 32.2241 3.95682 31.9665 4.25911 31.9715C4.5871 31.9765 4.84268 32.2358 4.83734 32.5577C4.83234 32.8701 4.56508 33.1303 4.25578 33.1233C3.9418 33.1163 3.69723 32.8577 3.69923 32.5354Z" fill="#FFBB00"/>
<path d="M3.00223 37.2387C2.99956 37.5557 2.74364 37.8056 2.42466 37.8033C2.10569 37.8006 1.85477 37.547 1.85744 37.2293C1.85978 36.9083 2.1247 36.6567 2.45269 36.6634C2.75832 36.6697 3.0049 36.9277 3.00223 37.2387Z" fill="#FFBB00"/>
</g>
<defs>
<clipPath id="clip0_277_981">
<rect width="39.0331" height="40" fill="white"/>
</clipPath>
</defs>
</svg>
