<svg width="40" height="26" viewBox="0 0 40 26" fill="none" xmlns="http://www.w3.org/2000/svg">
<g clipPath="url(#clip0_277_970)">
<path d="M39.9999 1.44735C39.3022 1.44655 38.6044 1.43777 37.9067 1.44655C36.3428 1.46651 35.0423 2.74942 35.0263 4.27821C35.0104 5.83414 36.2422 7.10188 37.8372 7.15057C38.4927 7.17053 39.1497 7.15377 39.8059 7.15377C39.8211 7.1873 39.8354 7.22083 39.8506 7.25436C39.7596 7.35015 39.6742 7.45234 39.576 7.54015C37.7957 9.11604 35.0415 8.78394 33.6939 6.80729C33.492 6.51112 33.2884 6.42889 32.9579 6.43528C31.9991 6.45364 31.0395 6.44166 30.0256 6.44166C30.0256 5.70641 30.0256 5.00069 30.0256 4.29417C30.0256 3.59804 30.0256 2.9019 30.0256 2.15547C30.7337 2.15547 31.4163 2.12034 32.0933 2.16505C32.8948 2.21773 33.4656 2.06446 34.0444 1.35235C35.4718 -0.40316 38.1143 -0.427908 39.7348 1.14958C39.8163 1.22941 39.9113 1.29567 39.9999 1.36832C39.9999 1.39466 39.9999 1.42101 39.9999 1.44735Z" fill="#FFBB00"/>
<path d="M13.5644 25.7483C13.5644 25.5839 13.5644 25.4418 13.5644 25.2997C13.5644 23.719 13.5588 22.1383 13.5668 20.5576C13.57 19.8399 13.3904 19.1925 13.0032 18.5786C11.6764 16.4742 10.3783 14.3523 9.05468 12.2463C8.73136 11.7314 8.69064 11.2316 8.91896 10.6736C9.49056 9.27333 10.0406 7.86428 10.605 6.46163C10.9882 5.51003 11.7147 5.01586 12.7437 5.01267C14.8513 5.00708 16.9589 5.00868 19.0665 5.01187C19.7881 5.01267 20.0636 5.36872 19.9135 6.08083C19.6029 7.54974 18.5348 8.475 16.9916 8.55723C16.1374 8.60273 15.28 8.58198 14.4242 8.58836C14.0362 8.59156 13.7169 8.70652 13.5971 9.11606C13.4822 9.50803 13.6586 9.81698 14.1057 10.0126C15.1994 10.4924 16.2013 11.1167 17.0834 11.923C18.411 13.1356 19.2493 14.5886 19.2892 16.4351C19.2988 16.8949 19.6229 17.1991 20.0364 17.1783C20.4332 17.1584 20.7134 16.8486 20.7102 16.4032C20.695 14.555 20.0228 12.9592 18.7926 11.6036C18.2841 11.044 17.7005 10.5538 17.1273 10.0094C18.5451 9.91358 19.686 9.29488 20.5673 8.15807C21.1485 8.86059 21.8542 9.26774 22.7507 9.30047C23.6496 9.3332 24.3889 8.98513 25.0068 8.34088C26.039 9.3811 27.2125 9.56392 28.5194 8.97555C28.5402 8.99391 28.5753 9.00908 28.5761 9.02585C28.6639 11.3554 28.7054 13.692 27.4201 15.7677C26.7016 16.9285 25.849 18.007 25.0523 19.1199C24.7761 19.5054 24.4998 19.8918 24.2021 20.2591C23.7478 20.8195 23.573 21.4629 23.573 22.1679C23.573 23.2089 23.573 24.2491 23.573 25.2901C23.573 25.4338 23.573 25.5767 23.573 25.7483C20.2304 25.7483 16.9198 25.7483 13.5644 25.7483Z" fill="#383737"/>
<path d="M0.17164 7.15061C0.866979 7.15061 1.56392 7.17216 2.25846 7.14582C3.77607 7.08914 4.97435 5.82459 4.97515 4.30618C4.97595 2.79735 3.68905 1.48251 2.16426 1.44898C1.47211 1.43461 0.779962 1.44658 0 1.44658C0.766391 0.581998 1.64614 0.103802 2.71031 0.0327514C4.2862 -0.071829 5.5252 0.565233 6.40176 1.87688C6.54545 2.09243 6.68835 2.16348 6.93823 2.16108C8.26824 2.14911 9.59824 2.15549 10.9283 2.15549C11.0704 2.15549 11.2133 2.15549 11.4072 2.15549C11.4072 2.68079 11.4152 3.17575 11.3993 3.66992C11.3969 3.74576 11.2979 3.85193 11.2188 3.88706C10.2185 4.32773 9.5695 5.08694 9.21665 6.104C9.12244 6.37464 8.98114 6.45846 8.70253 6.44888C8.11097 6.42733 7.51701 6.45607 6.92546 6.43611C6.65562 6.42733 6.50793 6.52313 6.35705 6.74666C4.98952 8.77759 2.22892 9.14003 0.425506 7.54258C0.319329 7.44838 0.186009 7.38372 0.0654625 7.30468C0.0997904 7.25359 0.135715 7.2025 0.17164 7.15061Z" fill="#FFBB00"/>
<path d="M25.7252 3.92776C25.7252 3.09831 25.7084 2.26805 25.73 1.43939C25.7484 0.722493 26.2042 0.179632 26.8484 0.0407236C27.4751 -0.0941932 28.129 0.196397 28.4108 0.771989C28.5122 0.978755 28.5832 1.22304 28.5848 1.45136C28.5992 3.11028 28.6048 4.7692 28.588 6.42811C28.58 7.17934 28.0771 7.75174 27.4073 7.85312C26.7032 7.9593 26.0589 7.60564 25.8306 6.95501C25.7539 6.73707 25.7308 6.49198 25.7268 6.25887C25.7148 5.4821 25.722 4.70533 25.722 3.92856C25.7228 3.92776 25.7236 3.92776 25.7252 3.92776Z" fill="#383737"/>
<path d="M24.2874 3.96049C24.2874 4.7636 24.2938 5.56671 24.2858 6.36983C24.277 7.26235 23.6879 7.87227 22.8552 7.86908C22.029 7.86588 21.4334 7.2416 21.4302 6.35546C21.4246 4.74923 21.4246 3.143 21.4302 1.53598C21.4334 0.64824 22.0266 0.0215564 22.8496 0.0159682C23.6823 0.0103799 24.2762 0.621896 24.2858 1.51123C24.2946 2.32791 24.2874 3.1446 24.2874 3.96049Z" fill="#383737"/>
<path d="M15.6638 3.56452C14.741 3.56452 13.8133 3.56452 12.8753 3.56452C12.8753 2.75742 12.8338 1.96867 12.8881 1.18632C12.9336 0.527702 13.5531 0.0367328 14.2221 0.0183714C14.927 -0.000788374 15.5768 0.432701 15.6455 1.11926C15.7245 1.92078 15.6638 2.73666 15.6638 3.56452Z" fill="#383737"/>
<path d="M17.1543 3.62355C17.1543 2.77493 17.1239 2.01413 17.1631 1.25652C17.1998 0.545218 17.8608 0.00714762 18.5969 0.0167275C19.3241 0.0263074 19.9556 0.581142 19.9875 1.30841C20.0219 2.09317 19.9955 2.88111 19.9955 3.62355C19.0495 3.62355 18.1258 3.62355 17.1543 3.62355Z" fill="#383737"/>
</g>
<defs>
<clipPath id="clip0_277_970">
<rect width="40" height="25.7483" fill="white"/>
</clipPath>
</defs>
</svg>
