<svg width="40" height="40" viewBox="0 0 40 40" fill="none" xmlns="http://www.w3.org/2000/svg">
<g clipPath="url(#clip0_277_999)">
<path d="M14.9553 0C15.5084 0.470833 16.072 0.930208 16.6126 1.41562C20.7407 5.11771 24.8647 8.82604 28.9907 12.5323C29.0876 12.6187 29.1897 12.7021 29.2741 12.801C29.6324 13.2177 29.4574 13.8354 28.9293 13.9885C28.7584 14.0385 28.5699 14.0417 28.3886 14.0417C19.2886 14.0437 10.1876 14.0438 1.08762 14.0438C0.996993 14.0438 0.905326 14.0458 0.814701 14.0417C0.460535 14.0271 0.175118 13.8896 0.0501185 13.5417C-0.0738397 13.1969 0.0417852 12.9135 0.314702 12.6719C1.34595 11.7542 2.36991 10.8302 3.39699 9.90833C6.87303 6.78438 10.3491 3.66042 13.8272 0.539583C14.0387 0.35 14.2657 0.179167 14.4866 0C14.6428 0 14.7991 0 14.9553 0Z" fill="#383737"/>
<path d="M30.6586 40C30.2877 39.7969 30.1669 39.4885 30.169 39.0667C30.1825 36.4114 30.1752 33.7552 30.1763 31.1C30.1763 30.3927 30.4013 30.1719 31.1148 30.1708C31.9221 30.1698 32.7294 30.1667 33.5356 30.1719C34.1106 30.176 34.3815 30.4333 34.3825 31.0052C34.3877 33.726 34.3825 36.4469 34.3877 39.1667C34.3888 39.5646 34.2138 39.8323 33.8617 39.9989C32.794 40 31.7263 40 30.6586 40Z" fill="#FFBB00"/>
<path d="M26.6584 28.0292C26.6605 28.7188 26.6719 29.4094 26.6626 30.099C26.6553 30.5906 26.3928 30.8646 25.9199 30.8667C23.8886 30.8729 21.8584 30.8688 19.8271 30.8677C19.7782 30.8677 19.7292 30.8542 19.6428 30.8417C19.6428 30.6917 19.6428 30.5521 19.6428 30.4125C19.6428 28.2261 19.6501 26.0386 19.6407 23.8521C19.6313 21.7 18.2417 19.8188 16.2094 19.175C14.1876 18.5344 11.9938 19.2667 10.7376 21.0052C10.1074 21.8781 9.81361 22.8604 9.81256 23.9313C9.80944 26.0667 9.81152 28.2011 9.81152 30.3365C9.81152 30.4927 9.81152 30.6479 9.81152 30.8708C9.67298 30.8708 9.55007 30.8708 9.42715 30.8708C7.51361 30.8708 5.60007 30.8719 3.68652 30.8698C3.04277 30.8698 2.79798 30.6406 2.79798 30.0104C2.79486 25.2594 2.7959 20.5073 2.79694 15.7563C2.79694 15.6677 2.81465 15.5792 2.82611 15.4677C10.7636 15.4677 18.6855 15.4677 26.6365 15.4677C26.6365 15.9094 26.6365 16.3458 26.6365 16.85C26.4282 16.85 26.2126 16.8458 25.9969 16.851C24.7428 16.876 23.8699 17.7542 23.8563 19.0031C23.8521 19.4313 23.8553 19.8583 23.8553 20.3479C23.6501 20.3479 23.474 20.3448 23.299 20.3479C21.8959 20.3771 21.048 21.2365 21.0459 22.6354C21.0438 23.7156 21.0417 24.7969 21.0469 25.8771C21.0522 27.1698 21.9376 28.0573 23.2334 28.0594C24.3782 28.0625 25.523 28.0469 26.6678 28.0406L26.6584 28.0292Z" fill="#383737"/>
<path d="M32.3012 18.2469C34.3054 18.2469 36.3085 18.2458 38.3127 18.2469C39.0804 18.2479 39.2898 18.4552 39.2908 19.2156C39.2929 20.4521 39.2939 21.6875 39.2908 22.924C39.2887 23.6344 39.0689 23.8521 38.3544 23.8521C34.3075 23.8531 30.2606 23.8531 26.2148 23.8521C25.47 23.8521 25.2627 23.6448 25.2627 22.9062C25.2616 21.6437 25.2606 20.3823 25.2627 19.1198C25.2637 18.4854 25.4939 18.2489 26.1346 18.2479C28.1898 18.2448 30.245 18.2479 32.3012 18.2469Z" fill="#383737"/>
<path d="M11.2345 30.8396C11.2272 30.7386 11.2157 30.6511 11.2157 30.5625C11.2147 28.3365 11.1959 26.1104 11.2209 23.8844C11.248 21.4188 13.5991 19.7386 15.8855 20.5563C17.2762 21.0531 18.1459 22.0886 18.2011 23.5521C18.2939 25.9677 18.2262 28.3906 18.2262 30.8396C15.8959 30.8396 13.5772 30.8396 11.2345 30.8396Z" fill="#FFBB00"/>
<path d="M26.7096 26.6021C26.5836 26.6219 26.4575 26.6573 26.3315 26.6583C25.3304 26.6625 24.3304 26.6635 23.3294 26.6604C22.6898 26.6583 22.4554 26.425 22.4534 25.7958C22.4513 24.7563 22.4523 23.7167 22.4534 22.6771C22.4544 21.9906 22.6794 21.7625 23.3575 21.7552C23.5106 21.7542 23.6627 21.7552 23.8575 21.7552C23.8575 22.2115 23.8554 22.624 23.8575 23.0354C23.8638 24.3636 24.7106 25.2271 26.0398 25.2604C26.2315 25.2656 26.4232 25.2615 26.6377 25.2615C26.6617 25.7385 26.6836 26.1729 26.7044 26.6073C26.7044 26.6063 26.7096 26.6021 26.7096 26.6021Z" fill="#383737"/>
<path d="M25.2595 7.29793C24.3043 6.43751 23.4241 5.65106 22.5543 4.85314C22.4835 4.78855 22.4585 4.64585 22.4564 4.5396C22.447 3.98022 22.4449 3.42085 22.4543 2.86147C22.4627 2.38022 22.7252 2.1198 23.2095 2.10939C23.6387 2.10001 24.0679 2.10001 24.497 2.10939C24.9575 2.11876 25.2502 2.37501 25.2543 2.82397C25.2679 4.27814 25.2595 5.73231 25.2595 7.29793Z" fill="#FFBB00"/>
<path d="M26.67 28.0396C26.6825 27.5604 26.696 27.0813 26.7096 26.6021L26.7054 26.6063C26.8439 26.624 26.9814 26.6573 27.1189 26.6584C28.3408 26.6625 29.5627 26.6511 30.7835 26.6636C32.0252 26.6761 32.8814 27.4865 32.9596 28.7292C32.5137 28.7292 32.0689 28.7292 31.5908 28.7292C31.4783 28.149 31.0481 28.0479 30.5137 28.0563C29.37 28.074 28.2262 28.0625 27.0825 28.0604C26.9408 28.0604 26.7991 28.0407 26.6575 28.0302C26.6585 28.0292 26.67 28.0396 26.67 28.0396Z" fill="#383737"/>
</g>
<defs>
<clipPath id="clip0_277_999">
<rect width="39.2927" height="40" fill="white"/>
</clipPath>
</defs>
</svg>
