<svg width="350" height="265" viewBox="0 0 350 265" fill="none" xmlns="http://www.w3.org/2000/svg">
<path d="M341.837 240.617C341.75 237.371 339.772 236.065 337.222 236.002C336.6 235.986 336.028 236.057 335.641 236.363C333.132 238.341 333.362 242.279 333.987 243.936C334.914 246.392 337.677 245.851 337.381 247.458C337.109 248.927 334.517 249.53 334.624 252.125C334.713 254.291 338.197 256.032 339.43 259.951C340.857 264.483 337.282 263.364 338.889 264.964C341.293 267.36 347.58 267.676 348.657 265.431C350.818 260.929 347.951 261.689 347.766 256.583C347.625 252.721 348.513 250.359 347.664 248.161C346.59 245.381 343.781 247.492 342.299 244.547C341.748 243.447 341.865 241.709 341.837 240.617Z" fill="#F1C936"/>
<path d="M337.463 239.498C337.774 240.669 338.08 241.837 338.425 242.997C338.759 244.158 339.109 245.313 339.488 246.46C339.872 247.602 340.269 248.741 340.742 249.841C340.978 250.393 341.226 250.936 341.511 251.456C341.795 251.976 342.109 252.475 342.498 252.896C342.932 253.387 343.23 253.931 343.51 254.48C343.787 255.028 344.032 255.59 344.254 256.157C344.696 257.294 345.078 258.449 345.399 259.622C345.723 260.793 345.992 261.979 346.193 263.179C346.29 263.78 346.366 264.381 346.413 264.987C346.46 265.591 346.473 266.205 346.387 266.806C346.426 265.596 346.196 264.402 345.94 263.228C345.679 262.052 345.36 260.89 345.004 259.74C344.641 258.593 344.254 257.451 343.792 256.345C343.562 255.791 343.322 255.243 343.05 254.715C342.778 254.19 342.48 253.667 342.109 253.254C341.678 252.784 341.349 252.245 341.056 251.704C340.763 251.161 340.51 250.604 340.28 250.037C339.823 248.906 339.433 247.753 339.091 246.588C338.411 244.249 337.876 241.884 337.463 239.498Z" fill="#FFB717"/>
<path d="M344.487 247.544C344.341 248.106 344.181 248.652 344.022 249.196C343.868 249.742 343.703 250.28 343.559 250.824C343.41 251.365 343.28 251.911 343.157 252.46C343.045 253.011 342.951 253.562 342.872 254.137C342.734 253.573 342.713 252.982 342.752 252.402C342.796 251.822 342.911 251.25 343.055 250.688C343.214 250.131 343.403 249.583 343.64 249.057C343.876 248.527 344.145 248.015 344.487 247.544Z" fill="#FFB717"/>
<path d="M344.771 258.922C344.27 258.553 343.794 258.162 343.326 257.767L341.931 256.581C341.474 256.178 341.006 255.794 340.535 255.41C340.062 255.031 339.589 254.655 339.046 254.352C339.668 254.451 340.24 254.751 340.768 255.075C341.301 255.402 341.798 255.781 342.268 256.183C342.736 256.591 343.185 257.014 343.603 257.472C344.027 257.926 344.424 258.402 344.771 258.922Z" fill="#FFB717"/>
<path d="M319.45 250.322C317.746 248.414 314.861 248.861 313.241 250.839C312.846 251.323 312.269 252.164 312.237 252.684C312.102 254.9 313.719 256.797 315.533 257.508C319.136 258.919 321.187 257.106 322.395 258.514C323.495 259.8 321.073 261.506 322.021 263.085C323.903 266.218 330.294 264.112 334.434 265.985C339.221 268.154 336.061 270.177 338.426 270.067C341.97 269.9 346.101 265.133 344.826 262.643C342.268 257.644 343.561 259.465 338.515 256.635C335.382 254.877 333.336 251.54 330.919 250.615C327.861 249.444 326.173 253.743 321.937 252.324C320.67 251.898 320.273 251.245 319.45 250.322Z" fill="#60A431"/>
<path d="M315.169 252.684C316.361 253.285 317.55 253.892 318.757 254.461C319.956 255.041 321.166 255.601 322.384 256.136C323.604 256.664 324.832 257.179 326.084 257.613C326.709 257.83 327.338 258.031 327.976 258.19C328.614 258.347 329.251 258.465 329.891 258.465L330.422 258.504C330.594 258.527 330.762 258.564 330.931 258.595C331.274 258.648 331.595 258.755 331.924 258.836C332.575 259.024 333.213 259.238 333.842 259.476C335.097 259.959 336.325 260.5 337.524 261.096C338.726 261.687 339.9 262.337 341.039 263.04C341.324 263.215 341.603 263.398 341.88 263.589L342.296 263.869L342.701 264.166C343.247 264.553 343.754 264.997 344.217 265.478C343.213 264.595 342.069 263.908 340.906 263.26C339.743 262.612 338.554 262.016 337.347 261.462C336.137 260.913 334.914 260.388 333.667 259.938C333.354 259.834 333.045 259.714 332.729 259.612C332.413 259.518 332.102 259.408 331.783 259.324C331.464 259.249 331.148 259.147 330.829 259.1C330.67 259.073 330.511 259.037 330.354 259.016L329.886 258.985C329.188 258.982 328.504 258.849 327.851 258.684C327.192 258.514 326.549 258.31 325.919 258.078C324.657 257.613 323.426 257.082 322.217 256.507C319.794 255.36 317.448 254.075 315.169 252.684Z" fill="#4F8627"/>
<path d="M326.931 253.552C326.91 253.521 326.89 253.487 326.869 253.453C326.858 253.434 326.85 253.419 326.843 253.398C326.84 253.393 326.837 253.387 326.837 253.377C326.84 253.369 326.829 253.364 326.85 253.338C326.871 253.317 326.884 253.327 326.9 253.33L326.918 253.34C326.994 253.39 327.046 253.445 327.104 253.5C327.216 253.609 327.318 253.724 327.423 253.837C327.626 254.069 327.822 254.305 328.011 254.545C328.392 255.023 328.747 255.52 329.098 256.016C329.443 256.518 329.782 257.022 330.109 257.534L330.6 258.303C330.765 258.559 330.922 258.817 331.118 259.053C330.841 258.901 330.621 258.676 330.399 258.462C330.185 258.24 329.976 258.013 329.78 257.775C329.382 257.304 329.022 256.811 328.669 256.314C328.324 255.81 327.987 255.3 327.676 254.777C327.517 254.516 327.368 254.252 327.214 253.988L326.989 253.591C326.952 253.526 326.91 253.455 326.871 253.408C326.876 253.406 326.876 253.403 326.892 253.395C326.905 253.374 326.897 253.382 326.897 253.382C326.895 253.406 326.9 253.426 326.903 253.445C326.913 253.476 326.924 253.515 326.931 253.552Z" fill="#4F8627"/>
<path d="M336.417 261.025C335.784 261.146 335.157 261.235 334.53 261.316L332.654 261.553C332.34 261.587 332.029 261.629 331.721 261.674C331.41 261.71 331.102 261.762 330.791 261.809C330.171 261.911 329.56 262.018 328.959 262.246C329.455 261.828 330.085 261.59 330.699 261.412C331.319 261.232 331.954 261.114 332.589 261.033C333.224 260.96 333.861 260.911 334.501 260.908C335.142 260.905 335.779 260.931 336.417 261.025Z" fill="#4F8627"/>
<path d="M329.518 248.495C329.518 248.495 329.379 247.296 329.632 245.992C330.006 244.064 328.203 241.636 326.669 241.871C325.135 242.106 324.012 243.039 324.796 244.678C326.144 247.489 327.592 248.14 329.518 248.495Z" fill="white"/>
<path d="M337.211 250.892C336.96 249.708 335.672 248.72 334.451 248.89C333.848 248.974 333.077 249.577 333.239 250.573C333.594 252.771 334.835 256.139 334.835 256.139C334.835 256.139 337.867 253.999 337.211 250.892Z" fill="white"/>
<path d="M331.279 260.124C329.988 259.923 328.883 258.763 329.037 257.636C329.113 257.08 329.831 256.304 330.866 256.79C333.571 258.06 336.921 257.809 336.921 257.809C336.921 257.809 334.668 260.652 331.279 260.124Z" fill="white"/>
<path d="M335.857 263.244C337.007 264.496 340.015 266.591 343.621 262.259C343.621 262.259 340.483 263.213 338.951 262.013C338.321 261.519 337.376 261.352 336.788 261.31C335.693 261.235 335.084 262.403 335.857 263.244Z" fill="white"/>
<path d="M339.905 253.813C341.522 254.333 344.687 256.189 342.259 261.276C342.259 261.276 341.81 258.026 340.08 257.137C339.369 256.771 338.818 255.982 338.536 255.465C338.01 254.506 338.818 253.463 339.905 253.813Z" fill="white"/>
<path d="M324.545 251.932C325.323 253.364 327.555 256.027 332.559 253.037C332.559 253.037 329.078 253.084 327.897 251.6C327.411 250.988 326.502 250.591 325.919 250.4C324.832 250.045 324.022 250.968 324.545 251.932Z" fill="white"/>
<path d="M347.281 264.224C347.181 264.18 337.215 259.627 333.679 254.859C330.157 250.11 329.284 248.493 329.25 248.425L329.506 248.289C329.514 248.305 330.41 249.961 333.912 254.686C337.403 259.395 347.302 263.916 347.401 263.96L347.281 264.224Z" fill="white"/>
<path d="M7.62296 240.617C7.7092 237.371 9.68735 236.065 12.2378 236.002C12.8597 235.986 13.432 236.057 13.8187 236.363C16.3273 238.341 16.0974 242.279 15.4728 243.936C14.5452 246.392 11.7831 245.851 12.0784 247.458C12.3501 248.927 14.9424 249.53 14.8352 252.125C14.7464 254.291 11.2631 256.032 10.0297 259.951C8.60289 264.483 12.1777 263.364 10.5706 264.964C8.1665 267.36 1.87927 267.676 0.802659 265.431C-1.35841 260.929 1.50821 261.689 1.69374 256.583C1.83485 252.721 0.946383 250.359 1.79565 248.161C2.86966 245.381 5.67878 247.492 7.16044 244.547C7.71442 243.447 7.59422 241.709 7.62296 240.617Z" fill="#F1C936"/>
<path d="M11.9978 239.498C11.6868 240.669 11.3811 241.837 11.0361 242.997C10.7017 244.158 10.3515 245.313 9.9726 246.46C9.58847 247.602 9.19127 248.741 8.71829 249.841C8.48311 250.393 8.23486 250.936 7.95003 251.456C7.6652 251.976 7.35162 252.475 6.96226 252.896C6.52848 253.387 6.23058 253.931 5.95097 254.48C5.67398 255.028 5.42835 255.59 5.20623 256.157C4.76461 257.294 4.38309 258.449 4.06167 259.622C3.73764 260.793 3.46849 261.979 3.26728 263.179C3.17059 263.78 3.09481 264.381 3.04778 264.987C3.00074 265.591 2.98767 266.205 3.0739 266.806C3.03471 265.596 3.26467 264.402 3.52075 263.228C3.78207 262.052 4.10087 260.89 4.45626 259.74C4.81949 258.593 5.20623 257.451 5.66876 256.345C5.89871 255.791 6.13912 255.243 6.41089 254.715C6.68266 254.19 6.98055 253.667 7.35162 253.254C7.78279 252.784 8.11205 252.245 8.40472 251.704C8.69739 251.161 8.95086 250.604 9.18082 250.037C9.63812 248.906 10.0275 247.753 10.3698 246.588C11.0492 244.249 11.5849 241.884 11.9978 239.498Z" fill="#FFB717"/>
<path d="M4.97266 247.544C5.11899 248.106 5.27839 248.652 5.4378 249.196C5.59197 249.742 5.7566 250.28 5.90032 250.824C6.04927 251.365 6.17993 251.911 6.30274 252.46C6.41511 253.011 6.50918 253.562 6.58758 254.137C6.72607 253.573 6.74698 252.982 6.70778 252.402C6.66336 251.822 6.54838 251.25 6.40466 250.688C6.24526 250.131 6.05711 249.583 5.81931 249.057C5.58413 248.527 5.31498 248.015 4.97266 247.544Z" fill="#FFB717"/>
<path d="M4.68848 258.922C5.1902 258.553 5.66579 258.162 6.13354 257.767L7.52896 256.581C7.98626 256.178 8.45401 255.794 8.92438 255.41C9.39736 255.031 9.87034 254.655 10.4139 254.352C9.79194 254.451 9.21966 254.751 8.69181 255.075C8.15873 255.402 7.66223 255.781 7.19186 256.183C6.72411 256.591 6.27465 257.014 5.85655 257.472C5.43322 257.926 5.03602 258.402 4.68848 258.922Z" fill="#FFB717"/>
<path d="M30.0092 250.322C31.713 248.414 34.5979 248.861 36.2181 250.839C36.6127 251.323 37.1902 252.164 37.2215 252.684C37.3574 254.9 35.7399 256.797 33.9263 257.508C30.3228 258.919 28.2715 257.106 27.0642 258.514C25.9641 259.8 28.3865 261.506 27.4379 263.085C25.5564 266.218 19.1647 264.112 15.0255 265.985C10.2382 268.154 13.3975 270.177 11.0326 270.067C7.48918 269.9 3.3578 265.133 4.63301 262.643C7.19128 257.644 5.89777 259.465 10.9437 256.635C14.0769 254.877 16.123 251.54 18.5402 250.615C21.5975 249.444 23.2856 253.743 27.5215 252.324C28.7889 251.898 29.1861 251.244 30.0092 250.322Z" fill="#60A431"/>
<path d="M34.2899 252.684C33.0983 253.285 31.9093 253.892 30.702 254.461C29.5026 255.041 28.2927 255.601 27.075 256.136C25.8547 256.664 24.6265 257.179 23.3748 257.613C22.7502 257.83 22.1205 258.031 21.4829 258.19C20.8453 258.347 20.2077 258.465 19.5674 258.465L19.037 258.504C18.8645 258.527 18.6973 258.564 18.5274 258.595C18.1851 258.648 17.8637 258.755 17.5344 258.836C16.8837 259.024 16.2461 259.238 15.6164 259.476C14.3621 259.959 13.1339 260.5 11.9344 261.096C10.7324 261.687 9.5591 262.337 8.41977 263.04C8.13494 263.215 7.85533 263.398 7.57834 263.589L7.16285 263.869L6.75781 264.166C6.21166 264.553 5.70471 264.997 5.24219 265.478C6.24563 264.595 7.39019 263.908 8.55304 263.26C9.71589 262.612 10.9049 262.016 12.1121 261.462C13.322 260.913 14.545 260.388 15.7914 259.938C16.105 259.834 16.4134 259.714 16.7296 259.612C17.0458 259.518 17.3567 259.408 17.6755 259.324C17.9943 259.249 18.3105 259.147 18.6293 259.1C18.7887 259.073 18.9481 259.037 19.1049 259.016L19.5727 258.985C20.2704 258.982 20.955 258.849 21.6083 258.684C22.2668 258.514 22.9096 258.31 23.5394 258.078C24.8016 257.613 26.0324 257.082 27.2422 256.507C29.6646 255.36 32.0112 254.075 34.2899 252.684Z" fill="#4F8627"/>
<path d="M22.528 253.552C22.549 253.521 22.5699 253.487 22.5908 253.453C22.6012 253.434 22.6091 253.419 22.6169 253.398C22.6195 253.392 22.6221 253.387 22.6221 253.377C22.6195 253.369 22.63 253.364 22.6091 253.338C22.5882 253.317 22.5751 253.327 22.5594 253.33L22.5411 253.34C22.4653 253.39 22.4131 253.445 22.3556 253.5C22.2432 253.609 22.1413 253.724 22.0368 253.837C21.833 254.069 21.637 254.304 21.4488 254.545C21.0673 255.023 20.7119 255.52 20.3618 256.016C20.0168 256.518 19.6771 257.022 19.3505 257.534L18.8592 258.303C18.6946 258.559 18.5378 258.817 18.3418 259.053C18.6188 258.901 18.8383 258.676 19.0604 258.462C19.2747 258.24 19.4837 258.012 19.6797 257.775C20.0769 257.304 20.4375 256.81 20.7903 256.314C21.1352 255.81 21.4723 255.3 21.7833 254.777C21.9427 254.516 22.0917 254.252 22.2458 253.988L22.4706 253.591C22.5071 253.526 22.549 253.455 22.5882 253.408C22.5829 253.406 22.5829 253.403 22.5672 253.395C22.5542 253.374 22.562 253.382 22.562 253.382C22.5646 253.406 22.5594 253.426 22.5568 253.445C22.5463 253.476 22.5385 253.515 22.528 253.552Z" fill="#4F8627"/>
<path d="M13.042 261.025C13.6744 261.146 14.3015 261.235 14.9287 261.316L16.8049 261.553C17.1185 261.587 17.4295 261.629 17.7378 261.674C18.0488 261.71 18.3571 261.762 18.6681 261.809C19.2874 261.911 19.8989 262.018 20.4999 262.246C20.0034 261.828 19.3736 261.59 18.7595 261.412C18.1402 261.232 17.5052 261.114 16.8702 261.033C16.2353 260.96 15.5976 260.911 14.9574 260.908C14.3198 260.905 13.6796 260.931 13.042 261.025Z" fill="#4F8627"/>
<path d="M19.9421 248.495C19.9421 248.495 20.0806 247.296 19.8271 245.992C19.4534 244.064 21.2565 241.636 22.7904 241.871C24.3243 242.106 25.448 243.039 24.6641 244.678C23.3183 247.489 21.868 248.14 19.9421 248.495Z" fill="white"/>
<path d="M12.2508 250.892C12.5016 249.708 13.7899 248.72 15.0103 248.89C15.6139 248.974 16.3848 249.577 16.2228 250.573C15.8674 252.771 14.6261 256.139 14.6261 256.139C14.6261 256.139 11.5923 253.999 12.2508 250.892Z" fill="white"/>
<path d="M18.1799 260.124C19.4708 259.923 20.5761 258.763 20.4219 257.636C20.3462 257.08 19.6275 256.304 18.5927 256.79C15.8881 258.06 12.5381 257.809 12.5381 257.809C12.5381 257.809 14.7906 260.652 18.1799 260.124Z" fill="white"/>
<path d="M13.6015 263.244C12.4518 264.496 9.44403 266.591 5.83789 262.259C5.83789 262.259 8.97627 263.213 10.5076 262.013C11.1373 261.519 12.0833 261.352 12.6713 261.31C13.7662 261.235 14.375 262.403 13.6015 263.244Z" fill="white"/>
<path d="M9.55382 253.813C7.93629 254.333 4.77177 256.189 7.19938 261.276C7.19938 261.276 7.64884 258.026 9.37874 257.137C10.0895 256.771 10.6409 255.982 10.9231 255.465C11.4484 254.506 10.6409 253.463 9.55382 253.813Z" fill="white"/>
<path d="M24.9139 251.932C24.1352 253.364 21.9036 256.027 16.8994 253.037C16.8994 253.037 20.3801 253.084 21.5613 251.6C22.0473 250.988 22.9567 250.591 23.5394 250.4C24.6291 250.045 25.4366 250.968 24.9139 251.932Z" fill="white"/>
<path d="M2.17978 264.224C2.27908 264.18 12.2456 259.627 15.7812 254.859C19.3037 250.11 20.1765 248.493 20.2105 248.425L19.9544 248.289C19.9465 248.305 19.0502 249.961 15.5486 254.686C12.0575 259.395 2.15887 263.916 2.05957 263.96L2.17978 264.224Z" fill="white"/>
<path d="M169.235 71.9904L168.232 76.2081L168.893 76.3652L169.896 72.1474L169.235 71.9904Z" fill="white"/>
<path d="M167.038 73.3398L166.881 73.9982L171.103 75.0043L171.26 74.3459L167.038 73.3398Z" fill="white"/>
<path d="M60.5775 63.1064L59.5752 67.3241L60.2362 67.4812L61.2385 63.2635L60.5775 63.1064Z" fill="white"/>
<path d="M58.3756 64.4595L58.2188 65.1179L62.4411 66.124L62.598 65.4656L58.3756 64.4595Z" fill="white"/>
<path d="M58.3861 158.174L57.3838 162.392L58.0448 162.549L59.0471 158.331L58.3861 158.174Z" fill="white"/>
<path d="M56.1911 159.529L56.0342 160.188L60.2565 161.194L60.4134 160.535L56.1911 159.529Z" fill="white"/>
<path d="M133.693 190.514L132.69 194.731L133.351 194.889L134.354 190.671L133.693 190.514Z" fill="white"/>
<path d="M131.501 191.875L131.344 192.534L135.566 193.54L135.723 192.882L131.501 191.875Z" fill="white"/>
<path d="M239.726 200.564L238.724 204.782L239.385 204.939L240.387 200.721L239.726 200.564Z" fill="white"/>
<path d="M237.543 201.921L237.386 202.58L241.608 203.586L241.765 202.927L237.543 201.921Z" fill="white"/>
<path d="M307.311 197.033L306.309 201.251L306.97 201.408L307.972 197.19L307.311 197.033Z" fill="white"/>
<path d="M305.131 198.388L304.974 199.047L309.196 200.053L309.353 199.395L305.131 198.388Z" fill="white"/>
<path d="M337.836 152.421L336.834 156.639L337.495 156.796L338.497 152.578L337.836 152.421Z" fill="white"/>
<path d="M335.642 153.764L335.485 154.423L339.708 155.429L339.865 154.771L335.642 153.764Z" fill="white"/>
<path d="M345.022 81.0406L344.02 85.2583L344.681 85.4154L345.683 81.1977L345.022 81.0406Z" fill="white"/>
<path d="M342.825 82.3826L342.668 83.041L346.89 84.0471L347.047 83.3888L342.825 82.3826Z" fill="white"/>
<path d="M264.123 31.306L263.121 35.5237L263.782 35.6808L264.784 31.4631L264.123 31.306Z" fill="white"/>
<path d="M261.923 32.6506L261.767 33.309L265.989 34.3151L266.146 33.6567L261.923 32.6506Z" fill="white"/>
<path d="M102.694 38.5092C101.808 38.5092 101.087 37.7906 101.087 36.9047C101.087 36.0188 101.808 35.3002 102.694 35.3002C103.58 35.3002 104.301 36.0188 104.301 36.9047C104.301 37.7879 103.58 38.5092 102.694 38.5092ZM102.694 35.8516C102.114 35.8516 101.641 36.3246 101.641 36.9047C101.641 37.4848 102.114 37.9578 102.694 37.9578C103.274 37.9578 103.747 37.4848 103.747 36.9047C103.747 36.3246 103.274 35.8516 102.694 35.8516Z" fill="white"/>
<path d="M295.587 49.2335C294.701 49.2335 293.979 48.5149 293.979 47.6291C293.979 46.7432 294.701 46.0246 295.587 46.0246C296.472 46.0246 297.194 46.7432 297.194 47.6291C297.194 48.5149 296.472 49.2335 295.587 49.2335ZM295.587 46.576C295.006 46.576 294.533 47.0489 294.533 47.6291C294.533 48.2092 295.006 48.6822 295.587 48.6822C296.167 48.6822 296.64 48.2092 296.64 47.6291C296.64 47.0489 296.167 46.576 295.587 46.576Z" fill="white"/>
<path d="M191.275 35.8438C190.389 35.8438 189.668 35.1252 189.668 34.2393C189.668 33.3534 190.389 32.6348 191.275 32.6348C192.161 32.6348 192.882 33.3534 192.882 34.2393C192.88 35.1225 192.158 35.8438 191.275 35.8438ZM191.275 33.1862C190.695 33.1862 190.222 33.6592 190.222 34.2393C190.222 34.8194 190.695 35.2924 191.275 35.2924C191.855 35.2924 192.328 34.8194 192.328 34.2393C192.328 33.6592 191.855 33.1862 191.275 33.1862Z" fill="white"/>
<path d="M345.69 116.167C344.804 116.167 344.083 115.448 344.083 114.562C344.083 113.676 344.804 112.958 345.69 112.958C346.576 112.958 347.297 113.676 347.297 114.562C347.297 115.448 346.576 116.167 345.69 116.167ZM345.69 113.509C345.11 113.509 344.637 113.982 344.637 114.562C344.637 115.142 345.11 115.615 345.69 115.615C346.27 115.615 346.743 115.142 346.743 114.562C346.743 113.982 346.27 113.509 345.69 113.509Z" fill="white"/>
<path d="M270.649 192.125C269.763 192.125 269.042 191.407 269.042 190.521C269.042 189.635 269.763 188.916 270.649 188.916C271.535 188.916 272.256 189.635 272.256 190.521C272.256 191.404 271.535 192.125 270.649 192.125ZM270.649 189.468C270.069 189.468 269.596 189.941 269.596 190.521C269.596 191.101 270.069 191.574 270.649 191.574C271.229 191.574 271.702 191.101 271.702 190.521C271.702 189.941 271.229 189.468 270.649 189.468Z" fill="white"/>
<path d="M190.979 196.659C190.093 196.659 189.372 195.941 189.372 195.055C189.372 194.169 190.093 193.45 190.979 193.45C191.865 193.45 192.586 194.169 192.586 195.055C192.586 195.941 191.865 196.659 190.979 196.659ZM190.979 194.004C190.399 194.004 189.926 194.477 189.926 195.057C189.926 195.637 190.399 196.11 190.979 196.11C191.559 196.11 192.032 195.637 192.032 195.057C192.035 194.475 191.562 194.004 190.979 194.004Z" fill="white"/>
<path d="M90.6042 191.929C89.7183 191.929 88.9971 191.211 88.9971 190.325C88.9971 189.439 89.7183 188.72 90.6042 188.72C91.49 188.72 92.2112 189.439 92.2112 190.325C92.2112 191.211 91.49 191.929 90.6042 191.929ZM90.6042 189.274C90.024 189.274 89.5511 189.747 89.5511 190.328C89.5511 190.908 90.024 191.381 90.6042 191.381C91.1843 191.381 91.6573 190.908 91.6573 190.328C91.6599 189.745 91.1869 189.274 90.6042 189.274Z" fill="white"/>
<path d="M64.2038 131.673C63.3179 131.673 62.5967 130.954 62.5967 130.068C62.5967 129.183 63.3179 128.464 64.2038 128.464C65.0896 128.464 65.8109 129.183 65.8109 130.068C65.8109 130.954 65.0896 131.673 64.2038 131.673ZM64.2038 129.018C63.6237 129.018 63.1507 129.491 63.1507 130.071C63.1507 130.651 63.6237 131.124 64.2038 131.124C64.7839 131.124 65.2569 130.651 65.2569 130.071C65.2569 129.488 64.7839 129.018 64.2038 129.018Z" fill="white"/>
<path d="M235.27 118.327L235.452 120.199C235.439 120.088 240.248 119.945 240.248 119.945V118.06C240.254 118.067 235.263 118.216 235.27 118.327Z" fill="#FBE366"/>
<path d="M227.912 119.789L228.517 121.577C228.517 121.577 228.802 121.486 229.225 121.362C229.647 121.239 230.206 121.037 230.798 120.946C231.961 120.712 233.131 120.472 233.131 120.472L232.832 118.613C232.832 118.613 231.597 118.86 230.356 119.113C229.732 119.217 229.134 119.425 228.673 119.562C228.218 119.692 227.912 119.789 227.912 119.789Z" fill="#FBE366"/>
<path d="M221.132 123.091L222.218 124.638C222.127 124.488 226.293 122.252 226.345 122.376L225.578 120.654C225.519 120.524 221.035 122.928 221.132 123.091Z" fill="#FBE366"/>
<path d="M215.732 128.355L217.214 129.519C217.214 129.519 217.884 128.537 218.716 127.705C219.476 126.795 220.399 126.055 220.399 126.055L219.164 124.625C219.164 124.625 218.17 125.424 217.351 126.399C216.46 127.309 215.732 128.355 215.732 128.355Z" fill="#FBE366"/>
<path d="M211.968 134.855L213.677 135.634C213.677 135.634 214.171 134.536 214.73 133.483C215.016 132.963 215.302 132.443 215.516 132.053C215.75 131.683 215.913 131.429 215.913 131.429L214.327 130.416C214.327 130.416 214.158 130.682 213.905 131.085C213.677 131.494 213.372 132.053 213.073 132.606C212.475 133.717 211.968 134.855 211.968 134.855Z" fill="#FBE366"/>
<path d="M209.363 141.412L210.91 142.615C210.91 142.615 211.352 141.432 211.794 140.242C212.255 139.059 212.717 137.877 212.717 137.877L211.04 137.012C211.04 137.012 210.611 138.111 210.182 139.209C209.773 140.307 209.363 141.412 209.363 141.412Z" fill="#FBE366"/>
<path d="M206.801 147.944L208.101 149.588C208.101 149.588 208.64 148.457 209.108 147.288C209.602 146.131 210.037 144.941 210.037 144.941L208.569 143.576C208.569 143.576 208.146 144.675 207.724 145.773C207.295 146.872 206.801 147.944 206.801 147.944Z" fill="#FBE366"/>
<path d="M203.254 153.969L204.222 155.938C204.222 155.938 204.45 155.717 204.716 155.334C204.996 154.95 205.36 154.443 205.724 153.936C206.055 153.403 206.38 152.87 206.634 152.467C206.874 152.065 207.004 151.785 207.004 151.785L205.815 150.011C205.815 150.011 205.256 151.051 204.645 152.058C204.307 152.539 203.962 153.02 203.709 153.384C203.462 153.761 203.254 153.969 203.254 153.969Z" fill="#FBE366"/>
<path d="M197.755 158.219L198.307 160.403C198.307 160.403 198.593 160.26 199.009 160.052C199.432 159.844 200.004 159.584 200.511 159.201C201.596 158.544 202.499 157.686 202.506 157.686L201.661 155.626C201.661 155.626 200.816 156.451 199.809 157.075C199.341 157.439 198.808 157.686 198.411 157.881C198.015 158.089 197.755 158.219 197.755 158.219Z" fill="#FBE366"/>
<path d="M190.959 159.779L191.05 162.047C191.05 162.047 192.298 161.924 193.546 161.787C194.163 161.657 194.774 161.527 195.235 161.43C195.703 161.345 196.002 161.248 196.002 161.248L195.593 159.019C195.593 159.019 195.313 159.11 194.878 159.194C194.449 159.285 193.871 159.409 193.292 159.532C192.129 159.656 190.959 159.779 190.959 159.779Z" fill="#FBE366"/>
<path d="M183.971 159.389L183.601 161.631C183.601 161.631 183.906 161.696 184.367 161.794C184.835 161.833 185.466 161.885 186.09 161.943C186.714 161.995 187.344 162.047 187.812 162.086C188.28 162.086 188.599 162.086 188.599 162.086L188.657 159.812C188.657 159.812 188.365 159.812 187.916 159.812C187.481 159.773 186.889 159.727 186.304 159.682C185.719 159.63 185.134 159.578 184.699 159.545C184.257 159.454 183.971 159.389 183.971 159.389Z" fill="#FBE366"/>
<path d="M177.666 156.51L176.854 158.603C176.815 158.648 177.874 159.331 178.94 159.994C179.44 160.377 180.077 160.513 180.5 160.728C180.935 160.903 181.228 161.027 181.228 161.027L181.754 158.824C181.754 158.824 181.481 158.707 181.072 158.538C180.682 158.336 180.09 158.206 179.616 157.842C178.615 157.199 177.633 156.555 177.666 156.51Z" fill="#FBE366"/>
<path d="M173.138 151.2L171.962 153.02C171.962 153.02 172.677 154.047 173.385 155.08C174.204 156.029 175.03 156.971 175.03 156.971L175.972 154.95C175.972 154.95 175.212 154.047 174.451 153.156C173.788 152.175 173.138 151.2 173.138 151.2Z" fill="#FBE366"/>
<path d="M170.024 144.922L168.555 146.352C168.555 146.352 169.042 147.515 169.575 148.652C170.063 149.816 170.712 150.895 170.712 150.895L171.999 149.198C171.999 149.198 171.408 148.178 170.959 147.08C170.478 146.007 170.024 144.922 170.024 144.922Z" fill="#FBE366"/>
<path d="M167.787 138.273L166.104 139.229C166.104 139.229 166.454 140.444 166.857 141.646C167.234 142.855 167.67 144.044 167.67 144.044L169.217 142.764C169.217 142.764 168.82 141.653 168.476 140.528C168.112 139.411 167.787 138.273 167.787 138.273Z" fill="#FBE366"/>
<path d="M166.072 131.462L164.246 131.91C164.246 131.91 164.539 133.139 164.831 134.374C165.117 135.615 165.448 136.837 165.448 136.837L167.19 136.05C167.19 136.05 166.885 134.913 166.618 133.769C166.339 132.619 166.072 131.462 166.072 131.462Z" fill="#FBE366"/>
<path d="M164.637 124.365L162.785 124.709L163.734 129.545L165.58 129.148L164.637 124.365Z" fill="#FBE366"/>
<path d="M163.387 117.196L161.535 117.502L162.361 122.343L164.213 122.012L163.387 117.196Z" fill="#FBE366"/>
<path d="M162.245 109.995L160.386 110.287L161.153 115.136L163.005 114.83L162.245 109.995Z" fill="#FBE366"/>
<path d="M161.114 102.781L159.255 103.08L160.015 107.915L161.874 107.629L161.114 102.781Z" fill="#FBE366"/>
<path d="M159.906 95.5731L158.061 95.9046L158.873 100.721L160.725 100.415L159.906 95.5731Z" fill="#FBE366"/>
<path d="M158.527 88.3784L156.694 88.7554C156.694 88.7554 156.935 89.9512 157.182 91.1471C157.409 92.3495 157.63 93.5453 157.63 93.5453L159.483 93.2009C159.483 93.2009 159.262 91.992 159.034 90.7831C158.781 89.5808 158.527 88.3784 158.527 88.3784Z" fill="#FBE366"/>
<path d="M156.854 81.2162L155.034 81.7036C155.034 81.7036 155.34 82.88 155.639 84.0564C155.918 85.2392 156.191 86.4221 156.191 86.4221L158.024 86.0126C158.024 86.0126 157.744 84.8103 157.465 83.6079C157.159 82.4185 156.854 81.2162 156.854 81.2162Z" fill="#FBE366"/>
<path d="M154.646 74.1776L152.885 74.834C152.885 74.834 153.314 75.9583 153.691 77.1087C154.048 78.2721 154.406 79.4224 154.406 79.4224L156.212 78.8895C156.212 78.8895 155.848 77.7001 155.484 76.5173C155.095 75.3344 154.646 74.1776 154.646 74.1776Z" fill="#FBE366"/>
<path d="M151.507 67.3729L149.915 68.3802C149.915 68.3802 150.474 69.4201 151.026 70.4665C151.559 71.5194 152.014 72.6373 152.014 72.6437L153.743 71.8963C153.743 71.8963 153.275 70.746 152.703 69.6151C152.112 68.4972 151.507 67.3729 151.507 67.3729Z" fill="#FBE366"/>
<path d="M146.631 61.634L145.396 63.0574C145.396 63.0574 145.624 63.2458 145.955 63.5383C146.267 63.8503 146.781 64.1687 147.138 64.6432C147.522 65.0916 147.905 65.5466 148.191 65.878C148.497 66.1965 148.646 66.4565 148.646 66.4565L150.128 65.2996C150.128 65.2996 149.972 65.0201 149.64 64.6757C149.329 64.3117 148.919 63.8308 148.503 63.3433C148.12 62.8364 147.567 62.4854 147.229 62.154C146.872 61.842 146.631 61.634 146.631 61.634Z" fill="#FBE366"/>
<path d="M140.304 57.585L139.433 59.2488C139.433 59.2488 139.706 59.3593 140.096 59.5998C140.479 59.8273 140.999 60.1327 141.512 60.4317C142.572 61.0166 143.514 61.7185 143.514 61.7185L144.613 60.1782C144.613 60.1782 143.573 59.4178 142.481 58.8199C141.948 58.5014 141.408 58.183 140.999 57.949C140.596 57.702 140.304 57.585 140.304 57.585Z" fill="#FBE366"/>
<path d="M133.295 54.8618L132.859 56.6946C132.859 56.6946 133.99 57.0261 135.128 57.3575C136.232 57.793 137.337 58.2284 137.337 58.2284L138.091 56.5061C138.091 56.5061 136.921 56.0447 135.739 55.5832C134.517 55.2258 133.295 54.8618 133.295 54.8618Z" fill="#FBE366"/>
<path d="M125.686 54.4913L125.965 56.3501C125.965 56.3501 126.251 56.2981 126.68 56.2331C127.109 56.1876 127.694 56.1876 128.266 56.1616C129.423 56.1486 130.592 56.2851 130.592 56.2851L130.826 54.4133C130.826 54.4133 129.546 54.2639 128.253 54.2769C127.609 54.3094 126.959 54.3159 126.478 54.3679C126.004 54.4393 125.686 54.4913 125.686 54.4913Z" fill="#FBE366"/>
<path d="M118.562 57.2665L119.609 58.8329C119.609 58.8329 119.849 58.6704 120.207 58.4299C120.59 58.2219 121.104 57.949 121.611 57.676C122.137 57.429 122.677 57.2405 123.079 57.0651C123.476 56.8896 123.768 56.8571 123.762 56.8441L123.209 55.0503C123.209 55.0503 122.884 55.1023 122.436 55.3038C121.988 55.4922 121.377 55.7067 120.792 55.9862C120.22 56.2916 119.648 56.5971 119.225 56.8311C118.829 57.0911 118.562 57.2665 118.562 57.2665Z" fill="#FBE366"/>
<path d="M113.084 62.505L114.572 63.6488C114.572 63.6488 114.748 63.4083 115.021 63.0574C115.32 62.7259 115.703 62.284 116.087 61.829C116.906 60.9841 117.783 60.2042 117.783 60.2042L116.555 58.7809C116.555 58.7809 115.593 59.6258 114.709 60.5487C114.293 61.0296 113.87 61.5106 113.558 61.868C113.279 62.2515 113.084 62.505 113.084 62.505Z" fill="#FBE366"/>
<path d="M109.241 68.9392L110.944 69.7256C110.853 69.6801 113.154 65.4881 113.232 65.5466L111.652 64.5262C111.652 64.5262 110.977 65.5921 110.359 66.6904C109.774 67.8018 109.241 68.9392 109.241 68.9392Z" fill="#FBE366"/>
<path d="M106.702 75.9454L108.515 76.4328C108.515 76.4328 108.834 75.2759 109.198 74.1321C109.581 72.9947 110.023 71.8768 110.023 71.8768L108.268 71.1879C108.268 71.1879 107.814 72.3513 107.411 73.5406C107.034 74.7365 106.702 75.9454 106.702 75.9454Z" fill="#FBE366"/>
<path d="M105.369 83.3025L107.247 83.4325C107.247 83.4325 107.338 82.2626 107.527 81.0733C107.709 79.8839 107.962 78.7206 107.962 78.7206L106.123 78.3241C106.123 78.3241 105.857 79.5525 105.675 80.7873C105.467 82.0287 105.369 83.3025 105.369 83.3025Z" fill="#FBE366"/>
<path d="M105.778 90.7377L107.65 90.5492L107.305 87.3321C107.247 86.8056 107.208 86.2727 107.188 85.7397L105.304 85.7917C105.33 86.3637 105.362 86.9356 105.434 87.5075L105.778 90.7377Z" fill="#FBE366"/>
<path d="M106.388 97.9778L108.267 97.8478L107.877 92.9409L106.005 93.1098L106.388 97.9778Z" fill="#FBE366"/>
<path d="M106.754 105.224L108.632 105.172C108.632 105.172 108.593 103.944 108.548 102.709C108.483 101.487 108.424 100.253 108.424 100.253L106.546 100.356C106.546 100.356 106.604 101.572 106.669 102.794C106.708 104.009 106.754 105.224 106.754 105.224Z" fill="#FBE366"/>
<path d="M106.805 112.478L108.683 112.51C108.683 112.51 108.689 111.275 108.702 110.047C108.689 108.812 108.683 107.584 108.683 107.584L106.805 107.61C106.805 107.61 106.818 108.825 106.824 110.04C106.818 111.256 106.805 112.478 106.805 112.478Z" fill="#FBE366"/>
<path d="M106.48 119.711L108.352 119.854C108.352 119.854 108.424 118.619 108.502 117.391C108.593 116.156 108.612 114.928 108.612 114.928L106.727 114.856C106.727 114.856 106.701 116.072 106.623 117.287C106.552 118.496 106.48 119.711 106.48 119.711Z" fill="#FBE366"/>
<path d="M105.668 126.886L107.527 127.172C107.527 127.172 107.696 125.944 107.852 124.722C108.027 123.494 108.131 122.259 108.131 122.259L106.259 122.07C106.259 122.07 106.162 123.286 105.986 124.482C105.837 125.684 105.668 126.886 105.668 126.886Z" fill="#FBE366"/>
<path d="M104.232 133.938L106.059 134.413C106.059 134.413 106.377 133.21 106.631 131.995C106.917 130.786 107.125 129.564 107.125 129.564L105.279 129.22C105.279 129.22 105.071 130.416 104.791 131.585C104.544 132.775 104.232 133.938 104.232 133.938Z" fill="#FBE366"/>
<path d="M101.97 140.717L103.705 141.445C103.705 141.445 104.238 140.307 104.608 139.118C105.018 137.942 105.401 136.759 105.401 136.759L103.608 136.213C103.608 136.213 103.224 137.357 102.841 138.488C102.477 139.631 101.97 140.717 101.97 140.717Z" fill="#FBE366"/>
<path d="M98.6162 146.917L100.131 148.048C100.131 148.048 100.845 146.995 101.508 145.916C102.1 144.798 102.698 143.687 102.698 143.687L101.014 142.849C101.014 142.849 100.462 143.901 99.9031 144.941C99.2596 145.929 98.6162 146.917 98.6162 146.917Z" fill="#FBE366"/>
<path d="M93.8662 152.032L95.0036 153.546C95.1141 153.683 98.7211 150.102 98.6172 150.004L97.2198 148.743C97.3108 148.828 93.9702 152.162 93.8662 152.032Z" fill="#FBE366"/>
<path d="M87.7158 155.334L88.3722 157.108C88.3722 157.108 88.6712 157.004 89.1262 156.841C89.5681 156.672 90.192 156.51 90.738 156.178C91.8558 155.587 92.9802 155.002 92.9802 155.002L91.9923 153.377C91.9923 153.377 90.9459 153.93 89.9061 154.476C89.3991 154.794 88.8207 154.924 88.4112 155.093C87.9953 155.243 87.7158 155.334 87.7158 155.334Z" fill="#FBE366"/>
<path d="M80.8467 156.568L80.9702 158.447C80.9702 158.447 82.231 158.356 83.5049 158.258C84.7592 158.089 85.9941 157.79 85.9941 157.784L85.5066 155.958C85.5066 155.958 84.3628 156.237 83.1929 156.386C82.0165 156.484 80.8467 156.568 80.8467 156.568Z" fill="#FBE366"/>
<path d="M73.8094 156.055L73.5039 157.907C73.5039 157.907 74.7453 158.096 75.9801 158.284C77.2345 158.395 78.5018 158.427 78.5018 158.427L78.5473 156.542C78.5473 156.542 77.3645 156.516 76.1816 156.412C74.9922 156.23 73.8094 156.055 73.8094 156.055Z" fill="#FBE366"/>
<path d="M66.8551 154.365L66.2961 156.159C66.2571 156.27 71.0991 157.452 71.0991 157.452L71.502 155.613C71.502 155.62 66.8291 154.482 66.8551 154.365Z" fill="#FBE366"/>
<path d="M60.1153 151.844L59.3809 153.579C59.3809 153.579 60.5247 154.053 61.6686 154.528C62.234 154.781 62.819 154.989 63.2609 155.126C63.7029 155.275 63.9953 155.379 63.9953 155.379L64.6192 153.605C64.6192 153.605 64.3333 153.507 63.9043 153.364C63.4689 153.228 62.9034 153.02 62.351 152.779C61.2331 152.311 60.1153 151.844 60.1153 151.844Z" fill="#FBE366"/>
<path d="M244.655 158.473C244.35 165.784 238.162 171.452 230.851 171.133C223.532 170.815 217.859 164.641 218.164 157.322C218.489 150.011 224.676 144.35 231.982 144.662C239.3 144.967 244.974 151.148 244.655 158.473Z" fill="#CBE9F4"/>
<path d="M277.515 150.531C273.342 146.813 271.133 140.496 271.965 135.14C272.485 131.793 281.902 125.964 281.902 125.964L267.851 110.697C267.851 110.697 261.26 119.627 257.887 119.861C252.727 120.238 246.897 117.592 243.764 113.283C241.776 110.541 244.356 99.7716 244.356 99.7716L223.604 98.8812C223.604 98.8812 225.229 109.845 223.025 112.393C219.964 115.909 214.511 117.703 210.053 116.806C206.732 116.15 201.363 106.459 201.363 106.459L185.466 119.809C185.466 119.809 194.071 126.782 194.156 130.156C194.292 135.823 191.283 142.075 186.532 145.461C183.77 147.431 173.007 144.707 173.007 144.707L171.844 165.446C171.844 165.446 182.808 163.939 185.323 166.187C189.496 169.924 191.712 176.242 190.887 181.584C190.373 184.925 180.936 190.754 180.936 190.754L194.988 206.021C194.988 206.021 201.578 197.098 204.957 196.864C210.098 196.493 215.948 199.145 219.093 203.434C221.082 206.177 218.521 216.946 218.521 216.946L239.26 217.843C239.26 217.843 237.616 206.879 239.826 204.331C242.9 200.822 248.366 199.021 252.824 199.918C256.132 200.588 261.507 210.265 261.507 210.265L277.398 196.909C277.398 196.909 268.799 189.936 268.695 186.556C268.565 180.895 271.575 174.643 276.326 171.25C279.088 169.294 289.857 172.017 289.857 172.017L291.001 151.285C290.994 151.291 280.043 152.779 277.515 150.531ZM229.953 192.249C210.982 191.43 196.261 175.384 197.087 156.412C197.912 137.441 213.952 122.727 232.924 123.539C251.882 124.365 266.622 140.405 265.79 159.376C264.971 178.347 248.938 193.068 229.953 192.249Z" fill="#CBE9F4"/>
<path d="M257.686 159.5C257.062 173.999 244.804 185.25 230.298 184.619C215.805 183.995 204.561 171.738 205.185 157.244C205.809 142.732 218.066 131.488 232.573 132.112C247.073 132.736 258.316 145 257.686 159.5Z" fill="#CBE9F4"/>
<path d="M192.53 64.9681C192.751 63.3433 191.757 58.5469 187.318 57.1625C181.384 55.3168 168.938 57.728 163.134 51.4172C157.311 45.0739 159.079 39.5626 159.761 35.7085C160.463 31.848 162.556 30.6391 162.699 28.3514C162.861 26.0507 160.132 25.9922 157.526 31.913C156.278 34.7402 148.466 47.9856 153.996 56.7921C161.237 68.3347 191.153 74.5675 192.53 64.9681Z" fill="#FBC6B4"/>
<path d="M193.7 61.9525C193.7 61.9525 194.083 68.7572 183.983 69.6086C173.877 70.46 169.36 69.4331 169.36 69.4331C169.36 69.4331 166.884 63.2848 169.887 53.3215C169.88 53.3215 194.532 52.3076 193.7 61.9525Z" fill="#EDA503"/>
<path d="M210.227 57.1886L210.214 57.1561C206.809 55.3168 202.441 54.9008 199.094 54.5499C191.724 53.7765 179.681 54.8034 177.38 67.7238C176.633 71.9809 176.412 78.2071 176.795 84.5634C176.86 85.9477 176.945 87.3581 177.12 88.7489C177.712 94.9557 175.833 99.1282 178.05 102.293C184.484 111.49 221.725 119.269 215.739 107.831C215.622 107.571 214.283 103.782 216.961 102.638C215.076 97.3474 215.277 91.0236 214.413 86.6301C214.16 85.3238 213.984 84.0044 213.893 82.6331C213.646 79.494 213.893 76.1664 214.777 72.2798C216.798 63.6423 214.199 59.4178 210.227 57.1886Z" fill="#FFB502"/>
<path d="M163.14 145.26C170.315 152.857 182.008 161.339 185.979 167.162C186.615 168.092 186.7 168.514 184.087 171.192C181.455 173.85 185.491 174.012 190.853 170.951C196.221 167.877 178.836 143.557 169.425 132.853C161.203 123.481 154.808 136.44 163.14 145.26Z" fill="#FBC6B4"/>
<path d="M191.736 167.065C191.736 167.065 188.11 171.686 184.087 171.192C184.087 171.192 179.167 174.857 183.287 174.48C187.421 174.084 194.544 171.803 191.736 167.065Z" fill="#FFB502"/>
<path d="M205.06 66.229C203.773 72.6502 200.575 82.5161 215.322 90.3347C215.322 90.3347 189.845 121.128 174.604 105.361C174.604 105.361 176.626 77.5117 180.356 66.346C181.429 63.1419 183.97 54.3484 190.937 54.7058C190.937 54.7058 180.538 70.4665 185.198 74.4375C189.858 78.4086 194.011 74.795 195.896 71.6234C198.925 66.5215 205.632 55.4922 205.632 55.4922L209.713 56.8896C209.7 56.9026 206.158 60.7631 205.06 66.229Z" fill="#1C2745"/>
<path d="M204.846 45.3599C204.846 45.3599 200.7 49.8769 203.546 53.8804C206.478 57.988 189.105 61.2506 190.45 58.2609C192.173 54.4004 194.961 52.6651 194.441 47.4527L204.846 45.3599Z" fill="#F7B2A0"/>
<path d="M199.537 32.6474C195.117 34.7986 187.052 47.7776 189.651 52.0086C190.808 53.8479 197.698 54.3224 203.69 49.3764C206.153 47.3617 209.715 43.2217 208.636 37.6128C208.148 35.0716 204.665 30.1452 199.537 32.6474Z" fill="#FBC6B4"/>
<path d="M195.527 33.2648C194.221 34.8051 194.312 35.2731 199.394 37.7493C204.47 40.2385 205.497 40.1605 204.554 41.2589C201.792 44.502 205.822 44.9505 202.481 48.798C199.147 52.6521 204.463 51.3457 207.57 48.3106C208.181 47.6931 211.548 44.814 210.683 38.4707C209.689 31.0551 200.349 27.63 195.527 33.2648Z" fill="#1D1B3A"/>
<path d="M201.259 42.7993C201.259 42.7993 188.982 36.9694 190.665 31.9325C191.705 28.8324 201.097 31.783 201.097 31.783L201.259 42.7993Z" fill="#EDA503"/>
<path d="M194.869 33.9277C195.318 39.1531 198.522 42.1038 208.979 46.9457C208.979 46.9457 216.213 38.0613 210.013 31.5945C204.534 25.9012 194.583 30.5936 194.869 33.9277Z" fill="#FFB502"/>
<path d="M178.232 99.1932C178.232 99.1932 148.05 109.364 142.993 118.106C137.937 126.854 182.294 166.928 182.294 166.928C182.294 166.928 189.385 162.255 187.754 156.335C181.638 134.153 179.207 126.951 179.207 126.951L208.46 111.21L178.232 99.1932Z" fill="#1C2745"/>
<path d="M191.795 161.911C192.893 172.303 197.046 186.14 196.676 193.172C196.617 194.29 196.429 194.687 192.724 195.232C189.02 195.752 192.133 198.32 198.255 199.145C204.384 199.951 205.32 170.074 204.325 155.854C203.461 143.421 190.521 149.848 191.795 161.911Z" fill="#FBC6B4"/>
<path d="M201.317 196.597C201.317 196.597 195.624 198.073 192.725 195.233C192.725 195.233 186.59 195.168 190.1 197.358C193.622 199.554 200.667 202.057 201.317 196.597Z" fill="#FFB502"/>
<path d="M215.317 90.3347C215.317 90.3347 218.579 102.833 218.67 119.848C218.774 140.346 205.204 187.882 205.204 187.882C205.204 187.882 205.743 189.604 194.012 185.646C190.854 184.574 189.274 115.76 189.274 115.76L197.022 98.1662L215.317 90.3347Z" fill="#1C2745"/>
<path d="M201.175 187.81L200.538 187.576C212.445 154.97 209.8 99.9145 209.767 99.3621L210.449 99.3231C210.475 99.8756 213.127 155.074 201.175 187.81Z" fill="white"/>
<path d="M219.048 221.437L174.151 110.762H148.199L192.68 220.41L190.152 221.437L144.15 108.032H175.99L221.582 220.41L219.048 221.437Z" fill="#464F72"/>
<path d="M195.078 157.355H166.183V160.085H195.078V157.355Z" fill="#464F72"/>
<path d="M200.862 170.899H171.967V173.629H200.862V170.899Z" fill="#464F72"/>
<path d="M205.866 184.574H176.971V187.303H205.866V184.574Z" fill="#464F72"/>
<path d="M212.139 198.521H183.243V201.251H212.139V198.521Z" fill="#464F72"/>
<path d="M157.735 140.604L127.762 220.458L130.317 221.417L160.29 141.563L157.735 140.604Z" fill="#464F72"/>
<path d="M187.731 142.676L157.747 222.536L160.303 223.496L190.286 143.635L187.731 142.676Z" fill="#464F72"/>
<path d="M169.108 45.0609C169.108 50.2213 164.922 54.4134 159.755 54.4134C154.588 54.4134 150.409 50.2278 150.409 45.0609C150.409 39.9005 154.595 35.715 159.755 35.715C164.922 35.7085 169.108 39.894 169.108 45.0609Z" fill="#FFCF03"/>
<path d="M161.516 0.151184H157.987V25.1928H161.516V0.151184Z" fill="#464F72"/>
<path d="M164.09 19.415H155.42V30.9706H164.09V19.415Z" fill="#6D76A1"/>
<path d="M159.755 24.8678C147.783 24.8678 138.08 34.5712 138.08 46.5428H181.424C181.424 34.5777 171.72 24.8678 159.755 24.8678Z" fill="#C1E4FA"/>
<path d="M214.654 62.9989C214.342 61.4585 212.236 58.4429 207.817 58.6639C201.883 58.9303 191.51 65.1436 184.25 61.3611C176.971 57.5655 176.757 52.0476 176.12 48.3626C175.496 44.6775 176.971 42.9162 176.367 40.8169C175.756 38.6982 173.286 39.5366 172.883 45.6849C172.688 48.629 169.978 63.0444 177.803 69.1536C188.046 77.1542 216.539 72.0458 214.654 62.9989Z" fill="#FBC6B4"/>
<path d="M214.674 61.4911C214.674 61.4911 217.228 67.4769 208.435 71.5194C199.661 75.5554 195.274 76.1144 195.274 76.1144C195.274 76.1144 191.056 71.3894 190.51 61.4846C190.503 61.4911 212.282 52.5676 214.674 61.4911Z" fill="#EDA503"/>
<path d="M130.84 89.8342C127.662 89.8342 125.075 87.2475 125.075 84.0759C125.075 80.8978 127.655 78.3176 130.84 78.3176C134.018 78.3176 136.598 80.8978 136.598 84.0759C136.598 87.2475 134.018 89.8342 130.84 89.8342ZM130.84 80.8783C129.079 80.8783 127.649 82.3081 127.649 84.0694C127.649 85.8307 129.085 87.2605 130.84 87.2605C132.595 87.2605 134.031 85.8307 134.031 84.0694C134.031 82.3081 132.595 80.8783 130.84 80.8783Z" fill="#64B4D7"/>
<path d="M118.933 180.973H95.3018V182.799H118.933V180.973Z" fill="#27355C"/>
<path d="M117.554 175.007H104.529V176.833H117.554V175.007Z" fill="#27355C"/>
</svg>
