<svg width="422" height="414" viewBox="0 0 422 414" fill="none" xmlns="http://www.w3.org/2000/svg">
<path d="M20.108 257.342C11.4359 236.435 10.1488 212.216 19.2007 191.475C18.2512 202.26 24.8977 212.63 33.823 219.006C42.7483 225.361 53.657 228.362 64.439 230.681C75.2211 232.999 85.9821 235.38 96.3211 239.126C154.304 260.22 143.754 334.408 94.7386 321.471C71.4654 315.323 38.7181 302.179 20.108 257.342Z" fill="#F4AE7F"/>
<path d="M134.829 299.136C134.808 299.136 134.787 299.136 134.744 299.136C83.999 292.139 49.0574 275.144 30.8481 248.628C11.626 220.6 18.7367 191.682 18.8211 191.392C18.8844 191.123 19.1798 190.937 19.4541 191.02C19.7284 191.082 19.9183 191.372 19.8339 191.641C19.7706 191.93 12.7654 220.434 31.7343 248.069C49.7537 274.337 84.4632 291.166 134.892 298.121C135.188 298.163 135.377 298.432 135.335 298.701C135.314 298.949 135.082 299.136 134.829 299.136Z" fill="white"/>
<path d="M121.789 297.066C121.746 297.066 121.683 297.066 121.641 297.045C121.346 296.962 92.8184 288.475 84.1885 235.525C84.1463 235.235 84.3362 234.986 84.6316 234.924C84.9059 234.904 85.1802 235.069 85.2435 235.359C93.7679 287.606 121.662 295.969 121.936 296.051C122.211 296.134 122.379 296.424 122.295 296.693C122.232 296.921 122.021 297.066 121.789 297.066Z" fill="white"/>
<path d="M158.503 177.316C157.216 173.611 152.743 165.745 150.253 162.599C146.012 157.237 141.349 151.069 142.53 144.382C143.67 137.883 149.873 133.618 155.57 130.12C161.267 126.622 167.513 122.482 168.863 116.023C170.762 106.957 162.027 98.8632 161.583 89.631C161.267 83.3382 164.854 77.5008 168.905 72.6156C172.956 67.7304 177.683 63.2385 180.405 57.5253C183.127 51.8121 183.295 44.3187 178.759 39.8682C174.665 35.8731 168.124 35.5626 162.449 36.6183C150.253 38.916 139.239 46.6785 133.12 57.2769C129.744 63.135 127.76 69.8211 123.392 74.9961C119.046 80.1504 112.8 83.2968 107.335 87.2919C101.892 91.3077 96.8486 97.0002 96.9752 103.686C97.0596 109.296 100.794 114.409 100.837 120.019C100.921 128.423 93.1561 134.509 87.8178 141.091C77.4155 153.967 75.7275 173.073 83.5767 187.604L158.503 177.316Z" fill="#F4AE7F"/>
<path d="M112.505 184.106C112.463 184.106 112.399 184.126 112.357 184.106C112.062 184.064 111.851 183.816 111.893 183.526C112.716 176.385 113.349 169.512 113.961 162.847C117.759 121.343 120.755 88.5753 165.445 45.2502C165.656 45.0432 165.993 45.0432 166.183 45.2502C166.394 45.4572 166.394 45.7884 166.183 45.9747C121.768 89.0307 118.772 121.654 114.995 162.93C114.383 169.595 113.75 176.488 112.927 183.63C112.906 183.899 112.737 184.085 112.505 184.106Z" fill="white"/>
<path d="M314.01 225.423C315.761 223.664 318.019 221.304 319.897 219.047C321.88 216.77 323.716 214.349 325.488 211.906C327.303 209.505 328.822 206.897 330.489 204.433L334.814 196.671C340.153 186.176 343.465 175.101 344.563 164.192C345.575 153.263 345.174 142.52 342.094 132.149C341.208 126.974 338.633 121.902 336.903 116.914C336.502 115.672 335.89 114.43 335.194 113.208L333.253 109.544L329.497 102.299L328.59 100.561C321.648 87.1884 327.05 70.8147 340.68 64.0044C354.311 57.1941 371.001 62.4933 377.943 75.8655C378.892 77.6871 379.631 79.695 380.137 81.5994L383.007 92.8188L384.378 98.3871C384.864 100.229 385.286 102.092 385.475 104.059C386.383 111.863 387.881 119.336 387.564 127.264C388.197 142.768 385.159 158.5 380.116 172.866C374.989 187.314 367.203 200.438 357.729 211.616C355.302 214.369 352.834 217.06 350.365 219.71C347.706 222.194 345.196 224.802 342.431 227.12C339.71 229.48 336.924 231.778 333.991 233.889C331.037 236.084 328.231 237.988 324.665 240.141C320.34 242.749 314.685 241.424 312.026 237.201C309.769 233.62 310.381 229.087 313.25 226.21L314.01 225.423Z" fill="#F4AE7F"/>
<path d="M319.328 233.103C319.222 233.103 319.117 233.061 319.053 232.958C318.969 232.813 318.99 232.627 319.138 232.523C319.349 232.378 340.702 218.551 354.691 191.454C367.604 166.449 376.741 124.717 346.863 67.8546C346.779 67.7097 346.842 67.5234 347.011 67.4406C347.159 67.3578 347.348 67.4199 347.433 67.5855C360.663 92.7774 367.436 117.162 367.562 140.056C367.647 158.376 363.511 175.764 355.24 191.765C341.166 219.006 319.686 232.916 319.475 233.061C319.433 233.082 319.391 233.103 319.328 233.103Z" fill="white"/>
<path d="M366.823 130.596C366.676 130.596 366.549 130.513 366.528 130.369C361.337 111.118 332.283 101.285 331.987 101.202C331.818 101.14 331.734 100.975 331.797 100.809C331.861 100.643 332.029 100.561 332.198 100.623C332.494 100.726 361.865 110.662 367.14 130.224C367.182 130.389 367.077 130.555 366.908 130.596C366.887 130.596 366.845 130.596 366.823 130.596Z" fill="white"/>
<path d="M362.181 105.239C362.139 105.239 362.076 105.218 362.034 105.197C361.886 105.115 361.823 104.928 361.907 104.783C361.991 104.618 370.811 87.8508 369.482 70.2144C369.461 70.0488 369.608 69.9039 369.777 69.8832C369.967 69.9039 370.094 70.0074 370.115 70.173C371.444 87.9957 362.561 104.908 362.456 105.073C362.413 105.177 362.308 105.239 362.181 105.239Z" fill="white"/>
<path d="M364.692 165.062C364.566 165.062 364.46 165 364.397 164.876C364.312 164.71 364.397 164.544 364.545 164.461C364.692 164.379 380.454 157.072 385.687 140.76C385.729 140.594 385.919 140.512 386.088 140.553C386.256 140.615 386.341 140.781 386.299 140.946C380.981 157.527 364.967 164.958 364.819 165.02C364.777 165.062 364.734 165.062 364.692 165.062Z" fill="white"/>
<path d="M358.932 183.423C358.89 183.423 358.869 183.423 358.827 183.402C358.7 183.361 346.336 178.931 346.863 164.254C346.863 164.089 347.011 163.944 347.18 163.944C347.348 163.944 347.496 164.089 347.496 164.254C346.99 178.475 358.911 182.76 359.038 182.802C359.207 182.864 359.291 183.029 359.228 183.195C359.185 183.34 359.059 183.423 358.932 183.423Z" fill="white"/>
<path d="M364.798 230.37L234.948 357.799H175.404L50.1121 234.883C45.8077 230.66 45.8077 223.87 50.1121 219.689L201.99 70.6491C206.294 66.4677 213.215 66.4677 217.519 70.6491L364.798 215.176C369.102 219.358 369.102 226.189 364.798 230.37Z" fill="#D7B3FF"/>
<path d="M181.397 384.006L172.64 383.944C170.551 383.923 169.918 382.267 169.939 380.218L168.969 371.627C168.99 369.578 170.678 367.943 172.767 367.963L181.523 368.025C183.612 368.046 185.279 369.702 185.258 371.751L185.195 380.342C185.174 382.391 183.486 384.026 181.397 384.006Z" fill="#F4AE7F"/>
<path d="M216.444 384.254L207.687 384.192C205.598 384.171 203.931 382.515 203.952 380.466L204.016 371.875C204.037 369.826 205.725 368.191 207.814 368.212L216.57 368.274C218.659 368.294 220.326 369.95 220.305 372L220.242 380.59C220.22 382.619 218.511 384.275 216.444 384.254Z" fill="#F4AE7F"/>
<path d="M249.402 384.503L240.645 384.44C238.556 384.42 236.889 382.764 236.91 380.714L236.974 372.124C236.995 370.075 238.683 368.439 240.772 368.46L249.528 368.522C251.617 368.543 253.284 370.199 253.263 372.248L253.2 380.839C253.178 382.867 251.49 384.503 249.402 384.503Z" fill="#F4AE7F"/>
<path d="M182.262 407.293L173.505 407.231C171.417 407.21 169.75 405.554 169.771 403.505L169.834 394.915C169.855 392.865 171.543 391.23 173.632 391.251L182.388 391.313C184.477 391.333 186.144 392.989 186.123 395.039L186.06 403.629C186.039 405.658 184.351 407.293 182.262 407.293Z" fill="#F4AE7F"/>
<path d="M215.241 407.521L206.485 407.459C204.396 407.438 202.729 405.782 202.75 403.733L202.814 395.142C202.835 393.093 204.523 391.458 206.611 391.478L215.368 391.54C217.457 391.561 219.124 393.217 219.103 395.266L219.039 403.857C219.018 405.906 217.309 407.542 215.241 407.521Z" fill="#F4AE7F"/>
<path d="M249.234 407.769L240.477 407.707C238.388 407.687 236.721 406.031 236.742 403.981L236.806 395.391C236.827 393.341 238.515 391.706 240.604 391.727L249.36 391.789C251.449 391.81 253.116 393.466 253.095 395.515L253.032 404.105C253.01 406.134 251.323 407.79 249.234 407.769Z" fill="#F4AE7F"/>
<path d="M186.925 381.501H186.904L178.147 381.439C177.008 381.439 175.932 380.984 175.13 380.176C174.328 379.369 173.885 378.313 173.906 377.195L173.969 368.605C173.99 366.287 175.911 364.423 178.253 364.423C178.274 364.423 178.274 364.423 178.295 364.423L187.051 364.486C189.414 364.506 191.335 366.411 191.313 368.729L191.25 377.32C191.25 378.437 190.786 379.493 189.963 380.28C189.119 381.066 188.064 381.501 186.925 381.501ZM186.904 380.466H186.925C187.79 380.466 188.592 380.135 189.203 379.555C189.815 378.955 190.153 378.168 190.174 377.32L190.237 368.729C190.258 366.97 188.803 365.541 187.03 365.521L178.274 365.458H178.253C176.48 365.458 175.024 366.866 175.003 368.605L174.94 377.195C174.94 378.044 175.256 378.851 175.868 379.452C176.48 380.052 177.282 380.383 178.147 380.404L186.904 380.466Z" fill="white"/>
<path d="M220.938 381.729C220.917 381.729 220.917 381.729 220.896 381.729L212.139 381.667C209.776 381.646 207.856 379.741 207.877 377.423L207.94 368.833C207.962 366.514 209.882 364.651 212.224 364.651H212.245L221.001 364.713C222.141 364.713 223.217 365.169 224.019 365.976C224.82 366.783 225.263 367.839 225.263 368.957L225.2 377.547C225.2 378.665 224.736 379.721 223.913 380.507C223.132 381.294 222.056 381.729 220.938 381.729ZM212.224 365.686C210.451 365.686 208.995 367.094 208.995 368.833L208.932 377.423C208.911 379.183 210.367 380.611 212.139 380.632L220.896 380.694H220.917C221.782 380.694 222.584 380.362 223.196 379.783C223.808 379.183 224.145 378.396 224.166 377.547L224.23 368.957C224.23 368.108 223.913 367.301 223.301 366.7C222.689 366.1 221.887 365.769 221.022 365.748L212.266 365.686C212.245 365.686 212.245 365.686 212.224 365.686Z" fill="white"/>
<path d="M254.93 381.977H254.909L246.153 381.915C245.013 381.915 243.937 381.46 243.136 380.652C242.334 379.845 241.891 378.789 241.891 377.671L241.954 369.081C241.954 367.963 242.418 366.908 243.241 366.121C244.064 365.334 245.161 364.858 246.279 364.9L255.036 364.962C256.175 364.962 257.251 365.417 258.074 366.224C258.876 367.032 259.319 368.087 259.319 369.205L259.256 377.796C259.256 378.913 258.792 379.969 257.969 380.756C257.125 381.542 256.07 381.977 254.93 381.977ZM254.909 380.942H254.93C256.703 380.942 258.159 379.534 258.18 377.796L258.243 369.205C258.243 368.357 257.927 367.549 257.315 366.949C256.703 366.349 255.901 366.017 255.036 365.997L246.279 365.935H246.258C245.393 365.935 244.591 366.266 243.98 366.845C243.368 367.446 243.03 368.232 243.009 369.081L242.946 377.671C242.925 379.431 244.38 380.859 246.153 380.88L254.909 380.942Z" fill="white"/>
<path d="M186.756 404.768H186.735L177.978 404.706C176.839 404.706 175.763 404.25 174.961 403.443C174.159 402.636 173.716 401.58 173.716 400.462L173.779 391.872C173.779 390.754 174.243 389.698 175.066 388.912C175.868 388.125 176.944 387.711 178.084 387.711C178.105 387.711 178.105 387.711 178.126 387.711L186.882 387.773C189.245 387.794 191.166 389.698 191.144 392.017L191.081 400.607C191.018 402.905 189.098 404.768 186.756 404.768ZM186.735 403.733H186.756C188.528 403.733 189.984 402.325 190.005 400.586L190.068 391.996C190.089 390.236 188.634 388.808 186.861 388.787L178.105 388.725H178.084C177.218 388.725 176.417 389.057 175.805 389.636C175.193 390.236 174.855 391.023 174.834 391.872L174.771 400.462C174.75 402.222 176.206 403.65 177.978 403.671L186.735 403.733Z" fill="white"/>
<path d="M220.748 405.016C220.727 405.016 220.726 405.016 220.705 405.016L211.949 404.954C209.586 404.933 207.666 403.029 207.687 400.711L207.75 392.12C207.771 389.802 209.691 387.939 212.054 387.939C212.075 387.939 212.076 387.939 212.076 387.939L220.832 388.001C221.971 388.001 223.047 388.456 223.849 389.263C224.651 390.071 225.094 391.126 225.073 392.244L225.01 400.835C225.031 403.132 223.111 405.016 220.748 405.016ZM212.054 388.974C210.282 388.974 208.826 390.381 208.805 392.12L208.742 400.711C208.721 402.47 210.176 403.898 211.949 403.919L220.705 403.981H220.727C221.592 403.981 222.393 403.65 223.005 403.07C223.617 402.47 223.976 401.683 223.976 400.835L224.039 392.244C224.039 391.396 223.723 390.588 223.111 389.988C222.499 389.388 221.697 389.056 220.832 389.036L212.076 388.974C212.076 388.974 212.075 388.974 212.054 388.974Z" fill="white"/>
<path d="M254.761 405.244H254.74L245.983 405.182C244.844 405.182 243.768 404.726 242.966 403.919C242.164 403.112 241.721 402.056 241.742 400.938L241.805 392.348C241.826 390.029 243.746 388.166 246.11 388.166H246.131L254.887 388.228C257.25 388.249 259.17 390.154 259.149 392.472L259.086 401.062C259.086 402.18 258.622 403.236 257.799 404.023C256.955 404.83 255.9 405.244 254.761 405.244ZM254.74 404.209C255.605 404.188 256.427 403.898 257.039 403.298C257.651 402.698 257.989 401.911 258.01 401.062L258.073 392.472C258.094 390.712 256.638 389.284 254.866 389.263L246.11 389.201H246.089C244.316 389.201 242.86 390.609 242.839 392.348L242.776 400.938C242.776 401.787 243.092 402.594 243.704 403.195C244.316 403.795 245.118 404.126 245.983 404.147L254.74 404.209Z" fill="white"/>
<path d="M279.765 71.3322L252.124 56.718C249.254 55.2069 248.178 51.6879 249.718 48.8727L264.615 21.7557C266.155 18.9405 269.742 17.8848 272.612 19.3959L300.253 34.0101C303.122 35.5212 304.199 39.0402 302.658 41.8554L287.762 68.9724C286.221 71.8083 282.634 72.8433 279.765 71.3322Z" fill="#F4AE7F"/>
<path d="M254.698 30.3669C253.622 30.6774 252.399 30.6153 251.322 30.0771L243.621 26.2062C242.545 25.668 241.743 24.7365 241.363 23.598C240.983 22.4595 241.089 21.2589 241.638 20.2032L245.583 12.6477C246.132 11.592 247.081 10.8054 248.221 10.4328C248.242 10.4328 248.284 10.4121 248.305 10.4121C249.423 10.0809 250.626 10.1844 251.681 10.7226L259.383 14.5935C261.619 15.7113 262.505 18.4023 261.366 20.5965L257.42 28.152C256.851 29.2491 255.838 30.0357 254.698 30.3669ZM252.082 28.6281C253.496 29.3319 255.247 28.7937 255.986 27.3861L259.931 19.8306C260.67 18.4437 260.1 16.7256 258.686 16.0011L250.985 12.1302C250.289 11.7783 249.571 11.7783 248.769 11.9439C248.031 12.1716 247.44 12.6684 247.081 13.3515L243.136 20.907C242.777 21.5901 242.714 22.356 242.967 23.0805C243.199 23.805 243.705 24.3846 244.402 24.7365L252.082 28.6281Z" fill="white"/>
<path d="M284.576 45.3744C283.458 45.7056 282.255 45.6021 281.2 45.0639L273.498 41.193C271.262 40.0752 270.376 37.3842 271.536 35.19L275.482 27.6345C276.621 25.461 279.364 24.5709 281.601 25.6887L289.302 29.5596C290.378 30.0978 291.18 31.0293 291.56 32.1678C291.94 33.3063 291.834 34.5069 291.286 35.5626L287.34 43.1181C286.791 44.1738 285.842 44.9604 284.702 45.333C284.639 45.3537 284.618 45.3744 284.576 45.3744ZM278.689 26.9721C277.972 27.1791 277.317 27.6759 276.938 28.4004L272.992 35.9352C272.253 37.3221 272.823 39.0402 274.237 39.7647L281.938 43.6356C282.635 43.9875 283.458 44.0082 284.154 43.8219C284.892 43.5942 285.483 43.0974 285.842 42.4143L289.788 34.8588C290.146 34.1757 290.21 33.4098 289.956 32.6853C289.724 31.9608 289.218 31.3812 288.522 31.0293L280.82 27.1584C280.145 26.8272 279.385 26.7858 278.689 26.9721Z" fill="white"/>
<path d="M314.454 60.3819C313.378 60.6924 312.154 60.6303 311.078 60.0921L303.376 56.2212C301.14 55.1034 300.253 52.4124 301.414 50.2182L305.36 42.6627C305.908 41.607 306.858 40.8204 307.997 40.4478C309.2 40.0959 310.381 40.1787 311.458 40.7169L319.159 44.5878C321.396 45.7056 322.282 48.3966 321.142 50.5908L317.197 58.1463C316.606 59.2848 315.593 60.0507 314.454 60.3819ZM311.816 58.6431C313.23 59.3469 314.981 58.8087 315.72 57.4218L319.665 49.8663C320.404 48.4794 319.834 46.7613 318.421 46.0368L310.719 42.1659C310.023 41.814 309.305 41.814 308.504 41.9796C307.765 42.2073 307.174 42.7041 306.816 43.3872L302.87 50.9427C302.152 52.3296 302.701 54.0477 304.115 54.7722L311.816 58.6431Z" fill="white"/>
<path d="M244.022 50.8185C242.903 51.1497 241.701 51.0462 240.646 50.508L232.944 46.6371C230.708 45.5193 229.821 42.8283 230.961 40.6341L234.906 33.0786C236.046 30.9051 238.789 30.015 241.025 31.1328L248.727 35.0037C249.803 35.5419 250.605 36.4734 250.985 37.6119C251.364 38.7504 251.259 39.951 250.71 41.0067L246.765 48.5622C246.216 49.6179 245.267 50.4045 244.127 50.7771C244.085 50.7978 244.064 50.7978 244.022 50.8185ZM238.135 32.4162C237.417 32.6232 236.763 33.12 236.383 33.8445L232.438 41.4C231.699 42.7869 232.269 44.505 233.683 45.2295L241.363 49.1004C242.059 49.4523 242.84 49.5144 243.579 49.2867C244.317 49.059 244.908 48.5622 245.267 47.8791L249.212 40.3236C249.571 39.6405 249.634 38.8746 249.381 38.1501C249.149 37.4256 248.643 36.846 247.946 36.4941L240.245 32.6232C239.612 32.2506 238.831 32.2092 238.135 32.4162Z" fill="white"/>
<path d="M273.899 65.826C272.823 66.1365 271.62 66.0744 270.523 65.5362L262.822 61.6653C260.585 60.5475 259.699 57.8565 260.859 55.6623L264.805 48.1068C265.944 45.9126 268.687 45.0639 270.924 46.161L278.625 50.0319C280.862 51.1497 281.748 53.8407 280.609 56.0349L276.663 63.5697C276.051 64.7082 275.038 65.4948 273.899 65.826ZM271.283 64.0872C272.696 64.8117 274.448 64.2321 275.186 62.8452L279.132 55.3104C279.87 53.9235 279.301 52.2054 277.866 51.4809L270.164 47.61C268.751 46.9062 266.999 47.4444 266.261 48.852L262.315 56.4075C261.598 57.7944 262.146 59.5125 263.56 60.237L271.283 64.0872Z" fill="white"/>
<path d="M303.777 80.8335C302.658 81.1647 301.456 81.0612 300.401 80.523L292.699 76.6521C291.623 76.1139 290.821 75.1824 290.441 74.0646C290.062 72.9261 290.167 71.7255 290.716 70.6698L294.661 63.1143C295.801 60.9408 298.544 60.0507 300.78 61.1685L308.482 65.0394C309.558 65.5776 310.36 66.5091 310.74 67.6476C311.119 68.7861 311.014 69.9867 310.465 71.0424L306.52 78.5979C305.971 79.6536 305.021 80.4402 303.861 80.8128C303.84 80.8128 303.798 80.8335 303.777 80.8335ZM297.89 62.4519C297.172 62.6589 296.518 63.1557 296.138 63.8802L292.193 71.4357C291.834 72.1188 291.771 72.8847 292.003 73.6092C292.235 74.3337 292.741 74.9133 293.438 75.2652L301.139 79.1361C301.814 79.4673 302.574 79.5501 303.291 79.3224C303.312 79.3224 303.333 79.3017 303.355 79.3017C304.093 79.074 304.684 78.5772 305.043 77.8941L308.988 70.3386C309.347 69.6555 309.41 68.8896 309.157 68.1651C308.925 67.4406 308.419 66.861 307.722 66.5091L300.021 62.6382C299.346 62.2863 298.586 62.2449 297.89 62.4519Z" fill="white"/>
<path d="M152.595 81.6615C152.595 81.6615 153.755 85.0977 153.439 90.0864C153.375 90.9351 152.848 91.6803 152.046 91.9908C151.223 92.3013 150.886 91.9908 150.886 91.9908C150.886 91.9908 150.632 90.6453 150.759 90.3555C150.886 90.0657 150.59 89.1342 151.244 88.2441C151.898 87.3333 152.595 81.6615 152.595 81.6615Z" fill="#F58F83"/>
<path d="M115.48 70.2144C115.48 70.2144 114.446 64.7289 109.34 64.7289C112.61 63.9423 115.48 65.9709 115.48 65.9709C115.48 65.9709 114.53 64.0872 115.48 61.3548C115.649 63.3213 116.809 66.033 119.616 67.1715C117.527 69.8211 115.48 70.2144 115.48 70.2144Z" fill="#321E2C"/>
<path d="M200.006 88.7202C192.621 108.634 189.477 132.459 181.691 139C180.573 140.035 179.202 140.801 177.725 141.195C177.071 141.381 176.395 141.484 175.699 141.505C175.509 141.526 175.319 141.526 175.108 141.526C174.37 141.526 173.568 141.505 172.724 141.484C167.449 141.36 159.916 141.008 151.814 140.035C140.209 138.649 127.38 135.999 118.054 130.99C117.927 130.927 117.801 130.845 117.695 130.783C107.609 125.028 124.806 107.392 127.338 107.992C143.564 111.863 150.379 116.003 159.98 119.708C160.106 119.749 160.233 119.812 160.359 119.853C163.609 121.095 167.175 122.275 171.542 123.393C175.994 115.423 184.16 102.424 191.144 86.0085L200.006 88.7202Z" fill="#F58F83"/>
<path d="M177.704 141.215C177.05 141.402 176.374 141.505 175.678 141.526C175.488 141.547 175.298 141.547 175.087 141.547C174.349 141.547 173.547 141.526 172.703 141.505C167.428 141.381 159.895 141.029 151.793 140.056C159.579 135.026 160.655 125.09 159.98 119.708C160.106 119.749 160.233 119.812 160.36 119.853C163.187 128.174 157.638 136.868 157.638 136.868C157.638 136.868 162.744 139.373 169.137 140.801C168.378 138.98 168.145 134.591 168.145 134.591C168.145 134.591 168.188 134.612 168.251 134.633C168.947 140.201 173.294 142.292 177.704 141.091C177.683 141.112 177.704 141.174 177.704 141.215Z" fill="#DD6C64"/>
<path d="M150.527 140.781C149.598 140.677 148.628 140.553 147.636 140.408C130.123 137.986 105.436 131.631 110.606 114.802C115.839 97.8282 145.695 109.275 159.326 116.872C159.494 117.265 159.642 117.783 159.769 118.383C160.824 123.538 160.212 135.668 150.527 140.781Z" fill="#BCB4F9"/>
<path d="M191.165 86.0085C191.165 86.0085 190.617 85.0356 191.018 81.1854C192.6 76.9626 195.343 75.0789 195.343 75.0789C195.343 75.0789 200.281 77.0868 202.095 78.4737C203.34 81.558 199.985 88.7202 199.985 88.7202L191.165 86.0085Z" fill="#F58F83"/>
<path d="M364.354 36.1215L357.265 374.049L356.99 385.124H223.385L223.09 374.049L220.114 255.438L219.988 250.18L216.359 49.9491L216 36.1215H364.354Z" fill="url(#paint0_linear_824_3592)"/>
<path d="M342.389 36.1215L342.052 49.9491L338.401 250.18L338.275 255.438L335.3 374.049L335.025 385.124H201.42L201.146 374.049L198.171 255.438L198.023 250.18L194.394 49.9491L194.035 36.1215H342.389Z" fill="url(#paint1_linear_824_3592)"/>
<path d="M364.186 42.7662H216.169C214.397 42.7662 212.962 41.3586 212.962 39.6198V39.2679C212.962 37.5291 214.397 36.1215 216.169 36.1215H364.186C365.958 36.1215 367.393 37.5291 367.393 39.2679V39.6198C367.393 41.3379 365.958 42.7662 364.186 42.7662Z" fill="#363249"/>
<path d="M342.221 42.7662H194.204C192.432 42.7662 190.997 41.3586 190.997 39.6198V39.2679C190.997 37.5291 192.432 36.1215 194.204 36.1215H342.221C343.993 36.1215 345.428 37.5291 345.428 39.2679V39.6198C345.449 41.3379 343.993 42.7662 342.221 42.7662Z" fill="#3B425C"/>
<path d="M332.05 56.3454V244.281H203.931L200.724 56.3454H332.05Z" fill="#B4B3E8"/>
<path d="M200.576 368.336L197.897 261.296C197.854 259.785 198.973 258.522 200.365 258.522H329.582C330.974 258.522 332.093 259.785 332.05 261.296L329.371 368.336C329.329 369.806 328.231 370.965 326.902 370.965H203.045C201.716 370.965 200.597 369.806 200.576 368.336Z" fill="url(#paint2_linear_824_3592)"/>
<path d="M328.78 262.186L326.143 367.508C326.1 369.433 324.645 370.965 322.872 370.965H200.555C198.783 370.965 197.348 369.433 197.285 367.508L194.753 266.202L194.647 262.186C194.605 260.178 196.061 258.522 197.918 258.522H325.531C327.366 258.522 328.843 260.178 328.78 262.186Z" fill="#F0E7FA"/>
<path d="M285.208 268.748H238.556C237.184 268.748 236.045 267.651 236.045 266.285V265.643C236.045 264.298 237.163 263.18 238.556 263.18H285.208C286.579 263.18 287.719 264.277 287.719 265.643V266.285C287.719 267.651 286.601 268.748 285.208 268.748Z" fill="#39D8FF"/>
<path d="M280.481 268.748H233.829C232.458 268.748 231.318 267.651 231.318 266.285V265.643C231.318 264.298 232.437 263.18 233.829 263.18H280.481C281.853 263.18 282.992 264.277 282.992 265.643V266.285C282.992 267.651 281.874 268.748 280.481 268.748Z" fill="#97F2F2"/>
<path d="M216 385.123H204.205V387.897H216V385.123Z" fill="#3D445E"/>
<path d="M332.219 385.123H320.424V387.897H332.219V385.123Z" fill="#3D445E"/>
<path d="M239.041 385.123H227.246V387.897H239.041V385.123Z" fill="#3D445E"/>
<path d="M355.26 385.123H343.465V387.897H355.26V385.123Z" fill="#3D445E"/>
<path d="M194.204 42.7662H342.221L342.073 48.6243L194.267 44.6706L194.204 42.7662Z" fill="url(#paint3_linear_824_3592)"/>
<path opacity="0.25" d="M342.072 48.6243H364.037L364.185 42.7662H342.22L342.072 48.6243Z" fill="#877BAB"/>
<path opacity="0.23" d="M328.78 262.186L326.143 367.508C326.1 369.433 324.645 370.965 322.872 370.965H284.386L312.723 272.867L194.753 266.202L194.647 262.186C194.605 260.178 196.061 258.522 197.918 258.522H325.531C327.366 258.522 328.843 260.178 328.78 262.186Z" fill="url(#paint4_linear_824_3592)"/>
<path d="M117.969 104.183C117.969 104.183 95.1392 119.522 99.8445 155.457L98.051 155.933C98.051 155.954 90.5394 122.585 117.969 104.183Z" fill="url(#paint5_linear_824_3592)"/>
<path d="M161.415 386.158C161.415 386.2 161.415 386.241 161.415 386.283C161.393 386.779 161.246 387.276 160.95 387.752H135.082C134.85 386.904 134.681 386.096 134.596 385.351C133.921 380.031 136.39 377.195 136.39 377.195H150.738C154.114 382.722 157.237 382.432 159.473 383.323C160.697 383.819 161.415 384.958 161.415 386.158Z" fill="#240C22"/>
<path d="M161.394 386.282C161.373 386.779 161.225 387.276 160.929 387.752H135.082C134.85 386.903 134.681 386.096 134.597 385.351L161.394 386.282Z" fill="#240C22"/>
<path d="M131.304 387.235C131.283 387.608 131.241 387.815 131.241 387.815L99.7178 388.063C99.7178 387.338 99.7389 386.655 99.7811 385.993C100.182 378.748 102.524 375.063 102.524 375.063H116.999C119.404 379.452 123.793 380.073 127.464 381.522C129.427 382.288 130.84 384.006 131.22 385.993C131.283 386.407 131.326 386.821 131.304 387.235Z" fill="#240C22"/>
<path d="M131.304 387.235C131.283 387.607 131.241 387.814 131.241 387.814L99.7178 388.062C99.7178 387.338 99.7389 386.655 99.7811 385.993H131.22C131.283 386.407 131.326 386.821 131.304 387.235Z" fill="#240C22"/>
<path d="M150.274 197.23H101.406C101.406 197.23 123.561 263.946 130.039 282.783C124.426 305.491 130.06 357.82 132.634 377.879C137.15 382.391 151.413 378.293 151.413 378.293C151.413 378.293 158.06 303.338 163.862 278.332C162.322 242.376 150.274 197.23 150.274 197.23Z" fill="#0C408B"/>
<path d="M141.622 106.336L142.572 107.599L142.108 111.449L140.145 110.517C140.145 110.517 139.766 108.675 140.145 108.302C140.504 107.93 141.622 106.336 141.622 106.336Z" fill="#8D87BB"/>
<path d="M139.364 108.323H119.003C119.003 108.323 120.227 105.115 121.282 100.768C122.189 97.0209 122.949 92.4462 122.717 88.3062C122.653 87.3747 122.548 86.4846 122.379 85.6152L138.373 86.526L138.563 90.6867L139.09 102.051L139.364 108.323Z" fill="#F58F83"/>
<path d="M150.612 174.066C150 180.463 149.683 187.79 150.274 197.25C149.261 198.637 147.974 199.734 146.476 200.604C132.74 208.594 101.406 197.25 101.406 197.25C103.221 183.795 100.478 170.382 99.1277 157.258C97.2076 138.773 97.9883 120.847 117.97 104.204C123.519 104.204 132.255 104.887 137.53 107.309C138.205 107.619 138.817 107.95 139.365 108.323C140.125 108.841 140.863 109.42 141.623 110.083C142.847 111.159 143.965 112.422 144.978 113.788C144.999 113.809 145.02 113.85 145.041 113.871C145.062 113.891 145.062 113.912 145.083 113.912C145.105 113.933 145.105 113.933 145.105 113.933C146.16 115.361 147.109 116.914 147.953 118.528C150.612 123.6 152.152 129.106 152.595 132.666C154.684 150.468 151.941 160.052 150.612 174.066Z" fill="url(#paint6_linear_824_3592)"/>
<path d="M152.933 88.182C152.679 92.2806 151.392 95.1786 149.683 97.1244C149.599 97.2072 149.536 97.29 149.451 97.3728C146.223 100.809 141.581 101.099 139.007 99.9189C137.952 99.4428 136.96 98.7183 136.095 97.7661C132.951 94.2678 130.841 89.8587 130.841 89.8587C130.841 89.8587 130.356 90.1278 129.849 90.0243C127.233 89.4861 124.532 90.3348 122.739 92.2599L122.696 92.322C122.506 92.322 117.105 92.0115 116.852 79.7571C116.662 70.4835 118.223 60.4233 134.871 60.4233C143.438 60.4233 150.569 65.0601 152.468 72.8433C152.764 74.0025 152.933 75.2445 152.954 76.5279C152.975 77.3352 152.954 78.1839 152.869 79.0533C152.869 79.1568 152.848 79.2396 152.848 79.3431C152.785 79.9848 152.679 80.6472 152.553 81.3096C152.616 81.6822 152.658 82.0341 152.701 82.386C152.743 82.7172 152.785 83.0277 152.827 83.3589C152.848 83.5245 152.869 83.6901 152.869 83.8764C152.996 85.4289 153.017 86.8572 152.933 88.182Z" fill="#FFB092"/>
<path d="M142.15 106.005C141.623 110.083 141.623 110.083 141.623 110.083C140.884 109.42 140.125 108.841 139.365 108.323C134.533 105.052 124.236 104.204 117.97 104.204L119.362 98.8425C119.362 98.8425 120.227 98.8218 121.704 98.9253C123.392 99.0288 125.882 99.2979 128.71 99.9396C132.93 100.892 137.909 102.672 142.15 106.005Z" fill="#BCB4F9"/>
<path d="M153.164 73.0296C153.059 73.2159 152.932 73.4022 152.806 73.5678C152.763 73.6299 152.7 73.692 152.658 73.7541C150.717 75.8862 146.075 76.6935 141.855 76.5072C139.133 76.383 136.77 78.3081 136.453 80.9577C136.348 81.8064 136.242 82.5723 136.01 83.1519C134.449 84.1041 132.972 83.9592 132.972 83.9592C132.107 84.87 131.474 86.0292 130.988 87.2712C130.651 88.1613 130.397 89.1135 130.229 90.0657C130.208 90.1692 130.186 90.2727 130.186 90.3555C129.997 91.4112 129.912 92.4669 129.87 93.4812C129.743 96.3585 126.979 98.4285 124.131 97.7454C123.962 97.704 123.814 97.6626 123.645 97.6212C122.991 97.4349 122.464 97.0002 122.19 96.4413C122.021 96.1101 121.936 95.7168 121.957 95.3235C122.021 94.0815 121.746 92.3427 120.143 91.0593C112.884 85.1598 108.728 68.0409 124.046 60.9201C148.227 50.4666 154.283 70.9803 153.164 73.0296Z" fill="#42283A"/>
<path d="M132.697 89.1549C132.676 89.1756 132.676 89.1756 132.676 89.1756C132.38 89.5896 131.979 89.9001 131.515 90.1071C131.368 90.1692 131.199 90.2313 131.03 90.2727C130.756 90.3348 130.46 90.3555 130.186 90.3555C128.477 90.2727 126.62 88.8444 125.607 86.6502C124.32 83.8557 124.869 80.8956 126.852 80.0055C127 79.9434 127.169 79.8813 127.337 79.8399C129.258 79.3638 131.6 80.8749 132.781 83.4417C132.866 83.6073 132.929 83.7522 132.971 83.9178C133.731 85.905 133.604 87.9129 132.697 89.1549Z" fill="#FFB092"/>
<path d="M130.039 89.1756C128.667 89.1756 127.148 88.0578 126.346 86.319C125.355 84.1662 125.798 81.8478 127.359 81.144C127.444 81.1026 127.57 81.144 127.612 81.2268C127.655 81.3096 127.612 81.4338 127.528 81.4752C126.156 82.0962 125.777 84.1869 126.705 86.1534C127.612 88.1199 129.469 89.2377 130.841 88.6167C130.946 88.5753 131.052 88.6167 131.094 88.6995C131.136 88.7823 131.094 88.9065 131.009 88.9479C130.693 89.1135 130.376 89.1756 130.039 89.1756Z" fill="#F58F83"/>
<path d="M147.91 118.487C138.078 107.744 128.583 111.904 123.392 116.251C122.822 116.727 122.316 117.183 121.873 117.638C107.862 131.569 111.724 157.734 111.914 158.976C111.914 158.997 111.914 159.017 111.914 159.017H107.208C107.208 159.017 104.318 126.829 120.227 114.036C135.145 102.051 143.922 112.422 144.956 113.767C144.977 113.788 144.998 113.829 145.019 113.85C145.041 113.871 145.041 113.891 145.062 113.891C145.062 113.912 145.083 113.912 145.083 113.912C146.138 115.34 147.087 116.893 147.91 118.487Z" fill="url(#paint7_linear_824_3592)"/>
<path d="M185.765 133.101C185.765 133.101 186.039 132.294 186.524 131.176C187.432 129.106 188.993 127.408 190.997 126.311C192.918 125.256 194.795 124.262 195.597 123.807C195.829 123.682 196.125 123.807 196.167 124.076C196.251 124.448 196.272 125.028 196.019 125.649L185.765 133.101Z" fill="#F58F83"/>
<path d="M199.5 109.607L198.888 109.462L194.626 124.469L196.082 124.821L199.5 109.607Z" fill="#D7CEFD"/>
<path d="M200.302 106.481L199.669 106.336L198.678 108.509L198.889 109.461L199.501 109.606L200.134 108.881L200.302 106.481Z" fill="#D7CEFD"/>
<path d="M195.724 123.165C194.69 122.917 193.698 123.372 193.487 124.2L190.892 134.426L194.626 135.337L197.222 125.111C197.433 124.283 196.757 123.413 195.724 123.165Z" fill="#363249"/>
<path d="M194.626 135.336C194.415 136.164 193.423 136.619 192.39 136.371C191.356 136.123 190.702 135.253 190.913 134.426C191.124 133.598 192.115 133.142 193.149 133.391C194.162 133.639 194.837 134.508 194.626 135.336Z" fill="white"/>
<path d="M192.938 136.619C192.727 136.619 192.537 136.599 192.326 136.536C191.778 136.412 191.314 136.102 191.018 135.709C190.702 135.295 190.596 134.819 190.702 134.363C190.807 133.908 191.145 133.536 191.609 133.329C192.073 133.122 192.622 133.08 193.17 133.204C194.289 133.474 195.027 134.446 194.795 135.378C194.69 135.833 194.352 136.205 193.888 136.412C193.592 136.557 193.276 136.619 192.938 136.619ZM192.558 133.515C192.284 133.515 192.01 133.577 191.778 133.68C191.398 133.846 191.145 134.136 191.06 134.467C190.976 134.819 191.06 135.171 191.314 135.502C191.567 135.833 191.968 136.081 192.411 136.185C192.875 136.288 193.339 136.267 193.719 136.081C194.099 135.916 194.352 135.626 194.436 135.295C194.626 134.57 194.014 133.805 193.086 133.577C192.917 133.536 192.748 133.515 192.558 133.515Z" fill="black"/>
<path d="M192.284 137.676C191.482 138.711 190.723 139.746 189.963 140.801C177.831 157.61 169.475 177.068 160.381 179.862C157.427 180.773 154.515 180.442 152.468 179.076C152.067 178.807 151.688 178.496 151.371 178.165C149.367 176.074 148.755 172.555 150.865 167.98C150.886 167.918 150.928 167.856 150.949 167.794C152.278 164.979 155.886 161.791 160.929 157.444C167.407 151.855 176.29 144.32 185.785 133.101L192.284 137.676Z" fill="#FFB092"/>
<path d="M166.605 171.168C166.605 175.577 163.335 179.676 158.461 180.318C155.865 180.67 153.291 179.945 151.308 178.351C150.991 178.103 150.696 177.834 150.421 177.544C150.4 177.523 150.358 177.502 150.337 177.461C150.21 177.316 150.084 177.171 149.957 177.026C149.493 176.467 148.987 175.867 148.438 175.205C145.125 171.168 140.568 165.289 136.073 158.583C134.364 156.037 132.697 153.346 131.094 150.613C126.684 143.037 122.907 134.943 121.367 127.429C121.346 127.284 121.303 127.16 121.282 127.015C120.206 120.909 126.979 118.57 133.605 118.052C139.238 117.617 144.746 118.507 145.294 119.563C151.308 131.424 153.713 138.587 156.351 145.894C156.92 147.446 157.49 148.978 158.102 150.592C158.439 151.462 158.777 152.331 159.157 153.242C159.705 154.567 160.275 155.954 160.929 157.403C162.195 160.239 163.693 163.344 165.55 166.925C166.268 168.312 166.605 169.761 166.605 171.168Z" fill="#FFB092"/>
<path d="M158.988 149.33C158.798 149.702 158.482 150.137 158.102 150.613C157.364 151.524 156.309 152.58 155 153.656C153.903 154.546 152.637 155.436 151.245 156.244C149.493 157.237 147.552 158.107 145.463 158.645C142.53 159.411 139.344 159.556 136.074 158.603C135.609 158.479 135.145 158.314 134.702 158.127C126.79 146.225 116.472 127.388 122.612 116.934C123.962 114.637 126.093 112.753 129.216 111.428C129.448 111.325 129.659 111.242 129.891 111.159C131.221 110.662 132.529 110.414 133.774 110.372C147.679 109.958 156.393 135.647 158.988 149.33Z" fill="#D7CEFD"/>
<path d="M193.022 127.098L197.77 124.8C198.213 124.593 198.741 124.8 198.93 125.235C199.057 125.545 198.973 125.877 198.741 126.125L198.846 126.477C199.015 127.036 198.909 127.636 198.53 128.092L198.656 128.506C198.804 129.023 198.719 129.561 198.445 129.996C198.677 131.155 198.403 132.356 197.686 133.329C197.453 133.639 197.2 133.95 196.989 134.198C194.605 133.577 193.782 132.48 193.803 132.418C193.824 132.356 193.022 127.098 193.022 127.098Z" fill="#F58F83"/>
<path d="M185.765 133.101C185.765 133.101 185.912 132.853 186.166 132.48C187.727 130.037 190.069 128.174 192.833 127.181C192.875 127.16 192.896 127.16 192.939 127.139C194.88 126.456 197.011 127.533 197.56 129.478C197.855 130.534 198.024 131.755 197.855 132.956C196.272 135.958 192.306 137.696 192.306 137.696L185.765 133.101Z" fill="#FFB092"/>
<path d="M150.274 197.23C150.569 211.968 145.167 239.478 140.673 283.424C140.673 283.466 140.652 283.507 140.652 283.569C140.652 283.569 135.989 297.521 130.84 318.656C126.874 334.885 122.633 355.315 119.974 376.926C119.974 376.926 110.437 381.149 100.119 376.988C99.9712 376.429 99.8235 375.436 99.6969 374.09C98.7685 365.396 97.9667 341.446 99.6336 316.358C100.224 307.623 106.491 291.518 108.854 285.722C109.403 284.356 109.74 283.569 109.74 283.569C109.719 283.466 109.719 283.362 109.698 283.259C105.542 249.414 103.326 237.884 103.326 237.884C103.326 237.884 99.1694 228.983 97.4603 220C96.0044 212.423 98.7474 203.792 100.351 199.672C100.351 199.672 100.351 199.652 100.351 199.61C100.372 198.265 100.646 177.606 97.5869 157.341C97.397 156.016 98.7263 155.002 99.9712 155.519C101.385 156.119 103.347 156.803 105.921 157.382C106.765 157.568 107.652 157.755 108.622 157.92C109.002 157.982 109.382 158.045 109.783 158.107C111.196 158.314 112.399 159.1 113.159 160.197C113.792 161.108 114.129 162.247 114.003 163.427C113.939 164.048 113.876 164.669 113.813 165.29C113.686 166.428 113.56 167.567 113.454 168.684C113.454 168.705 113.454 168.705 113.454 168.726C112.188 180.214 110.985 191.206 116.028 196.381C118.138 198.554 122.759 199.776 127.802 199.61C130.503 199.527 133.33 199.051 135.968 198.12C141.644 196.091 146.454 191.951 147.235 184.996C147.467 182.967 147.699 180.959 147.91 179.096C148.079 177.689 148.248 176.364 148.396 175.205C148.944 175.867 149.451 176.468 149.915 177.026C150.041 177.171 150.168 177.316 150.295 177.461C150.274 177.627 150.274 177.772 150.252 177.937C149.915 183.423 149.809 189.653 150.274 197.23Z" fill="url(#paint8_linear_824_3592)"/>
<path d="M114.657 207.269L113.792 215.632L111.787 234.986C111.724 235.649 111.238 236.208 110.584 236.394H110.563C106.069 237.595 101.364 235.193 99.7389 230.909C97.861 225.961 96.2996 220.579 97.5023 212.465C97.8821 209.939 98.5362 207.145 99.5279 204.019C99.5068 204.019 105.373 207.269 114.657 207.269Z" fill="#0C408B"/>
<path d="M114.024 205.447L113.159 213.81L111.154 233.165C111.091 233.827 110.606 234.386 109.952 234.572H109.93C105.436 235.773 100.731 233.372 99.1061 229.087C97.2282 224.14 95.6668 218.758 96.8695 210.643C97.2493 208.118 97.9034 205.323 98.8951 202.198C98.874 202.198 104.74 205.447 114.024 205.447Z" fill="#2E57A8"/>
<path d="M114.382 206.979L113.918 211.533C113.813 212.485 113.032 213.21 112.061 213.251C106.217 213.479 100.203 211.368 96.4473 209.732C96.7427 207.683 97.2069 205.489 97.8821 203.088C98.2197 201.866 99.5701 201.204 100.773 201.68C103.009 202.549 106.871 203.75 111.914 204.081C113.412 204.185 114.53 205.51 114.382 206.979Z" fill="#5E7ABB"/>
<path d="M144.429 213.935C144.429 213.935 142.657 227.183 129.934 231.633L128.752 229.749C141.496 225.299 143.248 212.051 143.248 212.051L144.429 213.935Z" fill="#5E7ABB"/>
<path d="M143.248 212.051C143.248 212.051 141.475 225.299 128.752 229.749C137.952 224.264 143.248 212.051 143.248 212.051Z" fill="#0C408B"/>
<path d="M200.724 56.3454L203.931 244.281H219.882L216 56.3454H200.724Z" fill="#9E9EE5"/>
<path d="M325.446 231.612H219.629L203.931 244.281H325.446V231.612Z" fill="#807FBD"/>
<path d="M324.707 145.19H219.629L203.931 157.858H324.834L324.707 145.19Z" fill="#807FBD"/>
<path d="M324.834 157.858H203.931V160.921H324.834V157.858Z" fill="url(#paint9_linear_824_3592)"/>
<path d="M324.707 201.659H219.629L203.931 214.328H324.834L324.707 201.659Z" fill="#807FBD"/>
<path d="M324.834 214.328H203.931V217.391H324.834V214.328Z" fill="url(#paint10_linear_824_3592)"/>
<path d="M406.322 244.136L408.348 56.1384C408.369 54.441 407.609 53.0127 406.66 53.0127H327.408C326.459 53.0127 325.699 54.4203 325.72 56.1384L327.746 244.136C327.767 245.771 328.526 247.075 329.434 247.075H404.634C405.563 247.096 406.301 245.792 406.322 244.136Z" fill="url(#paint11_linear_824_3592)"/>
<path d="M404.634 56.1383L404.592 58.9535L404.423 74.789L402.714 244.156C402.693 245.792 401.997 247.096 401.131 247.096H327.155C326.29 247.096 325.593 245.792 325.572 244.156L323.673 56.1383C323.652 54.4409 324.37 53.0333 325.256 53.0333H403.052C403.959 53.0333 404.655 54.4409 404.634 56.1383Z" fill="#F0E7FA"/>
<path d="M404.634 56.1384L404.592 58.9536L404.423 74.7891L336.08 68.0823L328.885 247.096H327.155C326.29 247.096 325.593 245.792 325.572 244.156L323.673 56.1384C323.652 54.441 324.37 53.0334 325.256 53.0334H403.052C403.959 53.0334 404.655 54.441 404.634 56.1384Z" fill="url(#paint12_linear_824_3592)"/>
<path d="M399.929 96.4413H328.801C327.155 96.4413 325.847 95.1372 325.847 93.5226C325.847 91.908 327.176 90.6039 328.801 90.6039H399.929C401.575 90.6039 402.904 91.908 402.904 93.5226C402.883 95.1372 401.553 96.4413 399.929 96.4413Z" fill="url(#paint13_linear_824_3592)"/>
<path d="M399.929 138.048H328.801C327.155 138.048 325.847 136.744 325.847 135.13C325.847 133.515 327.176 132.232 328.801 132.232H399.929C401.575 132.232 402.904 133.536 402.904 135.13C402.883 136.744 401.553 138.048 399.929 138.048Z" fill="url(#paint14_linear_824_3592)"/>
<path d="M399.929 179.655H328.801C327.155 179.655 325.847 178.351 325.847 176.737C325.847 175.122 327.176 173.818 328.801 173.818H399.929C401.575 173.818 402.904 175.122 402.904 176.737C402.883 178.351 401.553 179.655 399.929 179.655Z" fill="url(#paint15_linear_824_3592)"/>
<path d="M399.929 221.262H328.801C327.155 221.262 325.847 219.958 325.847 218.344C325.847 216.729 327.176 215.446 328.801 215.446H399.929C401.575 215.446 402.904 216.75 402.904 218.344C402.883 219.979 401.553 221.262 399.929 221.262Z" fill="url(#paint16_linear_824_3592)"/>
<path d="M399.549 92.5497H328.42C326.775 92.5497 325.445 91.2456 325.445 89.631C325.445 88.0164 326.775 86.733 328.42 86.733H399.549C401.194 86.733 402.503 88.0371 402.503 89.631C402.503 91.2456 401.173 92.5497 399.549 92.5497Z" fill="#807FBD"/>
<path d="M399.549 134.157H328.42C326.775 134.157 325.445 132.853 325.445 131.238C325.445 129.623 326.775 128.34 328.42 128.34H399.549C401.194 128.34 402.503 129.644 402.503 131.238C402.503 132.873 401.173 134.157 399.549 134.157Z" fill="#807FBD"/>
<path d="M399.549 175.784H328.42C326.775 175.784 325.445 174.48 325.445 172.886C325.445 171.272 326.775 169.968 328.42 169.968H399.549C401.194 169.968 402.503 171.272 402.503 172.886C402.503 174.48 401.173 175.784 399.549 175.784Z" fill="#807FBD"/>
<path d="M399.549 217.391H328.42C326.775 217.391 325.445 216.087 325.445 214.473C325.445 212.858 326.775 211.554 328.42 211.554H399.549C401.194 211.554 402.503 212.858 402.503 214.473C402.503 216.087 401.173 217.391 399.549 217.391Z" fill="#807FBD"/>
<path d="M252.904 49.4316H200.724V56.3454H252.904V49.4316Z" fill="url(#paint17_linear_824_3592)"/>
<path d="M205.029 53.385C205.029 54.1714 204.375 54.813 203.573 54.813C202.771 54.813 202.117 54.1714 202.117 53.385C202.117 52.5986 202.771 51.957 203.573 51.957C204.375 51.957 205.029 52.5986 205.029 53.385Z" fill="#57A5A5"/>
<path d="M204.733 53.385C204.733 54.1714 204.079 54.813 203.277 54.813C202.475 54.813 201.821 54.1714 201.821 53.385C201.821 52.5986 202.475 51.957 203.277 51.957C204.079 51.957 204.733 52.5986 204.733 53.385Z" fill="#97F2F2"/>
<path d="M216.021 53.385C216.021 54.1714 215.367 54.813 214.565 54.813C213.763 54.813 213.109 54.1714 213.109 53.385C213.109 52.5986 213.763 51.957 214.565 51.957C215.346 51.957 216.021 52.5986 216.021 53.385Z" fill="#57A5A5"/>
<path d="M215.705 53.385C215.705 54.1714 215.051 54.813 214.249 54.813C213.447 54.813 212.793 54.1714 212.793 53.385C212.793 52.5986 213.447 51.957 214.249 51.957C215.051 51.957 215.705 52.5986 215.705 53.385Z" fill="#97F2F2"/>
<path d="M226.993 53.385C226.993 54.1714 226.339 54.813 225.537 54.813C224.735 54.813 224.081 54.1714 224.081 53.385C224.081 52.5986 224.735 51.957 225.537 51.957C226.339 51.957 226.993 52.5986 226.993 53.385Z" fill="#57A5A5"/>
<path d="M226.698 53.385C226.698 54.1714 226.044 54.813 225.242 54.813C224.44 54.813 223.786 54.1714 223.786 53.385C223.786 52.5986 224.44 51.957 225.242 51.957C226.044 51.957 226.698 52.5986 226.698 53.385Z" fill="#97F2F2"/>
<path d="M248.115 54.8337H234.759C233.957 54.8337 233.303 54.1921 233.303 53.4057C233.303 52.6192 233.957 51.9777 234.759 51.9777H248.115C248.917 51.9777 249.571 52.6192 249.571 53.4057C249.571 54.1714 248.917 54.8337 248.115 54.8337Z" fill="#57A5A5"/>
<path d="M247.144 54.8337H233.788C232.986 54.8337 232.332 54.1921 232.332 53.4057C232.332 52.6192 232.986 51.9777 233.788 51.9777H247.144C247.946 51.9777 248.6 52.6192 248.6 53.4057C248.621 54.1714 247.967 54.8337 247.144 54.8337Z" fill="#97F2F2"/>
<path d="M254.381 49.4316H252.883V56.3454H254.381V49.4316Z" fill="#877BAB"/>
<path d="M139.091 102.01C134.554 100.457 131.473 95.2614 131.473 95.2614L128.709 99.9396C125.882 99.2979 123.392 99.0288 121.704 98.9253C121.873 98.118 122.042 97.29 122.168 96.4413C122.464 97.0209 122.97 97.4556 123.624 97.6212C123.772 97.6626 123.941 97.704 124.11 97.7454C126.979 98.4285 129.743 96.3585 129.849 93.4812C129.891 92.4876 129.996 91.4319 130.165 90.3555C130.461 90.3762 130.735 90.3348 131.009 90.2727C131.6 91.4319 133.478 94.9302 136.052 97.7868C136.917 98.739 137.888 99.4428 138.964 99.9396L139.091 102.01Z" fill="#DD6C64"/>
<path d="M148.417 175.246C148.27 176.405 148.101 177.71 147.932 179.138C136.243 169.45 123.878 148.812 119.574 125.753C112.632 141.34 113.18 159.908 113.201 160.218C112.864 159.742 112.442 159.307 111.935 158.955C111.745 157.713 107.884 131.549 121.895 117.617C122.106 117.41 122.359 117.183 122.591 116.955C116.451 127.409 126.769 146.246 134.681 158.148C135.145 158.334 135.61 158.479 136.053 158.624C140.547 165.331 145.105 171.189 148.417 175.246Z" fill="#B8B1FE"/>
<path opacity="0.25" d="M145.442 158.665C142.509 159.431 139.323 159.576 136.052 158.624C135.588 158.5 135.124 158.334 134.681 158.148C126.768 146.245 116.45 127.408 122.59 116.955C123.941 114.657 126.072 112.774 129.195 111.449C129.427 111.345 129.638 111.262 129.87 111.18C129.87 111.2 121.345 137.758 145.442 158.665Z" fill="#B8B1FE"/>
<path d="M158.988 149.33C158.798 149.702 158.481 150.137 158.101 150.613C157.363 151.524 156.308 152.58 155 153.656C150.78 132.273 135.967 113.188 133.752 110.393C147.678 109.958 156.392 135.647 158.988 149.33Z" fill="#DFD8FD"/>
<path opacity="0.5" d="M135.989 198.12C128.414 200.811 119.299 199.734 116.049 196.381C111.027 191.227 112.23 180.214 113.475 168.726C112.8 177.917 113.095 202.053 135.989 198.12Z" fill="#706AB1"/>
<path opacity="0.25" d="M130.84 318.656C126.874 334.885 122.632 355.315 119.974 376.926C119.974 376.926 110.437 381.149 100.119 376.988C99.971 376.429 99.8233 375.436 99.6967 374.09C98.7683 365.396 97.9665 341.446 99.6334 316.358C100.224 307.623 106.491 291.518 108.854 285.722C112.441 306.919 118.708 320.974 125.882 320.974C127.591 320.974 129.258 320.167 130.84 318.656Z" fill="#0C408B"/>
<path d="M150.274 197.23C150.569 211.968 145.168 239.478 140.673 283.424C132.888 279.678 126.874 253.285 126.874 221.262C126.874 213.665 127.212 206.358 127.845 199.61C130.545 199.527 133.373 199.051 136.01 198.12C141.686 196.091 146.497 191.951 147.278 184.996C147.51 182.967 147.742 180.959 147.953 179.096C148.122 177.689 148.291 176.364 148.438 175.205C148.987 175.867 149.493 176.468 149.957 177.026C150.084 177.171 150.211 177.316 150.337 177.461C150.316 177.627 150.316 177.772 150.295 177.937C149.915 183.423 149.81 189.653 150.274 197.23Z" fill="#3262AD"/>
<path opacity="0.5" d="M160.929 157.444C155.886 161.791 152.278 164.979 150.949 167.794C150.928 167.856 150.885 167.918 150.864 167.981C148.754 172.555 149.366 176.074 151.371 178.165C151.35 178.227 151.329 178.31 151.307 178.372C150.991 178.124 150.696 177.854 150.421 177.565C150.4 177.544 150.358 177.523 150.337 177.482C150.21 177.337 150.084 177.192 149.957 177.047C149.493 176.488 148.986 175.888 148.438 175.226C145.125 171.189 140.568 165.31 136.073 158.603C139.344 159.556 142.53 159.411 145.463 158.645C147.552 158.107 149.514 157.237 151.244 156.244C152.658 155.436 153.924 154.546 155 153.656C156.308 152.58 157.363 151.524 158.102 150.613C158.439 151.483 158.777 152.352 159.157 153.263C157.194 156.223 152.13 161.977 142.15 162.619C144.703 167.794 147.531 169.906 147.531 169.906C147.531 169.906 154.937 159.742 160.929 157.444Z" fill="#F58F83"/>
<path opacity="0.2" d="M189.942 140.822C177.809 157.631 169.454 177.089 160.36 179.883C157.406 180.794 154.494 180.463 152.447 179.096C153.587 178.248 171.648 164.958 189.942 140.822Z" fill="#F58F83"/>
<path d="M152.954 76.5279C151.287 77.6664 147.278 78.7428 142.678 78.6807C136.664 78.5772 137.086 83.4417 137.086 83.4417C137.086 83.4417 136.158 84.3525 134.343 84.7458C134.491 87.0642 132.909 88.9272 132.719 89.1549C133.626 87.9129 133.753 85.9257 132.993 83.9385C132.993 83.9385 134.47 84.0627 136.031 83.1312C136.264 82.5723 136.369 81.7857 136.475 80.937C136.791 78.2874 139.154 76.3623 141.876 76.4865C146.096 76.6728 150.738 75.8655 152.679 73.7334C152.827 74.6235 152.933 75.555 152.954 76.5279Z" fill="#F58F83"/>
<path opacity="0.25" d="M107.546 172.804C107.546 185.783 104.487 196.671 100.393 199.61C100.415 198.265 100.689 177.606 97.6293 157.341C97.4816 156.409 98.1357 155.623 98.9586 155.436C99.2962 155.354 99.6549 155.395 100.014 155.54C100.14 155.581 100.267 155.643 100.393 155.705C101.765 156.264 103.601 156.885 105.943 157.424C106.956 161.791 107.546 167.09 107.546 172.804Z" fill="#0C408B"/>
<path d="M152.869 79.1361C152.806 79.8398 152.7 80.5641 152.553 81.3091C152.574 81.4954 152.616 81.6816 152.637 81.8679C152.637 81.9093 152.658 81.93 152.658 81.9714C152.679 82.0955 152.7 82.2197 152.7 82.3232C152.7 82.3439 152.7 82.3646 152.7 82.3853C151.561 82.4267 150.696 81.9507 150.232 81.2884C149.894 80.8124 149.746 80.233 149.852 79.7156C149.894 79.4258 150.042 79.1568 150.253 78.9292C151.329 78.8878 152.3 78.9912 152.89 79.0533C152.869 79.074 152.869 79.1154 152.869 79.1361Z" fill="white"/>
<path d="M152.532 81.3091C152.574 81.6609 152.637 81.992 152.679 82.3231C152.658 82.3231 152.637 82.3438 152.595 82.3438C152.363 82.0334 152.194 81.6609 152.131 81.247C152.321 81.2263 152.468 81.0814 152.468 80.8952C152.468 80.7089 152.321 80.5433 152.131 80.5433C152.194 79.9846 152.426 79.5086 152.785 79.136C152.827 79.136 152.848 79.1361 152.869 79.1567C152.785 79.8397 152.679 80.564 152.532 81.3091Z" fill="#42283A"/>
<path d="M152.869 79.0533C152.869 79.1567 152.848 79.2395 152.848 79.343L150.253 78.9291C151.308 78.8877 152.279 78.9705 152.869 79.0533Z" fill="#F58F83"/>
<path d="M152.953 77.5214C152.953 77.5214 150.337 77.004 149.809 77.1075C149.598 77.1489 149.303 77.3352 149.007 77.5628C148.733 77.7698 148.923 78.1837 149.26 78.1216C149.471 78.0802 149.725 78.0595 149.978 78.0181C151.56 78.1837 152.932 78.432 152.932 78.432C152.932 78.432 153.185 77.9767 152.953 77.5214Z" fill="#42283A"/>
<path opacity="0.5" d="M152.932 88.182C152.004 88.8444 150.653 89.0721 149.303 88.6995C147.214 88.0992 145.927 86.2155 146.433 84.5181C146.94 82.8207 149.05 81.9099 151.16 82.5102C151.793 82.6965 152.363 82.9863 152.806 83.3589C152.827 83.5245 152.848 83.6901 152.848 83.8764C152.996 85.4289 153.017 86.8572 152.932 88.182Z" fill="#F58F83"/>
<path d="M137.529 107.288C137.529 107.288 130.777 106.025 124.574 105.86C120.586 105.756 116.725 107.412 114.066 110.331C104.867 120.412 98.2623 133.453 100.414 155.685C100.288 155.623 100.161 155.581 100.035 155.519C99.676 155.374 99.3173 155.333 98.9797 155.416C97.2917 137.572 98.6632 120.288 118.012 104.162C123.519 104.183 132.254 104.866 137.529 107.288Z" fill="#E7E3FC"/>
<path d="M152.7 82.3854C151.561 82.4268 150.696 81.9508 150.232 81.2886C149.894 80.8126 149.746 80.2331 149.852 79.7157C149.852 79.7157 149.768 81.9508 152.658 81.9715C152.679 82.0957 152.7 82.2199 152.7 82.3233C152.7 82.344 152.7 82.3647 152.7 82.3854Z" fill="#F58F83"/>
<defs>
<linearGradient id="paint0_linear_824_3592" x1="216.004" y1="210.622" x2="364.355" y2="210.622" gradientUnits="userSpaceOnUse">
<stop stop-color="#B1B1E7"/>
<stop offset="0.326" stop-color="#C4BEF0"/>
<stop offset="0.6812" stop-color="#D1C7F6"/>
<stop offset="1" stop-color="#D6CAF8"/>
</linearGradient>
<linearGradient id="paint1_linear_824_3592" x1="194.043" y1="210.622" x2="342.394" y2="210.622" gradientUnits="userSpaceOnUse">
<stop stop-color="#F0E2FC"/>
<stop offset="0.0293" stop-color="#EFE1FB"/>
<stop offset="0.541" stop-color="#E2DAF0"/>
<stop offset="1" stop-color="#DDD8EC"/>
</linearGradient>
<linearGradient id="paint2_linear_824_3592" x1="197.885" y1="314.743" x2="332.056" y2="314.743" gradientUnits="userSpaceOnUse">
<stop stop-color="#B1B1E7"/>
<stop offset="0.326" stop-color="#C4BEF0"/>
<stop offset="0.6812" stop-color="#D1C7F6"/>
<stop offset="1" stop-color="#D6CAF8"/>
</linearGradient>
<linearGradient id="paint3_linear_824_3592" x1="194.209" y1="45.6944" x2="342.228" y2="45.6944" gradientUnits="userSpaceOnUse">
<stop stop-color="#B1B1E7"/>
<stop offset="0.326" stop-color="#C4BEF0"/>
<stop offset="0.6812" stop-color="#D1C7F6"/>
<stop offset="1" stop-color="#D6CAF8"/>
</linearGradient>
<linearGradient id="paint4_linear_824_3592" x1="194.659" y1="314.741" x2="328.786" y2="314.741" gradientUnits="userSpaceOnUse">
<stop stop-color="#B1B1E7"/>
<stop offset="0.326" stop-color="#C4BEF0"/>
<stop offset="0.6812" stop-color="#D1C7F6"/>
<stop offset="1" stop-color="#D6CAF8"/>
</linearGradient>
<linearGradient id="paint5_linear_824_3592" x1="97.1097" y1="130.068" x2="117.971" y2="130.068" gradientUnits="userSpaceOnUse">
<stop stop-color="#2252A4"/>
<stop offset="0.3055" stop-color="#2754A5"/>
<stop offset="0.6465" stop-color="#3459AA"/>
<stop offset="1" stop-color="#4A61B1"/>
</linearGradient>
<linearGradient id="paint6_linear_824_3592" x1="125.883" y1="203.438" x2="125.883" y2="104.187" gradientUnits="userSpaceOnUse">
<stop stop-color="#AAADF4"/>
<stop offset="0.2157" stop-color="#B8B5F7"/>
<stop offset="0.7097" stop-color="#D3C6FD"/>
<stop offset="1" stop-color="#DDCCFF"/>
</linearGradient>
<linearGradient id="paint7_linear_824_3592" x1="107.025" y1="133.658" x2="147.92" y2="133.658" gradientUnits="userSpaceOnUse">
<stop stop-color="#2252A4"/>
<stop offset="0.3055" stop-color="#2754A5"/>
<stop offset="0.6465" stop-color="#3459AA"/>
<stop offset="1" stop-color="#4A61B1"/>
</linearGradient>
<linearGradient id="paint8_linear_824_3592" x1="123.698" y1="378.827" x2="123.698" y2="155.392" gradientUnits="userSpaceOnUse">
<stop stop-color="#2252A4"/>
<stop offset="0.3055" stop-color="#2754A5"/>
<stop offset="0.6465" stop-color="#3459AA"/>
<stop offset="1" stop-color="#4A61B1"/>
</linearGradient>
<linearGradient id="paint9_linear_824_3592" x1="203.934" y1="159.389" x2="324.827" y2="159.389" gradientUnits="userSpaceOnUse">
<stop stop-color="#F0E2FC"/>
<stop offset="0.0293" stop-color="#EFE1FB"/>
<stop offset="0.541" stop-color="#E2DAF0"/>
<stop offset="1" stop-color="#DDD8EC"/>
</linearGradient>
<linearGradient id="paint10_linear_824_3592" x1="203.934" y1="215.856" x2="324.827" y2="215.856" gradientUnits="userSpaceOnUse">
<stop stop-color="#F0E2FC"/>
<stop offset="0.0293" stop-color="#EFE1FB"/>
<stop offset="0.541" stop-color="#E2DAF0"/>
<stop offset="1" stop-color="#DDD8EC"/>
</linearGradient>
<linearGradient id="paint11_linear_824_3592" x1="408.359" y1="150.064" x2="325.726" y2="150.064" gradientUnits="userSpaceOnUse">
<stop stop-color="#B1B1E7"/>
<stop offset="0.326" stop-color="#C4BEF0"/>
<stop offset="0.6812" stop-color="#D1C7F6"/>
<stop offset="1" stop-color="#D6CAF8"/>
</linearGradient>
<linearGradient id="paint12_linear_824_3592" x1="323.678" y1="150.065" x2="404.639" y2="150.065" gradientUnits="userSpaceOnUse">
<stop stop-color="#F0E2FC"/>
<stop offset="0.0293" stop-color="#EFE1FB"/>
<stop offset="0.541" stop-color="#E2DAF0"/>
<stop offset="1" stop-color="#DDD8EC"/>
</linearGradient>
<linearGradient id="paint13_linear_824_3592" x1="325.821" y1="93.5325" x2="402.889" y2="93.5325" gradientUnits="userSpaceOnUse">
<stop stop-color="#F0E2FC"/>
<stop offset="0.0293" stop-color="#EFE1FB"/>
<stop offset="0.541" stop-color="#E2DAF0"/>
<stop offset="1" stop-color="#DDD8EC"/>
</linearGradient>
<linearGradient id="paint14_linear_824_3592" x1="325.821" y1="135.143" x2="402.889" y2="135.143" gradientUnits="userSpaceOnUse">
<stop stop-color="#F0E2FC"/>
<stop offset="0.0293" stop-color="#EFE1FB"/>
<stop offset="0.541" stop-color="#E2DAF0"/>
<stop offset="1" stop-color="#DDD8EC"/>
</linearGradient>
<linearGradient id="paint15_linear_824_3592" x1="325.821" y1="176.753" x2="402.889" y2="176.753" gradientUnits="userSpaceOnUse">
<stop stop-color="#F0E2FC"/>
<stop offset="0.0293" stop-color="#EFE1FB"/>
<stop offset="0.541" stop-color="#E2DAF0"/>
<stop offset="1" stop-color="#DDD8EC"/>
</linearGradient>
<linearGradient id="paint16_linear_824_3592" x1="325.821" y1="218.363" x2="402.889" y2="218.363" gradientUnits="userSpaceOnUse">
<stop stop-color="#F0E2FC"/>
<stop offset="0.0293" stop-color="#EFE1FB"/>
<stop offset="0.541" stop-color="#E2DAF0"/>
<stop offset="1" stop-color="#DDD8EC"/>
</linearGradient>
<linearGradient id="paint17_linear_824_3592" x1="200.72" y1="52.8839" x2="252.891" y2="52.8839" gradientUnits="userSpaceOnUse">
<stop stop-color="#B1B1E7"/>
<stop offset="0.326" stop-color="#C4BEF0"/>
<stop offset="0.6812" stop-color="#D1C7F6"/>
<stop offset="1" stop-color="#D6CAF8"/>
</linearGradient>
</defs>
</svg>
