<svg width="350" height="244" viewBox="0 0 350 244" fill="none" xmlns="http://www.w3.org/2000/svg">
<path d="M341.837 219.617C341.75 216.371 339.772 215.065 337.222 215.002C336.6 214.986 336.028 215.057 335.641 215.363C333.132 217.341 333.362 221.279 333.987 222.936C334.914 225.392 337.677 224.851 337.381 226.458C337.109 227.927 334.517 228.53 334.624 231.125C334.713 233.291 338.197 235.032 339.43 238.951C340.857 243.483 337.282 242.364 338.889 243.964C341.293 246.36 347.58 246.676 348.657 244.431C350.818 239.929 347.951 240.689 347.766 235.583C347.625 231.721 348.513 229.359 347.664 227.161C346.59 224.381 343.781 226.492 342.299 223.547C341.748 222.447 341.865 220.709 341.837 219.617Z" fill="#F1C936"/>
<path d="M337.463 218.498C337.774 219.669 338.08 220.837 338.425 221.997C338.759 223.158 339.109 224.313 339.488 225.46C339.872 226.602 340.269 227.741 340.742 228.841C340.978 229.393 341.226 229.936 341.511 230.456C341.795 230.976 342.109 231.475 342.498 231.896C342.932 232.387 343.23 232.931 343.51 233.48C343.787 234.028 344.032 234.59 344.254 235.157C344.696 236.294 345.078 237.449 345.399 238.622C345.723 239.793 345.992 240.979 346.193 242.179C346.29 242.78 346.366 243.381 346.413 243.987C346.46 244.591 346.473 245.205 346.387 245.806C346.426 244.596 346.196 243.402 345.94 242.228C345.679 241.052 345.36 239.89 345.004 238.74C344.641 237.593 344.254 236.451 343.792 235.345C343.562 234.791 343.322 234.243 343.05 233.715C342.778 233.19 342.48 232.667 342.109 232.254C341.678 231.784 341.349 231.245 341.056 230.704C340.763 230.161 340.51 229.604 340.28 229.037C339.823 227.906 339.433 226.753 339.091 225.588C338.411 223.249 337.876 220.884 337.463 218.498Z" fill="#FFB717"/>
<path d="M344.487 226.544C344.341 227.106 344.181 227.652 344.022 228.196C343.868 228.742 343.703 229.28 343.559 229.824C343.41 230.365 343.28 230.911 343.157 231.46C343.045 232.011 342.951 232.562 342.872 233.137C342.734 232.573 342.713 231.982 342.752 231.402C342.796 230.822 342.911 230.25 343.055 229.688C343.214 229.131 343.403 228.583 343.64 228.057C343.876 227.527 344.145 227.015 344.487 226.544Z" fill="#FFB717"/>
<path d="M344.771 237.922C344.27 237.553 343.794 237.162 343.326 236.767L341.931 235.581C341.474 235.178 341.006 234.794 340.535 234.41C340.062 234.031 339.589 233.655 339.046 233.352C339.668 233.451 340.24 233.751 340.768 234.075C341.301 234.402 341.798 234.781 342.268 235.183C342.736 235.591 343.185 236.014 343.603 236.472C344.027 236.926 344.424 237.402 344.771 237.922Z" fill="#FFB717"/>
<path d="M319.45 229.322C317.746 227.414 314.861 227.861 313.241 229.839C312.846 230.323 312.269 231.164 312.237 231.684C312.102 233.9 313.719 235.797 315.533 236.508C319.136 237.919 321.187 236.106 322.395 237.514C323.495 238.8 321.073 240.506 322.021 242.085C323.903 245.218 330.294 243.112 334.434 244.985C339.221 247.154 336.061 249.177 338.426 249.067C341.97 248.9 346.101 244.133 344.826 241.643C342.268 236.644 343.561 238.465 338.515 235.635C335.382 233.877 333.336 230.54 330.919 229.615C327.861 228.444 326.173 232.743 321.937 231.324C320.67 230.898 320.273 230.244 319.45 229.322Z" fill="#60A431"/>
<path d="M315.169 231.684C316.361 232.285 317.55 232.892 318.757 233.461C319.956 234.041 321.166 234.601 322.384 235.136C323.604 235.664 324.832 236.179 326.084 236.613C326.709 236.83 327.338 237.031 327.976 237.19C328.614 237.347 329.251 237.465 329.891 237.465L330.422 237.504C330.594 237.527 330.762 237.564 330.931 237.595C331.274 237.648 331.595 237.755 331.924 237.836C332.575 238.024 333.213 238.238 333.842 238.476C335.097 238.959 336.325 239.5 337.524 240.096C338.726 240.687 339.9 241.337 341.039 242.04C341.324 242.215 341.603 242.398 341.88 242.589L342.296 242.869L342.701 243.166C343.247 243.553 343.754 243.997 344.217 244.478C343.213 243.595 342.069 242.908 340.906 242.26C339.743 241.612 338.554 241.016 337.347 240.462C336.137 239.913 334.914 239.388 333.667 238.938C333.354 238.834 333.045 238.714 332.729 238.612C332.413 238.518 332.102 238.408 331.783 238.324C331.464 238.249 331.148 238.147 330.829 238.1C330.67 238.073 330.511 238.037 330.354 238.016L329.886 237.985C329.188 237.982 328.504 237.849 327.851 237.684C327.192 237.514 326.549 237.31 325.919 237.078C324.657 236.613 323.426 236.082 322.217 235.507C319.794 234.36 317.448 233.075 315.169 231.684Z" fill="#4F8627"/>
<path d="M326.931 232.552C326.91 232.521 326.89 232.487 326.869 232.453C326.858 232.434 326.85 232.419 326.843 232.398C326.84 232.392 326.837 232.387 326.837 232.377C326.84 232.369 326.829 232.364 326.85 232.338C326.871 232.317 326.884 232.327 326.9 232.33L326.918 232.34C326.994 232.39 327.046 232.445 327.104 232.5C327.216 232.609 327.318 232.724 327.423 232.837C327.626 233.069 327.822 233.304 328.011 233.545C328.392 234.023 328.747 234.52 329.098 235.016C329.443 235.518 329.782 236.022 330.109 236.534L330.6 237.303C330.765 237.559 330.922 237.817 331.118 238.053C330.841 237.901 330.621 237.676 330.399 237.462C330.185 237.24 329.976 237.012 329.78 236.775C329.382 236.304 329.022 235.81 328.669 235.314C328.324 234.81 327.987 234.3 327.676 233.777C327.517 233.516 327.368 233.252 327.214 232.988L326.989 232.591C326.952 232.526 326.91 232.455 326.871 232.408C326.876 232.406 326.876 232.403 326.892 232.395C326.905 232.374 326.897 232.382 326.897 232.382C326.895 232.406 326.9 232.426 326.903 232.445C326.913 232.476 326.924 232.515 326.931 232.552Z" fill="#4F8627"/>
<path d="M336.417 240.025C335.784 240.146 335.157 240.235 334.53 240.316L332.654 240.553C332.34 240.587 332.029 240.629 331.721 240.674C331.41 240.71 331.102 240.762 330.791 240.809C330.171 240.911 329.56 241.018 328.959 241.246C329.455 240.828 330.085 240.59 330.699 240.412C331.319 240.232 331.954 240.114 332.589 240.033C333.224 239.96 333.861 239.911 334.501 239.908C335.142 239.905 335.779 239.931 336.417 240.025Z" fill="#4F8627"/>
<path d="M329.518 227.495C329.518 227.495 329.379 226.296 329.632 224.992C330.006 223.064 328.203 220.636 326.669 220.871C325.135 221.106 324.012 222.039 324.796 223.678C326.144 226.489 327.592 227.14 329.518 227.495Z" fill="white"/>
<path d="M337.211 229.892C336.96 228.708 335.672 227.72 334.451 227.89C333.848 227.974 333.077 228.577 333.239 229.573C333.594 231.771 334.835 235.139 334.835 235.139C334.835 235.139 337.867 232.999 337.211 229.892Z" fill="white"/>
<path d="M331.279 239.124C329.988 238.923 328.883 237.762 329.037 236.636C329.113 236.08 329.831 235.303 330.866 235.79C333.571 237.06 336.921 236.809 336.921 236.809C336.921 236.809 334.668 239.652 331.279 239.124Z" fill="white"/>
<path d="M335.857 242.244C337.007 243.496 340.015 245.592 343.621 241.259C343.621 241.259 340.483 242.213 338.951 241.013C338.321 240.519 337.376 240.352 336.788 240.31C335.693 240.235 335.084 241.403 335.857 242.244Z" fill="white"/>
<path d="M339.905 232.813C341.522 233.333 344.687 235.189 342.259 240.276C342.259 240.276 341.81 237.026 340.08 236.137C339.369 235.771 338.818 234.982 338.536 234.465C338.01 233.506 338.818 232.463 339.905 232.813Z" fill="white"/>
<path d="M324.545 230.932C325.323 232.364 327.555 235.027 332.559 232.037C332.559 232.037 329.078 232.084 327.897 230.6C327.411 229.988 326.502 229.591 325.919 229.4C324.832 229.045 324.022 229.968 324.545 230.932Z" fill="white"/>
<path d="M347.281 243.224C347.181 243.18 337.215 238.627 333.679 233.859C330.157 229.11 329.284 227.493 329.25 227.425L329.506 227.289C329.514 227.305 330.41 228.961 333.912 233.686C337.403 238.395 347.302 242.916 347.401 242.96L347.281 243.224Z" fill="white"/>
<path d="M7.62296 219.617C7.7092 216.371 9.68735 215.065 12.2378 215.002C12.8597 214.986 13.432 215.057 13.8187 215.363C16.3273 217.341 16.0974 221.279 15.4728 222.936C14.5452 225.392 11.7831 224.851 12.0784 226.458C12.3501 227.927 14.9424 228.53 14.8352 231.125C14.7464 233.291 11.2631 235.032 10.0297 238.951C8.60289 243.483 12.1777 242.364 10.5706 243.964C8.1665 246.36 1.87927 246.676 0.802659 244.431C-1.35841 239.929 1.50821 240.689 1.69374 235.583C1.83485 231.721 0.946383 229.359 1.79565 227.161C2.86966 224.381 5.67878 226.492 7.16044 223.547C7.71442 222.447 7.59422 220.709 7.62296 219.617Z" fill="#F1C936"/>
<path d="M11.9978 218.498C11.6868 219.669 11.3811 220.837 11.0362 221.997C10.7017 223.158 10.3515 224.313 9.9726 225.46C9.58847 226.602 9.19127 227.741 8.71829 228.841C8.48311 229.393 8.23486 229.936 7.95003 230.456C7.6652 230.976 7.35162 231.475 6.96226 231.896C6.52848 232.387 6.23058 232.931 5.95097 233.48C5.67398 234.028 5.42835 234.59 5.20623 235.157C4.76461 236.294 4.38309 237.449 4.06167 238.622C3.73764 239.793 3.46849 240.979 3.26728 242.179C3.17059 242.78 3.09481 243.381 3.04778 243.987C3.00074 244.591 2.98767 245.205 3.0739 245.806C3.03471 244.596 3.26467 243.402 3.52075 242.228C3.78207 241.052 4.10087 239.89 4.45626 238.74C4.81949 237.593 5.20623 236.451 5.66876 235.345C5.89871 234.791 6.13912 234.243 6.41089 233.715C6.68266 233.19 6.98055 232.667 7.35162 232.254C7.78279 231.784 8.11205 231.245 8.40472 230.704C8.69739 230.161 8.95086 229.604 9.18082 229.037C9.63812 227.906 10.0275 226.753 10.3698 225.588C11.0492 223.249 11.5849 220.884 11.9978 218.498Z" fill="#FFB717"/>
<path d="M4.97266 226.544C5.11899 227.106 5.27839 227.652 5.4378 228.196C5.59197 228.742 5.7566 229.28 5.90032 229.824C6.04927 230.365 6.17993 230.911 6.30274 231.46C6.41511 232.011 6.50918 232.562 6.58758 233.137C6.72607 232.573 6.74698 231.982 6.70778 231.402C6.66336 230.822 6.54838 230.25 6.40466 229.688C6.24526 229.131 6.05711 228.583 5.81931 228.057C5.58413 227.527 5.31498 227.015 4.97266 226.544Z" fill="#FFB717"/>
<path d="M4.68848 237.922C5.1902 237.553 5.66579 237.162 6.13354 236.767L7.52896 235.581C7.98626 235.178 8.45401 234.794 8.92438 234.41C9.39736 234.031 9.87033 233.655 10.4139 233.352C9.79194 233.451 9.21966 233.751 8.69181 234.075C8.15873 234.402 7.66223 234.781 7.19186 235.183C6.72411 235.591 6.27465 236.014 5.85655 236.472C5.43322 236.926 5.03602 237.402 4.68848 237.922Z" fill="#FFB717"/>
<path d="M30.0092 229.322C31.713 227.414 34.5979 227.861 36.2181 229.839C36.6127 230.323 37.1902 231.164 37.2215 231.684C37.3574 233.9 35.7399 235.797 33.9263 236.508C30.3228 237.919 28.2715 236.106 27.0642 237.514C25.9641 238.8 28.3865 240.506 27.4379 242.085C25.5564 245.218 19.1647 243.112 15.0255 244.985C10.2382 247.154 13.3975 249.177 11.0326 249.067C7.48918 248.9 3.3578 244.133 4.63301 241.643C7.19128 236.644 5.89777 238.465 10.9437 235.635C14.0769 233.877 16.123 230.54 18.5402 229.615C21.5975 228.444 23.2856 232.743 27.5215 231.324C28.7889 230.898 29.1861 230.244 30.0092 229.322Z" fill="#60A431"/>
<path d="M34.2899 231.684C33.0983 232.285 31.9093 232.892 30.702 233.461C29.5026 234.041 28.2927 234.601 27.075 235.136C25.8547 235.664 24.6265 236.179 23.3748 236.613C22.7502 236.83 22.1205 237.031 21.4829 237.19C20.8453 237.347 20.2077 237.465 19.5674 237.465L19.037 237.504C18.8645 237.527 18.6973 237.564 18.5274 237.595C18.1851 237.648 17.8637 237.755 17.5344 237.836C16.8837 238.024 16.2461 238.238 15.6164 238.476C14.3621 238.959 13.1339 239.5 11.9344 240.096C10.7324 240.687 9.5591 241.337 8.41977 242.04C8.13494 242.215 7.85533 242.398 7.57834 242.589L7.16285 242.869L6.75781 243.166C6.21166 243.553 5.70471 243.997 5.24219 244.478C6.24563 243.595 7.39019 242.908 8.55304 242.26C9.71589 241.612 10.9049 241.016 12.1121 240.462C13.322 239.913 14.545 239.388 15.7914 238.938C16.105 238.834 16.4134 238.714 16.7296 238.612C17.0458 238.518 17.3567 238.408 17.6755 238.324C17.9943 238.249 18.3105 238.147 18.6293 238.1C18.7887 238.073 18.9481 238.037 19.1049 238.016L19.5727 237.985C20.2704 237.982 20.955 237.849 21.6083 237.684C22.2668 237.514 22.9096 237.31 23.5394 237.078C24.8016 236.613 26.0324 236.082 27.2422 235.507C29.6646 234.36 32.0112 233.075 34.2899 231.684Z" fill="#4F8627"/>
<path d="M22.528 232.552C22.549 232.521 22.5699 232.487 22.5908 232.453C22.6012 232.434 22.6091 232.419 22.6169 232.398C22.6195 232.392 22.6221 232.387 22.6221 232.377C22.6195 232.369 22.63 232.364 22.6091 232.338C22.5882 232.317 22.5751 232.327 22.5594 232.33L22.5411 232.34C22.4653 232.39 22.4131 232.445 22.3556 232.5C22.2432 232.609 22.1413 232.724 22.0368 232.837C21.833 233.069 21.637 233.304 21.4488 233.545C21.0673 234.023 20.7119 234.52 20.3618 235.016C20.0168 235.518 19.6771 236.022 19.3505 236.534L18.8592 237.303C18.6946 237.559 18.5378 237.817 18.3418 238.053C18.6188 237.901 18.8383 237.676 19.0604 237.462C19.2747 237.24 19.4837 237.012 19.6797 236.775C20.0769 236.304 20.4375 235.81 20.7903 235.314C21.1352 234.81 21.4723 234.3 21.7833 233.777C21.9427 233.516 22.0917 233.252 22.2458 232.988L22.4706 232.591C22.5071 232.526 22.549 232.455 22.5882 232.408C22.5829 232.406 22.5829 232.403 22.5672 232.395C22.5542 232.374 22.562 232.382 22.562 232.382C22.5646 232.406 22.5594 232.426 22.5568 232.445C22.5463 232.476 22.5385 232.515 22.528 232.552Z" fill="#4F8627"/>
<path d="M13.042 240.025C13.6744 240.146 14.3015 240.235 14.9287 240.316L16.8049 240.553C17.1185 240.587 17.4295 240.629 17.7378 240.674C18.0488 240.71 18.3571 240.762 18.6681 240.809C19.2874 240.911 19.8989 241.018 20.4999 241.246C20.0034 240.828 19.3736 240.59 18.7595 240.412C18.1402 240.232 17.5052 240.114 16.8702 240.033C16.2353 239.96 15.5976 239.911 14.9574 239.908C14.3198 239.905 13.6796 239.931 13.042 240.025Z" fill="#4F8627"/>
<path d="M19.9421 227.495C19.9421 227.495 20.0806 226.296 19.8271 224.992C19.4534 223.064 21.2565 220.636 22.7904 220.871C24.3243 221.106 25.448 222.039 24.6641 223.678C23.3183 226.489 21.868 227.14 19.9421 227.495Z" fill="white"/>
<path d="M12.2508 229.892C12.5016 228.708 13.7899 227.72 15.0103 227.89C15.6139 227.974 16.3848 228.577 16.2228 229.573C15.8674 231.771 14.6261 235.139 14.6261 235.139C14.6261 235.139 11.5923 232.999 12.2508 229.892Z" fill="white"/>
<path d="M18.1799 239.124C19.4708 238.923 20.5761 237.762 20.4219 236.636C20.3462 236.08 19.6275 235.303 18.5927 235.79C15.8881 237.06 12.5381 236.809 12.5381 236.809C12.5381 236.809 14.7906 239.652 18.1799 239.124Z" fill="white"/>
<path d="M13.6015 242.244C12.4518 243.496 9.44403 245.591 5.83789 241.259C5.83789 241.259 8.97627 242.213 10.5076 241.013C11.1373 240.519 12.0833 240.352 12.6713 240.31C13.7662 240.234 14.375 241.403 13.6015 242.244Z" fill="white"/>
<path d="M9.55382 232.813C7.93629 233.333 4.77177 235.189 7.19938 240.276C7.19938 240.276 7.64884 237.026 9.37874 236.137C10.0895 235.771 10.6409 234.982 10.9231 234.465C11.4484 233.506 10.6409 232.463 9.55382 232.813Z" fill="white"/>
<path d="M24.9139 230.932C24.1352 232.364 21.9036 235.027 16.8994 232.037C16.8994 232.037 20.3801 232.084 21.5613 230.6C22.0473 229.988 22.9567 229.591 23.5394 229.4C24.6291 229.045 25.4366 229.968 24.9139 230.932Z" fill="white"/>
<path d="M2.17978 243.224C2.27908 243.18 12.2456 238.627 15.7812 233.859C19.3037 229.11 20.1765 227.493 20.2105 227.425L19.9544 227.289C19.9465 227.305 19.0502 228.961 15.5486 233.686C12.0575 238.395 2.15887 242.916 2.05957 242.96L2.17978 243.224Z" fill="white"/>
<path d="M169.235 50.9903L168.232 55.2081L168.893 55.3652L169.896 51.1474L169.235 50.9903Z" fill="white"/>
<path d="M167.038 52.3398L166.881 52.9982L171.103 54.0043L171.26 53.3459L167.038 52.3398Z" fill="white"/>
<path d="M60.5775 42.1064L59.5752 46.3241L60.2362 46.4812L61.2385 42.2635L60.5775 42.1064Z" fill="white"/>
<path d="M58.3756 43.4595L58.2188 44.1179L62.4411 45.124L62.598 44.4656L58.3756 43.4595Z" fill="white"/>
<path d="M58.3861 137.174L57.3838 141.392L58.0448 141.549L59.0471 137.331L58.3861 137.174Z" fill="white"/>
<path d="M56.1911 138.529L56.0342 139.188L60.2565 140.194L60.4134 139.535L56.1911 138.529Z" fill="white"/>
<path d="M133.693 169.514L132.69 173.731L133.351 173.889L134.354 169.671L133.693 169.514Z" fill="white"/>
<path d="M131.501 170.875L131.344 171.534L135.566 172.54L135.723 171.882L131.501 170.875Z" fill="white"/>
<path d="M239.726 179.564L238.724 183.782L239.385 183.939L240.387 179.721L239.726 179.564Z" fill="white"/>
<path d="M237.543 180.921L237.386 181.58L241.608 182.586L241.765 181.927L237.543 180.921Z" fill="white"/>
<path d="M307.311 176.033L306.309 180.251L306.97 180.408L307.972 176.19L307.311 176.033Z" fill="white"/>
<path d="M305.131 177.388L304.974 178.047L309.196 179.053L309.353 178.395L305.131 177.388Z" fill="white"/>
<path d="M337.836 131.421L336.834 135.639L337.495 135.796L338.497 131.578L337.836 131.421Z" fill="white"/>
<path d="M335.642 132.764L335.485 133.423L339.708 134.429L339.865 133.771L335.642 132.764Z" fill="white"/>
<path d="M345.022 60.0406L344.02 64.2583L344.681 64.4154L345.683 60.1977L345.022 60.0406Z" fill="white"/>
<path d="M342.825 61.3826L342.668 62.041L346.89 63.0471L347.047 62.3887L342.825 61.3826Z" fill="white"/>
<path d="M264.123 10.306L263.121 14.5237L263.782 14.6808L264.784 10.463L264.123 10.306Z" fill="white"/>
<path d="M261.923 11.6505L261.767 12.3089L265.989 13.315L266.146 12.6566L261.923 11.6505Z" fill="white"/>
<path d="M102.694 17.5092C101.808 17.5092 101.087 16.7906 101.087 15.9047C101.087 15.0188 101.808 14.3002 102.694 14.3002C103.58 14.3002 104.301 15.0188 104.301 15.9047C104.301 16.7879 103.58 17.5092 102.694 17.5092ZM102.694 14.8516C102.114 14.8516 101.641 15.3246 101.641 15.9047C101.641 16.4848 102.114 16.9578 102.694 16.9578C103.274 16.9578 103.747 16.4848 103.747 15.9047C103.747 15.3246 103.274 14.8516 102.694 14.8516Z" fill="white"/>
<path d="M295.587 28.2335C294.701 28.2335 293.979 27.5149 293.979 26.6291C293.979 25.7432 294.701 25.0246 295.587 25.0246C296.472 25.0246 297.194 25.7432 297.194 26.6291C297.194 27.5149 296.472 28.2335 295.587 28.2335ZM295.587 25.576C295.006 25.576 294.533 26.0489 294.533 26.6291C294.533 27.2092 295.006 27.6822 295.587 27.6822C296.167 27.6822 296.64 27.2092 296.64 26.6291C296.64 26.0489 296.167 25.576 295.587 25.576Z" fill="white"/>
<path d="M191.275 14.8438C190.389 14.8438 189.668 14.1252 189.668 13.2393C189.668 12.3534 190.389 11.6348 191.275 11.6348C192.161 11.6348 192.882 12.3534 192.882 13.2393C192.88 14.1225 192.158 14.8438 191.275 14.8438ZM191.275 12.1862C190.695 12.1862 190.222 12.6592 190.222 13.2393C190.222 13.8194 190.695 14.2924 191.275 14.2924C191.855 14.2924 192.328 13.8194 192.328 13.2393C192.328 12.6592 191.855 12.1862 191.275 12.1862Z" fill="white"/>
<path d="M345.69 95.1666C344.804 95.1666 344.083 94.448 344.083 93.5621C344.083 92.6763 344.804 91.9576 345.69 91.9576C346.576 91.9576 347.297 92.6763 347.297 93.5621C347.297 94.448 346.576 95.1666 345.69 95.1666ZM345.69 92.509C345.11 92.509 344.637 92.982 344.637 93.5621C344.637 94.1422 345.11 94.6152 345.69 94.6152C346.27 94.6152 346.743 94.1422 346.743 93.5621C346.743 92.982 346.27 92.509 345.69 92.509Z" fill="white"/>
<path d="M270.649 171.125C269.763 171.125 269.042 170.407 269.042 169.521C269.042 168.635 269.763 167.917 270.649 167.917C271.535 167.917 272.256 168.635 272.256 169.521C272.256 170.404 271.535 171.125 270.649 171.125ZM270.649 168.468C270.069 168.468 269.596 168.941 269.596 169.521C269.596 170.101 270.069 170.574 270.649 170.574C271.229 170.574 271.702 170.101 271.702 169.521C271.702 168.941 271.229 168.468 270.649 168.468Z" fill="white"/>
<path d="M190.979 175.659C190.093 175.659 189.372 174.941 189.372 174.055C189.372 173.169 190.093 172.45 190.979 172.45C191.865 172.45 192.586 173.169 192.586 174.055C192.586 174.941 191.865 175.659 190.979 175.659ZM190.979 173.004C190.399 173.004 189.926 173.477 189.926 174.057C189.926 174.637 190.399 175.11 190.979 175.11C191.559 175.11 192.032 174.637 192.032 174.057C192.035 173.475 191.562 173.004 190.979 173.004Z" fill="white"/>
<path d="M90.6042 170.929C89.7183 170.929 88.9971 170.211 88.9971 169.325C88.9971 168.439 89.7183 167.72 90.6042 167.72C91.49 167.72 92.2112 168.439 92.2112 169.325C92.2112 170.211 91.49 170.929 90.6042 170.929ZM90.6042 168.274C90.024 168.274 89.5511 168.747 89.5511 169.328C89.5511 169.908 90.024 170.381 90.6042 170.381C91.1843 170.381 91.6573 169.908 91.6573 169.328C91.6599 168.745 91.1869 168.274 90.6042 168.274Z" fill="white"/>
<path d="M64.2038 110.673C63.3179 110.673 62.5967 109.954 62.5967 109.068C62.5967 108.183 63.3179 107.464 64.2038 107.464C65.0896 107.464 65.8109 108.183 65.8109 109.068C65.8109 109.954 65.0896 110.673 64.2038 110.673ZM64.2038 108.018C63.6237 108.018 63.1507 108.491 63.1507 109.071C63.1507 109.651 63.6237 110.124 64.2038 110.124C64.7839 110.124 65.2569 109.651 65.2569 109.071C65.2569 108.488 64.7839 108.018 64.2038 108.018Z" fill="white"/>
<path d="M338.222 199.721L211.412 199.681L15.7526 199.623C15.7526 199.623 -7.0666 161.26 13.7589 109.424C27.3351 75.6365 54.7829 50.7063 101.901 65.9509C111.608 69.0904 126.789 67.0852 146.309 54.1168C147.3 53.4574 148.287 52.7696 149.265 52.0547C149.799 51.6625 150.332 51.2637 150.861 50.8547C157.509 45.728 163.726 39.2438 168.849 31.2653C171.787 26.6909 175.255 22.6456 179.146 19.1151C181.572 16.915 184.165 14.9149 186.898 13.1096C188.642 11.9573 190.442 10.8863 192.297 9.8927C197.225 7.24999 202.515 5.16473 208.05 3.61756C208.588 3.46787 209.127 3.32206 209.67 3.18141C210.932 2.85494 212.205 2.55686 213.487 2.28588C214.367 2.09877 215.251 1.92586 216.14 1.76456C217.228 1.56842 218.325 1.38777 219.426 1.23163H219.427C222.428 0.798063 225.472 0.505146 228.546 0.3503C229.128 0.320621 229.711 0.297394 230.297 0.276748C230.669 0.265134 231.042 0.254811 231.413 0.245778C232.557 0.219971 233.703 0.213519 234.85 0.226423C263.476 0.51805 293.425 12.4051 311.664 33.8061C320.845 44.5821 327.061 57.7673 328.637 73.0984C329.219 78.758 329.172 84.7131 328.408 90.9457C328.386 91.1354 328.363 91.3238 328.337 91.5096C328.298 91.8115 328.257 92.116 328.213 92.4193C328.057 93.5626 327.872 94.7162 327.663 95.8801C327.201 98.4609 326.888 101.168 325.907 103.758C305.625 157.364 364.034 152.605 338.222 199.721Z" fill="#DCEAFF"/>
<path d="M156.138 192.796H150.692C149.312 192.796 148.193 191.677 148.193 190.298V135.056C148.193 133.677 149.312 132.558 150.692 132.558H156.138C157.518 132.558 158.636 133.677 158.636 135.056V190.298C158.636 191.677 157.518 192.796 156.138 192.796Z" fill="#EBF3FA"/>
<path d="M170.375 192.796H164.928C163.548 192.796 162.43 191.677 162.43 190.298V135.056C162.43 133.677 163.548 132.558 164.928 132.558H170.375C171.754 132.558 172.873 133.677 172.873 135.056V190.298C172.873 191.677 171.754 192.796 170.375 192.796Z" fill="#EBF3FA"/>
<path d="M184.607 192.796H179.159C177.78 192.796 176.661 191.677 176.661 190.298V135.056C176.661 133.677 177.78 132.558 179.159 132.558H184.607C185.987 132.558 187.106 133.677 187.106 135.056V190.298C187.107 191.677 185.988 192.796 184.607 192.796Z" fill="#EBF3FA"/>
<path d="M198.844 192.796H193.398C192.018 192.796 190.899 191.677 190.899 190.298V135.056C190.899 133.677 192.018 132.558 193.398 132.558H198.844C200.224 132.558 201.343 133.677 201.343 135.056V190.298C201.344 191.677 200.225 192.796 198.844 192.796Z" fill="#EBF3FA"/>
<path d="M213.079 192.796H207.632C206.253 192.796 205.134 191.677 205.134 190.298V135.056C205.134 133.677 206.253 132.558 207.632 132.558H213.079C214.459 132.558 215.577 133.677 215.577 135.056V190.298C215.577 191.677 214.458 192.796 213.079 192.796Z" fill="#EBF3FA"/>
<path d="M227.314 192.796H221.866C220.487 192.796 219.368 191.677 219.368 190.298V135.056C219.368 133.677 220.487 132.558 221.866 132.558H227.314C228.694 132.558 229.813 133.677 229.813 135.056V190.298C229.813 191.677 228.694 192.796 227.314 192.796Z" fill="#EBF3FA"/>
<path d="M231.411 0.245728V120.683H149.264V52.0547C149.798 51.6624 150.331 51.2637 150.86 50.8546C157.508 45.7279 163.725 39.2438 168.848 31.2653C171.786 26.6909 175.253 22.6455 179.145 19.115C181.571 16.9149 184.163 14.9148 186.896 13.1096C188.641 11.9573 190.441 10.8862 192.295 9.89265C197.223 7.24994 202.514 5.16468 208.048 3.6175C208.587 3.46782 209.126 3.32201 209.669 3.18135C210.931 2.85489 212.204 2.55681 213.486 2.28583C214.366 2.09872 215.25 1.92581 216.139 1.76451C217.227 1.56837 218.324 1.38772 219.425 1.23158H219.426C222.427 0.798012 225.471 0.505095 228.545 0.350249C229.127 0.32057 229.71 0.297343 230.296 0.276697C230.666 0.263793 231.039 0.25347 231.411 0.245728Z" fill="#EBF3FA"/>
<path d="M231.412 0.245808C231.04 0.25355 230.667 0.263873 230.296 0.276777V118.755H150.862V50.8547C150.333 51.2638 149.8 51.6625 149.266 52.0548C148.288 52.7696 147.301 53.4574 146.31 54.1168V123.622H234.849V0.225162C233.701 0.213548 232.555 0.22 231.412 0.245808Z" fill="#C2D2FF"/>
<path d="M239.783 123.869H141.678V121.903C141.678 120.497 142.818 119.355 144.225 119.355H237.295C238.668 119.355 239.782 120.468 239.782 121.841V123.869H239.783Z" fill="#C2D2FF"/>
<path d="M192.295 9.8927V120.262H186.896V13.1096C188.641 11.9573 190.442 10.885 192.295 9.8927Z" fill="#C2D2FF"/>
<path d="M190.481 64.6025H190.047C189.756 64.6025 189.516 64.3676 189.507 64.0708L189.316 57.8666C189.307 57.5569 189.551 57.3015 189.856 57.3015H190.689C190.994 57.3015 191.24 57.5582 191.229 57.8679L191.023 64.0721C191.01 64.3689 190.771 64.6025 190.481 64.6025Z" fill="#9DB0F4"/>
<path d="M223.217 62.1765L230.319 63.1456L222.95 118.79L215.849 117.821L223.217 62.1765Z" fill="#D2E4FF"/>
<path d="M223.08 117.805L222.95 118.79L215.849 117.822L215.979 116.837L223.08 117.805Z" fill="#F99746"/>
<path d="M230.384 62.6527L230.253 63.6373L223.152 62.6695L223.283 61.6849L230.384 62.6527Z" fill="#F99746"/>
<path d="M219.86 114.835C219.155 114.738 218.659 114.08 218.754 113.365C218.848 112.649 219.497 112.147 220.203 112.244C220.907 112.34 221.403 112.997 221.309 113.713C221.214 114.429 220.564 114.931 219.86 114.835Z" fill="#F99746"/>
<path d="M225.902 69.1962C225.197 69.0995 224.701 68.4427 224.796 67.7265C224.89 67.0103 225.539 66.5084 226.245 66.6051C226.949 66.7019 227.445 67.36 227.351 68.0749C227.255 68.7911 226.607 69.293 225.902 69.1962Z" fill="#F99746"/>
<path d="M219.99 86.5442C221.554 87.0707 222.577 88.6656 222.35 90.3831C222.123 92.0993 220.72 93.3639 219.075 93.4529L219.99 86.5442Z" fill="#F99746"/>
<path d="M197.421 118.784H177.529C176.617 118.784 175.879 118.045 175.879 117.133V117.108C175.879 116.196 176.618 115.457 177.529 115.457H197.421C198.333 115.457 199.072 116.196 199.072 117.108V117.133C199.071 118.045 198.332 118.784 197.421 118.784Z" fill="#ED7D2B"/>
<path d="M160.099 118.782H182.274C183.505 118.782 184.512 117.775 184.512 116.544V99.6106C184.512 98.3808 183.505 97.373 182.274 97.373H160.099C158.868 97.373 157.861 98.3795 157.861 99.6106V116.544C157.861 117.775 158.868 118.782 160.099 118.782Z" fill="#ED7D2B"/>
<path d="M178.681 97.4685C178.681 97.4685 173.161 93.9522 167.877 93.9135C164.435 93.8877 160.515 97.3189 160.279 97.3563C159.681 97.4505 162.273 97.4814 162.273 97.4814C162.273 97.4814 166.157 95.1884 167.901 95.1342C170.006 95.0684 175.358 97.6698 175.358 97.6698L178.681 97.4685Z" fill="#F99746"/>
<path d="M157.508 118.782H179.683C180.914 118.782 181.921 117.775 181.921 116.544V99.6106C181.921 98.3808 180.914 97.373 179.683 97.373H157.508C156.277 97.373 155.271 98.3795 155.271 99.6106V116.544C155.271 117.775 156.277 118.782 157.508 118.782Z" fill="#F99746"/>
<path d="M249.646 154.226H219.957V152.365H249.646C252.775 152.365 255.32 149.819 255.32 146.692V2.61365H257.181V146.692C257.182 150.847 253.801 154.226 249.646 154.226Z" fill="#EBF3FA"/>
<path d="M241.851 153.124H239.99V198.386H241.851V153.124Z" fill="#EBF3FA"/>
<path d="M235.531 198.386H203.714L202.525 171.953H236.61L235.531 198.386Z" fill="#9DB0F4"/>
<path d="M236.755 172.978H201.872C201.592 172.978 201.365 172.751 201.365 172.471V172.314C201.365 172.034 201.592 171.806 201.872 171.806H236.755C237.035 171.806 237.262 172.034 237.262 172.314V172.471C237.262 172.752 237.035 172.978 236.755 172.978Z" fill="#C2D2FF"/>
<path d="M232.984 180.83H206.079V188.082H232.984V180.83Z" fill="#C2D2FF"/>
<path d="M254.694 198.386H227.333L226.311 164.926H255.622L254.694 198.386Z" fill="#FF9E55"/>
<path d="M256.184 164.045H225.312V166.615H256.184V164.045Z" fill="#E58638"/>
<path d="M252.504 176.163H229.366V185.343H252.504V176.163Z" fill="#FFE4CC"/>
<path d="M118.524 195.986L146.307 190.934V198.777H118.391C118.391 198.778 118.656 195.853 118.524 195.986Z" fill="#F99746"/>
<path d="M165.183 190.935H146.306V198.778H165.183V190.935Z" fill="#E58638"/>
<path d="M260.93 88.0836L258.321 81.4975C258.079 80.8884 258.38 80.1916 258.989 79.9503L259.021 79.9374C259.63 79.6961 260.327 79.9968 260.569 80.6058L263.178 87.1907C263.419 87.7997 263.118 88.4965 262.509 88.7378L262.477 88.7508C261.867 88.9946 261.171 88.694 260.93 88.0836Z" fill="#2A4E96"/>
<path d="M253.699 78.4173L261.825 75.1965C262.494 74.9307 263.26 75.2623 263.525 75.932L264.267 77.8044C264.533 78.4741 264.202 79.2393 263.532 79.5051L255.405 82.7246C254.735 82.9905 253.97 82.6588 253.704 81.9891L252.962 80.1168C252.698 79.4483 253.028 78.6831 253.699 78.4173Z" fill="#2A4E96"/>
<path d="M253.326 81.0526L263.888 76.8674L261.748 71.4689L251.187 75.6541L253.326 81.0526Z" fill="#AFCDFB"/>
<path d="M251.77 76.9928C251.77 76.9928 252.906 77.3579 254.233 76.4379C255.559 75.5178 254.936 74.7862 256.534 75.0301C258.131 75.274 259.512 74.5694 259.754 73.9203C259.998 73.2713 262.543 73.4055 262.543 73.4055L261.757 71.4712L251.195 75.6559L251.77 76.9928Z" fill="white"/>
<path d="M262.354 87.5481C262.418 87.7081 262.339 87.8901 262.179 87.9533C262.019 88.0165 261.837 87.9378 261.774 87.7778C261.711 87.6178 261.789 87.4358 261.949 87.3726C262.109 87.3094 262.291 87.3881 262.354 87.5481Z" fill="#98C6F4"/>
<path d="M257.922 56.8356C257.922 56.8356 256.158 53.1709 254.726 52.0328C253.293 50.8946 249.473 51.1721 249.326 51.4637C248.871 52.3644 252.393 53.7683 252.799 54.5955C253.206 55.4226 251.518 55.34 252.813 56.7762C253.908 57.9905 256.527 59.1479 256.527 59.1479L257.922 56.8356Z" fill="#FFB27D"/>
<path d="M256.398 56.4162C257.326 54.9723 257.603 54.8975 257.603 54.8975C257.603 54.8975 272.947 61.0178 274.412 61.5287C275.877 62.0397 297.768 63.3263 297.768 63.3263L304.375 77.847C304.375 77.847 275.202 71.1937 271.516 69.8259C265.427 67.5665 255.66 58.7144 255.66 58.7144C255.66 58.7144 255.669 57.5505 256.398 56.4162Z" fill="#E58638"/>
<path d="M294.517 192.191C294.517 192.191 294.182 197.577 293.182 198.844H277.792C277.889 198.307 278.325 196.98 280.249 196.645C282.681 196.222 286.751 194.513 288.223 191.299C289.773 187.917 294.517 192.191 294.517 192.191Z" fill="#163560"/>
<path d="M321.827 191.44C321.827 191.44 322.786 198.436 321.468 198.556C321.293 198.573 315.615 198.569 313.393 198.556C310.625 198.539 306.205 198.573 306.205 198.573C305.634 198.596 305.26 197.977 305.55 197.485C305.87 196.944 306.479 196.368 307.64 196.143C310.064 195.676 314.103 193.896 315.519 190.658C317.01 187.25 321.827 191.44 321.827 191.44Z" fill="#163560"/>
<path d="M287.278 120.511C287.278 120.511 291.148 134.052 302.239 157.568C313.33 181.083 314.187 191.8 314.187 191.8L321.827 191.44C321.827 191.44 321.108 163.45 315.869 151.584C310.63 139.717 309.563 107.243 309.563 107.243L287.278 120.511Z" fill="#233862"/>
<path d="M281.067 108.859C281.067 108.859 280.759 129.828 284.387 155.572C288.014 181.318 286.785 192.246 286.785 192.246L295.474 192.535C295.474 192.535 300.667 166.78 299.178 153.895C297.688 141.009 306.288 109.677 306.288 109.677L281.067 108.859Z" fill="#2A4E96"/>
<path d="M298.211 59.7906L294.112 62.8256L288.189 61.5791C288.272 61.0384 288.663 58.8009 289.018 56.7724C289.04 56.6524 289.06 56.5337 289.081 56.4163C289.386 54.691 289.65 53.2084 289.65 53.2084L295.182 50.4508L297.244 49.4224C297.239 49.4585 297.084 51.3373 297.062 51.6109C296.676 56.4821 298.211 59.7906 298.211 59.7906Z" fill="#FFB27D"/>
<path d="M288.606 58.2589C288.736 58.2047 296.663 55.8652 297.524 56.1491C298.384 56.433 298.895 58.1002 298.895 58.1002L286.657 61.5868C286.656 61.5855 286.949 58.9557 288.606 58.2589Z" fill="#E58638"/>
<path d="M309.951 111.447C308.609 117.577 280.594 98.3434 280.969 94.6026C281.01 94.1923 281.051 93.7781 281.092 93.3677C281.609 88.1597 282.105 83.064 282.14 79.7374C282.167 76.8521 282.565 73.9023 283.095 71.2234C283.582 68.7497 284.18 66.5045 284.7 64.756C285.067 63.5237 285.751 62.4398 286.658 61.5868C287.302 60.9816 288.058 60.4952 288.893 60.1635C289.119 60.068 289.351 59.9893 289.587 59.9209C292.961 58.9428 297.629 57.7311 298.896 58.1002C302.324 59.1093 304.87 65.1431 306.674 72.8364C310.046 87.2358 310.827 107.454 309.951 111.447Z" fill="#F99746"/>
<path d="M296.648 51.6986C295.433 54.0226 290.907 56.033 289.018 56.7724C289.04 56.6524 289.06 56.5337 289.081 56.4163C289.385 54.691 289.65 53.2084 289.65 53.2084L295.182 50.4508C296.405 50.4327 297.15 50.7424 296.648 51.6986Z" fill="#FCA56B"/>
<path d="M286.962 52.8857C286.962 52.8857 296.942 55.9994 298.786 49.754C300.629 43.5085 303.159 39.7044 296.865 37.4527C290.57 35.201 288.623 37.2166 287.502 39.1522C286.379 41.0864 284.414 51.9141 286.962 52.8857Z" fill="#FFB27D"/>
<path d="M287.893 38.5509C287.893 38.5509 288.53 45.8183 290.033 45.5022C291.536 45.1873 292.899 44.9525 292.678 47.1435C292.458 49.3346 290.374 51.8638 295.006 52.2509C299.637 52.638 306.296 40.6942 305.023 38.4322C301.352 31.9067 282.587 30.5892 287.893 38.5509Z" fill="#163560"/>
<path d="M281.812 108.859C284.587 109.861 281.765 106.101 281.812 105.318C282.028 101.871 280.677 97.515 281.09 93.3677L298.034 83.2395C298.035 83.2395 302.055 108.699 281.812 108.859Z" fill="#E58638"/>
<path d="M309.95 111.447C302.716 124.853 301.565 129.972 301.565 129.972C295.269 129.255 284.482 116.877 281.06 113.574C281.06 113.574 280.595 98.3435 280.968 94.6027L286.197 94.4517C286.197 94.4517 295.649 96.8479 298.099 93.5962C300.55 90.3457 299.489 74.3875 299.489 74.3875L306.673 72.8339C310.046 87.2359 311.891 107.85 309.95 111.447Z" fill="#2A4E96"/>
<path d="M267.03 85.7583C267.03 85.7583 263.588 83.4292 262.933 83.2266C262.28 83.024 261.897 82.0123 261.786 81.8523C261.394 81.2871 261.203 82.2962 261.378 82.6704C261.581 83.104 261.877 83.7234 260.92 83.5853C260.737 83.5582 259.174 83.5208 258.849 84.2395C258.524 84.957 258.239 87.4165 259.891 88.1623C261.542 88.9082 265.619 88.2346 265.913 88.3197C268.406 89.0411 267.03 85.7583 267.03 85.7583Z" fill="#FFB27D"/>
<path d="M266.998 85.1286C266.998 85.1286 283.803 87.9855 285.293 87.2603C287.67 86.1028 284.37 69.053 284.37 69.053C284.37 69.053 284.228 65.1883 288.742 64.2773C292.665 63.485 296.448 66.4232 296.448 66.4232C296.448 66.4232 299.89 69.5033 299.451 72.919C298.477 80.491 296.961 95.8904 291.896 98.2505C285.364 101.295 266.462 89.8075 266.462 89.8075C266.462 89.8075 265.833 89.0372 265.923 87.6061C266.002 86.3429 266.998 85.1286 266.998 85.1286Z" fill="#F99746"/>
<path d="M300.882 74.0868L299.49 74.3874C299.49 74.3874 296.547 61.6462 286.657 61.5855C287.301 60.9803 288.057 60.4939 288.892 60.1622C292.514 61.1339 298.807 64.2308 300.882 74.0868Z" fill="#2A4E96"/>
<path d="M256.615 53.1554L250.782 56.6214C250.243 56.9414 249.55 56.7814 249.243 56.264L249.226 56.2369C248.919 55.7194 249.109 55.0342 249.648 54.7129L255.481 51.247C256.02 50.9269 256.713 51.0869 257.02 51.6044L257.037 51.6315C257.345 52.1489 257.156 52.8341 256.615 53.1554Z" fill="#2A4E96"/>
<path d="M250.396 64.5341L242.513 51.2676C242.021 50.4379 242.295 49.3566 243.125 48.8636L243.924 48.3888C244.754 47.8958 245.836 48.1707 246.329 49.0004L254.212 62.2669C254.705 63.0966 254.43 64.1779 253.6 64.6709L252.802 65.1457C251.972 65.6399 250.889 65.3638 250.396 64.5341Z" fill="#2A4E96"/>
<path d="M253.202 64.9082L248.419 67.751L238.744 51.4663L239.729 50.8818L243.525 48.6262L253.202 64.9082Z" fill="#AFCDFB"/>
<path d="M249.781 66.8813L248.419 67.7497L238.744 51.4663L239.729 50.8818C240.298 51.2908 242.835 53.2354 243.027 55.3504C243.242 57.7324 246.166 59.3299 246.248 60.5881C246.329 61.8462 246.248 63.6734 247.791 64.2024C249.334 64.7302 249.781 66.8813 249.781 66.8813Z" fill="white"/>
<path d="M255.917 51.9308C256.059 51.847 256.242 51.8934 256.327 52.0353C256.411 52.1773 256.365 52.3605 256.223 52.4457C256.081 52.5296 255.897 52.4831 255.812 52.3412C255.728 52.1992 255.775 52.0147 255.917 51.9308Z" fill="#98C6F4"/>
<path d="M254.102 55.7698C254.084 55.753 253.325 54.8394 252.578 53.9529C252.028 53.3012 251.687 52.456 251.447 52.2044C250.881 51.6096 250.4 52.9516 251.238 54.6458C251.948 56.0807 253.268 57.2524 253.728 57.5673C254.187 57.8821 254.102 55.7698 254.102 55.7698Z" fill="#FFB27D"/>
<path d="M124.356 140.851C124.125 140.751 124.019 140.481 124.121 140.25L126.15 135.615C126.31 135.249 126.142 134.82 125.775 134.66L115.572 130.197C114.745 129.834 114.366 128.866 114.728 128.039L116.255 124.547C116.617 123.72 117.585 123.341 118.412 123.704L122.647 125.557C122.878 125.657 122.984 125.927 122.882 126.158C122.782 126.389 122.512 126.495 122.281 126.393L118.046 124.54C117.679 124.38 117.251 124.547 117.091 124.914L115.563 128.406C115.403 128.772 115.571 129.201 115.937 129.361L126.141 133.824C126.968 134.187 127.347 135.154 126.984 135.982L124.957 140.617C124.855 140.848 124.587 140.952 124.356 140.851Z" fill="#C2D2FF"/>
<path d="M124.101 142.605L123.064 142.151C122.675 141.98 122.497 141.525 122.666 141.137L124.974 135.861C125.144 135.473 125.599 135.295 125.988 135.464L127.025 135.918C127.414 136.089 127.592 136.544 127.423 136.932L125.116 142.208C124.947 142.596 124.49 142.774 124.101 142.605Z" fill="#F99746"/>
<path d="M140.207 131.783L138.772 135.063C138.398 135.917 137.403 136.305 136.547 135.932L119.568 128.505C118.715 128.132 118.324 127.137 118.699 126.282L120.134 123.001C120.508 122.147 121.503 121.759 122.357 122.132L139.336 129.559C140.191 129.932 140.581 130.928 140.207 131.783Z" fill="#C2D2FF"/>
<path d="M140.208 131.783L139.713 132.912C139.339 133.766 138.344 134.154 137.489 133.781L120.51 126.354C119.657 125.981 119.266 124.986 119.64 124.131L120.134 123.001C120.509 122.147 121.503 121.759 122.358 122.132L139.337 129.559C140.192 129.932 140.582 130.928 140.208 131.783Z" fill="#EBF3FA"/>
<path d="M93.8106 145.07C93.8106 145.07 97.5024 145.605 98.3592 146.568C99.2147 147.53 99.7502 148.28 99.2147 148.708C98.6792 149.137 90.5459 147.05 90.5459 147.05L93.8106 145.07Z" fill="#FFB27D"/>
<path d="M84.9301 132.013L94.8829 144.748C94.8829 144.748 94.0274 146.461 91.244 146.782C88.4619 147.103 82.5752 145.284 82.5752 144.748C82.5752 144.213 84.9301 132.013 84.9301 132.013Z" fill="#E58638"/>
<path d="M116.432 159.599C113.537 162.935 107.433 165.091 95.6552 165.637C94.7094 165.682 93.7584 165.718 92.8022 165.747C91.8176 165.776 90.8331 165.798 89.8472 165.811C86.6458 165.855 83.4611 165.819 80.4261 165.717C77.484 165.616 74.6813 165.455 72.1418 165.243C67.1751 164.831 63.2098 164.229 61.1619 163.54C60.549 163.335 60.1077 163.121 59.8612 162.901C59.6509 162.714 59.4806 162.494 59.3528 162.243C58.6096 160.865 58.998 158.608 59.8948 156.119C61.2032 152.497 63.6046 148.39 65.2215 145.819C65.5454 145.306 65.8344 144.857 66.0809 144.481C66.5738 143.726 66.8809 143.285 66.8809 143.285C66.8809 143.285 72.3818 143.796 79.9138 144.771C81.4494 144.969 83.0727 145.19 84.7489 145.427C100.942 147.717 117.078 151.834 117.061 157.295C117.059 158.128 117.113 158.813 116.432 159.599Z" fill="#2B478B"/>
<path d="M96.379 165.571C95.3944 165.601 90.8316 165.798 89.8457 165.811C86.6443 165.855 83.4596 165.819 80.4246 165.717L77.5703 154.217C81.986 160.375 94.9608 165.174 96.379 165.571Z" fill="#2C3A64"/>
<path d="M86.8405 198.973H102.539C102.292 198.375 101.694 197.596 100.237 197.34C97.7649 196.907 93.4718 195.569 94.0228 192.001C94.5802 188.384 88.5593 187.917 88.5593 187.917C88.5593 187.917 86.0534 197.596 86.8405 198.973Z" fill="#2C3A64"/>
<path d="M116.686 159.008C116.686 159.008 97.2113 189.646 95.5918 193.286C95.5918 193.286 88.9657 193.903 87.3721 189.17C87.3721 189.17 98.9481 156.838 104.036 154.173C109.123 151.509 116.686 159.008 116.686 159.008Z" fill="#2B478B"/>
<path d="M77.4131 94.5058C77.4131 94.5058 84.1192 103.684 90.0963 104.175C90.0963 104.175 89.3324 100.72 87.5684 98.5422C88.042 97.777 88.4549 97.0776 88.8085 96.453C89.9827 94.3729 90.5028 93.129 90.5028 93.129L87.7529 88.1546L87.1852 85.4809C86.7206 86.7364 86.1761 87.8952 85.5683 88.8501C82.4378 93.7677 77.4131 94.5058 77.4131 94.5058Z" fill="#FFB27D"/>
<path d="M85.3091 88.8011C85.3091 88.8011 84.3362 93.3987 88.8099 96.4531C89.9842 94.373 90.5042 93.129 90.5042 93.129L87.7544 88.1546C85.5569 87.8294 85.3091 88.8011 85.3091 88.8011Z" fill="#ED975D"/>
<path d="M91.3402 95.902C91.3402 95.902 82.9282 91.3198 85.8625 86.1248C88.7969 80.9297 89.6872 76.8404 95.183 79.5464C100.677 82.2523 100.592 84.8189 100.035 86.7919C99.4774 88.7636 93.6035 96.9601 91.3402 95.902Z" fill="#FFB27D"/>
<path d="M85.8921 75.7823C85.8456 75.652 85.6817 75.4985 85.2598 75.3075C85.2598 75.3075 85.6895 75.2223 86.1553 75.3888C86.4805 74.8146 87.2173 73.8584 88.3515 73.9952C88.3515 73.9952 87.6805 74.0816 87.3579 74.701C89.0367 73.9152 91.9517 73.9977 98.832 77.3089C107.9 81.6729 102.466 86.5661 100.974 86.8242C99.4824 87.081 97.201 83.9156 94.8744 83.2253C92.5466 82.5349 90.8381 85.6822 89.8974 85.8409C88.9567 85.9996 89.5671 85.3118 88.7154 84.437C87.8638 83.5608 87.0908 85.2667 86.9528 86.5158C86.8147 87.7649 84.8133 88.7094 84.8133 88.7094C84.8133 88.7094 84.8133 88.7094 83.9823 86.5803C83.1513 84.4512 84.3694 77.2637 85.5733 76.0959C85.6779 75.9927 85.7837 75.8869 85.8921 75.7823Z" fill="#2B478B"/>
<path d="M35.6677 188.957C35.6677 188.957 33.7115 191.926 33.256 192.889C32.8005 193.851 33.6935 195.899 35.0355 196.206C36.2187 196.479 36.3955 198.577 36.3955 198.577H30.6585C30.0507 198.577 29.5036 198.242 29.27 197.728C28.4609 195.947 28.2764 193.632 28.1138 192.858C27.7719 191.229 27.0944 189.863 27.3938 188.205C27.6919 186.552 30.5178 185.595 35.6677 185.611C41.3261 185.628 35.6677 188.957 35.6677 188.957Z" fill="#233862"/>
<path d="M52.5323 153.149C56.8577 157.732 88.6231 148.249 85.961 145.833C85.2835 145.219 85.5158 144.482 85.2397 143.494C83.9222 138.805 86.5455 130.782 87.6708 127.671C87.934 126.95 88.1147 126.494 88.1482 126.403C89.2218 123.499 90.0528 120.476 90.5961 117.556C91.6439 111.952 91.6245 106.739 90.1922 103.545C90.1818 103.528 90.1806 103.513 90.1702 103.501C84.2203 101.762 80.944 93.0077 80.944 93.0077C80.944 93.0077 62.094 98.3615 55.2511 125.26C55.2511 125.26 54.8976 126.975 54.4614 129.549H54.4588C54.3272 130.339 54.1866 131.21 54.0446 132.139C53.3143 136.925 52.8897 143.063 52.4561 147.632C52.4394 147.791 52.4239 147.951 52.4071 148.117C52.1916 150.088 51.8135 152.387 52.5323 153.149Z" fill="#F99746"/>
<path d="M77.5449 148.6C77.5449 148.6 74.3783 149.017 67.9922 149.488C61.3738 149.978 54.3593 151.021 53.2199 153.244C52.8418 153.981 53.105 155.843 53.8431 158.417C55.4755 164.108 59.4305 173.271 63.9468 181.397C52.345 182.068 36.5623 184.629 36.5623 184.629C33.9802 187.548 35.0616 190.965 35.0616 190.965C35.89 190.971 38.3792 191.323 41.7767 191.872C54.087 193.853 69.0787 197.928 78.3746 197.928C80.4083 197.928 81.9297 196.484 82.5477 194.596V194.593C86.3673 182.97 77.5449 148.6 77.5449 148.6Z" fill="#2B478B"/>
<path d="M53.8434 159.282C60.2475 159.079 76.3077 151.195 76.0457 151.132C73.0546 150.396 70.3796 149.887 67.9937 149.565C61.3753 150.098 54.3608 151.234 53.2214 153.652C52.842 154.455 53.1053 156.482 53.8434 159.282Z" fill="#2C3A64"/>
<path d="M74.4053 111.388C74.4053 111.388 74.7782 140.522 85.2394 143.494C83.9219 138.805 86.5452 130.782 87.6704 127.671C84.9735 120.179 80.0094 112.62 74.4053 111.388Z" fill="#E58638"/>
<path d="M77.781 94.3187C77.781 94.3187 85.8382 95.9949 86.6254 103.056C87.1983 108.198 81.5761 119.843 81.5761 119.843L80.5051 118.772C80.5051 118.772 85.4408 104.394 84.6807 101.947C83.7078 98.8118 79.0753 94.12 74.8145 95.9937L77.781 94.3187Z" fill="#2B478B"/>
<path d="M52.5322 153.149C56.8575 157.732 89.3069 148.35 86.6448 145.934C85.9673 145.32 85.5144 144.483 85.2396 143.494C83.9221 138.805 86.5454 130.782 87.6706 127.671C87.9339 126.95 88.1145 126.495 88.1481 126.403L86.5093 124.767L80.5051 118.774C80.5051 118.774 78.7296 120.788 75.3733 123.074C70.9744 126.073 63.8592 129.536 54.4626 129.55H54.46C54.3284 130.34 54.1877 131.211 54.0458 132.14C53.3154 136.926 52.8909 143.064 52.4573 147.634C52.4406 147.792 52.4251 147.952 52.4083 148.119C52.1915 150.088 51.8134 152.387 52.5322 153.149Z" fill="#2B478B"/>
<path d="M75.3711 123.072C76.5724 131.541 79.2564 141.793 85.2387 143.494C83.9212 138.805 86.5445 130.782 87.6698 127.671C87.3188 126.7 86.9317 125.725 86.5084 124.765L80.5043 118.773C80.5043 118.773 78.7287 120.788 75.3711 123.072Z" fill="#2C3A64"/>
<path d="M124.417 142.233C122.457 142.233 118.803 140.445 118.474 140.413C115.679 140.144 118.374 137.394 118.374 137.394C118.374 137.394 122.767 136.429 123.504 136.486C123.745 136.505 124.144 136.585 124.576 136.691L124.104 137.818C124.104 137.818 127.164 138.283 127.203 139.134C127.243 139.988 125.38 142.233 124.417 142.233Z" fill="#FFB27D"/>
<path d="M119.237 138.756C119.911 136.81 118.973 136.202 118.973 136.202C118.973 136.202 99.7935 127.106 98.2244 126.105C96.6553 125.103 86.1116 105.9 86.1116 105.9C86.1116 105.9 82.203 98.0479 77.2247 98.2053C72.8993 98.3421 70.4953 101.039 69.1611 103.866C67.5713 107.235 68.2423 111.238 70.8011 113.945C76.5434 120.023 88.0768 132.057 91.0653 133.883C97.716 137.949 117.643 141.237 117.643 141.237C117.643 141.237 118.708 140.285 119.237 138.756Z" fill="#F99746"/>
<path d="M350.015 200H-0.204722C-0.479575 200 -0.704102 199.775 -0.704102 199.501V199.032C-0.704102 198.757 -0.479575 198.533 -0.204722 198.533H350.015C350.29 198.533 350.514 198.757 350.514 199.032V199.501C350.514 199.775 350.29 200 350.015 200Z" fill="#2E3552"/>
<path d="M208.965 185.601C207.361 192.8 201.906 198.552 196.779 198.452C191.652 198.35 188.795 192.433 190.399 185.234C192.003 178.035 197.459 172.282 202.586 172.383C207.711 172.485 210.568 178.403 208.965 185.601Z" fill="#8097D8"/>
<path d="M207.813 185.336C206.209 192.535 200.753 198.288 195.627 198.187C190.5 198.085 187.643 192.169 189.247 184.97C190.85 177.77 196.307 172.018 201.433 172.119C206.56 172.219 209.416 178.137 207.813 185.336Z" fill="#C2D2FF"/>
<path d="M196.12 196.302C196.081 196.302 196.043 196.302 196.005 196.3C194.358 196.268 192.931 195.542 191.877 194.201C190.195 192.061 189.679 188.598 190.495 184.936C191.868 178.772 196.563 173.821 200.964 173.914C202.61 173.946 204.037 174.672 205.092 176.013C206.773 178.152 207.289 181.616 206.474 185.278C205.114 191.389 200.486 196.302 196.12 196.302ZM200.85 174.046C196.543 174.046 191.974 178.912 190.626 184.966C189.82 188.589 190.327 192.01 191.984 194.12C193.012 195.428 194.403 196.137 196.01 196.169C196.047 196.169 196.085 196.17 196.122 196.17C200.429 196.17 204.999 191.304 206.346 185.251C207.152 181.627 206.645 178.207 204.988 176.098C203.96 174.79 202.569 174.081 200.962 174.049C200.925 174.046 200.886 174.046 200.85 174.046Z" fill="#8097D8"/>
</svg>
