<svg width="40" height="40" viewBox="0 0 40 40" fill="none" xmlns="http://www.w3.org/2000/svg">
<path d="M12.6562 40C12.6677 39.8323 12.6896 39.6646 12.6896 39.4979C12.6917 35.0604 12.6906 30.624 12.6906 26.1865C12.6906 26.0198 12.6906 25.8531 12.6906 25.7C13.4948 25.5542 14.2687 25.4604 15.0187 25.2708C18.5073 24.3906 21.2594 22.4406 23.2906 19.4761C23.4573 19.2333 23.6198 19.1385 23.9167 19.1385C29.2771 19.1469 34.6385 19.1417 39.999 19.1396C39.999 26.0927 39.999 33.0458 39.999 39.999C30.8854 40 21.7708 40 12.6562 40ZM33.3375 28.7479C32.5833 24.9344 29.226 22.5886 25.6854 22.9979C22.1646 23.4052 19.6208 26.2052 19.4813 29.7302C19.349 33.0865 21.7615 36.0844 25.1656 36.7552C26.7958 37.076 28.3573 36.8188 29.8063 36.0063C31.7354 34.925 32.876 33.2573 33.3281 31.074C34.2542 31.074 35.1594 31.074 36.0667 31.074C36.0667 30.2844 36.0667 29.5344 36.0667 28.7469C35.1406 28.7479 34.2354 28.7479 33.3375 28.7479Z" fill="#383737"/>
<path d="M12.5781 0C13.3292 0.145833 14.0948 0.2375 14.8271 0.445834C19.6 1.80625 22.875 5.8323 23.3 10.8208C23.7375 15.9615 20.475 20.9719 15.5927 22.6583C15.5219 22.6833 15.449 22.7042 15.324 22.7438C15.324 21.8136 15.35 20.9208 15.3135 20.0313C15.2937 19.5615 15.4448 19.325 15.8646 19.074C18.8385 17.2896 20.3521 14.6229 20.1052 11.1698C19.8521 7.61876 17.9177 5.16563 14.6073 3.82709C14.126 3.63229 13.6313 3.47084 13.1417 3.29479C13.1187 3.28646 13.0906 3.29375 13.0198 3.29375C13.0198 5.61355 13.0198 7.9323 13.0198 10.2844C12.1396 10.2844 11.3052 10.2844 10.425 10.2844C10.425 7.95417 10.425 5.62917 10.425 3.29479C5.39167 4.49479 3.00729 8.39063 3.30938 12.3573C3.54167 15.4021 5.07292 17.6886 7.74583 19.1844C8.00833 19.3313 8.11562 19.474 8.10938 19.7802C8.0875 20.7542 8.10104 21.7281 8.10104 22.775C7.8125 22.6719 7.56771 22.6011 7.3375 22.5C3.13125 20.6563 0.6875 17.4761 0.0697917 12.9125C0.0583333 12.8261 0.0239583 12.7417 0 12.6563C0 12.0313 0 11.4063 0 10.7813C0.0239583 10.6563 0.059375 10.5333 0.0708333 10.4073C0.51875 5.80105 3.95729 1.69167 8.41771 0.473959C9.19167 0.2625 9.99271 0.155208 10.7812 0C11.3802 0 11.9792 0 12.5781 0Z" fill="#383737"/>
<path d="M39.9999 16.7969C38.4176 16.7969 36.8343 16.7969 35.228 16.7969C35.228 15.4573 35.228 14.151 35.228 12.799C35.3666 12.7906 35.503 12.775 35.6384 12.774C36.9509 12.7719 38.2645 12.774 39.577 12.7708C39.7176 12.7708 39.8593 12.7469 39.9999 12.7333C39.9999 14.0885 39.9999 15.4427 39.9999 16.7969Z" fill="#FFBB00"/>
<path d="M8.06969 6.90417C8.06969 8.85 8.06969 10.7292 8.06969 12.6354C10.5009 12.6354 12.8884 12.6354 15.3197 12.6354C15.3197 10.7458 15.3197 8.85417 15.3197 6.89062C15.4645 6.98125 15.552 7.02292 15.6249 7.08333C19.1426 10.0198 18.2395 15.6969 13.9832 17.4094C13.6593 17.5396 13.202 17.5813 13.0478 17.8198C12.8791 18.0802 12.9822 18.5219 12.9822 18.8844C12.9791 20.3281 12.9811 21.7719 12.9811 23.2813C12.1384 23.2813 11.3176 23.2813 10.4447 23.2813C10.4447 23.1135 10.4447 22.975 10.4447 22.8365C10.4447 21.3 10.428 19.7635 10.4561 18.2281C10.4634 17.8521 10.3291 17.7073 9.99886 17.6021C8.20198 17.0333 6.89365 15.8979 6.1249 14.1688C5.04365 11.7375 5.74781 8.77604 7.79781 7.08542C7.8624 7.03229 7.93844 6.99062 8.06969 6.90417Z" fill="#FFBB00"/>
<path d="M25.7427 12.799C28.0521 12.799 30.426 12.799 32.8302 12.799C32.8302 14.1344 32.8302 15.451 32.8302 16.7854C30.1375 16.7854 27.4625 16.7854 24.8208 16.7854C25.1229 15.4781 25.425 14.1719 25.7427 12.799Z" fill="#383737"/>
<path d="M26.4864 25.3031C29.0082 25.3166 31.0707 27.3927 31.0697 29.9166C31.0687 32.4677 28.9697 34.5437 26.4051 34.5323C23.8947 34.5208 21.8207 32.4312 21.8218 29.9135C21.8218 27.3614 23.9176 25.2896 26.4864 25.3031Z" fill="#FFBB00"/>
</svg>
