<svg width="350" height="234" viewBox="0 0 350 234" fill="none" xmlns="http://www.w3.org/2000/svg">
<path d="M341.837 209.617C341.75 206.371 339.772 205.065 337.222 205.002C336.6 204.986 336.028 205.057 335.641 205.363C333.132 207.341 333.362 211.279 333.987 212.936C334.914 215.392 337.677 214.851 337.381 216.458C337.109 217.927 334.517 218.53 334.624 221.125C334.713 223.291 338.197 225.032 339.43 228.951C340.857 233.483 337.282 232.364 338.889 233.964C341.293 236.36 347.58 236.676 348.657 234.431C350.818 229.929 347.951 230.689 347.766 225.583C347.625 221.721 348.513 219.359 347.664 217.161C346.59 214.381 343.781 216.492 342.299 213.547C341.748 212.447 341.865 210.709 341.837 209.617Z" fill="#F1C936"/>
<path d="M337.463 208.498C337.774 209.669 338.08 210.837 338.425 211.997C338.759 213.158 339.109 214.313 339.488 215.46C339.872 216.602 340.269 217.741 340.742 218.841C340.978 219.393 341.226 219.936 341.511 220.456C341.795 220.976 342.109 221.475 342.498 221.896C342.932 222.387 343.23 222.931 343.51 223.48C343.787 224.028 344.032 224.59 344.254 225.157C344.696 226.294 345.078 227.449 345.399 228.622C345.723 229.793 345.992 230.979 346.193 232.179C346.29 232.78 346.366 233.381 346.413 233.987C346.46 234.591 346.473 235.205 346.387 235.806C346.426 234.596 346.196 233.402 345.94 232.228C345.679 231.052 345.36 229.89 345.004 228.74C344.641 227.593 344.254 226.451 343.792 225.345C343.562 224.791 343.322 224.243 343.05 223.715C342.778 223.19 342.48 222.667 342.109 222.254C341.678 221.784 341.349 221.245 341.056 220.704C340.763 220.161 340.51 219.604 340.28 219.037C339.823 217.906 339.433 216.753 339.091 215.588C338.411 213.249 337.876 210.884 337.463 208.498Z" fill="#FFB717"/>
<path d="M344.487 216.544C344.341 217.106 344.181 217.652 344.022 218.196C343.868 218.742 343.703 219.28 343.559 219.824C343.41 220.365 343.28 220.911 343.157 221.46C343.045 222.011 342.951 222.562 342.872 223.137C342.734 222.573 342.713 221.982 342.752 221.402C342.796 220.822 342.911 220.25 343.055 219.688C343.214 219.131 343.403 218.583 343.64 218.057C343.876 217.527 344.145 217.015 344.487 216.544Z" fill="#FFB717"/>
<path d="M344.771 227.922C344.27 227.553 343.794 227.162 343.326 226.767L341.931 225.581C341.474 225.178 341.006 224.794 340.535 224.41C340.062 224.031 339.589 223.655 339.046 223.352C339.668 223.451 340.24 223.751 340.768 224.075C341.301 224.402 341.798 224.781 342.268 225.183C342.736 225.591 343.185 226.014 343.603 226.472C344.027 226.926 344.424 227.402 344.771 227.922Z" fill="#FFB717"/>
<path d="M319.45 219.322C317.746 217.414 314.861 217.861 313.241 219.839C312.846 220.323 312.269 221.164 312.237 221.684C312.102 223.9 313.719 225.797 315.533 226.508C319.136 227.919 321.187 226.106 322.395 227.514C323.495 228.8 321.073 230.506 322.021 232.085C323.903 235.218 330.294 233.112 334.434 234.985C339.221 237.154 336.061 239.177 338.426 239.067C341.97 238.9 346.101 234.133 344.826 231.643C342.268 226.644 343.561 228.465 338.515 225.635C335.382 223.877 333.336 220.54 330.919 219.615C327.861 218.444 326.173 222.743 321.937 221.324C320.67 220.898 320.273 220.244 319.45 219.322Z" fill="#60A431"/>
<path d="M315.169 221.684C316.361 222.285 317.55 222.892 318.757 223.461C319.956 224.041 321.166 224.601 322.384 225.136C323.604 225.664 324.832 226.179 326.084 226.613C326.709 226.83 327.338 227.031 327.976 227.19C328.614 227.347 329.251 227.465 329.891 227.465L330.422 227.504C330.594 227.527 330.762 227.564 330.931 227.595C331.274 227.648 331.595 227.755 331.924 227.836C332.575 228.024 333.213 228.238 333.842 228.476C335.097 228.959 336.325 229.5 337.524 230.096C338.726 230.687 339.9 231.337 341.039 232.04C341.324 232.215 341.603 232.398 341.88 232.589L342.296 232.869L342.701 233.166C343.247 233.553 343.754 233.997 344.217 234.478C343.213 233.595 342.069 232.908 340.906 232.26C339.743 231.612 338.554 231.016 337.347 230.462C336.137 229.913 334.914 229.388 333.667 228.938C333.354 228.834 333.045 228.714 332.729 228.612C332.413 228.518 332.102 228.408 331.783 228.324C331.464 228.249 331.148 228.147 330.829 228.1C330.67 228.073 330.511 228.037 330.354 228.016L329.886 227.985C329.188 227.982 328.504 227.849 327.851 227.684C327.192 227.514 326.549 227.31 325.919 227.078C324.657 226.613 323.426 226.082 322.217 225.507C319.794 224.36 317.448 223.075 315.169 221.684Z" fill="#4F8627"/>
<path d="M326.931 222.552C326.91 222.521 326.89 222.487 326.869 222.453C326.858 222.434 326.85 222.419 326.843 222.398C326.84 222.392 326.837 222.387 326.837 222.377C326.84 222.369 326.829 222.364 326.85 222.338C326.871 222.317 326.884 222.327 326.9 222.33L326.918 222.34C326.994 222.39 327.046 222.445 327.104 222.5C327.216 222.609 327.318 222.724 327.423 222.837C327.626 223.069 327.822 223.304 328.011 223.545C328.392 224.023 328.747 224.52 329.098 225.016C329.443 225.518 329.782 226.022 330.109 226.534L330.6 227.303C330.765 227.559 330.922 227.817 331.118 228.053C330.841 227.901 330.621 227.676 330.399 227.462C330.185 227.24 329.976 227.012 329.78 226.775C329.382 226.304 329.022 225.81 328.669 225.314C328.324 224.81 327.987 224.3 327.676 223.777C327.517 223.516 327.368 223.252 327.214 222.988L326.989 222.591C326.952 222.526 326.91 222.455 326.871 222.408C326.876 222.406 326.876 222.403 326.892 222.395C326.905 222.374 326.897 222.382 326.897 222.382C326.895 222.406 326.9 222.426 326.903 222.445C326.913 222.476 326.924 222.515 326.931 222.552Z" fill="#4F8627"/>
<path d="M336.417 230.025C335.784 230.146 335.157 230.235 334.53 230.316L332.654 230.553C332.34 230.587 332.029 230.629 331.721 230.674C331.41 230.71 331.102 230.762 330.791 230.809C330.171 230.911 329.56 231.018 328.959 231.246C329.455 230.828 330.085 230.59 330.699 230.412C331.319 230.232 331.954 230.114 332.589 230.033C333.224 229.96 333.861 229.911 334.501 229.908C335.142 229.905 335.779 229.931 336.417 230.025Z" fill="#4F8627"/>
<path d="M329.518 217.495C329.518 217.495 329.379 216.296 329.632 214.992C330.006 213.064 328.203 210.636 326.669 210.871C325.135 211.106 324.012 212.039 324.796 213.678C326.144 216.489 327.592 217.14 329.518 217.495Z" fill="white"/>
<path d="M337.211 219.892C336.96 218.708 335.672 217.72 334.451 217.89C333.848 217.974 333.077 218.577 333.239 219.573C333.594 221.771 334.835 225.139 334.835 225.139C334.835 225.139 337.867 222.999 337.211 219.892Z" fill="white"/>
<path d="M331.279 229.124C329.988 228.923 328.883 227.762 329.037 226.636C329.113 226.08 329.831 225.303 330.866 225.79C333.571 227.06 336.921 226.809 336.921 226.809C336.921 226.809 334.668 229.652 331.279 229.124Z" fill="white"/>
<path d="M335.857 232.244C337.007 233.496 340.015 235.592 343.621 231.259C343.621 231.259 340.483 232.213 338.951 231.013C338.321 230.519 337.376 230.352 336.788 230.31C335.693 230.235 335.084 231.403 335.857 232.244Z" fill="white"/>
<path d="M339.905 222.813C341.522 223.333 344.687 225.189 342.259 230.276C342.259 230.276 341.81 227.026 340.08 226.137C339.369 225.771 338.818 224.982 338.536 224.465C338.01 223.506 338.818 222.463 339.905 222.813Z" fill="white"/>
<path d="M324.545 220.932C325.323 222.364 327.555 225.027 332.559 222.037C332.559 222.037 329.078 222.084 327.897 220.6C327.411 219.988 326.502 219.591 325.919 219.4C324.832 219.045 324.022 219.968 324.545 220.932Z" fill="white"/>
<path d="M347.281 233.224C347.181 233.18 337.215 228.627 333.679 223.859C330.157 219.11 329.284 217.493 329.25 217.425L329.506 217.289C329.514 217.305 330.41 218.961 333.912 223.686C337.403 228.395 347.302 232.916 347.401 232.96L347.281 233.224Z" fill="white"/>
<path d="M7.62296 209.617C7.7092 206.371 9.68735 205.065 12.2378 205.002C12.8597 204.986 13.432 205.057 13.8187 205.363C16.3273 207.341 16.0974 211.279 15.4728 212.936C14.5452 215.392 11.7831 214.851 12.0784 216.458C12.3501 217.927 14.9424 218.53 14.8352 221.125C14.7464 223.291 11.2631 225.032 10.0297 228.951C8.60289 233.483 12.1777 232.364 10.5706 233.964C8.1665 236.36 1.87927 236.676 0.802659 234.431C-1.35841 229.929 1.50821 230.689 1.69374 225.583C1.83485 221.721 0.946383 219.359 1.79565 217.161C2.86966 214.381 5.67878 216.492 7.16044 213.547C7.71442 212.447 7.59422 210.709 7.62296 209.617Z" fill="#F1C936"/>
<path d="M11.9978 208.498C11.6868 209.669 11.3811 210.837 11.0362 211.997C10.7017 213.158 10.3515 214.313 9.9726 215.46C9.58847 216.602 9.19127 217.741 8.71829 218.841C8.48311 219.393 8.23486 219.936 7.95003 220.456C7.6652 220.976 7.35162 221.475 6.96226 221.896C6.52848 222.387 6.23058 222.931 5.95097 223.48C5.67398 224.028 5.42835 224.59 5.20623 225.157C4.76461 226.294 4.38309 227.449 4.06167 228.622C3.73764 229.793 3.46849 230.979 3.26728 232.179C3.17059 232.78 3.09481 233.381 3.04778 233.987C3.00074 234.591 2.98767 235.205 3.0739 235.806C3.03471 234.596 3.26467 233.402 3.52075 232.228C3.78207 231.052 4.10087 229.89 4.45626 228.74C4.81949 227.593 5.20623 226.451 5.66876 225.345C5.89871 224.791 6.13912 224.243 6.41089 223.715C6.68266 223.19 6.98055 222.667 7.35162 222.254C7.78279 221.784 8.11205 221.245 8.40472 220.704C8.69739 220.161 8.95086 219.604 9.18082 219.037C9.63812 217.906 10.0275 216.753 10.3698 215.588C11.0492 213.249 11.5849 210.884 11.9978 208.498Z" fill="#FFB717"/>
<path d="M4.97266 216.544C5.11899 217.106 5.27839 217.652 5.4378 218.196C5.59197 218.742 5.7566 219.28 5.90032 219.824C6.04927 220.365 6.17993 220.911 6.30274 221.46C6.41511 222.011 6.50918 222.562 6.58758 223.137C6.72607 222.573 6.74698 221.982 6.70778 221.402C6.66336 220.822 6.54838 220.25 6.40466 219.688C6.24526 219.131 6.05711 218.583 5.81931 218.057C5.58413 217.527 5.31498 217.015 4.97266 216.544Z" fill="#FFB717"/>
<path d="M4.68848 227.922C5.1902 227.553 5.66579 227.162 6.13354 226.767L7.52896 225.581C7.98626 225.178 8.45401 224.794 8.92438 224.41C9.39736 224.031 9.87033 223.655 10.4139 223.352C9.79194 223.451 9.21966 223.751 8.69181 224.075C8.15873 224.402 7.66223 224.781 7.19186 225.183C6.72411 225.591 6.27465 226.014 5.85655 226.472C5.43322 226.926 5.03602 227.402 4.68848 227.922Z" fill="#FFB717"/>
<path d="M30.0092 219.322C31.713 217.414 34.5979 217.861 36.2181 219.839C36.6127 220.323 37.1902 221.164 37.2215 221.684C37.3574 223.9 35.7399 225.797 33.9263 226.508C30.3228 227.919 28.2715 226.106 27.0642 227.514C25.9641 228.8 28.3865 230.506 27.4379 232.085C25.5564 235.218 19.1647 233.112 15.0255 234.985C10.2382 237.154 13.3975 239.177 11.0326 239.067C7.48918 238.9 3.3578 234.133 4.63301 231.643C7.19128 226.644 5.89777 228.465 10.9437 225.635C14.0769 223.877 16.123 220.54 18.5402 219.615C21.5975 218.444 23.2856 222.743 27.5215 221.324C28.7889 220.898 29.1861 220.244 30.0092 219.322Z" fill="#60A431"/>
<path d="M34.2899 221.684C33.0983 222.285 31.9093 222.892 30.702 223.461C29.5026 224.041 28.2927 224.601 27.075 225.136C25.8547 225.664 24.6265 226.179 23.3748 226.613C22.7502 226.83 22.1205 227.031 21.4829 227.19C20.8453 227.347 20.2077 227.465 19.5674 227.465L19.037 227.504C18.8645 227.527 18.6973 227.564 18.5274 227.595C18.1851 227.648 17.8637 227.755 17.5344 227.836C16.8837 228.024 16.2461 228.238 15.6164 228.476C14.3621 228.959 13.1339 229.5 11.9344 230.096C10.7324 230.687 9.5591 231.337 8.41977 232.04C8.13494 232.215 7.85533 232.398 7.57834 232.589L7.16285 232.869L6.75781 233.166C6.21166 233.553 5.70471 233.997 5.24219 234.478C6.24563 233.595 7.39019 232.908 8.55304 232.26C9.71589 231.612 10.9049 231.016 12.1121 230.462C13.322 229.913 14.545 229.388 15.7914 228.938C16.105 228.834 16.4134 228.714 16.7296 228.612C17.0458 228.518 17.3567 228.408 17.6755 228.324C17.9943 228.249 18.3105 228.147 18.6293 228.1C18.7887 228.073 18.9481 228.037 19.1049 228.016L19.5727 227.985C20.2704 227.982 20.955 227.849 21.6083 227.684C22.2668 227.514 22.9096 227.31 23.5394 227.078C24.8016 226.613 26.0324 226.082 27.2422 225.507C29.6646 224.36 32.0112 223.075 34.2899 221.684Z" fill="#4F8627"/>
<path d="M22.528 222.552C22.549 222.521 22.5699 222.487 22.5908 222.453C22.6012 222.434 22.6091 222.419 22.6169 222.398C22.6195 222.392 22.6221 222.387 22.6221 222.377C22.6195 222.369 22.63 222.364 22.6091 222.338C22.5882 222.317 22.5751 222.327 22.5594 222.33L22.5411 222.34C22.4653 222.39 22.4131 222.445 22.3556 222.5C22.2432 222.609 22.1413 222.724 22.0368 222.837C21.833 223.069 21.637 223.304 21.4488 223.545C21.0673 224.023 20.7119 224.52 20.3618 225.016C20.0168 225.518 19.6771 226.022 19.3505 226.534L18.8592 227.303C18.6946 227.559 18.5378 227.817 18.3418 228.053C18.6188 227.901 18.8383 227.676 19.0604 227.462C19.2747 227.24 19.4837 227.012 19.6797 226.775C20.0769 226.304 20.4375 225.81 20.7903 225.314C21.1352 224.81 21.4723 224.3 21.7833 223.777C21.9427 223.516 22.0917 223.252 22.2458 222.988L22.4706 222.591C22.5071 222.526 22.549 222.455 22.5882 222.408C22.5829 222.406 22.5829 222.403 22.5672 222.395C22.5542 222.374 22.562 222.382 22.562 222.382C22.5646 222.406 22.5594 222.426 22.5568 222.445C22.5463 222.476 22.5385 222.515 22.528 222.552Z" fill="#4F8627"/>
<path d="M13.042 230.025C13.6744 230.146 14.3015 230.235 14.9287 230.316L16.8049 230.553C17.1185 230.587 17.4295 230.629 17.7378 230.674C18.0488 230.71 18.3571 230.762 18.6681 230.809C19.2874 230.911 19.8989 231.018 20.4999 231.246C20.0034 230.828 19.3736 230.59 18.7595 230.412C18.1402 230.232 17.5052 230.114 16.8702 230.033C16.2353 229.96 15.5976 229.911 14.9574 229.908C14.3198 229.905 13.6796 229.931 13.042 230.025Z" fill="#4F8627"/>
<path d="M19.9421 217.495C19.9421 217.495 20.0806 216.296 19.8271 214.992C19.4534 213.064 21.2565 210.636 22.7904 210.871C24.3243 211.106 25.448 212.039 24.6641 213.678C23.3183 216.489 21.868 217.14 19.9421 217.495Z" fill="white"/>
<path d="M12.2508 219.892C12.5016 218.708 13.7899 217.72 15.0103 217.89C15.6139 217.974 16.3848 218.577 16.2228 219.573C15.8674 221.771 14.6261 225.139 14.6261 225.139C14.6261 225.139 11.5923 222.999 12.2508 219.892Z" fill="white"/>
<path d="M18.1799 229.124C19.4708 228.923 20.5761 227.762 20.4219 226.636C20.3462 226.08 19.6275 225.303 18.5927 225.79C15.8881 227.06 12.5381 226.809 12.5381 226.809C12.5381 226.809 14.7906 229.652 18.1799 229.124Z" fill="white"/>
<path d="M13.6015 232.244C12.4518 233.496 9.44403 235.591 5.83789 231.259C5.83789 231.259 8.97627 232.213 10.5076 231.013C11.1373 230.519 12.0833 230.352 12.6713 230.31C13.7662 230.234 14.375 231.403 13.6015 232.244Z" fill="white"/>
<path d="M9.55382 222.813C7.93629 223.333 4.77177 225.189 7.19938 230.276C7.19938 230.276 7.64884 227.026 9.37874 226.137C10.0895 225.771 10.6409 224.982 10.9231 224.465C11.4484 223.506 10.6409 222.463 9.55382 222.813Z" fill="white"/>
<path d="M24.9139 220.932C24.1352 222.364 21.9036 225.027 16.8994 222.037C16.8994 222.037 20.3801 222.084 21.5613 220.6C22.0473 219.988 22.9567 219.591 23.5394 219.4C24.6291 219.045 25.4366 219.968 24.9139 220.932Z" fill="white"/>
<path d="M2.17978 233.224C2.27908 233.18 12.2456 228.627 15.7812 223.859C19.3037 219.11 20.1765 217.493 20.2105 217.425L19.9544 217.289C19.9465 217.305 19.0502 218.961 15.5486 223.686C12.0575 228.395 2.15887 232.916 2.05957 232.96L2.17978 233.224Z" fill="white"/>
<path d="M169.235 40.9904L168.232 45.2081L168.893 45.3652L169.896 41.1475L169.235 40.9904Z" fill="white"/>
<path d="M167.038 42.3398L166.881 42.9982L171.103 44.0043L171.26 43.3459L167.038 42.3398Z" fill="white"/>
<path d="M60.5775 32.1064L59.5752 36.3241L60.2362 36.4812L61.2385 32.2635L60.5775 32.1064Z" fill="white"/>
<path d="M58.3756 33.4595L58.2188 34.1179L62.4411 35.124L62.598 34.4656L58.3756 33.4595Z" fill="white"/>
<path d="M58.3861 127.174L57.3838 131.392L58.0448 131.549L59.0471 127.331L58.3861 127.174Z" fill="white"/>
<path d="M56.1911 128.529L56.0342 129.188L60.2565 130.194L60.4134 129.535L56.1911 128.529Z" fill="white"/>
<path d="M133.693 159.514L132.69 163.731L133.351 163.889L134.354 159.671L133.693 159.514Z" fill="white"/>
<path d="M131.501 160.875L131.344 161.534L135.566 162.54L135.723 161.882L131.501 160.875Z" fill="white"/>
<path d="M239.726 169.564L238.724 173.782L239.385 173.939L240.387 169.721L239.726 169.564Z" fill="white"/>
<path d="M237.543 170.921L237.386 171.58L241.608 172.586L241.765 171.927L237.543 170.921Z" fill="white"/>
<path d="M307.311 166.033L306.309 170.251L306.97 170.408L307.972 166.19L307.311 166.033Z" fill="white"/>
<path d="M305.131 167.388L304.974 168.047L309.196 169.053L309.353 168.395L305.131 167.388Z" fill="white"/>
<path d="M337.836 121.421L336.834 125.639L337.495 125.796L338.497 121.578L337.836 121.421Z" fill="white"/>
<path d="M335.642 122.764L335.485 123.423L339.708 124.429L339.865 123.771L335.642 122.764Z" fill="white"/>
<path d="M345.022 50.0406L344.02 54.2583L344.681 54.4154L345.683 50.1977L345.022 50.0406Z" fill="white"/>
<path d="M342.825 51.3826L342.668 52.041L346.89 53.0471L347.047 52.3887L342.825 51.3826Z" fill="white"/>
<path d="M264.123 0.305954L263.121 4.52368L263.782 4.68076L264.784 0.463036L264.123 0.305954Z" fill="white"/>
<path d="M261.923 1.65057L261.767 2.30896L265.989 3.31507L266.146 2.65668L261.923 1.65057Z" fill="white"/>
<path d="M102.694 7.50917C101.808 7.50917 101.087 6.79056 101.087 5.9047C101.087 5.01885 101.808 4.30023 102.694 4.30023C103.58 4.30023 104.301 5.01885 104.301 5.9047C104.301 6.78794 103.58 7.50917 102.694 7.50917ZM102.694 4.85161C102.114 4.85161 101.641 5.32458 101.641 5.9047C101.641 6.48482 102.114 6.9578 102.694 6.9578C103.274 6.9578 103.747 6.48482 103.747 5.9047C103.747 5.32458 103.274 4.85161 102.694 4.85161Z" fill="white"/>
<path d="M295.587 18.2335C294.701 18.2335 293.979 17.5149 293.979 16.6291C293.979 15.7432 294.701 15.0246 295.587 15.0246C296.472 15.0246 297.194 15.7432 297.194 16.6291C297.194 17.5149 296.472 18.2335 295.587 18.2335ZM295.587 15.576C295.006 15.576 294.533 16.0489 294.533 16.6291C294.533 17.2092 295.006 17.6822 295.587 17.6822C296.167 17.6822 296.64 17.2092 296.64 16.6291C296.64 16.0489 296.167 15.576 295.587 15.576Z" fill="white"/>
<path d="M191.275 4.84377C190.389 4.84377 189.668 4.12515 189.668 3.2393C189.668 2.35344 190.389 1.63483 191.275 1.63483C192.161 1.63483 192.882 2.35344 192.882 3.2393C192.88 4.12254 192.158 4.84377 191.275 4.84377ZM191.275 2.1862C190.695 2.1862 190.222 2.65918 190.222 3.2393C190.222 3.81941 190.695 4.29239 191.275 4.29239C191.855 4.29239 192.328 3.81941 192.328 3.2393C192.328 2.65918 191.855 2.1862 191.275 2.1862Z" fill="white"/>
<path d="M345.69 85.1666C344.804 85.1666 344.083 84.448 344.083 83.5621C344.083 82.6763 344.804 81.9576 345.69 81.9576C346.576 81.9576 347.297 82.6763 347.297 83.5621C347.297 84.448 346.576 85.1666 345.69 85.1666ZM345.69 82.509C345.11 82.509 344.637 82.982 344.637 83.5621C344.637 84.1422 345.11 84.6152 345.69 84.6152C346.27 84.6152 346.743 84.1422 346.743 83.5621C346.743 82.982 346.27 82.509 345.69 82.509Z" fill="white"/>
<path d="M270.649 161.125C269.763 161.125 269.042 160.407 269.042 159.521C269.042 158.635 269.763 157.917 270.649 157.917C271.535 157.917 272.256 158.635 272.256 159.521C272.256 160.404 271.535 161.125 270.649 161.125ZM270.649 158.468C270.069 158.468 269.596 158.941 269.596 159.521C269.596 160.101 270.069 160.574 270.649 160.574C271.229 160.574 271.702 160.101 271.702 159.521C271.702 158.941 271.229 158.468 270.649 158.468Z" fill="white"/>
<path d="M190.979 165.659C190.093 165.659 189.372 164.941 189.372 164.055C189.372 163.169 190.093 162.45 190.979 162.45C191.865 162.45 192.586 163.169 192.586 164.055C192.586 164.941 191.865 165.659 190.979 165.659ZM190.979 163.004C190.399 163.004 189.926 163.477 189.926 164.057C189.926 164.637 190.399 165.11 190.979 165.11C191.559 165.11 192.032 164.637 192.032 164.057C192.035 163.475 191.562 163.004 190.979 163.004Z" fill="white"/>
<path d="M90.6042 160.929C89.7183 160.929 88.9971 160.211 88.9971 159.325C88.9971 158.439 89.7183 157.72 90.6042 157.72C91.49 157.72 92.2112 158.439 92.2112 159.325C92.2112 160.211 91.49 160.929 90.6042 160.929ZM90.6042 158.274C90.024 158.274 89.5511 158.747 89.5511 159.328C89.5511 159.908 90.024 160.381 90.6042 160.381C91.1843 160.381 91.6573 159.908 91.6573 159.328C91.6599 158.745 91.1869 158.274 90.6042 158.274Z" fill="white"/>
<path d="M64.2038 100.673C63.3179 100.673 62.5967 99.9543 62.5967 99.0685C62.5967 98.1826 63.3179 97.464 64.2038 97.464C65.0896 97.464 65.8109 98.1826 65.8109 99.0685C65.8109 99.9543 65.0896 100.673 64.2038 100.673ZM64.2038 98.018C63.6237 98.018 63.1507 98.491 63.1507 99.0711C63.1507 99.6512 63.6237 100.124 64.2038 100.124C64.7839 100.124 65.2569 99.6512 65.2569 99.0711C65.2569 98.4883 64.7839 98.018 64.2038 98.018Z" fill="white"/>
<path d="M291.966 151.124C290.35 151.124 288.72 150.679 287.146 149.843C285.948 149.132 280.598 148.547 274.064 148.589C267.196 148.589 258.782 149.09 251.231 150.135C248.305 150.525 245.059 150.72 241.813 150.72C234.499 150.692 227.324 149.801 223.758 147.697C222.588 146.987 221.626 145.984 221.612 144.604C221.71 142.57 223.396 141.08 226.53 139.338C229.72 137.611 234.61 135.73 241.743 133.64L242.328 135.646C235.279 137.708 230.487 139.575 227.519 141.177C224.51 142.765 223.605 144.172 223.702 144.604C223.688 144.883 223.925 145.357 224.844 145.914C225.736 146.457 227.143 146.973 228.885 147.377C232.354 148.199 237.076 148.631 241.813 148.631C244.975 148.631 248.138 148.436 250.952 148.059C258.628 147.001 267.099 146.499 274.078 146.499C280.821 146.527 285.934 146.889 288.149 148.004C289.459 148.7 290.754 149.035 291.98 149.035C293.722 149.035 295.31 148.366 296.634 146.945L298.166 148.352C296.48 150.191 294.279 151.124 291.994 151.124C291.98 151.124 291.966 151.124 291.966 151.124Z" fill="#24272B"/>
<path d="M343.139 83.7098H289.837V145.036H343.139V83.7098Z" fill="#C7EFFF"/>
<path opacity="0.5" d="M313.966 87.7917H294.602V139.06H313.966V87.7917Z" fill="white"/>
<path opacity="0.5" d="M335.56 87.7917H315.749V139.06H335.56V87.7917Z" fill="white"/>
<path d="M166.096 78.2207H86.6582V159.469H166.096V78.2207Z" fill="#68758E"/>
<path d="M165.371 158.62L202.791 162.924V76.1171L165.371 79.7393V158.62Z" fill="white"/>
<path d="M169.578 153.312L197.372 155.206V82.6509L169.578 85.479V153.312Z" fill="#C7EFFF"/>
<path d="M129.874 96.5963H122.365V106.404H129.874V96.5963Z" fill="white"/>
<path d="M105.815 156.544C98.2228 156.544 88.6797 155.053 76.5732 151.514L77.033 149.954C89.028 153.465 98.4457 154.928 105.815 154.928C121.001 154.886 127.479 148.895 130.906 141.581C134.305 134.239 134.347 125.504 135.977 120.127C138.151 113.133 137.649 100.469 138.527 89.7281L140.143 89.8674C139.251 100.497 139.808 113.119 137.524 120.614C135.977 125.56 135.949 134.518 132.383 142.278C128.844 150.052 121.488 156.558 105.983 156.558C105.927 156.544 105.871 156.544 105.815 156.544Z" fill="#B20000"/>
<path d="M140.966 96.2481C140.966 96.5128 140.743 96.7357 140.478 96.7357H137.26C136.995 96.7357 136.772 96.5128 136.772 96.2481V90.7869C136.772 90.5222 136.995 90.2993 137.26 90.2993H140.478C140.743 90.2993 140.966 90.5083 140.966 90.7869V96.2481Z" fill="black"/>
<path d="M141.773 95.245C141.773 95.6212 141.48 95.9137 141.104 95.9137H136.646C136.27 95.9137 135.978 95.6212 135.978 95.245V87.6663C135.978 87.3041 136.27 86.9976 136.646 86.9976H141.104C141.467 86.9976 141.773 87.3041 141.773 87.6663V95.245Z" fill="white"/>
<path d="M87.1729 155.986C99.5858 147.6 106.942 146.193 110.703 129.224C111.595 125.17 111.734 118.26 111.72 111.071C111.72 108.48 111.706 105.861 111.706 103.297C111.706 98.6861 111.762 94.3116 112.055 90.8008L113.671 90.9402C113.392 94.3534 113.336 98.7 113.336 103.297C113.336 105.847 113.35 108.466 113.35 111.071C113.35 118.302 113.239 125.212 112.291 129.572C108.488 147.126 100.143 149.244 88.0784 157.338L87.1729 155.986Z" fill="#5482EA"/>
<path d="M114.786 97.279C114.786 97.5437 114.563 97.7666 114.299 97.7666H111.08C110.816 97.7666 110.593 97.5577 110.593 97.279V91.804C110.593 91.5393 110.802 91.3163 111.08 91.3163H114.299C114.563 91.3163 114.786 91.5253 114.786 91.804V97.279Z" fill="black"/>
<path d="M115.593 96.3317C115.593 96.6939 115.301 97.0004 114.925 97.0004H110.467C110.09 97.0004 109.798 96.7078 109.798 96.3317V88.7669C109.798 88.3907 110.09 88.0981 110.467 88.0981H114.925C115.301 88.0981 115.593 88.4046 115.593 88.7669V96.3317Z" fill="white"/>
<path d="M42.2314 143.769C43.2066 151.835 43.8335 153.813 48.2498 155.847C50.2838 156.767 47.1353 159.581 47.1353 159.581C47.1353 159.581 40.9079 158.188 38.1355 156.767C34.388 154.858 36.4638 153.019 35.9901 144.981C35.7811 141.344 42.2314 143.769 42.2314 143.769Z" fill="#D3A994"/>
<path d="M47.7066 155.415C48.4171 156.335 48.2499 157.268 46.9543 157.533C45.0596 157.923 39.7517 156.46 35.6976 153.172C33.8726 160.055 36.5753 159.581 40.5876 159.149C41.4513 159.051 45.3521 163.482 53.0423 160.626C54.4355 160.11 52.7358 158.355 50.5207 157.213C48.3753 156.098 47.7066 155.415 47.7066 155.415Z" fill="black"/>
<path d="M47.5105 75.114C47.5105 75.114 43.3171 110.834 43.6097 115.251C44.7103 132.038 44.9053 152.016 44.9053 152.016L32.6874 152.086C32.6874 152.086 32.2416 133.501 33.4815 117.062C31.4335 101.124 34.2198 86.8304 34.2198 86.8304L47.5105 75.114Z" fill="black"/>
<path d="M26.028 147.279C26.0419 155.415 26.432 157.449 30.5836 159.985C32.5061 161.155 29.0372 163.579 29.0372 163.579C29.0372 163.579 23.0188 161.461 20.4275 159.72C16.9446 157.38 19.2155 155.791 19.6891 147.767C19.912 144.131 26.028 147.279 26.028 147.279Z" fill="#D3A994"/>
<path d="M30.0963 159.483C30.6814 160.486 29.2047 161.768 27.909 161.991C24.3704 162.618 22.0717 159.581 18.4495 155.847C15.8304 162.479 19.9123 163.036 21.2637 162.618C22.0996 162.353 23.7853 167.786 31.8656 166.365C35.4042 165.739 34.7494 162.994 32.7015 161.601C30.6814 160.25 30.0963 159.483 30.0963 159.483Z" fill="black"/>
<path d="M51.649 75.2394C51.649 75.2394 46.3132 71.1853 45.6306 73.2333C44.9479 75.2812 45.6863 77.9282 45.338 82.2052C45.2405 83.5147 42.9557 117.494 42.7746 118.929C41.3815 129.753 40.7963 146.067 42.5378 152.155L44.8922 152.016C44.8922 152.016 44.4882 129.74 46.1461 119.333C46.5083 117.048 46.968 106.167 46.968 106.167C46.968 106.167 47.9432 90.6059 51.649 75.2394Z" fill="#212121"/>
<path d="M34.6388 63.8434C31.142 67.9393 25.9316 73.1914 25.4301 78.6944C25.1932 81.1185 23.605 102.155 20.2197 119.987C17.0572 136.162 16.9736 154.997 16.9736 154.997L27.2133 155.513C27.2133 155.513 28.4393 137.054 31.337 121.353C32.1451 116.992 44.4466 76.8276 44.4466 76.8276L34.6388 63.8434Z" fill="black"/>
<path d="M52.7632 71.3525C52.7632 71.3525 47.4274 69.0538 46.912 69.0538C46.5219 69.0538 43.3316 74.5149 41.5344 80.408L35.6692 99.7867C35.6692 99.7867 30.2081 119.054 29.8598 120.461C27.2128 131.049 25.0952 150.748 24.6494 155.527L28.7592 155.68C28.7592 155.68 29.3443 133.445 34.4572 121.492C35.9339 118.051 41.9524 91.595 52.7632 71.3525Z" fill="#212121"/>
<path d="M62.3059 35.6599C62.1944 34.615 60.1186 33.5702 59.2827 35.5624C58.4468 37.5407 59.3942 39.1985 60.2162 39.1985C61.052 39.1985 62.3059 35.6599 62.3059 35.6599Z" fill="#E5C0AE"/>
<path d="M75.6246 30.2963C74.3151 33.5841 76.8924 52.726 71.0412 55.7074C71.3059 55.0108 71.4731 53.4087 71.9049 51.9877C70.7208 55.1919 70.1635 54.3003 68.4221 54.76L64.5352 47.2092L65.2317 38.4184L75.6246 30.2963Z" fill="#212121"/>
<path d="M66.6385 44.4925C67.544 46.0528 68.77 58.9673 69.2158 62.492C69.6616 66.0167 74.6212 78.3321 75.7218 80.7562C73.5206 82.3026 69.383 81.7732 69.383 81.7732C69.383 81.7732 60.8847 69.0119 61.1773 59.7475C61.2748 56.8776 66.6385 44.4925 66.6385 44.4925Z" fill="#9E0017"/>
<path d="M57.375 48.9506L53.0283 34.5454C53.0283 34.5454 55.536 36.0778 60.4678 24.863L62.3346 29.7947L62.3485 29.8087H62.3764V29.8226L66.9041 34.7822C61.3176 41.7201 65.915 44.9383 65.915 44.9383L57.375 48.9506Z" fill="#E5C0AE"/>
<path d="M64.1452 32.9851L64.187 32.999V33.013L67.656 34.9634C67.5166 35.242 67.1544 40.6474 66.7225 41.8873C65.1761 42.7511 57.8621 46.025 53.0279 47.5853C52.387 47.7943 51.8297 38.9617 53.3622 38.4462C56.3854 37.4153 57.876 35.3534 58.8094 33.9185C59.2274 33.2777 60.6484 30.5749 61.1778 29.4883L64.1452 32.9851Z" fill="url(#paint0_linear_511_8718)"/>
<path d="M66.3181 47.028C66.3181 48.4212 64.9667 52.9907 63.7407 59.3713C63.3507 61.4053 58.9344 64.4146 58.1821 65.9331C57.4298 67.4516 53.4175 77.956 51.6761 81.4807C49.043 81.6478 42.0633 79.572 37.5774 74.4313C37.5774 74.4313 29.107 70.2519 29.9847 68.1064C31.6147 64.122 35.0418 60.458 37.034 53.4644C37.8142 50.7059 42.3419 41.7898 44.0834 40.0762C46.5214 37.68 49.9068 37.5407 55.2843 36.2729C55.2843 36.2729 54.6435 44.4507 60.3415 45.5373C64.7577 46.3732 63.8522 41.1211 64.2283 39.9508C64.2841 39.8115 64.3955 41.2186 65.2314 42.2774C67.4047 45.0358 66.3181 45.9692 66.3181 47.028Z" fill="#D10000"/>
<path d="M60.2454 30.2406C58.7408 35.6321 61.6803 41.7759 65.3025 42.7093C67.8102 43.3641 70.9448 41.0375 74.7899 34.9495C77.9384 29.948 78.1195 24.5844 71.307 21.7284C64.8706 19.0675 61.8057 24.5844 60.2454 30.2406Z" fill="#E5C0AE"/>
<path d="M60.2586 30.3242C60.9969 27.6772 62.0697 25.0581 63.6718 23.3027L67.9348 25.5457L67.9766 26.3955C65.8869 28.945 64.0619 32.2468 63.3374 35.6879C62.6826 38.8224 64.4937 42.1521 66.6671 42.8765C66.6253 42.8626 65.246 42.7372 65.2042 42.7233C61.5542 41.9431 58.7679 35.7296 60.2586 30.3242Z" fill="#D3A994"/>
<path d="M67.2107 27.1478C75.7368 27.2314 76.2801 30.8954 75.7646 33.3612C78.0773 31.2994 77.9937 24.6122 74.1764 22.2578C69.6626 19.4854 68.0187 19.8337 67.2525 21.3941C66.2633 23.4002 67.2107 27.1478 67.2107 27.1478Z" fill="#212121"/>
<path d="M68.4228 20.5721C66.5003 18.9282 58.9355 20.4885 58.0578 29.5997C57.5702 34.7822 58.9773 36.3008 58.9773 36.3008L62.084 30.7978L68.6736 26.493L68.4228 20.5721Z" fill="black"/>
<path d="M68.9115 26.089C69.204 27.6076 70.1374 27.6772 71.8789 28.5967C73.6203 29.5162 75.4175 31.4527 74.4562 33.0409C75.1806 33.0687 77.0057 31.7452 75.5289 28.7917C74.0383 25.8383 68.8418 25.7825 68.8418 25.7825L68.9115 26.089Z" fill="#212121"/>
<path d="M61.9865 31.8009C60.5794 34.0857 59.0469 54.1888 62.1676 53.8963C61.1506 54.2446 57.5841 54.0356 56.4696 50.8174C55.5641 48.1983 56.4696 47.5574 56.4696 47.5574C56.4696 47.5574 54.7978 50.8871 56.2606 52.0991C56.2606 52.0991 51.1478 50.2462 50.2701 44.2696C49.3785 38.293 58.3225 23.3027 62.3069 21.6309C66.2774 19.9591 61.9865 31.8009 61.9865 31.8009Z" fill="black"/>
<path d="M63.7972 29.7948C63.3374 29.126 62.404 28.6245 61.9025 29.3907C61.4009 30.157 60.4536 33.0965 61.3173 33.7513C62.1672 34.3922 63.7972 29.7948 63.7972 29.7948Z" fill="#D3A994"/>
<path d="M60.6627 79.781C61.9166 81.5642 65.5805 82.832 65.2183 83.25C64.4242 84.1694 65.3716 85.284 65.3716 85.284C65.3716 85.284 66.5836 87.0811 66.9319 87.3458C67.2663 87.6245 68.1857 88.8086 67.8932 88.9897C67.6006 89.1848 66.4861 88.2792 66.305 87.9867C66.1099 87.6941 65.3437 87.0811 65.3437 87.0811C65.3437 87.0811 66.9598 88.8086 67.2105 89.0176C67.4613 89.2126 67.3777 89.8117 66.7229 89.5609C66.0681 89.3241 64.0759 87.6105 64.0759 87.6105C64.0759 87.6105 66.4443 89.8953 66.1517 90.0764C65.8592 90.2575 64.9815 89.4634 64.2153 88.8365C63.449 88.2235 63.1007 87.9449 63.1007 87.9449C63.1007 87.9449 65.3994 89.7281 64.9954 90.1043C64.7307 90.355 64.2153 89.9371 62.0141 88.3907C60.5513 87.3598 57.765 84.0858 57.5142 82.637C57.2634 81.1742 60.6627 79.781 60.6627 79.781Z" fill="#E5C0AE"/>
<path d="M49.8646 44.59C50.8955 47.5156 50.4636 60.3326 51.3413 62.8124C52.219 65.2922 62.1522 79.8507 62.1522 79.8507L56.1895 87.2622C56.1895 87.2622 44.6263 72.258 43.0103 67.9253C40.8927 62.1855 39.7921 41.5669 44.4313 39.8951C49.5999 38.0143 49.8646 44.59 49.8646 44.59Z" fill="#9E0017"/>
<path d="M87.1466 158.954L64.9258 164.387V76.5211L87.1466 80.1432V158.954Z" fill="white"/>
<path d="M86.0734 153.966L70.3447 157.811V83.041L86.0734 85.6044V153.966Z" fill="#C7EFFF"/>
<path d="M126.405 131.328C126.405 124.766 131.713 119.458 138.275 119.444H158.754V124.195H138.275C134.346 124.195 131.156 127.385 131.156 131.314H126.405V131.328Z" fill="#C7EFFF"/>
<path d="M128.843 105.109H123.396V114.916H128.843V105.109Z" fill="white"/>
<path d="M130.905 106.237C130.905 107.379 129.86 108.299 128.564 108.299H123.688C122.393 108.299 121.348 107.379 121.348 106.237V105.54C121.348 104.398 122.393 103.479 123.688 103.479H128.564C129.86 103.479 130.905 104.398 130.905 105.54V106.237Z" fill="#C7EFFF"/>
<path d="M130.39 115.139C130.39 116.156 129.456 116.978 128.3 116.978H123.939C122.783 116.978 121.85 116.156 121.85 115.139V114.526C121.85 113.509 122.783 112.687 123.939 112.687H128.3C129.456 112.687 130.39 113.509 130.39 114.526V115.139Z" fill="#C7EFFF"/>
<path d="M132.061 117.786C132.061 116.644 131.142 115.724 129.999 115.724H122.253C121.111 115.724 120.191 116.644 120.191 117.786V130.478C120.191 130.868 120.303 131.244 120.498 131.551C121.167 133.403 123.41 134.783 126.126 134.783C128.829 134.783 131.086 133.417 131.741 131.565C131.936 131.244 132.061 130.882 132.061 130.478V117.786Z" fill="white"/>
<path d="M134.736 94.0608C134.736 97.5855 130.877 100.441 126.126 100.441C121.376 100.441 117.517 97.5855 117.517 94.0608C117.517 90.5361 121.362 87.6802 126.126 87.6802C130.877 87.6802 134.736 90.5361 134.736 94.0608Z" fill="#C7EFFF"/>
<path d="M158.574 90.564C158.574 93.1274 155.857 95.2032 152.5 95.2032H99.9921C96.6346 95.2032 93.918 93.1274 93.918 90.564V79.4327C93.918 76.8693 96.6346 76.0474 99.9921 76.0474H152.5C155.857 76.0474 158.574 76.8693 158.574 79.4327V90.564Z" fill="#C7EFFF"/>
<path d="M161.792 74.4592C165.317 75.2254 165.149 75.9917 160.566 75.9917H92.1344C87.5509 75.9917 87.1051 75.2254 90.3512 74.4592L96.3975 72.5366C97.6931 72.2302 100.465 72.0212 102.708 72.0212H149.588C151.845 72.0212 154.687 72.2441 156.108 72.5366L161.792 74.4592Z" fill="white"/>
<path d="M157.223 75.0304C160.176 75.6713 160.037 76.3121 156.206 76.3121H96.4676C92.6364 76.3121 92.2603 75.6713 94.9769 75.0304L99.6858 73.4283C100.772 73.1636 103.085 72.9825 104.966 72.9825H147.554C149.449 72.9825 151.818 73.1636 153.002 73.4283L157.223 75.0304Z" fill="#8494AF"/>
<path d="M166.947 79.7671C166.947 80.3801 165.93 80.8817 164.676 80.8817H87.8294C86.5756 80.8817 85.5586 80.3801 85.5586 79.7671V76.2285C85.5586 75.6155 86.5756 75.114 87.8294 75.114H164.676C165.93 75.114 166.947 75.6155 166.947 76.2285V79.7671V79.7671Z" fill="white"/>
<path d="M123.441 157.421C123.134 157.324 122.256 157.073 120.933 157.282C119.749 157.463 118.76 156.599 118.425 155.36C118.119 154.217 118.147 152.685 118.523 152.601C118.955 152.504 119.275 153.966 119.846 154.231C120.668 154.607 121.685 153.604 121.685 153.604L123.859 151.18C123.859 151.18 124.973 151.946 125.168 152.949C125.293 153.548 126.45 154.705 126.728 154.719C126.993 154.76 123.441 157.421 123.441 157.421Z" fill="#8494AF"/>
<path d="M123.468 151.793C123.175 151.166 120.375 151.083 119.999 151.305C120.877 152.392 122.841 154.51 122.841 154.51L123.468 151.793Z" fill="#8494AF"/>
<path d="M123.454 151.626C122.967 151.152 120.556 151.11 120.25 151.222C120.654 151.723 121.49 152.531 122.047 153.13C122.047 153.13 120.849 154.579 120.125 154.245C119.623 154.022 118.954 152.545 118.564 152.573C118.327 152.587 118.244 153.897 118.509 154.914C118.815 156 119.86 156.655 120.919 156.572C122.939 156.418 123.858 156.683 124.499 157.059C124.499 157.059 126.84 154.621 126.589 154.593C126.338 154.565 125.224 153.298 125.112 152.754C124.931 151.877 123.844 151.166 123.844 151.166L123.454 151.626Z" fill="#B4C1D1"/>
<path d="M125.237 156.586C124.749 156.363 123.76 155.861 123.76 155.861C123.76 155.861 122.994 154.802 123.078 154.677C123.161 154.552 123.858 153.911 124.429 153.256C124.527 153.131 124.958 154.343 125.112 154.44C125.265 154.538 126.519 155.248 126.519 155.248L125.237 156.586Z" fill="#8494AF"/>
<path d="M123.133 157.338L141.146 166.115C142.219 166.602 143.891 165.376 144.378 164.304C144.866 163.231 144.42 161.768 143.347 161.28L126.337 154.12L123.133 157.338ZM142.149 162.492C142.525 162.674 142.693 163.119 142.525 163.496C142.358 163.872 141.913 164.039 141.536 163.872C141.16 163.705 140.993 163.259 141.16 162.869C141.313 162.492 141.773 162.325 142.149 162.492Z" fill="#9E0017"/>
<path d="M123.731 156.725L141.383 165.349C142.051 165.655 143.263 164.596 143.556 163.928C143.862 163.259 143.737 162.033 143.068 161.726L126.197 154.343L123.731 156.725ZM142.149 162.493C142.525 162.674 142.692 163.12 142.525 163.496C142.358 163.872 141.912 164.039 141.536 163.872C141.16 163.705 140.993 163.259 141.16 162.869C141.313 162.493 141.773 162.325 142.149 162.493Z" fill="#D10000"/>
<path d="M139.126 160.18C139.934 158.592 141.063 157.226 141.926 156.627C141.926 156.627 138.416 152.88 135.17 152.531C134.891 152.504 134.724 153.367 132.69 153.939C130.322 154.203 128.274 154.384 128.455 155.248C128.622 156.07 131.227 155.722 131.283 156.335C131.283 156.335 130.935 157.171 130.642 157.477C130.21 157.923 129.43 158.787 128.956 159.121C128.148 159.678 127.535 159.581 127.284 159.859C126.908 160.305 127.828 161.169 128.092 161.28C128.984 161.448 129.75 161.308 129.75 161.308L130.656 162.534C130.656 162.534 133.177 164.164 133.749 164.192C134.334 164.22 137.064 163.565 139.126 160.18Z" fill="#FF960B"/>
<path d="M144.42 113.621C142.177 114.526 140.978 136.455 140.978 136.455C140.978 136.455 133.539 152.559 133.539 153.911C135.615 156.822 139.822 161.824 141.995 159.846C142.497 159.386 146.969 152.044 151.636 141.735C154.687 134.992 155.217 126.689 155.69 122.927C156.387 117.368 153.642 113.44 150.508 112.757C147.373 112.088 144.42 113.621 144.42 113.621Z" fill="#0D2E99"/>
<path d="M141.342 102.81C138.639 102.28 137.706 102.336 136.34 101.222C134.975 100.107 131.938 99.118 130.155 99.6195C129.263 99.8703 127.926 100.971 126.727 102.099C124.861 103.841 124.847 104.579 125.46 104.663C126.56 104.816 127.605 103.841 128.344 103.757C129.751 103.59 130.531 104.245 131.199 105.122C131.868 106 127.522 107.254 127.995 108.591C128.302 109.455 131.241 108.285 132.718 108.355C136.396 108.522 134.682 107.003 138.04 109.065C138.918 109.595 141.342 102.81 141.342 102.81Z" fill="#F7530B"/>
<path d="M139.67 102.336C141.258 102.141 165.596 105.359 165.596 105.359L164.566 118.58C164.566 118.58 137.901 112.046 137.706 111.461C137.497 110.848 139.67 102.336 139.67 102.336Z" fill="#0D2E99"/>
<path d="M191.12 148.881C194.561 150.539 196.553 152.518 196.163 154.106C195.912 155.123 194.31 159.692 194.31 159.692C194.31 159.692 194.422 161.852 193.028 165.265C191.872 168.065 187.553 168.595 184.07 167.466C183.081 167.146 182.218 165.557 184.447 163.705C186.912 161.671 186.007 158.982 185.784 157.24C185.269 153.451 183.053 152.518 183.053 152.518L191.12 148.881Z" fill="#24272B"/>
<path d="M195.272 152.197C193.321 151.487 191.789 153.312 190.967 159.316C190.535 162.534 187.623 166.449 184.043 167.383C183.277 167.578 192.165 169.208 193.795 164.29C195.439 159.372 195.146 157.63 196.024 156.014C197.347 153.576 195.272 152.197 195.272 152.197Z" fill="black"/>
<path d="M188.779 144.632L193.488 149.745L185.31 157.533C185.31 157.533 171.991 148.31 171.378 147.293C170.751 146.276 188.779 144.632 188.779 144.632Z" fill="#0D2E99"/>
<path d="M175.334 153.242C178.762 154.9 181.06 156.948 182.286 160.222C182.955 162.005 180.141 164.749 180.141 164.749C180.141 164.749 178.26 166.17 176.853 169.57C175.697 172.37 168.759 172.635 165.234 171.868C164.217 171.645 162.197 170.057 163.702 167.564C164.802 165.725 169.65 166.087 169.79 164.345C170.305 158.104 165.945 157.895 165.945 157.895L175.334 153.242Z" fill="black"/>
<path d="M169.902 135.577C165.611 133.738 148.405 127.901 145.34 132.205C142.262 136.51 141.649 143.267 146.566 146.332C151.484 149.411 167.032 165.07 167.032 165.07C167.032 165.07 181.158 158.926 181.158 157.087C181.158 155.248 175.112 148.784 175.112 148.784L167.129 143.253L169.902 135.577Z" fill="#000F66"/>
<path d="M189.795 126.201C191.843 128.249 196.956 137.875 194.908 142.793C192.86 147.711 186.731 152.629 176.073 150.985C165.429 149.341 159.703 146.067 158.059 143.615C156.416 141.163 160.107 134.602 160.107 134.602L189.795 126.201Z" fill="#000F66"/>
<path d="M138.946 97.7249C140.242 103.785 144.783 109.581 147.277 109.469C149.757 109.344 154.577 101.528 154.368 96.7218C154.159 91.9154 150.648 87.8613 146.023 88.7808C140.994 89.7839 137.957 93.0299 138.946 97.7249Z" fill="#E5C0AE"/>
<path d="M137.831 95.05C135.936 93.6012 142.303 84.0023 149.589 85.3119C156.875 86.6215 158.352 92.3752 158.533 96.081C158.714 99.8007 158.115 100.915 159.174 101.152C160.609 101.472 150.105 104.9 150.105 104.9C150.105 104.9 146.204 102.267 146.218 101.403C146.288 97.8503 143.822 97.3487 143.71 98.5747C143.613 99.536 143.529 100.274 143.529 100.274L142.805 100.316C142.805 100.316 139.364 98.2125 138.681 97.5577C137.998 96.8751 137.831 95.05 137.831 95.05Z" fill="#300901"/>
<path d="M162.726 99.2155C165.248 99.1598 171.698 100.72 176.769 105.345C180.823 109.051 191.091 124.39 194.922 133.682C192.317 135.828 169.622 146.471 161.932 135.312C158.909 130.91 155.607 128.179 155.607 128.179C155.607 128.179 154.911 116.895 143.64 115.014C143.64 115.014 142.943 113.133 147.206 109.177C148.906 107.602 149.686 105.276 151.219 104.147C153.796 102.197 156.582 99.3688 162.726 99.2155Z" fill="#000F66"/>
<path d="M195.548 132.818C195.562 132.777 187.928 116.63 176.81 105.318C172.004 100.414 165.303 99.1319 162.767 99.1876C160.009 99.2573 157.933 99.8703 156.233 100.692C160.524 101.458 179.959 113.495 190.784 134.769C192.191 137.764 194.03 142.849 192.4 146.513C191.787 147.934 198.961 140.16 195.548 132.818Z" fill="#0D2E99"/>
<path d="M161.236 99.6613L158.074 97.9756C158.074 97.9756 148.377 102.434 147.486 106.293C147.291 108.173 148.475 108.773 148.475 108.773C148.475 108.773 156.388 101.849 158.575 101.054C160.748 100.246 161.236 99.6613 161.236 99.6613Z" fill="#0D2E99"/>
<path d="M142.231 72.467C140.643 70.1961 139.765 67.8278 140.378 65.348H137.703C138.33 67.8138 136.366 71.7425 135.237 72.467H142.231Z" fill="white"/>
<path d="M142.845 66.1839C142.803 66.4207 141.145 66.2814 139.167 65.8495C137.175 65.4315 135.614 64.9022 135.656 64.6653C135.712 64.4285 137.356 64.5678 139.348 64.9997C141.326 65.4037 142.9 65.947 142.845 66.1839Z" fill="white"/>
<path d="M142.231 66.0585C142.3 65.7242 142.635 65.5013 142.969 65.5709C143.303 65.6406 143.526 65.9749 143.443 66.3093C143.373 66.6437 143.039 66.8666 142.704 66.7969C142.384 66.7272 142.161 66.3929 142.231 66.0585Z" fill="white"/>
<path d="M135.223 64.5678C135.293 64.2335 135.627 64.0105 135.962 64.0802C136.296 64.1499 136.519 64.4842 136.449 64.8186C136.38 65.1529 136.045 65.3758 135.711 65.3062C135.363 65.2505 135.154 64.9161 135.223 64.5678Z" fill="white"/>
<path d="M141.8 64.3171C141.883 64.5121 140.643 65.2226 139.013 65.8913C137.397 66.574 136.032 66.964 135.948 66.769C135.865 66.574 137.105 65.8635 138.721 65.1947C140.337 64.5121 141.716 64.122 141.8 64.3171Z" fill="white"/>
<path d="M141.298 64.526C141.187 64.2474 141.312 63.927 141.591 63.8155C141.87 63.7041 142.176 63.8295 142.301 64.1081C142.413 64.3867 142.287 64.6932 142.009 64.8186C141.73 64.93 141.424 64.8047 141.298 64.526Z" fill="white"/>
<path d="M135.614 66.978C135.461 66.6158 135.628 66.1839 136.004 66.0306C136.367 65.8774 136.798 66.0446 136.952 66.4068C137.105 66.769 136.938 67.2009 136.562 67.3541C136.185 67.5213 135.767 67.3402 135.614 66.978Z" fill="white"/>
<path d="M117.866 72.467C116.277 70.1961 115.4 67.8278 116.013 65.348H113.338C113.965 67.8138 112.001 71.7425 110.872 72.467H117.866Z" fill="white"/>
<path d="M118.465 66.1839C118.409 66.4207 116.765 66.2814 114.787 65.8495C112.795 65.4315 111.234 64.9022 111.276 64.6653C111.318 64.4285 112.976 64.5678 114.968 64.9997C116.946 65.4037 118.521 65.947 118.465 66.1839Z" fill="white"/>
<path d="M117.867 66.0585C117.937 65.7242 118.271 65.5013 118.605 65.5709C118.954 65.6406 119.163 65.9749 119.093 66.3093C119.023 66.6437 118.689 66.8666 118.354 66.7969C118.006 66.7272 117.797 66.3929 117.867 66.0585Z" fill="white"/>
<path d="M110.845 64.5678C110.914 64.2335 111.249 64.0105 111.583 64.0802C111.918 64.1499 112.14 64.4842 112.071 64.8186C112.001 65.1529 111.667 65.3758 111.332 65.3062C110.998 65.2505 110.775 64.9161 110.845 64.5678Z" fill="white"/>
<path d="M117.42 64.3171C117.503 64.5121 116.263 65.2226 114.647 65.8913C113.031 66.574 111.652 66.964 111.568 66.769C111.485 66.574 112.725 65.8635 114.341 65.1947C115.971 64.5121 117.35 64.122 117.42 64.3171Z" fill="white"/>
<path d="M116.933 64.526C116.822 64.2474 116.947 63.927 117.226 63.8155C117.504 63.7041 117.811 63.8295 117.936 64.1081C118.048 64.3867 117.922 64.6932 117.644 64.8186C117.365 64.93 117.045 64.8047 116.933 64.526Z" fill="white"/>
<path d="M111.234 66.978C111.081 66.6158 111.262 66.1839 111.624 66.0306C111.987 65.8774 112.405 66.0446 112.558 66.4068C112.711 66.769 112.544 67.2009 112.168 67.3541C111.819 67.5213 111.388 67.3402 111.234 66.978Z" fill="white"/>
<path d="M129.163 63.3837H123.883V72.5227H129.163V63.3837Z" fill="white"/>
<path d="M127.91 57.421H125.151V66.56H127.91V57.421Z" fill="white"/>
<path d="M120.317 60.5834C120.317 59.0788 121.529 57.8668 123.034 57.8668H126.489V59.4967H123.034C122.435 59.4967 121.947 59.9843 121.947 60.5834H120.317V60.5834Z" fill="white"/>
<path d="M112.389 154.343C112.389 154.802 111.999 155.192 111.512 155.192H84.0388C83.5512 155.192 83.1611 154.816 83.1611 154.343V149.494C83.1611 149.035 83.5512 148.645 84.0388 148.645H111.512C111.999 148.645 112.389 149.021 112.389 149.494V154.343Z" fill="black"/>
<path d="M109.868 174.098C109.868 174.557 109.464 174.933 108.962 174.933H102.623L102.164 174.098L93.4704 174.028L93.0107 174.947H86.5604C86.0589 174.947 85.6548 174.571 85.6548 174.111L83.8438 154.134C83.8438 153.66 84.2478 153.284 84.7493 153.284H110.773C111.275 153.284 111.679 153.66 111.679 154.134L109.868 174.098Z" fill="black"/>
<path d="M102.415 159.191H93.1087C92.6071 159.191 92.2031 159.567 92.2031 160.041L91.1025 174.947H93.1923L94.1675 161.698C94.1675 161.406 94.4322 161.155 94.7526 161.155H100.757C101.078 161.155 101.342 161.406 101.342 161.698L102.317 174.947H104.407L103.307 160.041C103.334 159.567 102.916 159.191 102.415 159.191Z" fill="#212121"/>
<path d="M114.215 155.819C114.215 156.293 113.811 156.669 113.323 156.669H82.2002C81.7126 156.669 81.3086 156.293 81.3086 155.819V152.727C81.3086 152.267 81.7126 151.877 82.2002 151.877H113.323C113.811 151.877 114.215 152.253 114.215 152.727V155.819Z" fill="#212121"/>
<path d="M81.2949 153.757V152.922C81.2949 152.309 81.6711 151.807 82.1308 151.807H113.421C113.881 151.807 114.257 152.309 114.257 152.922V153.757H81.2949Z" fill="black"/>
<path d="M97.7758 152.796C99.2943 152.796 100.52 151.57 100.52 150.052C100.52 149.536 100.367 149.062 100.116 148.645H95.4353C95.1845 149.049 95.0312 149.536 95.0312 150.052C95.0312 151.57 96.2572 152.796 97.7758 152.796Z" fill="#212121"/>
<path d="M99.4889 150.4C99.4889 150.874 99.1964 151.25 98.8342 151.25H96.7026C96.3404 151.25 96.0479 150.874 96.0479 150.4V139.213C96.0479 138.753 96.3404 138.363 96.7026 138.363H98.8342C99.1964 138.363 99.4889 138.739 99.4889 139.213V150.4Z" fill="black"/>
<path d="M102.375 165.237C102.25 164.972 101.901 164.262 100.982 163.523C100.174 162.869 100.146 161.712 100.745 160.765C101.302 159.887 102.319 158.996 102.598 159.191C102.918 159.414 102.166 160.486 102.319 161.016C102.556 161.782 103.81 161.838 103.81 161.838L106.666 161.824C106.666 161.824 106.819 162.994 106.29 163.718C105.969 164.15 105.914 165.571 106.053 165.78C106.206 165.961 102.375 165.237 102.375 165.237Z" fill="#8494AF"/>
<path d="M106.053 161.921C106.276 161.364 104.674 159.511 104.312 159.372C104.131 160.584 103.922 163.105 103.922 163.105L106.053 161.921Z" fill="#8494AF"/>
<path d="M106.135 161.81C106.149 161.225 104.742 159.623 104.505 159.497C104.422 160.054 104.394 161.071 104.324 161.796C104.324 161.796 102.68 161.879 102.471 161.197C102.318 160.737 102.889 159.441 102.639 159.191C102.485 159.037 101.594 159.762 101.092 160.542C100.549 161.378 100.758 162.451 101.44 163.092C102.736 164.317 103.112 165.056 103.238 165.697C103.238 165.697 106.191 165.78 106.066 165.613C105.94 165.432 106.107 163.969 106.386 163.579C106.86 162.938 106.679 161.824 106.679 161.824L106.135 161.81Z" fill="#B4C1D1"/>
<path d="M103.976 165.906C103.837 165.46 103.572 164.512 103.572 164.512C103.572 164.512 103.809 163.398 103.934 163.37C104.074 163.342 104.896 163.426 105.662 163.412C105.801 163.412 105.272 164.401 105.3 164.554C105.328 164.708 105.606 165.947 105.606 165.947L103.976 165.906Z" fill="#8494AF"/>
<path d="M102.248 164.972L107.194 181.857C107.5 182.832 109.297 183.209 110.287 182.888C111.262 182.568 111.958 181.411 111.638 180.436L106.232 165.167L102.248 164.972ZM110.133 180.366C110.245 180.715 110.064 181.091 109.701 181.202C109.353 181.314 108.977 181.119 108.879 180.771C108.768 180.422 108.949 180.046 109.297 179.935C109.646 179.823 110.022 180.018 110.133 180.366Z" fill="#9E0017"/>
<path d="M103 165L107.834 181.551C108.043 182.164 109.436 182.317 110.035 182.122C110.648 181.927 111.373 181.119 111.164 180.506L105.995 165.195L103 165ZM110.133 180.367C110.244 180.715 110.063 181.091 109.701 181.202C109.353 181.314 108.977 181.119 108.879 180.771C108.768 180.422 108.949 180.046 109.297 179.935C109.645 179.823 110.021 180.018 110.133 180.367Z" fill="#D10000"/>
<path d="M84.1382 162.938L84.1522 162.924C84.1522 162.924 84.1522 162.91 84.1661 162.91C84.2357 162.841 84.4726 162.813 84.5004 162.562C84.5144 162.409 84.5144 162.381 84.5144 162.381C84.5144 162.381 84.6676 162.325 84.793 162.13C84.8766 161.991 84.8209 161.838 84.8069 161.824V161.81C84.8348 161.81 84.988 161.726 85.0577 161.601C85.1692 161.406 85.0856 161.322 85.2388 161.239L85.1831 161.169L87.844 156.655C88.0669 156.279 87.8997 155.763 87.4679 155.513L87.3982 155.471C86.9663 155.22 86.4369 155.318 86.214 155.694L83.5531 160.194L83.4556 160.166C83.4556 160.347 83.3302 160.319 83.2187 160.5C83.1352 160.639 83.163 160.835 83.163 160.835C83.163 160.835 82.9819 160.848 82.8983 161.002C82.7869 161.197 82.8008 161.364 82.8008 161.364C82.8008 161.364 82.7729 161.378 82.6475 161.461C82.4386 161.615 82.5361 161.838 82.5082 161.921C82.4804 162.005 82.355 161.963 82.2575 162.144C82.1599 162.311 82.2296 162.395 82.1878 162.465C82.1599 162.52 81.9231 162.646 81.9092 162.827C81.9092 162.896 81.9231 162.938 81.9231 162.98C81.8395 163.259 82.2296 163.328 82.6058 163.551L82.6754 163.593C83.0655 163.816 83.3163 164.136 83.5113 163.913C83.5531 163.899 83.581 163.886 83.6367 163.858C83.7899 163.774 83.7899 163.495 83.8178 163.44C83.8596 163.384 83.9571 163.398 84.0546 163.217C84.1661 163.091 84.1104 163.008 84.1382 162.938Z" fill="#B4C1D1"/>
<path d="M83.4135 163.287C83.3717 163.342 82.4801 162.896 82.5498 162.771L84.7928 158.968C84.9181 158.773 85.1968 158.717 85.4197 158.856L85.4475 158.87C85.6844 159.01 85.768 159.274 85.6426 159.483L83.4135 163.287Z" fill="#8494AF"/>
<path d="M94.0837 155.986C93.9862 155.819 90.169 152.977 89.347 153.339C88.5111 153.702 87.2852 156.488 87.2852 156.488L88.2325 156.85L89.5421 154.649C89.5421 154.649 89.6814 154.37 90.0993 154.454L90.0715 154.51L90.6287 154.677C90.6566 154.691 90.6287 154.691 90.6566 154.705L90.6287 154.816L91.1442 154.983L91.1581 154.997L91.1024 155.109L91.6039 155.248C91.6039 155.248 91.6179 155.248 91.6179 155.262L91.5203 155.36L92.0219 155.513C92.0358 155.513 92.0497 155.527 92.0637 155.541L91.9801 155.638L92.5513 155.833C92.5652 155.847 92.5791 155.847 92.5931 155.861L92.5095 155.959L93.011 156.112C93.011 156.112 93.011 156.112 93.0249 156.126L92.9692 156.251L93.3732 156.335H93.3872C93.3872 156.335 94.1673 156.154 94.0837 155.986Z" fill="#212121"/>
<path d="M92.2181 154.691L93.9177 155.652C94.1406 154.956 93.8063 154.37 93.0818 153.493L91.7444 152.086C90.1841 150.4 88.9302 151.083 88.4148 151.974L85.8792 156.279C85.3777 157.129 85.6284 158.202 86.4225 158.759L89.0556 154.315C89.5571 153.423 90.3094 153.144 92.2181 154.691Z" fill="#8494AF"/>
<path d="M91.6601 158.313C91.8412 158.09 92.2034 157.77 92.7189 157.993L92.1338 157.519L92.1756 157.463C92.4542 156.99 92.1338 156.279 91.4511 155.875C90.7685 155.471 89.9883 155.541 89.7097 156.014L83.0504 167.285C81.2254 169.751 79.1914 172.802 77.7146 175.31C76.2379 177.817 75.5971 179.266 75.4438 180.158C75.3184 180.395 75.3324 180.687 75.4577 180.98C75.5692 181.356 75.8618 181.537 76.1682 181.732C76.4747 181.913 76.7812 182.066 77.1574 181.997C77.4778 181.983 77.7425 181.857 77.8818 181.621C78.5923 181.063 79.5536 179.809 81.0303 177.302C82.5071 174.794 84.2067 171.548 85.4884 168.762L91.6601 158.313Z" fill="#D10000"/>
<path d="M89.0697 161.253C89.2508 160.946 88.8189 159.135 88.6378 159.455L83.929 167.438C82.7866 169.082 79.6102 174.293 78.635 175.936C77.6598 177.58 76.7821 179.252 76.6149 179.809C76.5313 179.963 76.5174 180.144 76.5453 180.297C76.5731 180.506 76.6985 180.603 76.8378 180.687C76.9771 180.771 77.1165 180.84 77.3115 180.757C77.4787 180.715 77.618 180.617 77.7155 180.464C78.1195 180.06 79.1644 178.486 80.1396 176.842C81.1009 175.198 84.1379 169.904 85.0296 168.107L89.0697 161.253Z" fill="#9E0017"/>
<path d="M93.1656 156.488L89.9613 154.593C89.6966 154.44 89.4041 154.482 89.2926 154.677L88.3035 156.335C88.192 156.53 88.2477 156.767 88.4289 156.864L90.6858 158.202C90.8669 158.313 91.1037 158.243 91.2152 158.048L91.5356 157.505L92.3018 157.951C92.5526 158.104 92.8591 158.076 92.9705 157.881L93.4303 157.101C93.5278 156.906 93.4163 156.627 93.1656 156.488Z" fill="#9E0017"/>
<path d="M90.824 161.698L89.8906 160.528L90.7404 159.093C91.033 158.592 90.8519 157.923 90.3086 157.602L86.1848 155.164C85.6415 154.844 84.9589 154.997 84.6663 155.499L82.7995 158.647C82.493 159.149 82.688 159.818 83.2314 160.138L89.5423 163.872C89.7931 164.025 90.0439 163.9 90.1971 163.649L90.9494 162.381C91.0887 162.13 91.0748 161.963 90.824 161.698Z" fill="#9E0017"/>
<path d="M93.067 157.101C92.9277 157.338 92.7884 157.505 92.5516 157.366L89.4866 155.555C89.2359 155.401 89.2916 155.178 89.4309 154.956L89.4588 154.9C89.5981 154.663 89.7653 154.51 90.016 154.663L93.081 156.474C93.3317 156.627 93.2482 156.822 93.1088 157.059L93.067 157.101Z" fill="#D10000"/>
<path d="M94.057 156.14C94.3495 155.527 94.1127 154.775 93.4858 154.412L90.8109 152.824C90.1562 152.434 88.9998 152.35 88.8605 153.326C88.763 154.036 88.8048 154.384 88.9302 154.51C88.9302 154.51 89.1252 154.593 89.2645 154.189C89.4596 153.59 89.989 153.744 90.5184 154.022L90.4487 154.175L91.0199 154.301L91.0478 154.315L90.9781 154.482L91.5354 154.607L91.4379 154.788L91.9812 154.872L91.9951 154.886L91.8697 155.039L92.427 155.137L92.4549 155.151L92.3295 155.304L92.9564 155.443L92.9843 155.457L92.8589 155.61L93.4161 155.708L93.3186 155.903L93.7783 155.931C93.8898 156 93.9734 156.07 94.057 156.14Z" fill="#B4C1D1"/>
<path d="M90.5877 161.615L89.6543 160.444L90.5041 159.023C90.7967 158.508 90.6016 157.853 90.0722 157.533L85.9485 155.095C85.4052 154.774 84.7225 154.928 84.43 155.429L82.5632 158.578C82.2567 159.079 82.4517 159.748 82.995 160.068L89.306 163.788C89.5568 163.941 89.8911 163.858 90.0304 163.593L90.7827 162.339C90.9221 162.102 90.8245 161.879 90.5877 161.615Z" fill="#D10000"/>
<path d="M89.1658 158.146C89.3051 157.909 89.5976 157.839 89.8345 157.965C90.0713 158.104 90.1549 158.397 90.0017 158.633C89.8623 158.87 89.5698 158.94 89.3329 158.801C89.11 158.675 89.0265 158.383 89.1658 158.146Z" fill="#9E0017"/>
<path d="M87.105 159.971C86.896 160.305 86.4363 160.403 86.0601 160.18L84.2211 159.093C83.845 158.87 83.6917 158.411 83.9007 158.076L84.444 157.157C84.6391 156.822 85.1128 156.725 85.4889 156.948L87.3139 158.034C87.6901 158.257 87.8433 158.717 87.6344 159.051L87.105 159.971Z" fill="#9E0017"/>
<path d="M84.5403 158.516L84.2139 159.067L85.8564 160.039L86.1828 159.488L84.5403 158.516Z" fill="#B4C1D1"/>
<path d="M85.5035 159.818L84.584 159.274L84.9044 158.717L85.8239 159.26L85.5035 159.818Z" fill="#8494AF"/>
<path d="M86.9367 159.246C86.7138 159.623 86.2262 159.748 85.8361 159.525L84.6937 158.842C84.3176 158.62 84.1922 158.132 84.4151 157.756L84.5405 157.519C84.7634 157.143 85.251 157.017 85.6411 157.24L86.7835 157.923C87.1596 158.146 87.285 158.633 87.0621 159.01L86.9367 159.246Z" fill="#B4C1D1"/>
<path d="M327.673 139.742C328.147 141.957 328.314 145.162 327.297 145.371C323.633 146.095 324.525 144.521 321.808 145.914C319.76 146.973 314.452 147.112 313.672 146.471C312.989 145.914 312.432 143.281 315.413 142.863C318.381 142.445 320.011 139.868 320.986 138.265C321.961 136.663 323.884 136.134 323.884 136.134L327.005 136.663L327.673 139.742Z" fill="black"/>
<path d="M324.679 141.721C322.937 135.646 320.625 108.215 317.699 85.6184L324.86 91.5393C325.779 101.222 326.601 108.675 327.813 116.992C329.235 126.73 330.015 137.653 329.095 141.832C329.095 141.846 326.824 142.752 324.679 141.721Z" fill="#000F66"/>
<path d="M341.648 137.736L334.083 137.43C334.083 137.43 333.93 142.905 328.984 144.646C327.34 145.217 327.131 147.572 329.276 148.449C331.436 149.327 336.186 148.951 338.123 146.973C340.059 144.994 340.213 146.652 341.703 145.761C343.208 144.855 342.233 141.484 342.066 139.408L341.648 137.736Z" fill="black"/>
<path d="M289.78 64.9857C288.317 66.0306 287.83 65.7659 286.785 65.8495C285.74 65.947 285.266 65.9052 284.388 66.3231C283.497 66.7411 280.279 68.4686 280.711 68.8447C281.156 69.2209 281.672 69.2488 282.368 69.0119C283.079 68.7751 283.915 68.2736 283.915 68.2736C283.915 68.2736 281.282 69.6806 281.351 70.0707C281.421 70.4608 285.796 72.8152 286.673 72.8431C287.551 72.857 288.958 72.1047 289.794 71.6032C290.63 71.1017 291.814 70.3911 292.302 70.1961C292.789 70.0011 289.78 64.9857 289.78 64.9857Z" fill="#F7530B"/>
<path d="M298.097 61.266C298.097 61.266 301.468 58.1036 302.596 51.4861C303.126 46.2618 307.222 43.169 308.253 42.6953C308.253 42.6953 311.192 52.517 310.872 55.2337C310.301 60.0261 303.962 68.4686 302.861 68.8169C302.596 68.9005 292.635 72.9964 292.635 72.9964C292.635 72.9964 288.275 66.4068 288.149 65.6962C289.18 65.2226 298.097 61.266 298.097 61.266Z" fill="#0D2E99"/>
<path d="M327.421 116.24C326.502 114.373 322.81 103.353 321.96 100.219C317.237 82.7345 314.576 83.6958 313.615 74.7239C313.267 71.5197 313.601 62.4642 313.838 60.1237C313.894 59.6361 317.223 64.526 318.853 64.3449L325.276 95.2032C328.856 111.656 336.17 133.376 335.794 143.991C334.582 144.131 332.59 144.312 331.071 144.103C331.099 144.103 329.469 120.447 327.421 116.24Z" fill="#0D2E99"/>
<path d="M312.808 42.1798L313.533 39.7418C313.533 39.7418 322.519 42.5839 325.096 49.9397C327.311 56.3064 330.877 67.1451 331.964 72.8849C333.371 75.5458 335.238 79.7253 335.196 84.8521C335.14 91.0098 337.829 107.686 339.599 113.37C345.492 132.191 342.315 143.309 342.315 143.309C342.315 143.309 341.438 144.521 335.656 143.727C335.656 143.727 330.947 121.06 330.446 117.619C330.278 116.435 321.878 82.9156 319.008 76.8832C317.615 73.9716 315.455 66.8247 315.692 64.4703C315.72 64.2056 314.41 46.6101 314.09 46.4847C312.376 45.7881 312.808 42.1798 312.808 42.1798Z" fill="#000F66"/>
<path d="M307.376 48.0589C307.376 48.0589 308.825 46.2618 310.873 44.1024C312.907 41.943 312.154 42.1102 312.154 42.1102L316.835 45.0776C316.835 45.0776 311.708 62.1855 315.693 61.5029C315.693 61.5029 316.766 73.2053 318.479 81.9822C318.549 82.3444 319.817 106.209 322.366 115.042C326.796 130.338 325.96 141.971 325.96 141.971C325.96 141.971 323.021 142.57 317.992 141.665C318.939 139.338 318.117 124.668 317.267 117.466C316.961 114.902 315.958 111.211 315.916 110.667C315.4 104.663 312.711 84.1694 311.834 81.815C302.249 56.2228 306.93 49.9676 307.376 48.0589Z" fill="#0D2E99"/>
<path d="M291.451 136.831C289.181 136.831 286.673 136.691 283.845 136.315C277.729 135.493 274.121 130.408 272.114 124.237C270.136 124.585 267.029 125.1 266.054 125.574C257.263 128.583 256.205 132.526 256.233 135.577C256.233 136.872 256.692 138.126 257.64 139.338C260.314 142.752 268.562 137.193 269.858 139.923L270.248 140.718C270.262 140.843 267.782 140.383 267.782 140.383C266.556 137.806 258.615 143.922 256.024 140.62C254.839 139.115 254.185 137.388 254.185 135.591C254.226 131.258 256.274 127.232 265.163 123.735C266.402 123.15 269.579 122.62 271.515 122.258C269.941 116.393 269.467 109.622 269.467 103.715C269.467 96.7357 270.122 91.0238 270.471 89.3241C271.655 83.654 273.131 78.6108 275.11 74.8911C277.06 71.1992 279.651 68.6219 283.134 68.608C283.873 68.608 284.625 68.7334 285.391 68.9702C293.374 71.4221 301.148 76.4375 307.069 86.5796C309.326 90.4247 310.496 94.5345 310.496 98.5329C310.51 105.958 306.414 113.022 298.125 117.299C291.814 120.573 285.252 122.063 279.721 123.024C277.715 123.359 275.848 123.651 274.162 123.916C276.113 129.656 279.22 133.654 284.109 134.309C286.84 134.671 291.437 134.811 291.437 134.811V136.831H291.451ZM283.148 70.642C283.134 70.642 283.134 70.642 283.12 70.642C280.822 70.642 278.774 72.3973 276.949 75.8384C275.124 79.2517 273.661 84.1695 272.505 89.7282C272.198 91.1352 271.529 96.875 271.543 103.701C271.543 109.567 272.031 116.282 273.577 121.91C275.347 121.631 277.297 121.339 279.387 120.977C284.848 120.029 291.187 118.566 297.205 115.46C304.923 111.447 308.448 105.192 308.462 98.5189C308.462 94.9107 307.403 91.1631 305.313 87.5966C299.615 77.8864 292.385 73.2611 284.806 70.9067C284.207 70.7116 283.664 70.642 283.148 70.642Z" fill="#24272B"/>
<path d="M311.903 68.9562C309.451 70.837 303.516 76.8833 302.583 77.0783C301.65 77.2734 299.574 79.7114 299.198 80.2826C298.821 80.8538 298.069 82.233 298.445 82.9853C298.821 83.7376 298.961 84.9496 299.699 84.8103C300.215 84.7128 299.95 82.9295 299.95 82.9295C299.95 82.9295 299.852 84.1555 300.939 84.4342C301.371 84.5456 302.527 85.1029 302.527 85.1029C302.527 85.1029 302.527 85.883 304.046 85.1725C304.84 84.8103 306.595 82.0797 307.166 81.1324C307.724 80.185 312.795 76.5489 314.857 74.8493C316.919 73.1496 311.903 68.9562 311.903 68.9562Z" fill="#FF960B"/>
<path d="M314.995 45.4956C313.867 46.638 313.24 48.5466 313.198 52.3359C313.156 56.1253 312.376 61.266 311.916 62.7428C311.317 64.7071 302.164 77.0644 302.164 77.0644L308.921 82.6231C308.921 82.6231 317.656 74.2781 319.955 65.947C319.955 65.947 325.137 49.1456 320.094 45.3423C317.057 43.0436 314.995 45.4956 314.995 45.4956Z" fill="#000F66"/>
<path d="M287.048 72.8849C286.365 72.9963 285.223 73.0939 285.111 72.6759C285.014 72.258 285.404 71.241 286.142 70.5723C286.881 69.8896 287.382 69.4717 287.772 69.9732C288.149 70.4747 286.978 71.5893 286.909 71.7982C286.839 71.9933 287.048 72.8849 287.048 72.8849Z" fill="#FF960B"/>
<path d="M285.446 72.857C284.721 73.2471 284.011 72.8849 283.885 72.662C283.76 72.4391 283.579 71.2689 284.136 70.7116C284.693 70.1543 285.487 69.5692 285.822 69.5692C286.17 69.5692 286.463 69.7643 286.267 70.1961C286.059 70.628 285.529 71.9376 285.529 71.9376L285.446 72.857Z" fill="#FF960B"/>
<path d="M283.956 72.3694C284.597 72.5644 282.981 72.6062 282.716 72.1186C282.452 71.631 282.689 70.7116 282.828 70.4608C282.953 70.1961 283.956 69.3741 284.277 69.193C284.653 68.9701 285.196 69.2627 285.001 69.611C284.792 69.9592 284.068 71.2131 284.068 71.2131C284.068 71.2131 283.859 72.3415 283.956 72.3694Z" fill="#FF960B"/>
<path d="M282.855 71.5475C282.423 71.6868 282.228 71.8818 281.908 71.6311C281.587 71.3803 281.364 70.4469 281.824 70.0847C282.298 69.7224 283.12 69.1234 283.482 69.1373C283.83 69.1513 283.858 69.5553 283.705 69.9175C283.538 70.2658 282.855 71.5475 282.855 71.5475Z" fill="#FF960B"/>
<path d="M306.999 44.3253C306.247 45.6906 305.258 49.1874 305.258 49.1874L306.553 48.9645L306.331 49.9537L307.557 53.0464C307.557 53.0464 306.721 48.4351 307.626 46.4568C308.142 45.2727 306.999 44.3253 306.999 44.3253Z" fill="#000F66"/>
<path d="M307.598 34.434C308.127 35.9386 308.657 37.1785 312.613 39.909C314.592 41.2883 313.198 42.7371 313.198 42.7371L308.141 47.9754C308.141 47.9754 306.274 45.1612 303.279 45.008C301.454 44.9105 307.598 34.434 307.598 34.434Z" fill="#E5C0AE"/>
<path d="M305.355 33.8767C303.056 30.0873 298.891 27.9558 295.742 30.8257C292.301 33.9463 292.301 35.5206 294.767 39.2264C295.269 39.9926 296.676 40.7589 297.289 41.5112C297.776 42.8764 298.152 44.4786 298.459 44.5622C298.668 44.6179 299.156 44.4368 299.573 44.2417C301.398 46.025 302.847 46.5126 303.934 45.7881C305.146 44.9801 308.072 42.2635 308.058 39.4632C308.058 37.9168 306.595 35.8968 305.355 33.8767Z" fill="#E5C0AE"/>
<path d="M291.842 35.6042C292.19 37.7496 293.082 38.279 294.127 38.2511C296.62 38.1815 296.69 36.1336 297.623 36.2589C298.501 36.3704 299.63 35.5763 300.27 35.6181C300.897 35.6599 302.276 36.1196 302.276 36.1196L303.711 35.9246L304.589 35.0051L305.996 36.858L311.165 38.3765C311.165 38.3765 309.396 35.7574 308.88 33.2497C308.518 31.5222 307.863 30.9232 307.306 30.1291C306.595 29.1121 306.414 29.3489 305.676 28.4573C304.868 27.4821 302.583 27.1477 301.747 27.3846C300.925 27.6214 300.41 27.7329 300.159 28.1229C299.908 28.5269 299.393 27.7329 298.208 28.1229C297.024 28.4991 296.955 28.3319 295.478 29.2235C294.001 30.1151 293.221 32.1491 292.413 33.4726C291.898 34.3503 291.842 35.6042 291.842 35.6042Z" fill="#300901"/>
<path d="M303.21 35.0051C303.084 33.9324 304.129 33.2358 304.84 33.7095C305.55 34.1971 306.887 36.8023 305.843 37.889C304.798 38.9756 303.21 35.0051 303.21 35.0051Z" fill="#E5C0AE"/>
<path d="M309.074 50.887L307.542 53.0464C307.542 53.0464 308.434 48.3097 309.674 45.0079C310.091 43.8655 311.039 37.7775 311.039 37.7775L314.466 39.6722L313.881 45.1612L311.262 45.9831L311.875 47.432C311.861 47.4459 310.217 49.2292 309.074 50.887Z" fill="#000F66"/>
<path d="M288.485 145.12C288.485 145.399 288.234 145.621 287.927 145.621H245.227C244.921 145.621 244.67 145.399 244.67 145.12V83.6262C244.67 83.3475 244.921 83.1246 245.227 83.1246H287.927C288.234 83.1246 288.485 83.3475 288.485 83.6262V145.12Z" fill="white"/>
<path d="M245.493 145.608L256.485 145.649L278.009 127.134L262.517 125.56L256.22 104.551L244.936 115.014V145.106C244.949 145.385 245.186 145.608 245.493 145.608Z" fill="url(#paint1_linear_511_8718)"/>
<path d="M250.48 116.63C250.48 107.728 257.683 100.525 266.571 100.525C275.46 100.525 282.676 107.742 282.676 116.63C282.676 125.518 275.474 132.735 266.571 132.735C257.697 132.735 250.48 125.532 250.48 116.63Z" fill="#B2C4D3"/>
<path d="M251.539 116.63C251.539 108.313 258.268 101.57 266.585 101.57C274.888 101.57 281.631 108.313 281.631 116.63C281.631 124.947 274.888 131.69 266.585 131.69C258.268 131.69 251.539 124.947 251.539 116.63Z" fill="#D6DFE8"/>
<path d="M254.813 116.63C254.813 110.124 260.08 104.858 266.586 104.858C273.078 104.858 278.358 110.124 278.358 116.63C278.358 123.136 273.092 128.402 266.586 128.402C260.08 128.402 254.813 123.136 254.813 116.63Z" fill="#D6DFE8"/>
<path opacity="0.7" d="M256.429 116.63C256.429 111.015 260.97 106.474 266.585 106.474C272.185 106.474 276.741 111.015 276.741 116.63C276.741 122.23 272.199 126.786 266.585 126.786C260.984 126.786 256.429 122.244 256.429 116.63Z" fill="#24272B"/>
<path opacity="0.7" d="M258.658 115.515C258.658 111.169 262.169 107.658 266.516 107.658C270.848 107.658 274.373 111.169 274.373 115.515C274.373 119.848 270.848 123.373 266.516 123.373C262.183 123.373 258.658 119.848 258.658 115.515Z" fill="#24272B"/>
<path d="M263.228 89.8118C263.228 87.8753 264.802 86.3149 266.724 86.3149C268.661 86.3149 270.221 87.8892 270.221 89.8118C270.221 91.7482 268.661 93.3225 266.724 93.3225C264.788 93.3086 263.228 91.7482 263.228 89.8118Z" fill="#B2C4D3"/>
<path d="M264.077 89.8117C264.077 88.3489 265.261 87.1647 266.724 87.1647C268.187 87.1647 269.371 88.3489 269.371 89.8117C269.371 91.2745 268.187 92.4587 266.724 92.4587C265.261 92.4587 264.077 91.2745 264.077 89.8117Z" fill="#B4C1D1"/>
<path d="M264.731 89.8117C264.731 88.7111 265.623 87.8195 266.724 87.8195C267.824 87.8195 268.716 88.7111 268.716 89.8117C268.716 90.9123 267.824 91.8039 266.724 91.8039C265.623 91.8039 264.731 90.9123 264.731 89.8117Z" fill="#D6DFE8"/>
<path d="M267.755 88.7529C267.672 88.8923 267.491 88.9341 267.351 88.8505C267.212 88.7669 267.17 88.5858 267.254 88.4465L267.797 87.5548C267.881 87.4155 268.062 87.3737 268.201 87.4573C268.34 87.5409 268.382 87.722 268.299 87.8613L267.755 88.7529Z" fill="#D6DFE8"/>
<path opacity="0.7" d="M278.58 87.7778C278.58 87.8892 278.412 87.9728 278.217 87.9728H273.202C273.007 87.9728 272.84 87.8892 272.84 87.7778V86.6632C272.84 86.5518 273.007 86.4682 273.202 86.4682H278.217C278.412 86.4682 278.58 86.5657 278.58 86.6632V87.7778Z" fill="#24272B"/>
<path d="M272.729 93.4897C272.729 92.7931 273.3 92.2219 273.996 92.2219C274.693 92.2219 275.264 92.7931 275.264 93.4897C275.264 94.1863 274.693 94.7575 273.996 94.7575C273.3 94.7575 272.729 94.1863 272.729 93.4897Z" fill="#8494AF"/>
<path d="M272.909 93.4897C272.909 92.8906 273.397 92.403 273.996 92.403C274.595 92.403 275.082 92.8906 275.082 93.4897C275.082 94.0887 274.595 94.5763 273.996 94.5763C273.397 94.5624 272.909 94.0748 272.909 93.4897Z" fill="#B4C1D1"/>
<path d="M273.188 93.4897C273.188 93.0439 273.551 92.6816 273.997 92.6816C274.442 92.6816 274.805 93.0439 274.805 93.4897C274.805 93.9355 274.442 94.2977 273.997 94.2977C273.551 94.2977 273.188 93.9355 273.188 93.4897Z" fill="#D6DFE8"/>
<path d="M275.988 93.4897C275.988 92.7931 276.559 92.2219 277.256 92.2219C277.953 92.2219 278.524 92.7931 278.524 93.4897C278.524 94.1863 277.953 94.7575 277.256 94.7575C276.559 94.7575 275.988 94.1863 275.988 93.4897Z" fill="#8494AF"/>
<path d="M276.169 93.4897C276.169 92.8906 276.657 92.403 277.256 92.403C277.855 92.403 278.342 92.8906 278.342 93.4897C278.342 94.0887 277.855 94.5763 277.256 94.5763C276.657 94.5624 276.169 94.0748 276.169 93.4897Z" fill="#B4C1D1"/>
<path d="M276.435 93.4897C276.435 93.0439 276.797 92.6816 277.243 92.6816C277.688 92.6816 278.051 93.0439 278.051 93.4897C278.051 93.9355 277.688 94.2977 277.243 94.2977C276.811 94.2977 276.435 93.9355 276.435 93.4897Z" fill="#D6DFE8"/>
<path d="M279.248 93.4897C279.248 92.7931 279.819 92.2219 280.516 92.2219C281.212 92.2219 281.784 92.7931 281.784 93.4897C281.784 94.1863 281.212 94.7575 280.516 94.7575C279.805 94.7575 279.248 94.1863 279.248 93.4897Z" fill="#8494AF"/>
<path d="M279.429 93.4897C279.429 92.8906 279.916 92.403 280.515 92.403C281.114 92.403 281.602 92.8906 281.602 93.4897C281.602 94.0887 281.114 94.5763 280.515 94.5763C279.916 94.5624 279.429 94.0748 279.429 93.4897Z" fill="#B4C1D1"/>
<path d="M279.708 93.4897C279.708 93.0439 280.07 92.6816 280.516 92.6816C280.962 92.6816 281.324 93.0439 281.324 93.4897C281.324 93.9355 280.962 94.2977 280.516 94.2977C280.07 94.2977 279.708 93.9355 279.708 93.4897Z" fill="#D6DFE8"/>
<path d="M282.508 93.4897C282.508 92.7931 283.079 92.2219 283.776 92.2219C284.472 92.2219 285.043 92.7931 285.043 93.4897C285.043 94.1863 284.472 94.7575 283.776 94.7575C283.079 94.7575 282.508 94.1863 282.508 93.4897Z" fill="#8494AF"/>
<path d="M282.688 93.4897C282.688 92.8906 283.176 92.403 283.775 92.403C284.374 92.403 284.862 92.8906 284.862 93.4897C284.862 94.0887 284.374 94.5763 283.775 94.5763C283.176 94.5624 282.688 94.0748 282.688 93.4897Z" fill="#B4C1D1"/>
<path d="M282.954 93.4897C282.954 93.0439 283.316 92.6816 283.762 92.6816C284.208 92.6816 284.57 93.0439 284.57 93.4897C284.57 93.9355 284.208 94.2977 283.762 94.2977C283.33 94.2977 282.954 93.9355 282.954 93.4897Z" fill="#D6DFE8"/>
<path opacity="0.7" d="M284.305 86.705C284.305 86.8304 284.207 86.9419 284.082 86.9419H283.483C283.357 86.9419 283.26 86.8304 283.26 86.705C283.26 86.5797 283.357 86.4682 283.483 86.4682H284.082C284.207 86.4682 284.305 86.5797 284.305 86.705Z" fill="#24272B"/>
<path opacity="0.7" d="M284.305 87.6663C284.305 87.7917 284.207 87.9031 284.082 87.9031H283.483C283.357 87.9031 283.26 87.7917 283.26 87.6663C283.26 87.5409 283.357 87.4294 283.483 87.4294H284.082C284.207 87.4294 284.305 87.5409 284.305 87.6663Z" fill="#24272B"/>
<path opacity="0.7" d="M284.305 88.6276C284.305 88.753 284.207 88.8644 284.082 88.8644H283.483C283.357 88.8644 283.26 88.753 283.26 88.6276C283.26 88.5022 283.357 88.3907 283.483 88.3907H284.082C284.207 88.3907 284.305 88.5022 284.305 88.6276Z" fill="#24272B"/>
<path opacity="0.7" d="M284.305 89.5888C284.305 89.7142 284.207 89.8257 284.082 89.8257H283.483C283.357 89.8257 283.26 89.7142 283.26 89.5888C283.26 89.4634 283.357 89.352 283.483 89.352H284.082C284.207 89.352 284.305 89.4634 284.305 89.5888Z" fill="#24272B"/>
<path opacity="0.7" d="M284.305 90.5501C284.305 90.6755 284.207 90.787 284.082 90.787H283.483C283.357 90.787 283.26 90.6755 283.26 90.5501C283.26 90.4247 283.357 90.3133 283.483 90.3133H284.082C284.207 90.3133 284.305 90.4247 284.305 90.5501Z" fill="#24272B"/>
<path opacity="0.4" d="M277.214 89.3242C277.214 89.3799 277.144 89.4356 277.061 89.4356H273.118C273.035 89.4356 272.965 89.3799 272.965 89.3242C272.965 89.2684 273.035 89.2127 273.118 89.2127H277.061C277.158 89.2127 277.214 89.2545 277.214 89.3242Z" fill="#24272B"/>
<path opacity="0.4" d="M277.214 90.0068C277.214 90.0625 277.144 90.1182 277.061 90.1182H273.118C273.035 90.1182 272.965 90.0764 272.965 90.0068C272.965 89.9511 273.035 89.8953 273.118 89.8953H277.061C277.158 89.8953 277.214 89.9371 277.214 90.0068Z" fill="#24272B"/>
<path opacity="0.4" d="M277.214 90.6755C277.214 90.7312 277.144 90.7869 277.061 90.7869H273.118C273.035 90.7869 272.965 90.7451 272.965 90.6755C272.965 90.6197 273.035 90.564 273.118 90.564H277.061C277.158 90.564 277.214 90.6197 277.214 90.6755Z" fill="#24272B"/>
<path opacity="0.7" d="M258.825 93.1135C258.825 93.3504 258.644 93.5315 258.407 93.5315H248.738C248.501 93.5315 248.32 93.3504 248.32 93.1135V90.9124C248.585 90.9124 258.825 90.9124 258.825 90.9124V93.1135V93.1135Z" fill="#B4C1D1"/>
<path opacity="0.5" d="M246.566 94.9943C246.245 94.9943 245.98 94.7296 245.98 94.4231V85.9388C245.98 85.6184 246.245 85.3537 246.566 85.3537H260.553C260.873 85.3537 261.124 85.6184 261.124 85.9388V94.4231C261.124 94.7435 260.873 94.9943 260.553 94.9943H246.566ZM246.315 85.9388V94.4231C246.315 94.5624 246.426 94.6878 246.58 94.6878H260.567C260.706 94.6878 260.831 94.5624 260.831 94.4231V85.9388C260.831 85.7856 260.72 85.6741 260.567 85.6741H246.566C246.426 85.6741 246.315 85.7856 246.315 85.9388Z" fill="#B4C1D1"/>
<path d="M290.616 132.247H271.809L274.414 152.573L274.4 152.587C274.4 153.242 277.451 153.757 281.212 153.757C284.974 153.757 288.025 153.228 288.025 152.587L288.011 152.573L290.616 132.247Z" fill="#F7530B"/>
<path d="M288.011 152.587L287.997 152.573L290.602 132.247H280.404V153.743C280.669 153.743 280.934 153.757 281.198 153.757C284.974 153.757 288.011 153.228 288.011 152.587Z" fill="#FF960B"/>
<path d="M290.672 132.303C290.672 132.721 286.437 133.069 281.212 133.069C275.988 133.069 271.753 132.735 271.753 132.303C271.753 131.885 275.988 131.551 281.212 131.551C286.423 131.537 290.672 131.885 290.672 132.303Z" fill="#C93D00"/>
<path d="M270.109 135.047C270.109 134.978 270.109 134.936 270.109 134.922L270.151 134.49L272.631 134.56L272.603 135.465L271.043 135.424C271.182 137.151 272.116 143.142 281.366 143.532L281.324 144.437C270.555 144.047 270.082 136.009 270.109 135.047Z" fill="#B2C4D3"/>
<path d="M280.851 143.532C290.129 143.142 291.035 137.109 291.174 135.41L289.739 135.396L289.753 134.476L292.107 134.504V134.964C292.107 134.964 292.107 134.992 292.107 135.047C292.135 136.009 291.648 144.047 280.892 144.451L280.851 143.532Z" fill="white"/>
<path d="M295.785 147.753C296.621 147.265 296.914 146.61 296.941 145.412C296.969 142.947 295.047 138.962 293.417 135.911C291.23 131.815 288.987 130.742 287.482 130.742C285.824 130.742 284.724 132.052 284.724 133.027H282.634C282.662 130.701 284.737 128.667 287.482 128.653C290.059 128.653 292.915 130.478 295.27 134.936C296.9 138.057 299.003 142.041 299.045 145.412C299.073 147.028 298.418 148.7 296.816 149.578L295.785 147.753Z" fill="#24272B"/>
<defs>
<linearGradient id="paint0_linear_511_8718" x1="51.1087" y1="42.0968" x2="67.3642" y2="33.9757" gradientUnits="userSpaceOnUse">
<stop stop-color="white"/>
<stop offset="0.1418" stop-color="#FAFAF9"/>
<stop offset="0.323" stop-color="#EEECEA"/>
<stop offset="0.5248" stop-color="#D8D4CF"/>
<stop offset="0.6648" stop-color="#C6C0B9"/>
</linearGradient>
<linearGradient id="paint1_linear_511_8718" x1="247.264" y1="132.263" x2="276.199" y2="109.481" gradientUnits="userSpaceOnUse">
<stop stop-color="white"/>
<stop offset="0.1159" stop-color="#F7F7F7"/>
<stop offset="0.2993" stop-color="#E0E0E0"/>
<stop offset="0.5274" stop-color="#BBBBBB"/>
<stop offset="0.7887" stop-color="#878787"/>
<stop offset="0.9505" stop-color="#646464"/>
</linearGradient>
</defs>
</svg>
