<svg width="40" height="40" viewBox="0 0 40 40" fill="none" xmlns="http://www.w3.org/2000/svg">
<path d="M14.1406 0C14.1406 0.764583 14.1406 1.53021 14.1406 2.33646C13.3562 2.33646 12.5969 2.33646 11.8104 2.33646C11.8104 3.12708 11.8104 3.87708 11.8104 4.65729C8.65729 4.65729 5.53125 4.65729 2.36354 4.65729C2.36354 3.91667 2.36354 3.15729 2.36354 2.34479C1.54896 2.34479 0.773958 2.34479 0 2.34479C0 1.5625 0 0.78125 0 0C4.71354 0 9.42708 0 14.1406 0Z" fill="#383737"/>
<path d="M25.8594 40C25.8594 39.2354 25.8594 38.4698 25.8594 37.6635C26.6438 37.6635 27.4031 37.6635 28.1896 37.6635C28.1896 36.8729 28.1896 36.1229 28.1896 35.3427C31.3427 35.3427 34.4688 35.3427 37.6365 35.3427C37.6365 36.0833 37.6365 36.8427 37.6365 37.6552C38.451 37.6552 39.226 37.6552 40 37.6552C40 38.4365 40 39.2177 40 39.999C35.2865 40 30.5729 40 25.8594 40Z" fill="#383737"/>
<path d="M28.2167 25.85C27.0063 25.85 25.8657 25.85 24.7063 25.85C24.7063 21.9469 24.7063 18.0719 24.7063 14.1407C24.8292 14.1407 24.9532 14.1407 25.0771 14.1407C26.4834 14.1407 27.8886 14.1375 29.2948 14.1417C33.4032 14.1542 36.7584 16.9302 37.5271 20.9636C37.6094 21.3959 37.649 21.8417 37.6501 22.2823C37.6605 25.7323 37.6563 29.1813 37.6563 32.6313C37.6563 32.7313 37.6563 32.8323 37.6563 32.95C34.498 32.95 31.3792 32.95 28.2167 32.95C28.2167 30.6021 28.2167 28.2542 28.2167 25.85Z" fill="#383737"/>
<path d="M11.7854 14.1375C12.9865 14.1375 14.1177 14.1375 15.2813 14.1375C15.2813 18.0365 15.2813 21.9198 15.2813 25.8417C15.1708 25.8469 15.0458 25.8583 14.9208 25.8583C13.5146 25.8594 12.1094 25.8625 10.7031 25.8583C6.60001 25.8448 3.24376 23.0667 2.47084 19.0333C2.39064 18.6146 2.35105 18.1812 2.35001 17.7542C2.34064 14.2656 2.34376 10.7771 2.34376 7.28854C2.34376 7.22395 2.34897 7.15937 2.35314 7.06354C5.48439 7.06354 8.61355 7.06354 11.7844 7.06354C11.7854 9.4 11.7854 11.7479 11.7854 14.1375Z" fill="#383737"/>
<path d="M22.3166 28.1854C20.7583 28.1854 19.2271 28.1854 17.676 28.1854C17.676 22.7312 17.676 17.2958 17.676 11.8281C19.2094 11.8281 20.7489 11.8281 22.3166 11.8281C22.3166 17.2635 22.3166 22.7094 22.3166 28.1854Z" fill="#FFBB00"/>
</svg>
