<svg width="60" height="53" viewBox="0 0 60 53" fill="none" xmlns="http://www.w3.org/2000/svg">
<path d="M9.76565e-05 31.3197C0.0922852 30.9447 0.175098 30.5665 0.27666 30.1947C1.1876 26.8806 4.16416 24.4712 7.60322 24.4025C9.31104 24.3681 11.0314 24.4728 12.7282 24.6634C13.8392 24.7884 14.8032 25.4025 15.6954 26.165C15.5548 26.3259 15.4345 26.4728 15.3064 26.6087C12.7907 29.2868 11.3735 32.4728 10.8939 36.0993C10.5032 39.0525 10.5892 42.0181 10.636 44.9853C10.6532 46.115 10.6392 47.2447 10.6392 48.4462C10.3829 48.4712 10.1204 48.5197 9.85791 48.5197C7.78916 48.5228 5.72041 48.5306 3.65166 48.5103C1.81885 48.4931 0.678223 47.6275 0.0969727 45.8665C0.0797852 45.8165 0.0313477 45.7759 -0.00146484 45.7306C9.76565e-05 40.929 9.76565e-05 36.1244 9.76565e-05 31.3197Z" fill="white"/>
<path d="M60 45.6165C59.9594 45.6993 59.9063 45.779 59.8782 45.8681C59.3891 47.415 58.2516 48.4196 56.6422 48.4759C54.361 48.5556 52.0766 48.5087 49.7938 48.5103C49.661 48.5103 49.5282 48.4603 49.3375 48.4228C49.3375 48.2103 49.3375 48.0009 49.3375 47.7931C49.3375 44.7681 49.3954 41.7415 49.325 38.7196C49.2407 35.1134 48.4813 31.6728 46.3422 28.6665C45.7329 27.8103 45.0407 27.0134 44.3469 26.1415C45.2157 25.3665 46.2563 24.8181 47.4407 24.6056C49.5485 24.2259 51.6891 24.1696 53.786 24.5728C56.9454 25.1806 59.361 27.8134 59.8938 30.9962C59.9125 31.1071 59.9657 31.2118 60.0016 31.3196C60.0001 36.0853 60 40.8509 60 45.6165Z" fill="white"/>
<path d="M29.3125 52.2666C25.7781 52.2666 22.2438 52.2634 18.711 52.2681C17.6063 52.2697 16.5766 52.0572 15.7047 51.3306C14.7703 50.5525 14.2078 49.5556 14.1953 48.3416C14.1641 44.9853 14.0735 41.6228 14.2094 38.2712C14.4391 32.5978 17.0641 28.3603 22.1969 25.7838C23.9641 24.8963 25.8672 24.4666 27.8297 24.3525C30.3266 24.2056 32.8391 24.1603 35.2844 24.7619C40.6969 26.0916 45.2953 31.3306 45.6688 36.8978C45.9266 40.7462 45.7891 44.6228 45.7766 48.4869C45.775 49.0259 45.5235 49.5822 45.3157 50.0994C44.8969 51.14 44.0938 51.8166 42.9907 51.9259C41.0141 52.1212 39.0282 52.2603 37.0422 52.3087C34.4672 52.3728 31.8875 52.3244 29.311 52.3244C29.3125 52.3056 29.3125 52.2853 29.3125 52.2666Z" fill="white"/>
<path d="M29.9798 0.000986625C35.6329 -0.00682587 40.1907 4.53536 40.1939 10.1791C40.197 15.8057 35.6111 20.3916 29.9876 20.3822C24.3845 20.3729 19.8157 15.8135 19.8032 10.2166C19.7939 4.56817 24.3345 0.00879912 29.9798 0.000986625Z" fill="white"/>
<path d="M15.8189 13.9291C15.8189 17.4791 12.9267 20.376 9.37827 20.3791C5.83765 20.3822 2.93296 17.4791 2.9314 13.9338C2.92983 10.3775 5.80952 7.50254 9.37359 7.50098C12.9392 7.49941 15.8189 10.3713 15.8189 13.9291Z" fill="white"/>
<path d="M50.633 7.50098C54.2001 7.50567 57.0736 10.3807 57.0689 13.9385C57.0642 17.4869 54.1595 20.3869 50.6189 20.3791C47.0705 20.3713 44.1783 17.4697 44.1814 13.9244C44.1845 10.3697 47.072 7.49629 50.633 7.50098Z" fill="white"/>
</svg>
