<svg width="580" height="375" viewBox="0 0 580 375" fill="none" xmlns="http://www.w3.org/2000/svg">
<path fill-rule="evenodd" clip-rule="evenodd" d="M57.3391 352.421C-27.9459 326.621 -12.4125 116.377 129.134 59.3837C182.752 37.7963 211.419 -22.9711 289.723 9.21717C332.657 26.8648 333.621 80.2548 389.102 67.8907C438.394 56.9072 510.094 60.2194 553.297 147.561C579.054 199.631 585.651 326.799 544.524 348.775C543.828 349.191 89.1367 362.042 57.3391 352.421Z" fill="#FFF3E0"/>
<path fill-rule="evenodd" clip-rule="evenodd" d="M291.267 375C444.732 375 569.901 366.414 569.901 355.889C569.901 345.365 444.734 336.778 291.267 336.778C137.801 336.778 12.6338 345.362 12.6338 355.889C12.6338 366.417 137.801 375 291.267 375Z" fill="#FEE5CF"/>
<g clipPath="url(#clip0_588_10952)">
<path d="M351.02 350.4L385.44 191.14H378.71L344.29 350.4H351.02Z" fill="#4D6A8A"/>
<path d="M395.22 350.4L429.65 191.14H422.92L388.5 350.4H395.22Z" fill="#4D6A8A"/>
<path d="M419.61 221.94H375.41L376.48 216.98H420.69L419.61 221.94Z" fill="#4D6A8A"/>
<path d="M412.19 256.22H367.99L369.06 251.25H413.27L412.19 256.22Z" fill="#4D6A8A"/>
<path d="M404.77 290.5H360.57L361.64 285.53H405.85L404.77 290.5Z" fill="#4D6A8A"/>
<path d="M397.35 324.77H353.15L354.22 319.81H398.43L397.35 324.77Z" fill="#4D6A8A"/>
<path d="M379.401 194.359H429.651V191.139H379.401V194.359Z" fill="#8CAFD4"/>
<path d="M472.27 350.4L422.06 191.14H428.78L478.99 350.4H472.27Z" fill="#E8F4FF"/>
<path d="M428.06 350.4L377.85 191.14H384.58L434.79 350.4H428.06Z" fill="#E8F4FF"/>
<path d="M390.939 221.94H435.139L433.569 216.98H389.369L390.939 221.94Z" fill="#E8F4FF"/>
<path d="M401.759 256.22H445.959L444.389 251.25H400.189L401.759 256.22Z" fill="#E8F4FF"/>
<path d="M412.57 290.5H456.78L455.21 285.53H411.01L412.57 290.5Z" fill="#E8F4FF"/>
<path d="M423.39 324.77H467.6L466.03 319.81H421.83L423.39 324.77Z" fill="#E8F4FF"/>
<path d="M93.1499 349.36H70.0299C66.9299 349.36 64.4199 346.85 64.4199 343.75V330.72H98.7599V343.75C98.7599 346.84 96.2499 349.36 93.1499 349.36Z" fill="#8CAFD4"/>
<path d="M243.919 349.36H220.799C217.699 349.36 215.189 346.85 215.189 343.75V330.72H249.529V343.75C249.529 346.84 247.019 349.36 243.919 349.36Z" fill="#8CAFD4"/>
<path d="M98.7599 330.71H64.4199V340.4H98.7599V330.71Z" fill="#CADCED"/>
<path d="M249.529 330.71H215.189V340.4H249.529V330.71Z" fill="#CADCED"/>
<path d="M318.79 223.9H301.91V175.06H318.79C320.85 175.06 322.52 176.73 322.52 178.79V220.17C322.52 222.23 320.85 223.9 318.79 223.9Z" fill="#4D6A8A"/>
<path d="M310.85 263.8H301.92V250.63H310.85C312.91 250.63 314.58 252.3 314.58 254.36V260.07C314.58 262.13 312.91 263.8 310.85 263.8Z" fill="#4D6A8A"/>
<path d="M310.85 286.01H301.92V272.84H310.85C312.91 272.84 314.58 274.51 314.58 276.57V282.28C314.58 284.34 312.91 286.01 310.85 286.01Z" fill="#4D6A8A"/>
<path d="M296.59 335.45H29.9805C24.1805 335.45 19.4805 330.75 19.4805 324.95V146.38C19.4805 140.58 24.1805 135.88 29.9805 135.88H296.59C302.39 135.88 307.09 140.58 307.09 146.38V324.94C307.09 330.75 302.39 335.45 296.59 335.45Z" fill="white"/>
<path d="M116.02 312.79C158.265 312.79 192.51 278.544 192.51 236.3C192.51 194.056 158.265 159.81 116.02 159.81C73.776 159.81 39.5303 194.056 39.5303 236.3C39.5303 278.544 73.776 312.79 116.02 312.79Z" fill="#E8F4FF"/>
<path d="M166.08 286.358C193.728 258.71 193.728 213.882 166.08 186.233C138.431 158.584 93.6031 158.584 65.9543 186.233C38.3054 213.882 38.3054 258.71 65.9543 286.358C93.6031 314.007 138.431 314.007 166.08 286.358Z" fill="#4D6A8A"/>
<path opacity="0.57" d="M175.47 232.3C175.33 231.78 175.19 231.31 175.02 230.88C172.04 223.06 164.87 230.71 160.38 233.81C153.74 238.4 145.95 236.13 139.27 233.19C134.75 231.2 131.39 231.5 129.94 231.79C129.49 230.25 128.79 228.79 127.86 227.48C135.22 224.52 144.11 222.28 147.73 215.15C157.55 195.78 131.82 174.32 113.47 179.1C112.95 179.24 112.48 179.38 112.05 179.55C104.23 182.53 111.88 189.7 114.98 194.2C119.57 200.84 117.3 208.63 114.36 215.31C113.2 217.94 112.82 220.18 112.76 221.88C110.93 222.33 109.21 223.14 107.7 224.25C105.15 217.47 102.68 210.07 96.3297 206.84C76.9597 197.02 55.4997 222.75 60.2797 241.1C60.4197 241.62 60.5597 242.09 60.7297 242.52C63.7097 250.34 70.8797 242.69 75.3797 239.59C82.0197 235 89.8097 237.27 96.4897 240.21C99.1897 241.4 101.48 241.77 103.19 241.81C104 243.55 105.16 245.12 106.59 246.42C99.5097 249.15 91.4297 251.52 88.0197 258.24C78.1997 277.61 103.93 299.07 122.28 294.29C122.8 294.15 123.27 294.01 123.7 293.84C131.52 290.86 123.87 283.69 120.77 279.2C116.18 272.56 118.45 264.77 121.39 258.09C123.49 253.31 123.03 249.82 122.74 248.53C124.19 247.78 125.52 246.79 126.65 245.59C129.85 253.14 131.94 262.75 139.43 266.55C158.8 276.39 180.26 250.65 175.47 232.3Z" fill="#8EB2D9"/>
<path d="M146.66 259.67C137.76 257.89 133.11 247.88 127.47 241.42V229.15C127.47 229.15 130.93 226.63 137.53 227.58C144.76 228.61 152.87 228.7 158.03 222.5C161.52 218.31 166.37 209.01 171.35 215.74C171.62 216.11 171.89 216.52 172.16 216.98C181.71 233.36 167.96 263.92 146.66 259.67Z" fill="#E8F4FF"/>
<path d="M127.47 232.77V229.15C127.47 229.15 130.93 226.63 137.53 227.58C144.76 228.61 152.87 228.7 158.03 222.5C161.52 218.31 166.37 209.01 171.35 215.74C166.48 216.65 164.45 218.06 162.62 226.67C160.37 237.27 154.75 242.41 146.64 243.05C140.44 243.53 133.54 241.02 127.47 232.77Z" fill="#BBD6F2"/>
<path d="M89.1101 213.76C98.0101 215.54 102.66 225.55 108.3 232.01V244.28C108.3 244.28 104.84 246.8 98.2401 245.85C91.0101 244.82 82.9001 244.73 77.7401 250.93C74.2501 255.12 69.4001 264.42 64.4201 257.69C64.1501 257.32 63.8801 256.91 63.6101 256.45C54.0601 240.07 67.8101 209.51 89.1101 213.76Z" fill="#E8F4FF"/>
<path d="M108.29 240.66V244.28C108.29 244.28 104.83 246.8 98.2302 245.85C91.0002 244.82 82.8902 244.73 77.7302 250.93C74.2402 255.12 69.3902 264.42 64.4102 257.69C69.2802 256.78 71.3102 255.37 73.1402 246.76C75.3902 236.16 81.0102 231.02 89.1202 230.38C95.3302 229.9 102.23 232.41 108.29 240.66Z" fill="#BBD6F2"/>
<path d="M140.84 207.94C139.06 216.84 129.05 221.49 122.59 227.13H110.32C110.32 227.13 107.8 223.67 108.75 217.07C109.78 209.84 109.87 201.73 103.67 196.57C99.4804 193.08 90.1804 188.23 96.9104 183.25C97.2804 182.98 97.6904 182.71 98.1504 182.44C114.53 172.89 145.09 186.64 140.84 207.94Z" fill="#E8F4FF"/>
<path d="M113.94 227.13H110.32C110.32 227.13 107.8 223.67 108.75 217.07C109.78 209.84 109.87 201.73 103.67 196.57C99.4804 193.08 90.1804 188.23 96.9104 183.25C97.8204 188.12 99.2304 190.15 107.84 191.98C118.44 194.23 123.58 199.85 124.22 207.96C124.7 214.16 122.19 221.06 113.94 227.13Z" fill="#BBD6F2"/>
<path d="M94.9304 265.49C96.7104 256.59 106.72 251.94 113.18 246.3H125.45C125.45 246.3 127.97 249.76 127.02 256.36C125.99 263.59 125.9 271.7 132.1 276.86C136.29 280.35 145.59 285.2 138.86 290.18C138.49 290.45 138.08 290.72 137.62 290.99C121.24 300.54 90.6804 286.79 94.9304 265.49Z" fill="#E8F4FF"/>
<path d="M121.831 246.3H125.451C125.451 246.3 127.971 249.76 127.021 256.36C125.991 263.59 125.901 271.7 132.101 276.86C136.291 280.35 145.591 285.2 138.861 290.18C137.951 285.31 136.541 283.28 127.931 281.45C117.331 279.2 112.191 273.58 111.551 265.47C111.061 259.27 113.581 252.37 121.831 246.3Z" fill="#BBD6F2"/>
<path d="M130.168 238.615C131.446 230.804 126.151 223.437 118.34 222.158C110.53 220.88 103.162 226.176 101.884 233.986C100.605 241.797 105.901 249.165 113.712 250.443C121.522 251.721 128.89 246.426 130.168 238.615Z" fill="#8EB2D9"/>
<path d="M198.72 155.88H37.0498V317.55H198.72V155.88Z" stroke="#9AA8B8" strokeWidth="0.8534" strokeMiterlimit="10"/>
<path d="M63.1494 155.88V317.55" stroke="#9AA8B8" strokeWidth="0.8534" strokeMiterlimit="10"/>
<path d="M98.7598 155.88V317.55" stroke="#9AA8B8" strokeWidth="0.8534" strokeMiterlimit="10"/>
<path d="M134.369 155.88V317.55" stroke="#9AA8B8" strokeWidth="0.8534" strokeMiterlimit="10"/>
<path d="M169.979 155.88V317.55" stroke="#9AA8B8" strokeWidth="0.8534" strokeMiterlimit="10"/>
<path d="M37.0498 162.34H198.72" stroke="#9AA8B8" strokeWidth="0.8534" strokeMiterlimit="10"/>
<path d="M37.0498 179.76H198.72" stroke="#9AA8B8" strokeWidth="0.8534" strokeMiterlimit="10"/>
<path d="M37.0498 197.17H198.72" stroke="#9AA8B8" strokeWidth="0.8534" strokeMiterlimit="10"/>
<path d="M37.0498 214.58H198.72" stroke="#9AA8B8" strokeWidth="0.8534" strokeMiterlimit="10"/>
<path d="M37.0498 231.99H198.72" stroke="#9AA8B8" strokeWidth="0.8534" strokeMiterlimit="10"/>
<path d="M37.0498 249.4H198.72" stroke="#9AA8B8" strokeWidth="0.8534" strokeMiterlimit="10"/>
<path d="M37.0498 266.81H198.72" stroke="#9AA8B8" strokeWidth="0.8534" strokeMiterlimit="10"/>
<path d="M37.0498 284.22H198.72" stroke="#9AA8B8" strokeWidth="0.8534" strokeMiterlimit="10"/>
<path d="M37.0498 301.63H198.72" stroke="#9AA8B8" strokeWidth="0.8534" strokeMiterlimit="10"/>
<path d="M37.0498 171.01H198.72" stroke="#9AA8B8" strokeWidth="0.8534" strokeMiterlimit="10"/>
<path d="M37.0498 188.42H198.72" stroke="#9AA8B8" strokeWidth="0.8534" strokeMiterlimit="10"/>
<path d="M37.0498 205.83H198.72" stroke="#9AA8B8" strokeWidth="0.8534" strokeMiterlimit="10"/>
<path d="M37.0498 223.24H198.72" stroke="#9AA8B8" strokeWidth="0.8534" strokeMiterlimit="10"/>
<path d="M37.0498 240.65H198.72" stroke="#9AA8B8" strokeWidth="0.8534" strokeMiterlimit="10"/>
<path d="M37.0498 258.06H198.72" stroke="#9AA8B8" strokeWidth="0.8534" strokeMiterlimit="10"/>
<path d="M37.0498 275.47H198.72" stroke="#9AA8B8" strokeWidth="0.8534" strokeMiterlimit="10"/>
<path d="M37.0498 292.88H198.72" stroke="#9AA8B8" strokeWidth="0.8534" strokeMiterlimit="10"/>
<path d="M37.0498 310.3H198.72" stroke="#9AA8B8" strokeWidth="0.8534" strokeMiterlimit="10"/>
<path d="M267.64 320.31H227.78C225.3 320.31 223.29 318.3 223.29 315.82V243.03C223.29 240.55 225.3 238.54 227.78 238.54H267.64C270.12 238.54 272.13 240.55 272.13 243.03V315.82C272.13 318.3 270.12 320.31 267.64 320.31Z" fill="#E8F4FF"/>
<path d="M267.64 167.74H227.78C225.3 167.74 223.29 165.73 223.29 163.25V155.85C223.29 153.37 225.3 151.36 227.78 151.36H267.64C270.12 151.36 272.13 153.37 272.13 155.85V163.25C272.13 165.73 270.12 167.74 267.64 167.74Z" fill="#E8F4FF"/>
<path d="M267.64 191.43H227.78C225.3 191.43 223.29 189.42 223.29 186.94V179.54C223.29 177.06 225.3 175.05 227.78 175.05H267.64C270.12 175.05 272.13 177.06 272.13 179.54V186.94C272.13 189.43 270.12 191.43 267.64 191.43Z" fill="#E8F4FF"/>
<path d="M267.64 215.13H227.78C225.3 215.13 223.29 213.12 223.29 210.64V203.24C223.29 200.76 225.3 198.75 227.78 198.75H267.64C270.12 198.75 272.13 200.76 272.13 203.24V210.64C272.13 213.12 270.12 215.13 267.64 215.13Z" fill="#E8F4FF"/>
<path d="M32.6304 150.76C32.6304 152.13 31.5204 153.25 30.1404 153.25C28.7704 153.25 27.6504 152.14 27.6504 150.76C27.6504 149.38 28.7604 148.27 30.1404 148.27C31.5104 148.27 32.6304 149.39 32.6304 150.76Z" fill="#BBD6F2"/>
<path d="M32.6304 321.35C32.6304 322.72 31.5204 323.84 30.1404 323.84C28.7704 323.84 27.6504 322.73 27.6504 321.35C27.6504 319.98 28.7604 318.86 30.1404 318.86C31.5104 318.86 32.6304 319.98 32.6304 321.35Z" fill="#BBD6F2"/>
<path d="M296.56 150.76C296.56 152.13 295.45 153.25 294.07 153.25C292.7 153.25 291.58 152.14 291.58 150.76C291.58 149.38 292.69 148.27 294.07 148.27C295.45 148.27 296.56 149.39 296.56 150.76Z" fill="#BBD6F2"/>
<path d="M296.56 321.35C296.56 322.72 295.45 323.84 294.07 323.84C292.7 323.84 291.58 322.73 291.58 321.35C291.58 319.98 292.69 318.86 294.07 318.86C295.45 318.86 296.56 319.98 296.56 321.35Z" fill="#BBD6F2"/>
<path d="M261.67 250.63H234.52C233.33 250.63 232.36 249.66 232.36 248.47C232.36 247.28 233.33 246.31 234.52 246.31H261.67C262.86 246.31 263.83 247.28 263.83 248.47C263.83 249.66 262.87 250.63 261.67 250.63Z" fill="#CADCED"/>
<path d="M261.67 262.23H234.52C233.33 262.23 232.36 261.26 232.36 260.07C232.36 258.88 233.33 257.91 234.52 257.91H261.67C262.86 257.91 263.83 258.88 263.83 260.07C263.83 261.26 262.87 262.23 261.67 262.23Z" fill="#CADCED"/>
<path d="M261.67 273.83H234.52C233.33 273.83 232.36 272.86 232.36 271.67C232.36 270.48 233.33 269.51 234.52 269.51H261.67C262.86 269.51 263.83 270.48 263.83 271.67C263.83 272.87 262.87 273.83 261.67 273.83Z" fill="#CADCED"/>
<path d="M396.95 41.73C396.95 41.73 394.66 36.24 394.13 35.15C393.6 34.05 390.75 30.42 389.79 29.85C388.84 29.27 384.48 28 384.36 28.28C384.24 28.56 384.23 29.96 384.47 30.39C384.7 30.82 384.98 31.41 384.93 33.64C384.88 35.87 384.42 37.72 385.59 39.14C386.76 40.57 387.25 41.26 388.94 42.06C390.63 42.86 392.29 44.74 392.43 45.03L396.95 41.73Z" fill="#FEC4AD"/>
<path d="M458.85 82.04C458.85 82.04 463.7 113.16 450.03 102.29C441.52 95.51 414.85 74.06 414.85 74.06L389.29 43.5C389.29 43.5 393.23 39.58 396.73 39.49L424.09 63.59C424.09 63.59 457.55 76.98 458.85 82.04Z" fill="#FFBC00"/>
<path d="M407.23 35.34L403.47 27.19C402.44 24.95 400.2 23.52 397.73 23.52H184.77C182.3 23.52 180.06 24.95 179.03 27.19L175.27 35.34L173.42 83.62L179.26 104.13C180.08 107.01 182.71 109 185.71 109H396.78C399.77 109 402.41 107.01 403.23 104.13L409.07 83.62L407.23 35.34Z" fill="#CADCED"/>
<path d="M404 74.1H168.35L174.19 94.61C175.01 97.49 177.64 99.48 180.64 99.48H391.71C394.7 99.48 397.34 97.49 398.16 94.61L404 74.1Z" fill="#E8F4FF"/>
<path d="M404 74.1H168.35L170.2 25.82H402.15L404 74.1Z" fill="white"/>
<path d="M392.649 14H179.689C177.219 14 174.979 15.43 173.949 17.67L170.189 25.82H402.139L398.379 17.67C397.359 15.43 395.119 14 392.649 14Z" fill="white"/>
<path d="M183.609 54.76L183.399 59.7C183.329 61.38 184.669 62.78 186.359 62.78H385.979C387.659 62.78 389.009 61.38 388.939 59.7L388.729 54.76H183.609Z" fill="#E8F4FF"/>
<path d="M386.1 94H186.25L182.52 80.78H389.82L386.1 94Z" fill="#4D6A8A"/>
<path d="M384.42 86.09H186.61L185.75 83.33H385.27L384.42 86.09Z" fill="#E8F4FF"/>
<path d="M383.46 89.19H187.57L186.95 87.19H384.08L383.46 89.19Z" fill="#E8F4FF"/>
<path d="M382.8 91.32H188.23L187.83 90.04H383.2L382.8 91.32Z" fill="#E8F4FF"/>
<path d="M382.42 92.54H188.6L188.42 91.95H382.61L382.42 92.54Z" fill="#E8F4FF"/>
<path d="M212.67 40.6H195.99C193.88 40.6 192.17 38.89 192.17 36.78C192.17 34.67 193.88 32.96 195.99 32.96H212.67C214.78 32.96 216.49 34.67 216.49 36.78C216.49 38.89 214.78 40.6 212.67 40.6Z" fill="#E8F4FF"/>
<path d="M226.39 38.49H223.51C222.56 38.49 221.8 37.72 221.8 36.78C221.8 35.83 222.57 35.07 223.51 35.07H226.39C227.34 35.07 228.1 35.84 228.1 36.78C228.1 37.72 227.33 38.49 226.39 38.49Z" fill="#BBD6F2"/>
<path opacity="0.39" d="M385.99 62.78H186.36C184.68 62.78 183.33 61.38 183.4 59.7L184.71 28.57C184.78 26.98 186.08 25.73 187.67 25.73H384.68C386.27 25.73 387.57 26.98 387.64 28.57L388.95 59.7C389.01 61.38 387.67 62.78 385.99 62.78Z" stroke="#8EB2D9" strokeWidth="0.9229" strokeMiterlimit="10"/>
<path d="M463.03 309.67V319.75H449.53C449.53 319.75 447.6 315.73 454 314.14L454.94 309.67H463.03Z" fill="#133A50"/>
<path d="M439.26 309.67V319.75H425.88C425.88 319.75 426.46 315.87 430.35 314.14L431.62 309.67H439.26Z" fill="#133A50"/>
<path d="M459.96 153.23C459.96 153.23 462.52 184.83 462.6 209.79C462.69 234.75 464.18 311.84 464.18 311.84H454.1C454.1 311.84 443.71 244.62 439.93 228.57C436.15 212.53 426.33 153.53 426.33 153.53L459.96 153.23Z" fill="#004B9A"/>
<path d="M443.34 183.16C443.34 183.16 438.92 230.81 438.54 238.3C438.16 245.79 439.78 311.81 439.78 311.81C439.78 311.81 430.34 312.07 430.34 311.81C430.34 311.55 417.44 243.73 416.28 225.28C415.59 214.29 412.98 208.42 411.99 197.76C411.31 190.52 412.08 176.36 412.01 175.16C411.68 168.93 415.1 158.53 415.1 158.53L431.77 156.93L443.34 183.16Z" fill="#004B9A"/>
<path d="M354.74 50.3C354.74 50.3 351.4 45.38 350.66 44.41C349.92 43.44 347.48 40.09 346.43 39.71C345.38 39.33 342.09 39.92 341.8 40.32C339.51 43.47 338.72 44.13 339.11 46.33C339.51 48.53 341.65 48.85 343.09 50.02C344.52 51.19 345.14 51.77 346.96 52.22C348.78 52.67 350.78 54.18 350.97 54.44L354.74 50.3Z" fill="#FEC4AD"/>
<path d="M424.43 43.2C422.32 44.47 421.45 48.01 421.45 48.01C421.45 48.01 420.63 52.04 420.11 55.1C419.59 58.16 416.98 60.56 417.3 61.37C417.61 62.18 419.39 62.2 419.38 63.33C419.37 64.46 419.82 67.72 419.79 69.97C419.77 72.22 422.02 72.56 424.12 72.75C426.22 72.93 428.96 73.45 429.43 74.42C429.9 75.39 430.46 85.32 430.46 85.32L445.85 79.28C445.85 79.28 444.22 74.32 444.38 70.01C444.54 65.7 444.76 60.54 444.76 60.54C444.76 60.54 443.89 51.17 438.12 47.39C432.33 43.61 424.43 43.2 424.43 43.2Z" fill="#FEC4AD"/>
<path d="M428.57 48.09C427.12 47.91 425.19 46.59 422.96 46.57C421.54 46.56 421.41 42.86 423.83 40.3C425.22 38.83 426.96 39.8 428.67 39.05C433.37 37 442.25 37.1 445.25 43.75C445.25 43.75 451.2 46.24 451.47 50.92C451.74 55.6 450.73 57.42 448.46 60.57C446.16 63.76 444.37 70 444.37 70C444.37 70 441.58 70.18 438.84 69.99C436.1 69.8 434.78 64.92 433.67 62.98L427.95 61L426.17 61.14C426.17 61.14 425.73 56.68 425.92 53.91C426.12 51.13 428.57 48.09 428.57 48.09Z" fill="#6B2418"/>
<path d="M444.27 77.38C444.27 77.38 437.69 78.58 434.46 79.01C433.11 79.19 431.49 79.22 430.07 79.19C428.09 79.15 419.79 81.05 419.79 81.05C419.79 81.05 412.62 90.18 412.27 100.51C411.92 110.84 413.16 159.22 412.8 162.66C412.8 162.66 416.02 170.15 438.92 169.52C452.23 169.15 461.83 165.31 461.83 165.31C461.83 165.31 462.54 136.28 462.62 127.23C462.91 91.25 461.1 84.02 456.59 79.5C453.09 75.99 444.27 77.38 444.27 77.38Z" fill="#FFBC00"/>
<path d="M424.48 81.3C429.51 81.11 436.25 98.34 418.81 99.1C404.83 99.71 370.76 82.22 370.76 82.22L347.59 53.56C347.59 53.56 350.68 48.93 354.09 48.15L377.74 70.12C377.74 70.11 412.42 81.76 424.48 81.3Z" fill="#FFBC00"/>
<path d="M412.21 127.09C412.83 132.03 414.15 131.75 415.22 131.73C421.35 131.58 425.8 113.64 426.33 104.6C427.33 87.76 423.62 80.23 423.62 80.23L428.1 79.4C428.1 79.4 428.08 83.86 433.94 87.21C437.42 89.2 448.71 88.72 449.36 83.75C450.01 78.78 446.77 77.14 446.77 77.14L451.5 77.1C451.5 77.1 456.22 82.14 459.67 92.21C463.5 103.42 462.43 109.8 462.97 113.28C463.51 116.76 463.36 175.91 462.65 180.27C461.94 184.62 462.27 192.74 462.27 192.74L412 175.14C412 175.14 411 162.05 411 153.22C411.01 138.49 412.21 127.09 412.21 127.09Z" fill="#004B9A"/>
<path d="M421.45 48.01C421.45 48.01 412.72 43.74 412.53 37.87C412.34 32 422.76 31.21 426.26 32.58C430.85 34.38 437.27 41.35 437.27 41.35L421.45 48.01Z" fill="#1C237A"/>
<path d="M421.449 48.01C421.449 48.01 424.699 55.38 432.129 59.68C439.209 63.77 447.219 64.26 447.219 64.26C447.219 64.26 454.209 59.39 452.939 50.57C451.669 41.75 443.689 35.15 432.269 37.17C423.819 38.67 421.449 48.01 421.449 48.01Z" fill="#004B9A"/>
<path d="M424.889 59.12C424.889 59.12 427.259 59.23 427.809 59.12C428.359 59.01 429.239 57.03 430.789 56.8C432.329 56.58 433.499 56.78 433.659 58.67C433.819 60.56 433.179 61.47 431.559 63.22C430.129 64.76 429.669 66.42 427.569 66.18C425.479 65.94 425.849 63.47 425.849 63.08C425.849 62.69 424.489 61.47 424.489 61.47L424.889 59.12Z" fill="#FEC4AD"/>
<path d="M428.069 303.74H440.579L439.779 311.81H430.339L428.069 303.74Z" fill="#2873AC"/>
<path d="M452.26 303.74H464.99L464.18 311.84H454.11L452.26 303.74Z" fill="#2873AC"/>
<path d="M447.26 185.2L448.77 202.91L458.68 202.48L459.27 184.81L447.26 185.2Z" fill="#1C237A"/>
<path d="M418.819 185.2L420.339 202.91L430.249 202.48L431.839 184.81L418.819 185.2Z" fill="#1C237A"/>
<path d="M537.311 327.87C537.311 327.87 534.951 293.2 540.371 285.24C544.961 278.5 541.781 268.44 540.701 265.5C540.511 264.98 540.541 264.39 540.801 263.92C541.951 261.77 544.941 255.42 543.291 249.94C541.781 244.91 538.551 242.02 537.021 240.89C536.531 240.53 536.281 239.85 536.381 239.19C537.071 234.25 538.701 214.77 522.451 210.32C521.851 210.15 521.231 210.49 520.911 211.12C519.941 213.05 517.991 217.62 517.331 224.44C516.641 231.47 519.401 237.66 520.761 240.22C521.131 240.92 521.041 241.84 520.511 242.39C518.851 244.13 515.791 248.26 517.221 253.91C518.641 259.54 520.301 262.73 521.061 264.01C521.321 264.44 521.391 264.98 521.261 265.49C520.611 268.01 518.941 275.96 521.491 283.51C524.571 292.64 536.231 328.66 535.451 345.46C535.441 345.46 536.361 341.2 537.311 327.87Z" fill="#3A46B0"/>
<path d="M524.471 218.67C524.471 218.67 533.131 245.42 537.281 323.99" stroke="#E7F3FF" strokeWidth="0.438" strokeMiterlimit="10"/>
<path d="M535.07 317.26C535.07 317.26 537.03 289.31 532.44 280.83C528.55 273.65 532.76 263.95 534.13 261.15C534.37 260.66 534.39 260.07 534.18 259.56C533.25 257.29 530.94 250.68 533.13 245.41C535.15 240.56 538.67 238.01 540.29 237.04C540.8 236.74 541.12 236.12 541.1 235.44C540.91 230.5 541.25 210.91 557.88 208.12C558.51 208.02 559.11 208.43 559.37 209.11C560.15 211.15 561.59 215.88 561.56 222.69C561.53 229.77 558.14 235.64 556.53 238.05C556.09 238.7 556.11 239.63 556.58 240.25C558.05 242.16 560.65 246.57 558.66 252.03C556.66 257.52 554.68 260.53 553.79 261.71C553.5 262.1 553.38 262.62 553.46 263.13C553.85 265.69 554.7 273.78 551.4 281.05C547.41 289.82 539.28 322.8 538.35 339.6C538.36 339.59 534.66 330.62 535.07 317.26Z" fill="#5B80CD"/>
<path d="M550.58 261.74C560.63 243.11 573.62 239.47 577.76 238.77C578.55 238.64 579.28 239.29 579.38 240.22C579.65 242.71 579.45 247.6 574.85 251.49L569.91 255.67C569.19 256.28 569.12 257.5 569.74 258.25C571.43 260.31 573.41 264.69 567.05 270.52C561.23 275.85 557.91 279.28 556.3 281.04C555.66 281.73 555.69 282.91 556.34 283.58C558.16 285.46 560.82 289.52 556.36 294.42C550.18 301.22 539.68 329.14 538.49 341.32C538.5 341.34 538.45 284.22 550.58 261.74Z" fill="#E7F3FF"/>
<path d="M523.85 246.37C513.8 227.74 500.81 224.1 496.67 223.4C495.88 223.27 495.15 223.92 495.05 224.85C494.78 227.34 494.98 232.23 499.58 236.12L504.52 240.3C505.24 240.91 505.31 242.13 504.69 242.88C503 244.94 501.02 249.32 507.38 255.15C513.2 260.48 516.52 263.91 518.13 265.67C518.77 266.36 518.74 267.54 518.09 268.21C516.27 270.09 513.61 274.15 518.07 279.05C524.25 285.85 534.75 313.77 535.94 325.95C535.93 325.96 535.97 268.84 523.85 246.37Z" fill="#C9DEFD"/>
<path d="M535.62 323.98C529.54 306.95 527.33 293.01 519.15 276.74C514.31 267.11 508.77 248.5 492.43 237.45C491.45 236.79 490.23 237.66 490.26 239C490.4 244.35 491.17 255.54 495.19 260.38C497.33 262.95 498.64 264.47 499.43 265.36C500.03 266.02 500.04 267.12 499.46 267.81C497.77 269.82 495.58 274.28 501.78 280.41C507.43 285.99 510.83 289.16 512.49 290.68C513.13 291.27 513.23 292.35 512.73 293.1C511.33 295.18 509.51 299.49 514.41 303.7C524.49 312.36 533.02 326.42 538.52 341.05L535.62 323.98Z" fill="#5B80CD"/>
<path d="M537.28 337.04C534.03 265.76 555.65 215.7 555.65 215.7" stroke="#3D5A7A" strokeWidth="0.5242" strokeMiterlimit="10" stroke-linecap="round" stroke-linejoin="round"/>
<path d="M494.28 243.89C494.28 243.89 528.98 295.05 536.63 335.72" stroke="#3D5A7A" strokeWidth="0.5242" strokeMiterlimit="10" stroke-linecap="round" stroke-linejoin="round"/>
<path d="M526.15 353.64H544.72C548.83 353.64 552.3 350.6 552.85 346.53L557.01 315.42H513.86L518.02 346.53C518.57 350.6 522.04 353.64 526.15 353.64Z" stroke="#3D5A7A" strokeWidth="0.482" strokeMiterlimit="10" stroke-linecap="round" stroke-linejoin="round"/>
<path d="M554.09 337.27L552.85 346.52C552.31 350.59 548.83 353.63 544.72 353.63H526.15C522.04 353.63 518.57 350.59 518.02 346.52L516.78 337.27H554.09Z" fill="#4E5683"/>
<path d="M510.97 315.124H559.75V307.954H510.97V315.124Z" stroke="#3D5A7A" strokeWidth="0.482" strokeMiterlimit="10" stroke-linecap="round" stroke-linejoin="round"/>
</g>
<defs>
<clipPath id="clip0_588_10952">
<rect width="579.46" height="346.29" fill="white" transform="translate(0 14)"/>
</clipPath>
</defs>
</svg>
