<svg width="20" height="24" viewBox="0 0 20 24" fill="none" xmlns="http://www.w3.org/2000/svg">
<g clipPath="url(#clip0_262_29654)">
<path d="M10.5658 0C11.0199 0.070821 11.4798 0.115813 11.9264 0.216629C13.7228 0.620726 14.7634 1.76969 15.1067 3.55272C15.3483 4.80833 15.4283 6.08894 15.285 7.35622C14.9867 9.9991 13.6094 11.8713 11.1207 12.8836C10.1642 13.2727 9.23436 13.1369 8.33702 12.6953C6.23322 11.6613 4.98094 9.9766 4.67182 7.657C4.45769 6.04562 4.51102 4.4209 4.99677 2.8545C5.43752 1.43225 6.45735 0.579899 7.89376 0.238292C8.36951 0.124978 8.8611 0.0774865 9.34601 0C9.75344 0 10.1592 0 10.5658 0ZM5.39753 5.65985C5.3742 5.66152 5.35171 5.66318 5.32838 5.66402C5.3717 6.33973 5.3642 7.02295 5.46752 7.68866C5.75497 9.53001 6.73313 10.9123 8.35785 11.8329C9.30685 12.3704 10.255 12.4837 11.2748 11.9779C13.7877 10.7306 14.7617 8.32855 14.5176 5.65485C14.3918 5.80066 14.2777 5.95563 14.1402 6.08728C13.9161 6.30141 13.7386 6.3089 13.4978 6.12227C13.2637 5.94064 13.0404 5.744 12.8096 5.5582C11.3607 4.39424 9.07439 4.26509 7.51633 5.27742C7.12556 5.53154 6.77479 5.84732 6.40236 6.12977C6.17989 6.29807 5.99743 6.29807 5.79496 6.10977C5.64999 5.97396 5.53001 5.81066 5.39753 5.65985ZM11.7073 2.41125C10.5216 2.02465 9.37267 2.02298 8.20621 2.41375C8.31869 2.6987 8.43117 2.96282 8.52615 3.23361C8.57365 3.36942 8.63947 3.38441 8.77111 3.35692C9.09022 3.28943 9.41433 3.19278 9.73511 3.19944C10.2059 3.20944 10.6741 3.30276 11.1449 3.34942C11.2157 3.35608 11.3365 3.32109 11.359 3.2711C11.4856 2.99615 11.589 2.7112 11.7073 2.41125Z" fill="#383737"/>
<path d="M9.9825 15.5856C10.1925 15.0332 10.4083 14.4833 10.6091 13.9276C10.6907 13.701 10.8257 13.561 11.0615 13.5043C11.6922 13.3527 12.2663 13.0736 12.7779 12.6778C13.0145 12.4953 13.2228 12.4903 13.4836 12.6378C14.8425 13.4052 16.2039 14.1684 17.5762 14.9116C18.3044 15.3065 18.7426 15.9264 19.0676 16.6554C19.5125 17.6544 19.7533 18.7109 19.9224 19.7841C19.9483 19.9474 19.8641 20.1532 19.7725 20.304C19.4717 20.8014 19.0334 21.1713 18.5452 21.4729C18.2011 21.6854 17.8303 21.8545 17.4754 22.0503C17.3629 22.1128 17.2854 22.1103 17.1896 22.0145C17.0979 21.9229 16.9788 21.857 16.863 21.7737C17.2379 21.5896 17.5012 21.3071 17.5112 20.878C17.5162 20.6622 17.4762 20.4173 17.3737 20.2306C16.2956 18.2718 13.5002 18.0744 12.1463 19.8557C12.0505 19.9824 11.9522 20.0274 11.7972 20.0265C10.5624 20.0207 9.32845 20.0207 8.09367 20.0274C7.94286 20.0282 7.85371 19.9774 7.76456 19.8607C6.39813 18.0752 3.64194 18.2693 2.5313 20.224C2.24802 20.7231 2.343 21.4429 3.03955 21.777C2.91874 21.872 2.80209 21.972 2.67544 22.057C2.63379 22.0853 2.55713 22.0987 2.51381 22.0795C1.72311 21.7304 0.98074 21.308 0.393342 20.6531C0.0675653 20.2898 -0.079909 19.9215 0.0425696 19.3991C0.293359 18.3326 0.550814 17.2762 1.0449 16.2905C1.31985 15.7414 1.68478 15.2807 2.23552 14.9774C3.66361 14.1892 5.08669 13.3935 6.50978 12.5962C6.71391 12.482 6.88888 12.4978 7.07218 12.6361C7.62042 13.0502 8.22115 13.356 8.8927 13.5143C9.10183 13.5635 9.22097 13.7018 9.29346 13.9001C9.50009 14.4625 9.71589 15.0216 9.92752 15.5815C9.94668 15.5856 9.96501 15.5856 9.9825 15.5856Z" fill="#383737"/>
<path d="M4.39584 20.9147C4.12255 20.9147 3.84843 20.9205 3.57598 20.9114C3.49099 20.908 3.38518 20.8839 3.33185 20.828C3.30436 20.7989 3.35435 20.6706 3.39684 20.6047C3.84843 19.9065 4.49915 19.5441 5.32484 19.5666C6.17886 19.5899 6.82708 19.9999 7.23368 20.7581C7.3145 20.9089 7.39532 20.9655 7.56945 20.9647C9.15585 20.9572 10.7414 20.9572 12.3278 20.9639C12.5053 20.9647 12.6002 20.9189 12.6861 20.7522C13.4551 19.255 15.5922 19.155 16.4962 20.5689C16.5454 20.6456 16.5521 20.7489 16.5779 20.8397C16.4921 20.8639 16.4071 20.9072 16.3213 20.908C15.7822 20.9147 15.2431 20.9205 14.7041 20.908C14.5232 20.9039 14.4374 20.9647 14.4358 21.1355C14.4333 21.5712 14.4366 22.0062 14.4416 22.4419C14.4433 22.6061 14.5282 22.6594 14.6974 22.6552C15.244 22.6427 15.7914 22.6461 16.3379 22.6527C16.4221 22.6536 16.5287 22.6819 16.5812 22.7385C16.6087 22.7685 16.5596 22.8968 16.5171 22.9618C16.0588 23.6667 15.4014 24.0283 14.5657 23.9983C13.7201 23.9683 13.0827 23.5551 12.6811 22.8077C12.6002 22.6577 12.5203 22.5986 12.3461 22.5994C10.7597 22.6069 9.17418 22.6069 7.58778 22.5994C7.40865 22.5986 7.31616 22.6477 7.22951 22.8119C6.82708 23.5742 6.17136 23.9725 5.31984 23.9975C4.50248 24.0216 3.85926 23.6592 3.40684 22.976C3.36101 22.9068 3.31686 22.781 3.34852 22.7327C3.38601 22.676 3.50849 22.6561 3.59431 22.6552C4.13338 22.6486 4.67245 22.6427 5.21153 22.6552C5.3915 22.6594 5.47981 22.5994 5.47981 22.4278C5.47981 21.9845 5.47398 21.5412 5.46732 21.0988C5.46482 20.953 5.38983 20.903 5.24069 20.9089C4.95991 20.9214 4.67829 20.9122 4.39667 20.9122C4.39584 20.9139 4.39584 20.9139 4.39584 20.9147Z" fill="#383737"/>
</g>
<defs>
<clipPath id="clip0_262_29654">
<rect width="19.9274" height="24" fill="white"/>
</clipPath>
</defs>
</svg>
