<svg width="216" height="63" viewBox="0 0 216 63" fill="none" xmlns="http://www.w3.org/2000/svg">
<path fill-rule="evenodd" clip-rule="evenodd" d="M26.1779 22.3854C25.4481 22.1421 24.6943 22.6854 24.6943 23.4548V43.4192H42.3223C43.7144 40.3681 46.2536 37.9505 49.3886 36.7175V31.2101C49.3886 30.9119 49.3126 30.6187 49.1678 30.3581L48.4577 29.08C48.1564 28.5376 47.3913 28.498 47.0356 29.0062C46.5726 29.6676 45.5342 29.3586 45.5081 28.5517L45.4175 25.7422C45.3843 24.7125 43.9687 24.4588 43.58 25.4129C43.0044 26.8257 40.9626 26.6962 40.5702 25.2219L39.1549 19.905C38.9946 19.303 38.1348 19.3196 37.9978 19.9273L36.6479 25.9176C36.3431 27.2703 34.4119 27.2596 34.122 25.9037L33.9273 24.9931C33.7256 24.0496 32.365 24.0929 32.2236 25.0472C32.0882 25.9611 30.8073 26.0563 30.5383 25.1725L30.1193 23.7957C29.9093 23.1057 28.937 23.0929 28.709 23.7771C28.5053 24.3881 27.6725 24.4655 27.3597 23.9025L26.8068 22.9074C26.6699 22.6608 26.4455 22.4746 26.1779 22.3854ZM33.5588 30.7556H36.0916V33.2884H33.5588V30.7556ZM39.8909 30.7556H37.3582V33.2884H39.8909V30.7556ZM33.5588 34.5549H36.0916V37.0877H33.5588V34.5549ZM39.8909 34.5549H37.3582V37.0877H39.8909V34.5549Z" fill="#E74216"/>
<path fill-rule="evenodd" clip-rule="evenodd" d="M41.8232 44.6855H24.6943V50.3842H41.2528C41.1897 49.8653 41.1572 49.337 41.1572 48.8011C41.1572 47.3626 41.3912 45.9788 41.8232 44.6855Z" fill="#E74216"/>
<path fill-rule="evenodd" clip-rule="evenodd" d="M19.6286 30.7554V44.3689C23.7443 47.2182 35.7749 49.7509 43.3731 49.1177C43.424 49.3384 43.4786 49.5777 43.5365 49.8313C44.1986 52.7316 45.2908 57.5165 46.2224 57.9823C45.1297 58.0072 44.0004 58.0568 42.8342 58.1081C34.0885 58.4928 23.2599 58.9692 10.1309 49.7509V35.1877C12.1359 35.3987 16.8426 34.3012 19.6286 30.7554ZM42.5167 54.1503C42.6105 54.7752 42.8472 55.7562 43.2975 56.0062C38.3255 57.0478 27.607 57.4823 20.2584 53.1128C27.8057 55.4962 35.9439 56.9994 42.5167 54.1503Z" fill="black"/>
<path fill-rule="evenodd" clip-rule="evenodd" d="M62.7845 39.1203C56.8299 35.3354 48.9345 37.0943 45.1496 43.049C41.3647 49.0036 43.1236 56.8991 49.0783 60.684C55.0329 64.4688 62.9284 62.7099 66.7133 56.7552C68.4115 54.0834 68.9936 51.0209 68.5814 48.1143C68.5603 47.9654 68.3869 47.8969 68.2674 47.9881C67.9301 48.2453 67.544 48.5304 67.1157 48.8361C66.5947 57.9256 60.1486 60.4099 56.9867 60.5153C62.1266 58.5572 63.7383 53.485 63.9361 50.9556C61.2012 52.6617 57.8291 54.4792 54.5353 55.608C54.0298 55.7812 53.5154 55.3984 53.5151 54.864L53.5104 45.993C53.5102 45.7038 53.6664 45.4372 53.9186 45.2959L59.5237 42.1558L59.5194 42.1529C59.836 42.0474 59.2661 41.5197 54.4539 40.2533C55.5823 39.843 58.5255 39.4526 61.4806 41.0595L63.4807 39.939C63.605 39.8694 63.6176 39.6956 63.5027 39.6113C63.2706 39.4408 63.0312 39.277 62.7845 39.1203Z" fill="black"/>
<path fill-rule="evenodd" clip-rule="evenodd" d="M37.3583 0.679199L14.2471 13.9761L18.0462 16.8254L19.6291 21.8909L37.3583 12.0765L53.8211 21.2577V35.821C56.398 35.5633 58.5378 35.8955 60.1574 36.4091L61.736 19.9912L62.0488 37.1906C62.6195 37.492 63.0466 37.792 63.3189 38.0371V15.8756L37.3583 0.679199ZM60.4394 36.5021C60.5107 36.5229 60.5858 36.5497 60.6632 36.5812C60.5899 36.5545 60.5152 36.5281 60.4394 36.5021ZM37.3582 7.01123L18.9958 16.8256L20.2622 19.3583L37.3582 9.54397L52.8713 18.092L37.3582 7.01123Z" fill="#FCB800"/>
<path fill-rule="evenodd" clip-rule="evenodd" d="M20.2619 23.1573C20.2619 28.7525 15.7261 33.2883 10.131 33.2883C9.92027 33.2883 9.71109 33.2819 9.50359 33.2692C9.36139 33.2605 9.27876 33.1071 9.34631 32.9816L13.4375 25.3838C13.5462 25.1819 13.5372 24.9371 13.4142 24.7437L9.63737 18.8087C9.40987 18.4512 8.90275 18.4138 8.63813 18.7448C5.81647 22.274 3.6393 27.1267 2.71277 29.6225C2.66045 29.7634 2.4778 29.7974 2.38092 29.6825C0.895252 27.9198 0 25.6431 0 23.1573C0 17.5622 4.53579 13.0264 10.131 13.0264C15.7261 13.0264 20.2619 17.5622 20.2619 23.1573ZM11.2853 32.1668C13.6748 31.8606 15.8447 30.6178 17.3178 28.7117C18.791 26.8056 19.4466 24.3924 19.1404 22.003C18.8342 19.6135 17.5914 17.4435 15.6853 15.9704C13.7793 14.4973 10.9374 13.9865 8.54799 14.2927C11.2599 14.9836 12.5622 15.8847 13.7067 16.6766C13.851 16.7764 13.9928 16.8745 14.1346 16.9703C15.9899 18.2229 17.1763 20.3634 17.4125 22.2075C17.6488 24.0516 16.8222 26.7517 15.6853 28.2228C15.4742 28.4555 15.2927 28.6656 15.1201 28.8653C14.3241 29.7864 13.7189 30.4866 11.2853 32.1668Z" fill="#FCB800"/>
<path d="M83.4182 34.3279H77.8012V30.1229H83.4182C84.1837 30.1229 84.8043 29.9936 85.2802 29.735C85.756 29.4764 86.1026 29.1195 86.3198 28.6644C86.5474 28.1989 86.6611 27.6765 86.6611 27.0972C86.6611 26.4765 86.5474 25.9024 86.3198 25.3749C86.1026 24.8473 85.756 24.4232 85.2802 24.1025C84.8043 23.7715 84.1837 23.606 83.4182 23.606H79.8493V41.9932H74.403V19.4009H83.4182C85.2284 19.4009 86.7853 19.732 88.0887 20.394C89.4024 21.0561 90.411 21.9664 91.1144 23.1249C91.8178 24.2732 92.1696 25.5869 92.1696 27.0662C92.1696 28.5247 91.8178 29.7971 91.1144 30.8833C90.411 31.9694 89.4024 32.8177 88.0887 33.428C86.7853 34.028 85.2284 34.3279 83.4182 34.3279ZM95.1022 19.4009H103.993C105.731 19.4009 107.241 19.6596 108.524 20.1768C109.807 20.694 110.795 21.4595 111.488 22.4732C112.191 23.487 112.543 24.7387 112.543 26.2283C112.543 27.5213 112.341 28.6023 111.938 29.4712C111.534 30.3402 110.971 31.0591 110.246 31.6281C109.533 32.1867 108.7 32.647 107.748 33.009L105.964 34.0176H98.5003L98.4693 29.8126H103.993C104.686 29.8126 105.26 29.6885 105.716 29.4402C106.171 29.1919 106.512 28.8402 106.74 28.3851C106.978 27.9196 107.097 27.3662 107.097 26.7248C107.097 26.0731 106.978 25.5145 106.74 25.049C106.502 24.5835 106.15 24.2266 105.685 23.9784C105.229 23.7301 104.666 23.606 103.993 23.606H100.549V41.9932H95.1022V19.4009ZM107.469 41.9932L102.473 32.0005L108.245 31.9694L113.303 41.7604V41.9932H107.469ZM134.949 30.2471V31.1626C134.949 32.8901 134.706 34.4417 134.22 35.8175C133.744 37.183 133.066 38.3519 132.187 39.3243C131.308 40.2863 130.268 41.026 129.068 41.5432C127.868 42.0501 126.544 42.3035 125.096 42.3035C123.637 42.3035 122.303 42.0501 121.093 41.5432C119.893 41.026 118.848 40.2863 117.958 39.3243C117.079 38.3519 116.396 37.183 115.91 35.8175C115.434 34.4417 115.196 32.8901 115.196 31.1626V30.2471C115.196 28.5196 115.434 26.9679 115.91 25.5921C116.396 24.2163 117.074 23.0474 117.943 22.0853C118.822 21.113 119.862 20.3733 121.062 19.8664C122.272 19.3492 123.606 19.0906 125.065 19.0906C126.513 19.0906 127.837 19.3492 129.037 19.8664C130.247 20.3733 131.292 21.113 132.171 22.0853C133.051 23.0474 133.733 24.2163 134.22 25.5921C134.706 26.9679 134.949 28.5196 134.949 30.2471ZM129.425 31.1626V30.216C129.425 29.0988 129.327 28.1161 129.13 27.2679C128.944 26.4093 128.665 25.6904 128.292 25.1111C127.92 24.5318 127.46 24.0973 126.911 23.8077C126.373 23.5077 125.758 23.3577 125.065 23.3577C124.341 23.3577 123.71 23.5077 123.172 23.8077C122.634 24.0973 122.184 24.5318 121.822 25.1111C121.46 25.6904 121.186 26.4093 120.999 27.2679C120.824 28.1161 120.736 29.0988 120.736 30.216V31.1626C120.736 32.2694 120.824 33.2521 120.999 34.1107C121.186 34.959 121.46 35.6779 121.822 36.2675C122.194 36.8572 122.649 37.302 123.187 37.602C123.736 37.9019 124.372 38.0519 125.096 38.0519C125.789 38.0519 126.404 37.9019 126.942 37.602C127.48 37.302 127.93 36.8572 128.292 36.2675C128.665 35.6779 128.944 34.959 129.13 34.1107C129.327 33.2521 129.425 32.2694 129.425 31.1626Z" fill="black"/>
<path d="M149.597 35.9882C149.597 35.6365 149.545 35.321 149.441 35.0417C149.338 34.7521 149.147 34.4831 148.867 34.2348C148.588 33.9866 148.185 33.7383 147.657 33.4901C147.14 33.2314 146.457 32.9625 145.609 32.6832C144.616 32.3522 143.659 31.9798 142.738 31.566C141.818 31.1419 140.995 30.6505 140.271 30.0919C139.547 29.523 138.973 28.8609 138.549 28.1058C138.125 27.3403 137.913 26.4507 137.913 25.4369C137.913 24.4645 138.13 23.5904 138.564 22.8146C138.999 22.0284 139.604 21.3612 140.38 20.813C141.166 20.2544 142.087 19.8302 143.142 19.5406C144.197 19.2406 145.35 19.0906 146.602 19.0906C148.257 19.0906 149.716 19.3803 150.978 19.9595C152.25 20.5285 153.243 21.3405 153.957 22.3957C154.681 23.4404 155.043 24.6766 155.043 26.1041H149.628C149.628 25.5352 149.509 25.0335 149.271 24.599C149.043 24.1646 148.697 23.8232 148.231 23.5749C147.766 23.3267 147.181 23.2025 146.478 23.2025C145.795 23.2025 145.221 23.306 144.755 23.5129C144.29 23.7197 143.938 23.999 143.7 24.3508C143.462 24.6921 143.343 25.0697 143.343 25.4835C143.343 25.8248 143.437 26.1352 143.623 26.4145C143.819 26.6834 144.093 26.9369 144.445 27.1748C144.807 27.4127 145.242 27.6403 145.749 27.8575C146.266 28.0747 146.845 28.2868 147.486 28.4937C148.686 28.8764 149.752 29.3057 150.683 29.7816C151.624 30.2471 152.415 30.7798 153.057 31.3798C153.709 31.9694 154.2 32.6418 154.531 33.397C154.872 34.1521 155.043 35.0055 155.043 35.9572C155.043 36.9709 154.846 37.8709 154.453 38.6571C154.06 39.4433 153.496 40.1105 152.762 40.6587C152.028 41.1966 151.148 41.6052 150.124 41.8845C149.1 42.1638 147.957 42.3035 146.695 42.3035C145.536 42.3035 144.393 42.1587 143.266 41.869C142.149 41.569 141.135 41.1139 140.225 40.5036C139.314 39.8829 138.585 39.0916 138.037 38.1295C137.499 37.1571 137.23 36.0037 137.23 34.6693H142.692C142.692 35.3314 142.78 35.89 142.956 36.3451C143.131 36.8003 143.39 37.1675 143.731 37.4468C144.073 37.7157 144.492 37.9123 144.988 38.0364C145.485 38.1502 146.054 38.2071 146.695 38.2071C147.388 38.2071 147.947 38.1088 148.371 37.9123C148.795 37.7054 149.105 37.4364 149.302 37.1054C149.498 36.7641 149.597 36.3917 149.597 35.9882ZM173.399 37.8037V41.9932H161.358V37.8037H173.399ZM163.298 19.4009V41.9932H157.851V19.4009H163.298ZM171.847 28.3696V32.4194H161.358V28.3696H171.847ZM173.446 19.4009V23.606H161.358V19.4009H173.446ZM175.634 19.4009H184.525C186.262 19.4009 187.773 19.6596 189.055 20.1768C190.338 20.694 191.326 21.4595 192.019 22.4732C192.723 23.487 193.074 24.7387 193.074 26.2283C193.074 27.5213 192.873 28.6023 192.469 29.4712C192.066 30.3402 191.502 31.0591 190.778 31.6281C190.064 32.1867 189.231 32.647 188.28 33.009L186.495 34.0176H179.032L179.001 29.8126H184.525C185.218 29.8126 185.792 29.6885 186.247 29.4402C186.702 29.1919 187.043 28.8402 187.271 28.3851C187.509 27.9196 187.628 27.3662 187.628 26.7248C187.628 26.0731 187.509 25.5145 187.271 25.049C187.033 24.5835 186.681 24.2266 186.216 23.9784C185.761 23.7301 185.197 23.606 184.525 23.606H181.08V41.9932H175.634V19.4009ZM188 41.9932L183.004 32.0005L188.776 31.9694L193.835 41.7604V41.9932H188ZM204.603 36.671L209.305 19.4009H215.403L207.784 41.9932H203.843L204.603 36.671ZM200.336 19.4009L205.038 36.671L205.829 41.9932H201.841L194.269 19.4009H200.336Z" fill="#E74216"/>
</svg>
