<svg width="189" height="62" viewBox="0 0 189 62" fill="none" xmlns="http://www.w3.org/2000/svg">
<path fill-rule="evenodd" clip-rule="evenodd" d="M26.1135 21.653C25.3854 21.4103 24.6335 21.9522 24.6335 22.7197V42.6351H42.2181C43.6068 39.5914 46.1398 37.1795 49.2671 35.9495V30.456C49.2671 30.1586 49.1913 29.8661 49.0469 29.6061L48.3386 28.3311C48.038 27.7901 47.2748 27.7505 46.9199 28.2575C46.4581 28.9173 45.4222 28.609 45.3962 27.8041L45.3058 25.0015C45.2727 23.9743 43.8606 23.7213 43.4728 24.673C42.8987 26.0824 40.8619 25.9531 40.4704 24.4825L39.0586 19.1786C38.8987 18.5782 38.041 18.5947 37.9044 19.2008L36.5577 25.1765C36.2537 26.5258 34.3272 26.5152 34.0381 25.1626L33.8439 24.2542C33.6427 23.3131 32.2854 23.3562 32.1444 24.3082C32.0093 25.2199 30.7315 25.3148 30.4632 24.4332L30.0452 23.0598C29.8357 22.3715 28.8658 22.3587 28.6383 23.0413C28.4351 23.6507 27.6044 23.728 27.2924 23.1663L26.7408 22.1736C26.6042 21.9277 26.3804 21.7419 26.1135 21.653ZM33.4763 30.0025H36.0029V32.529H33.4763V30.0025ZM39.7927 30.0025H37.2661V32.529H39.7927V30.0025ZM33.4763 33.7922H36.0029V36.3188H33.4763V33.7922ZM39.7927 33.7922H37.2661V36.3188H39.7927V33.7922Z" fill="#F56842"/>
<path fill-rule="evenodd" clip-rule="evenodd" d="M41.7203 43.8984H24.6335V49.5831H41.1512C41.0883 49.0655 41.0559 48.5385 41.0559 48.004C41.0559 46.5689 41.2894 45.1884 41.7203 43.8984Z" fill="#F56842"/>
<path fill-rule="evenodd" clip-rule="evenodd" d="M19.5807 30.0025V43.5825C23.6863 46.4249 35.6872 48.9514 43.2668 48.3198C43.3176 48.5399 43.3721 48.7785 43.4298 49.0316C44.0902 51.9247 45.1798 56.6979 46.1091 57.1626C45.0191 57.1874 43.8926 57.2369 42.7292 57.2881C34.005 57.6718 23.203 58.147 10.1062 48.9514V34.4239C12.1064 34.6344 16.8015 33.5396 19.5807 30.0025ZM42.4125 53.34C42.5061 53.9634 42.7422 54.942 43.1913 55.1914C38.2315 56.2304 27.5395 56.6638 20.2088 52.3051C27.7376 54.6826 35.8558 56.1821 42.4125 53.34Z" fill="#383737"/>
<path fill-rule="evenodd" clip-rule="evenodd" d="M62.6304 38.3466C56.6904 34.5711 48.8143 36.3257 45.0387 42.2657C41.2631 48.2057 43.0178 56.0818 48.9578 59.8574C54.8978 63.633 62.7739 61.8783 66.5494 55.9383C68.2435 53.2731 68.8242 50.218 68.413 47.3185C68.392 47.1701 68.219 47.1017 68.0998 47.1927C67.7633 47.4492 67.3781 47.7337 66.951 48.0386C66.4313 57.1057 60.001 59.584 56.8468 59.6891C61.9741 57.7359 63.5819 52.676 63.7792 50.1528C61.051 51.8548 57.6872 53.6678 54.4014 54.7939C53.8971 54.9667 53.384 54.5848 53.3837 54.0517L53.379 45.2024C53.3788 44.914 53.5346 44.6481 53.7862 44.5071L59.3774 41.3748L59.3731 41.3718C59.6889 41.2666 59.1204 40.7402 54.32 39.4769C55.4457 39.0676 58.3817 38.6782 61.3296 40.2812L63.3248 39.1634C63.4488 39.0939 63.4614 38.9205 63.3468 38.8364C63.1152 38.6664 62.8764 38.503 62.6304 38.3466Z" fill="#383737"/>
<path fill-rule="evenodd" clip-rule="evenodd" d="M37.2664 0L14.2119 13.2642L18.0017 16.1066L19.5808 21.1596L37.2664 11.3693L53.6888 20.528V35.0555C56.2591 34.7985 58.3936 35.1298 60.0092 35.6421L61.5839 19.2647L61.8959 36.4216C62.4654 36.7223 62.8915 37.0216 63.1633 37.2662V15.1591L37.2664 0ZM60.2955 35.7366C60.3633 35.7565 60.4343 35.7818 60.5075 35.8114C60.438 35.7862 60.3673 35.7612 60.2955 35.7366ZM37.2664 6.3163L18.9492 16.1066L20.2124 18.6331L37.2664 8.84282L52.7414 17.3698L37.2664 6.3163Z" fill="#FFBB00"/>
<path fill-rule="evenodd" clip-rule="evenodd" d="M20.2122 22.4229C20.2122 28.0043 15.6875 32.529 10.1061 32.529C9.89591 32.529 9.68724 32.5226 9.48025 32.5099C9.3384 32.5012 9.25598 32.3482 9.32336 32.2231L13.4045 24.6439C13.5129 24.4425 13.504 24.1983 13.3812 24.0053L9.61371 18.085C9.38676 17.7283 8.88089 17.691 8.61692 18.0212C5.80219 21.5417 3.63036 26.3825 2.70611 28.8722C2.65392 29.0128 2.47171 29.0467 2.37507 28.932C0.893053 27.1736 0 24.9026 0 22.4229C0 16.8415 4.52465 12.3168 10.1061 12.3168C15.6875 12.3168 20.2122 16.8415 20.2122 22.4229ZM11.2575 31.4103C13.6411 31.1049 15.8058 29.8651 17.2753 27.9637C18.7448 26.0623 19.3987 23.655 19.0933 21.2714C18.7879 18.8878 17.5482 16.7232 15.6468 15.2537C13.7454 13.7842 10.9105 13.2747 8.52693 13.5801C11.2322 14.2693 12.5313 15.1682 13.673 15.9581C13.8169 16.0577 13.9584 16.1556 14.0998 16.2511C15.9506 17.5007 17.134 19.6359 17.3697 21.4755C17.6054 23.315 16.7809 26.0085 15.6468 27.476C15.4362 27.7081 15.255 27.9177 15.0829 28.1169C14.2889 29.0357 13.6852 29.7342 11.2575 31.4103Z" fill="#FFBB00"/>
<path d="M83.2136 33.6374H77.6104V29.4427H83.2136C83.9772 29.4427 84.5963 29.3137 85.071 29.0557C85.5457 28.7977 85.8914 28.4417 86.1081 27.9877C86.3351 27.5233 86.4486 27.0022 86.4486 26.4244C86.4486 25.8052 86.3351 25.2325 86.1081 24.7062C85.8914 24.18 85.5457 23.7569 85.071 23.437C84.5963 23.1068 83.9772 22.9417 83.2136 22.9417H79.6535V41.2838H74.2206V18.747H83.2136C85.0194 18.747 86.5724 19.0772 87.8726 19.7376C89.1831 20.3981 90.1892 21.3061 90.8909 22.4619C91.5926 23.6073 91.9435 24.9178 91.9435 26.3934C91.9435 27.8484 91.5926 29.1176 90.8909 30.2011C90.1892 31.2846 89.1831 32.1308 87.8726 32.7396C86.5724 33.3381 85.0194 33.6374 83.2136 33.6374ZM99.884 28.6842V41.2838H94.6677V24.536H99.5434L99.884 28.6842ZM104.837 24.4122L104.744 29.2569C104.538 29.2363 104.259 29.2105 103.908 29.1795C103.558 29.1486 103.263 29.1331 103.026 29.1331C102.417 29.1331 101.891 29.2053 101.447 29.3498C101.014 29.484 100.653 29.6903 100.364 29.9689C100.085 30.2372 99.8788 30.5778 99.7447 30.9905C99.6208 31.4033 99.5641 31.8831 99.5744 32.43L98.6302 31.8109C98.6302 30.6861 98.7385 29.6645 98.9552 28.7461C99.1823 27.8174 99.5022 27.0177 99.9149 26.347C100.328 25.6659 100.828 25.1448 101.416 24.7836C102.005 24.4122 102.665 24.2264 103.398 24.2264C103.656 24.2264 103.908 24.2419 104.156 24.2728C104.414 24.3038 104.641 24.3502 104.837 24.4122ZM105.425 33.0801V32.7551C105.425 31.5271 105.601 30.3972 105.952 29.3653C106.302 28.3231 106.818 27.4201 107.499 26.6565C108.18 25.8929 109.021 25.2996 110.022 24.8765C111.023 24.4431 112.179 24.2264 113.49 24.2264C114.81 24.2264 115.971 24.4431 116.972 24.8765C117.984 25.2996 118.83 25.8929 119.511 26.6565C120.192 27.4201 120.708 28.3231 121.059 29.3653C121.409 30.3972 121.585 31.5271 121.585 32.7551V33.0801C121.585 34.2978 121.409 35.4277 121.059 36.4699C120.708 37.5018 120.192 38.4047 119.511 39.1787C118.83 39.9423 117.989 40.5356 116.988 40.9587C115.987 41.3818 114.831 41.5933 113.521 41.5933C112.21 41.5933 111.049 41.3818 110.038 40.9587C109.027 40.5356 108.18 39.9423 107.499 39.1787C106.818 38.4047 106.302 37.5018 105.952 36.4699C105.601 35.4277 105.425 34.2978 105.425 33.0801ZM110.642 32.7551V33.0801C110.642 33.7096 110.688 34.2978 110.781 34.8447C110.874 35.3916 111.029 35.8714 111.245 36.2842C111.462 36.6866 111.756 37.0014 112.127 37.2284C112.499 37.4554 112.963 37.5689 113.521 37.5689C114.067 37.5689 114.521 37.4554 114.883 37.2284C115.254 37.0014 115.548 36.6866 115.765 36.2842C115.982 35.8714 116.136 35.3916 116.229 34.8447C116.322 34.2978 116.369 33.7096 116.369 33.0801V32.7551C116.369 32.1463 116.322 31.5736 116.229 31.037C116.136 30.4901 115.982 30.0102 115.765 29.5975C115.548 29.1744 115.254 28.8442 114.883 28.6068C114.511 28.3695 114.047 28.2508 113.49 28.2508C112.943 28.2508 112.483 28.3695 112.112 28.6068C111.751 28.8442 111.462 29.1744 111.245 29.5975C111.029 30.0102 110.874 30.4901 110.781 31.037C110.688 31.5736 110.642 32.1463 110.642 32.7551Z" fill="#383737"/>
<g filter="url(#filter0_i_227_10040)">
<path d="M138.296 24.1427C137.408 23.6566 136.499 23.2551 135.57 22.9381C134.661 22.6211 133.805 22.4626 133.002 22.4626C132.009 22.4626 131.227 22.6633 130.656 23.0649C130.085 23.4664 129.8 24.0687 129.8 24.8718C129.8 25.4212 130.012 25.9179 130.434 26.3617C130.878 26.7843 131.438 27.1647 132.114 27.5029C132.812 27.841 133.53 28.1474 134.27 28.4222C134.946 28.6758 135.612 28.9822 136.267 29.3415C136.943 29.6796 137.546 30.1128 138.074 30.6412C138.602 31.1484 139.025 31.7929 139.342 32.5749C139.659 33.3357 139.817 34.2761 139.817 35.3962C139.817 36.5796 139.511 37.6786 138.898 38.693C138.285 39.7074 137.387 40.5316 136.204 41.1656C135.02 41.7784 133.562 42.0849 131.829 42.0849C130.941 42.0849 130.033 42.0003 129.103 41.8313C128.194 41.6411 127.296 41.3663 126.408 41.0071C125.521 40.6267 124.665 40.1512 123.841 39.5806L125.869 35.9985C126.419 36.4 127.011 36.7593 127.645 37.0763C128.3 37.3721 128.955 37.6046 129.61 37.7737C130.265 37.9427 130.867 38.0273 131.417 38.0273C131.966 38.0273 132.516 37.9533 133.065 37.8054C133.636 37.6363 134.101 37.3616 134.46 36.9812C134.84 36.6008 135.031 36.0724 135.031 35.3962C135.031 34.9312 134.872 34.5086 134.555 34.1282C134.259 33.7478 133.847 33.3991 133.319 33.0821C132.812 32.7651 132.252 32.4903 131.639 32.2579C130.92 31.9831 130.181 31.6661 129.42 31.3069C128.659 30.9476 127.94 30.5144 127.264 30.0072C126.609 29.4788 126.07 28.8343 125.647 28.0735C125.246 27.2915 125.045 26.3405 125.045 25.2205C125.045 23.8679 125.341 22.695 125.933 21.7017C126.546 20.7085 127.402 19.9265 128.5 19.3559C129.599 18.7642 130.867 18.4366 132.304 18.3732C134.185 18.3732 135.707 18.5951 136.869 19.0389C138.053 19.4827 139.109 20.0111 140.039 20.6239L138.296 24.1427ZM150.405 42.2117C148.715 42.2117 147.278 41.8947 146.094 41.2607C144.932 40.6267 144.044 39.7496 143.431 38.6296C142.819 37.5095 142.512 36.2204 142.512 34.7622C142.512 33.3674 142.871 32.1099 143.59 30.9899C144.308 29.8698 145.27 28.9822 146.475 28.3271C147.679 27.6508 149.021 27.3127 150.501 27.3127C152.487 27.3127 154.114 27.8938 155.382 29.0562C156.671 30.1974 157.506 31.8563 157.887 34.0331L147.109 37.4567L146.126 35.0475L153.924 32.4164L153.005 32.8285C152.836 32.279 152.529 31.8035 152.086 31.402C151.663 30.9793 151.018 30.768 150.152 30.768C149.497 30.768 148.916 30.9265 148.408 31.2435C147.922 31.5393 147.542 31.9726 147.267 32.5432C147.014 33.0926 146.887 33.7478 146.887 34.5086C146.887 35.375 147.045 36.1041 147.362 36.6959C147.679 37.2665 148.112 37.6997 148.662 37.9956C149.211 38.2914 149.824 38.4394 150.501 38.4394C150.987 38.4394 151.452 38.3548 151.895 38.1858C152.36 38.0167 152.815 37.7948 153.258 37.5201L155.224 40.8169C154.484 41.2395 153.681 41.5777 152.815 41.8313C151.969 42.0849 151.166 42.2117 150.405 42.2117ZM165.106 27.9784L165.518 31.7824L165.423 31.2118C165.824 30.3876 166.374 29.6902 167.071 29.1196C167.769 28.5278 168.455 28.0735 169.132 27.7565C169.829 27.4395 170.357 27.281 170.717 27.281L170.495 31.719C169.459 31.5922 168.572 31.7612 167.832 32.2262C167.092 32.6911 166.522 33.304 166.12 34.0648C165.719 34.8256 165.518 35.6075 165.518 36.4106V41.8313H161.112V27.9784H165.106ZM180.454 42.1166L172.148 27.9784H177.41L182.134 37.5518L179.407 37.4567L183.497 27.9784H188.442L180.58 42.1166H180.454Z" fill="#F56842"/>
</g>
<defs>
<filter id="filter0_i_227_10040" x="123.841" y="18.3733" width="64.6013" height="25.4234" filterUnits="userSpaceOnUse" color-interpolation-filters="sRGB">
<feFlood flood-opacity="0" result="BackgroundImageFix"/>
<feBlend mode="normal" in="SourceGraphic" in2="BackgroundImageFix" result="shape"/>
<feColorMatrix in="SourceAlpha" type="matrix" values="0 0 0 0 0 0 0 0 0 0 0 0 0 0 0 0 0 0 127 0" result="hardAlpha"/>
<feOffset dy="1.585"/>
<feGaussianBlur stdDeviation="0.792501"/>
<feComposite in2="hardAlpha" operator="arithmetic" k2="-1" k3="1"/>
<feColorMatrix type="matrix" values="0 0 0 0 0 0 0 0 0 0 0 0 0 0 0 0 0 0 0.25 0"/>
<feBlend mode="normal" in2="shape" result="effect1_innerShadow_227_10040"/>
</filter>
</defs>
</svg>
