<svg width="12" height="13" viewBox="0 0 12 13" fill="none" xmlns="http://www.w3.org/2000/svg">
<path d="M6 0.343262C6.19891 0.343262 6.38968 0.422279 6.53033 0.562932C6.67098 0.703584 6.75 0.894349 6.75 1.09326V5.59326H11.25C11.4489 5.59326 11.6397 5.67228 11.7803 5.81293C11.921 5.95358 12 6.14435 12 6.34326C12 6.54217 11.921 6.73294 11.7803 6.87359C11.6397 7.01424 11.4489 7.09326 11.25 7.09326H6.75V11.5933C6.75 11.7922 6.67098 11.9829 6.53033 12.1236C6.38968 12.2642 6.19891 12.3433 6 12.3433C5.80109 12.3433 5.61032 12.2642 5.46967 12.1236C5.32902 11.9829 5.25 11.7922 5.25 11.5933V7.09326H0.75C0.551088 7.09326 0.360322 7.01424 0.21967 6.87359C0.0790178 6.73294 0 6.54217 0 6.34326C0 6.14435 0.0790178 5.95358 0.21967 5.81293C0.360322 5.67228 0.551088 5.59326 0.75 5.59326H5.25V1.09326C5.25 0.894349 5.32902 0.703584 5.46967 0.562932C5.61032 0.422279 5.80109 0.343262 6 0.343262Z" fill="black"/>
</svg>
