<svg width="59" height="60" viewBox="0 0 59 60" fill="none" xmlns="http://www.w3.org/2000/svg">
<path d="M27.5331 60.0009C26.2077 59.4205 25.8079 58.3756 26.0578 56.968C28.744 56.968 31.4512 56.968 34.1568 56.968C34.439 58.503 34.0955 59.2076 32.6879 60.0009C30.9707 60.0009 29.2519 60.0009 27.5331 60.0009Z" fill="white"/>
<path d="M44.3583 35.7879C43.1781 37.2245 41.8704 38.3839 40.4031 39.3658C39.5163 39.9592 38.7327 40.646 38.1845 41.578C37.5847 42.5986 37.3267 43.6999 37.3348 44.8769C37.3445 46.0685 37.3541 47.26 37.3316 48.45C37.2945 50.5025 36.0288 51.757 33.9714 51.7682C31.4125 51.7828 28.8553 51.7811 26.2964 51.7699C24.1713 51.7602 22.9346 50.5057 22.912 48.3661C22.8975 46.9601 22.933 45.5525 22.8588 44.1497C22.7621 42.2778 21.8833 40.7911 20.3451 39.7366C18.149 38.2323 16.1964 36.4941 14.7243 34.2529C12.1558 30.3429 11.1352 26.0652 11.764 21.4313C12.3751 16.9246 14.4131 13.1436 17.7992 10.1107C20.5289 7.66473 23.7263 6.16522 27.3574 5.64442C28.4296 5.49124 29.518 5.4606 30.5982 5.37354C30.6111 5.52994 30.6289 5.58153 30.6144 5.59443C29.6389 6.47318 29.6115 6.73922 30.3983 7.79211C31.0288 8.637 31.6576 9.4835 32.2961 10.3219C32.625 10.7524 32.8459 11.191 32.5218 11.7134C32.2026 12.2294 31.7027 12.2455 31.1739 12.1681C30.0355 12.0004 28.8956 11.8392 27.7572 11.6715C26.9075 11.5457 26.448 11.844 26.3158 12.705C26.0159 14.6528 25.7417 16.6038 25.4773 18.5564C25.3838 19.2497 25.7563 19.6979 26.4834 19.8092C27.6024 19.9785 28.7263 20.1139 29.842 20.2978C30.1968 20.3558 30.5886 20.4493 30.8675 20.6573C31.4061 21.0572 31.3077 21.8247 30.6902 22.3019C29.7469 23.0291 28.7859 23.7321 27.8362 24.4496C27.0542 25.0414 26.9768 25.5477 27.5589 26.3281C28.6795 27.8292 29.8033 29.3287 30.9352 30.8234C31.477 31.5393 32.0042 31.6086 32.7347 31.0685C33.6763 30.3719 34.6131 29.6689 35.5466 28.9611C35.9626 28.6451 36.3996 28.4629 36.8946 28.7547C37.3912 29.0482 37.4396 29.5286 37.367 30.0382C37.1977 31.2362 37.0188 32.4325 36.8527 33.6305C36.7527 34.3529 37.0639 34.8253 37.7766 34.9366C39.8017 35.2494 41.8301 35.5315 43.8585 35.8202C43.9859 35.8363 44.1229 35.8024 44.3583 35.7879ZM22.446 11.7731C22.2638 11.8876 22.1123 11.9714 21.972 12.0698C18.3732 14.6109 16.2577 18.0614 15.8095 22.4454C15.3129 27.2955 16.9591 31.3716 20.5112 34.6931C21.9317 36.0217 23.6489 36.8505 25.3967 37.6422C26.5641 38.171 27.4541 39.0336 28.1249 40.1284C28.7505 41.1491 29.0326 42.2665 29.0907 43.458C29.7969 43.458 30.4612 43.458 31.1303 43.458C31.0981 41.994 30.7659 40.6654 30.0936 39.4238C29.0326 37.4632 27.3944 36.1894 25.358 35.3542C23.3683 34.5383 21.7237 33.2533 20.3774 31.5715C16.0723 26.1991 17.2268 17.9372 22.8475 13.9708C23.0652 13.8176 23.2796 13.6612 23.5183 13.487C23.1442 12.8872 22.8056 12.3455 22.446 11.7731ZM31.1271 45.6202C30.4338 45.6202 29.784 45.6202 29.1132 45.6202C29.1132 46.6376 29.1132 47.6196 29.1132 48.6225C29.8001 48.6225 30.4499 48.6225 31.1271 48.6225C31.1271 47.6164 31.1271 46.6489 31.1271 45.6202Z" fill="white"/>
<path d="M54.3293 7.15345C54.4099 7.23084 54.4567 7.2647 54.4905 7.30985C55.2548 8.32243 56.0159 9.33662 56.8285 10.4169C56.0642 10.9925 55.3096 11.5649 54.5534 12.1309C53.7634 12.7226 53.2667 13.4901 53.2039 14.4882C53.0942 16.2344 54.2777 17.5614 56.1287 17.8113C57.0139 17.9306 57.8959 18.0644 58.8182 18.1967C58.6199 19.5736 58.428 20.8974 58.2313 22.2599C57.2526 22.1244 56.3303 21.9987 55.408 21.8664C54.0342 21.6697 52.9185 22.1212 52.1945 23.2999C51.498 24.435 51.5673 25.6152 52.3267 26.7133C52.8927 27.5307 53.5118 28.3128 54.1503 29.1689C53.0716 29.9816 52.0026 30.7861 50.8643 31.6439C50.2887 30.8781 49.7195 30.1235 49.1519 29.3656C48.5602 28.5756 47.7959 28.0757 46.7946 28.0177C45.0371 27.9161 43.7166 29.0915 43.4715 30.9409C43.3538 31.8261 43.22 32.7081 43.0878 33.6304C41.7108 33.4321 40.3854 33.2434 39.0149 33.0467C39.1503 32.0583 39.2809 31.1167 39.4099 30.1767C39.5937 28.8271 39.1423 27.7307 37.9878 27.0132C36.8543 26.3086 35.674 26.3731 34.5744 27.126C33.7537 27.6888 32.9733 28.3079 32.1042 28.9545C31.2884 27.8694 30.4789 26.7891 29.6421 25.6749C30.5257 24.9977 31.4093 24.3866 32.2155 23.6868C33.9907 22.1438 33.4554 19.2931 31.2464 18.4998C30.7224 18.3111 30.1436 18.2644 29.5873 18.1725C28.9568 18.0677 28.3216 17.9854 27.6702 17.8919C27.6815 17.7339 27.6815 17.6194 27.6976 17.5066C27.8717 16.2941 28.0491 15.0832 28.2313 13.8239C29.2422 13.9625 30.2016 14.1012 31.1642 14.2238C32.4928 14.3931 33.565 13.9238 34.2648 12.7903C34.9517 11.6794 34.9098 10.5137 34.1745 9.42691C33.6053 8.58686 32.9733 7.79195 32.3235 6.9132C33.3974 6.1054 34.468 5.30082 35.6063 4.44465C36.1819 5.21053 36.7543 5.96512 37.3187 6.72456C37.9088 7.51785 38.6779 8.00963 39.6744 8.07573C41.3883 8.19021 42.7427 7.00672 42.9894 5.20892C43.1136 4.30437 43.2458 3.40305 43.378 2.47754C43.5602 2.49366 43.694 2.50172 43.8246 2.51946C45.0178 2.69037 46.211 2.8629 47.4493 3.04187C47.3106 4.0351 47.1736 4.97673 47.0478 5.91836C46.8672 7.26793 47.3251 8.36435 48.4828 9.07541C49.6179 9.77357 50.7966 9.70747 51.8946 8.94803C52.7185 8.38692 53.5005 7.76938 54.3293 7.15345ZM43.2426 11.8584C39.8824 11.8535 37.0446 14.6897 37.0478 18.0499C37.051 21.4085 39.9065 24.2512 43.2555 24.2302C46.5995 24.2092 49.4035 21.4037 49.4212 18.0644C49.439 14.7107 46.6044 11.8632 43.2426 11.8584Z" fill="white"/>
<path d="M11.5221 30.1589C7.64427 30.9522 6.17056 33.9303 6.16894 36.3327C6.16733 39.0254 7.90709 41.4005 10.5224 42.2131C12.8426 42.9338 16.0238 42.2486 17.8184 39.1754C19.0857 40.2186 20.6626 40.891 21.4011 42.5082C21.5769 42.8951 21.5882 43.1547 21.2479 43.4692C20.6336 44.0367 20.0725 44.6623 19.4598 45.296C18.7697 44.8219 18.1344 44.3801 17.4927 43.9464C15.9755 42.9209 14.4292 43.5514 14.0487 45.3476C13.8906 46.0909 13.7294 46.8326 13.5537 47.6436C12.812 47.6436 12.0751 47.6614 11.3415 47.6259C11.2286 47.621 11.0706 47.3824 11.0319 47.2276C10.8594 46.5278 10.7433 45.8136 10.5675 45.1154C10.1806 43.5707 8.6633 42.979 7.3218 43.8497C6.63653 44.2947 5.97223 44.7736 5.1999 45.3057C4.9 44.9816 4.60654 44.6478 4.29697 44.3334C3.99706 44.0287 3.67781 43.7433 3.3505 43.4353C3.84228 42.7226 4.30342 42.0728 4.74682 41.4085C5.69168 39.9912 5.09671 38.4627 3.44563 38.0693C2.78294 37.9113 2.11703 37.7533 1.44466 37.6436C1.08994 37.5856 0.986746 37.4243 1.01254 37.097C1.03028 36.8648 1.01577 36.6294 1.01577 36.394C1.01577 35.0799 1.01577 35.0799 2.32664 34.8171C2.74747 34.7316 3.17152 34.6591 3.58591 34.5511C5.02254 34.177 5.64008 32.6759 4.85808 31.4118C4.40661 30.683 3.89548 29.9912 3.4424 29.3302C4.06962 28.6997 4.68233 28.0838 5.34179 27.4211C5.85292 27.7726 6.45756 28.1322 6.99932 28.5691C8.58268 29.851 10.4563 28.9819 10.6594 27.1502C10.6659 27.0938 10.6917 27.0406 10.74 26.8826C11.0125 28.0209 11.2625 29.0706 11.5221 30.1589Z" fill="white"/>
<path d="M1.71387 7.28567C2.11696 6.7165 2.4862 6.1957 2.90219 5.60718C5.30465 7.32275 7.69097 9.02543 10.1112 10.7539C9.70162 11.3279 9.32109 11.8616 8.91477 12.4292C6.50748 10.7088 4.14373 9.0222 1.71387 7.28567Z" fill="white"/>
<path d="M0.503064 19.7979C0.328926 19.1094 0.174137 18.4919 0 17.805C2.74589 17.1181 5.45792 16.4393 8.23283 15.7444C8.40374 16.4313 8.56014 17.0617 8.72783 17.7421C5.96421 18.4322 3.26508 19.1078 0.503064 19.7979Z" fill="white"/>
<path d="M12.5283 0.000976562C13.2345 2.76621 13.9278 5.47663 14.634 8.24025C13.9697 8.41116 13.3538 8.57079 12.6443 8.75299C11.9446 6.02161 11.2512 3.31442 10.5386 0.533063C11.1835 0.360538 11.8107 0.19285 12.5283 0.000976562Z" fill="white"/>
<path d="M34.2036 52.8389C34.2036 53.5386 34.2036 54.1594 34.2036 54.814C31.477 54.814 28.7731 54.814 26.0369 54.814C26.0369 54.1642 26.0369 53.529 26.0369 52.8389C28.7505 52.8389 31.4674 52.8389 34.2036 52.8389Z" fill="white"/>
<path d="M55.4967 48.9094C55.0339 49.4609 54.6212 49.9526 54.1729 50.4863C52.1171 48.774 50.0839 47.0794 48.0007 45.3444C48.4393 44.8156 48.8569 44.3141 49.3148 43.7627C51.3803 45.4815 53.4135 47.1745 55.4967 48.9094Z" fill="white"/>
<path d="M49.7244 38.3627C51.4851 38.3627 53.199 38.3627 54.913 38.3627C55.4403 38.3627 55.9675 38.3433 56.4915 38.3756C56.6334 38.3837 56.8753 38.5449 56.8817 38.6481C56.9204 39.2253 56.8995 39.8058 56.8995 40.4072C54.4744 40.4072 52.1204 40.4072 49.7244 40.4072C49.7244 39.7493 49.7244 39.0979 49.7244 38.3627Z" fill="white"/>
<path d="M43.5198 53.7642C43.5198 51.3843 43.5198 49.0496 43.5198 46.6665C44.1921 46.6665 44.8419 46.6665 45.532 46.6665C45.532 49.0141 45.532 51.3666 45.532 53.7642C44.8855 53.7642 44.2324 53.7642 43.5198 53.7642Z" fill="white"/>
<path d="M44.9983 34.7963C45.1934 33.479 45.3691 32.1584 45.5965 30.8476C45.6884 30.3203 46.1705 30.0236 46.68 30.072C47.2621 30.1268 47.4669 30.4654 47.2476 30.9991C46.6832 32.3648 45.9899 33.6547 44.9983 34.7963Z" fill="white"/>
</svg>
