<svg width="60" height="53" viewBox="0 0 60 53" fill="none" xmlns="http://www.w3.org/2000/svg">
<path d="M4.25595 8.70942C5.24217 8.70942 6.23 8.71264 7.21623 8.70781C7.97523 8.70458 8.42967 8.34845 8.44095 7.75704C8.45223 7.14629 7.98651 6.77565 7.18722 6.77565C5.21316 6.77243 3.23911 6.77726 1.26505 6.77404C0.149913 6.77243 -0.248122 6.22775 0.14669 5.17868C1.27311 2.19262 3.44377 0.419997 6.59097 0.0606384C9.60765 -0.282606 12.0748 0.866375 13.8378 3.37544C14.1053 3.75736 14.3615 3.88305 14.8095 3.88305C24.9408 3.87016 35.0722 3.87016 45.2051 3.88467C45.6612 3.88467 45.9077 3.74286 46.172 3.36899C47.9414 0.866375 50.4102 -0.277771 53.4269 0.0703073C56.6015 0.437723 58.7737 2.23129 59.8776 5.25442C60.2337 6.22775 59.826 6.77243 58.7802 6.77404C56.7868 6.77887 54.7918 6.77404 52.7984 6.77565C52.0313 6.77726 51.5817 7.12373 51.5624 7.71353C51.543 8.32589 52.012 8.7062 52.8048 8.70781C54.7982 8.71103 56.7932 8.7062 58.7866 8.70942C59.8292 8.71264 60.2305 9.2541 59.876 10.2371C58.8011 13.2151 56.6756 15.0167 53.559 15.4277C50.465 15.8354 47.9575 14.6493 46.1511 12.0871C45.8997 11.7293 45.6628 11.5988 45.2325 11.6004C35.1012 11.6133 24.9698 11.6133 14.8369 11.602C14.3728 11.602 14.0956 11.7261 13.8136 12.1274C12.0458 14.6268 9.58348 15.7854 6.56197 15.4341C3.48889 15.0764 1.35368 13.3392 0.20148 10.453C-0.27874 9.24926 0.116072 8.70942 1.41975 8.70942C2.36247 8.70781 3.31001 8.70942 4.25595 8.70942Z" fill="white"/>
<path d="M32.9757 29.0219C33.8491 29.0219 34.7322 29.0187 35.6137 29.0219C38.5595 29.0348 40.6237 31.0975 40.6383 34.0465C40.6431 34.9135 40.6495 35.7789 40.635 36.6458C40.6237 37.3565 40.2596 37.7239 39.5424 37.7239C33.1771 37.7287 26.8134 37.7287 20.4481 37.7239C19.8325 37.7239 19.391 37.4097 19.3861 36.8779C19.3732 35.571 19.2991 34.2463 19.4861 32.962C19.8148 30.6947 21.8001 29.0751 24.0933 29.0284C25.0763 29.0074 26.0593 29.0252 27.0793 29.0252C27.1567 28.3741 27.1921 27.9004 26.4766 27.5168C25.268 26.8674 24.5944 25.7474 24.2947 24.4002C24.2351 24.1327 24.024 23.8975 23.8789 23.6509C23.6968 23.3431 23.4326 23.0611 23.3391 22.7291C23.0232 21.6076 22.7251 20.4763 22.4979 19.3338C21.9 16.3219 24.111 13.5953 27.1776 13.5518C29.0711 13.5244 30.9646 13.5244 32.8564 13.5518C35.9779 13.5969 38.1775 16.388 37.5168 19.453C37.2799 20.5536 36.9947 21.643 36.7127 22.734C36.6531 22.9628 36.5677 23.2432 36.3985 23.3721C35.8538 23.7863 35.7458 24.3841 35.5702 24.9771C35.2495 26.0617 34.6065 26.956 33.63 27.5039C32.9983 27.8585 32.7404 28.2468 32.9757 29.0219ZM25.6048 22.3521C26.077 22.7227 26.1124 22.7904 26.1318 23.472C26.1624 24.5614 26.6023 25.4477 27.5579 25.973C28.2766 26.3678 29.0679 26.6305 29.8333 26.9335C29.9493 26.9802 30.1186 26.9625 30.2394 26.9157C30.9323 26.6434 31.6382 26.3952 32.3005 26.0601C33.2754 25.5686 33.7992 24.7241 33.8523 23.6396C33.8797 23.0756 33.9281 22.5648 34.5501 22.257C33.6203 21.7864 33.8765 20.8485 33.53 20.1379C31.1902 21.6785 28.8519 21.6607 26.4927 20.1153C26.3832 20.5424 26.3219 20.9243 26.1833 21.274C26.0415 21.6285 25.824 21.9508 25.6048 22.3521ZM30.963 28.9027C30.2829 28.9027 29.6738 28.9027 29.034 28.9027C29.034 29.1299 29.034 29.428 29.034 29.7262C29.034 29.8261 29.0292 29.9276 29.0405 30.0259C29.0937 30.5593 29.4724 30.9332 29.9703 30.9509C30.4892 30.9686 30.9195 30.5851 30.9581 30.0291C30.9855 29.6327 30.963 29.2314 30.963 28.9027Z" fill="white"/>
<path d="M56.9817 39.5966C58.569 40.831 59.0734 42.4167 59.0266 44.2828C58.9718 46.5179 59.0154 48.7546 59.0121 50.9914C59.0105 51.9018 58.6818 52.2306 57.7793 52.2354C57.2556 52.2386 56.7335 52.2354 56.1614 52.2354C56.1614 51.6069 56.1614 50.9962 56.1614 50.3323C56.4338 50.3145 56.7238 50.2952 57.08 50.2726C57.08 49.6184 57.08 48.9786 57.08 48.3405C57.08 46.7693 57.088 45.1981 57.0784 43.6269C57.0671 41.8382 55.7876 40.557 54.0004 40.6425C50.3746 40.8165 47.7818 42.5859 46.217 45.8604C46.1413 46.0183 46.101 46.194 46.0204 46.4309C46.8568 46.4309 47.6367 46.4438 48.4151 46.4164C48.5359 46.4115 48.7035 46.2423 48.7567 46.1102C48.8856 45.796 48.971 45.4608 49.0532 45.1288C49.4931 43.353 51.0547 42.27 52.6677 42.6278C54.3888 43.0097 55.5072 44.7807 55.0979 46.5598C54.7288 48.1664 54.3034 49.7602 53.9005 51.3604C53.7539 51.9437 53.3913 52.2386 52.7725 52.237C49.3691 52.2306 45.9656 52.2467 42.5606 52.2274C40.9427 52.2193 39.6809 50.9269 39.676 49.3428C39.6712 47.7571 40.9346 46.3906 42.538 46.4615C43.5935 46.5082 44.0721 46.2182 44.446 45.1771C45.1857 43.1145 46.6505 41.5529 48.486 40.3572C48.4537 40.304 48.4425 40.2573 48.4151 40.2444C46.325 39.2147 45.379 37.5194 45.4741 35.2118C45.487 34.9104 45.4661 34.6075 45.4773 34.3061C45.5112 33.4327 45.5547 32.6834 44.5636 32.1016C43.5468 31.5038 43.3373 30.134 43.7402 29.0092C44.1463 27.8747 45.1921 27.098 46.4136 27.0932C49.9782 27.0787 53.5428 27.0754 57.109 27.0932C58.7237 27.1012 59.9629 28.3646 59.9774 29.9906C59.9967 32.0646 59.9806 34.1402 59.9838 36.2157C59.9871 37.6435 59.328 38.6249 58.013 39.1712C57.6972 39.3017 57.3829 39.4306 56.9817 39.5966ZM53.1399 38.6845C53.4348 37.679 52.7306 36.5267 53.8409 35.7871C52.7225 35.0313 53.4622 33.8614 53.1415 32.9315C51.2432 32.9315 49.3433 32.9315 47.4176 32.9315C47.4176 33.9967 47.3724 35.0249 47.4288 36.0465C47.5046 37.434 48.6665 38.5959 50.0572 38.6732C51.0772 38.7312 52.1053 38.6845 53.1399 38.6845ZM43.579 48.3791C43.579 49.0431 43.579 49.6522 43.579 50.2581C44.2285 50.2581 44.8376 50.2581 45.4242 50.2581C45.4242 49.6039 45.4242 48.9931 45.4242 48.3791C44.7941 48.3791 44.214 48.3791 43.579 48.3791Z" fill="white"/>
<path d="M11.5527 40.283C12.244 40.897 12.9724 41.4691 13.6121 42.1282C14.6644 43.2111 15.4202 44.4938 15.873 45.9361C15.9987 46.3357 16.1808 46.4904 16.595 46.4405C16.8931 46.4034 17.1993 46.426 17.5006 46.4356C19.0783 46.4872 20.3223 47.757 20.3288 49.3202C20.3352 50.8833 19.1008 52.2111 17.5296 52.2256C14.0859 52.2546 10.6406 52.2369 7.19687 52.2353C6.6393 52.2353 6.29444 51.9597 6.15747 51.4151C5.74654 49.7762 5.29533 48.147 4.92791 46.4985C4.53793 44.7532 5.67563 43.0016 7.36929 42.6277C8.95337 42.278 10.5117 43.3625 10.9468 45.1029C11.0531 45.53 11.1901 45.9506 11.319 46.4002C12.194 46.4002 13.0546 46.4002 14.0037 46.4002C13.8474 46.0424 13.7298 45.7072 13.5622 45.3978C11.904 42.3376 9.32401 40.7423 5.85129 40.6375C4.36551 40.5924 3.02154 41.7172 2.96514 43.1772C2.87489 45.5268 2.94096 47.8811 2.94096 50.2774C3.24553 50.2919 3.52109 50.3048 3.84339 50.3193C3.84339 50.93 3.84339 51.5408 3.84339 52.224C3.18107 52.224 2.50103 52.2675 1.82905 52.2095C1.30532 52.1644 0.997526 51.7922 0.995915 51.2604C0.989469 48.5612 0.952405 45.8603 1.0217 43.1627C1.05876 41.7011 1.81938 40.5344 3.01187 39.5965C2.56871 39.408 2.18035 39.2549 1.80165 39.0793C0.646225 38.5475 0.0386996 37.6354 0.0274193 36.3671C0.0080816 34.2513 0.0113045 32.137 0.0258078 30.0212C0.0370881 28.3323 1.28598 27.0947 2.98447 27.0899C6.48943 27.0786 9.99438 27.0802 13.4993 27.0899C14.8852 27.0931 16.0245 27.981 16.3436 29.267C16.6723 30.5868 16.1228 31.8663 14.8933 32.5335C14.5903 32.6978 14.5162 32.8783 14.5226 33.1893C14.5387 34.0756 14.5532 34.9636 14.5226 35.8482C14.4582 37.6821 13.6202 39.0696 12.041 40.0058C11.8863 40.0977 11.7251 40.1783 11.5672 40.2669C11.5495 40.2766 11.5414 40.2991 11.5527 40.283ZM6.86974 38.6941C7.81406 38.6941 8.75838 38.707 9.70271 38.6909C11.1176 38.6683 12.3342 37.7385 12.5099 36.343C12.6517 35.223 12.5389 34.0692 12.5389 32.9363C10.618 32.9363 8.7181 32.9363 6.85201 32.9363C6.57967 33.9242 7.27099 35.0715 6.1623 35.8015C7.26777 36.5621 6.55872 37.6998 6.86974 38.6941ZM14.5436 50.2596C15.2397 50.2596 15.8537 50.2596 16.4338 50.2596C16.4338 49.6054 16.4338 48.9963 16.4338 48.4081C15.7522 48.4081 15.1382 48.4081 14.5436 48.4081C14.5436 49.0478 14.5436 49.6441 14.5436 50.2596Z" fill="white"/>
</svg>
