<svg width="538" height="340" viewBox="0 0 538 340" fill="none" xmlns="http://www.w3.org/2000/svg">
<path d="M7.69251 262.394C7.69251 262.394 -26.0711 296.194 47.8664 297.029C121.804 297.865 83.1609 320.905 151.148 334.79C250.101 354.999 294.709 309.589 361.573 314.076C497.027 323.157 563.672 302.247 528.882 262.401" fill="#3C3563"/>
<path d="M528.875 249.948H7.69263V262.394H528.875V249.948Z" fill="#6B96F6"/>
<path d="M403.119 234.633H392.999V244.737H403.119V234.633Z" fill="#DEE6ED"/>
<path d="M398.941 237.72C398.941 237.238 398.549 236.846 398.066 236.846C397.584 236.846 397.192 237.238 397.192 237.72C397.192 238.202 397.584 238.593 398.066 238.593C398.549 238.593 398.941 238.202 398.941 237.72Z" fill="#3C3563"/>
<path d="M398.941 241.078C398.941 240.596 398.549 240.205 398.066 240.205C397.584 240.205 397.192 240.596 397.192 241.078C397.192 241.56 397.584 241.951 398.066 241.951C398.549 241.959 398.941 241.567 398.941 241.078Z" fill="#3C3563"/>
<path d="M84.2243 234.633H74.1035V244.737H84.2243V234.633Z" fill="#DEE6ED"/>
<path d="M79.1715 238.593C79.6546 238.593 80.0463 238.202 80.0463 237.72C80.0463 237.237 79.6546 236.846 79.1715 236.846C78.6883 236.846 78.2966 237.237 78.2966 237.72C78.2966 238.202 78.6883 238.593 79.1715 238.593Z" fill="#3C3563"/>
<path d="M79.1715 241.951C79.6546 241.951 80.0463 241.56 80.0463 241.078C80.0463 240.596 79.6546 240.205 79.1715 240.205C78.6883 240.205 78.2966 240.596 78.2966 241.078C78.2966 241.56 78.6883 241.951 79.1715 241.951Z" fill="#3C3563"/>
<path opacity="0.2" d="M455.02 287.437C492.823 287.437 523.467 284.052 523.467 279.877C523.467 275.702 492.823 272.318 455.02 272.318C417.218 272.318 386.573 275.702 386.573 279.877C386.573 284.052 417.218 287.437 455.02 287.437Z" fill="#432F7E"/>
<path d="M362.033 50.9895H354.612V77.3125H362.033V50.9895Z" fill="#3C2F71"/>
<path d="M350.404 52.8568H345.954V77.32H350.404V52.8568Z" fill="#FFAA61"/>
<path d="M350.404 69.0979H345.954V72.2226H350.404V69.0979Z" fill="#FFCB61"/>
<path d="M345.962 53.857L340.402 53.2246L337.633 77.4938L343.193 78.1263L345.962 53.857Z" fill="#FFCB61"/>
<path opacity="0.2" d="M359.318 56.7872H355.796V70.6565H359.318V56.7872Z" fill="#3C2F71"/>
<path d="M365.344 76.2207H291.693V84.6085H365.344V76.2207Z" fill="#6B96F6"/>
<path opacity="0.2" d="M365.344 81.9807H291.693V84.6085H365.344V81.9807Z" fill="#3C2F71"/>
<path d="M305.976 101.505C304.197 101.505 302.756 100.067 302.756 98.2896V84.6161H309.204V98.2896C309.204 100.059 307.756 101.505 305.976 101.505Z" fill="#3051A1"/>
<path d="M351.392 101.505C349.612 101.505 348.171 100.067 348.171 98.2896V84.6161H354.619V98.2896C354.612 100.059 353.171 101.505 351.392 101.505Z" fill="#3051A1"/>
<path d="M269.89 40.9075H222.763V94.6828H269.89V40.9075Z" fill="#FFE698"/>
<path d="M265.169 45.7263H227.484V89.8489H265.169V45.7263Z" fill="#FFCB61"/>
<path d="M68.9224 12.7323H21.7952V43.9193H68.9224V12.7323Z" fill="#FFE698"/>
<path d="M64.2013 17.5587H26.5161V39.093H64.2013V17.5587Z" fill="#FFCB61"/>
<path d="M126.299 12.7323H79.1714V43.9193H126.299V12.7323Z" fill="#FFE698"/>
<path d="M121.578 17.5587H83.8923V39.093H121.578V17.5587Z" fill="white"/>
<path d="M63.1907 109.727C63.1907 109.727 60.5511 110.577 58.447 108.198C56.343 105.819 49.7969 96.2414 55.0835 90.4588C60.3626 84.6762 70.9585 85.9712 74.8424 83.0121C78.7263 80.0531 80.8002 90.5868 76.9616 94.1482C78.764 95.8574 77.1049 101.09 73.6131 101.723" fill="#2A3F7A"/>
<path d="M83.0024 126.962L91.9014 134.31L94.8577 119.003C94.8577 119.003 92.3841 115.833 95.1443 112.618L96.3886 113.16C97.1126 112.234 97.912 111.278 97.912 111.278C98.176 111.255 99.5863 111.609 100.273 112.279C101.758 113.725 103.87 115.11 101.343 120.584C101.343 120.584 100.582 147.088 95.3253 149.445C93.1835 150.408 77.2104 141.945 77.2104 141.945" fill="#FFADA2"/>
<path d="M78.8093 121.533L89.1639 128.972L82.1804 139.769L78.8093 121.533Z" fill="#2F99B1"/>
<path d="M111.412 131.058C111.412 131.058 112.543 127.067 115.529 126.382C118.516 125.697 117.731 127.142 116.728 128.422C115.921 129.446 115.446 130.222 115.446 130.222" fill="#FFBDB4"/>
<path d="M120.265 125.478L120.13 125.192L117.641 126.284L117.467 125.757L116.623 126.148L117.226 127.775L118.01 127.383L117.769 126.66L120.265 125.478Z" fill="#6B96F6"/>
<path opacity="0.2" d="M76.66 283.326C109.777 283.326 136.623 280.639 136.623 277.325C136.623 274.011 109.777 271.324 76.66 271.324C43.5434 271.324 16.697 274.011 16.697 277.325C16.697 280.639 43.5434 283.326 76.66 283.326Z" fill="#432F7E"/>
<path d="M32.8962 263.757L28.6202 269.103C28.6202 269.103 35.3095 278.04 34.4422 279.26C31.1239 276.903 18.5295 267.747 18.5295 267.747L25.4376 257.116L32.8962 263.757Z" fill="#6B96F6"/>
<path d="M112.128 263.463L114.285 270.518C114.285 270.518 128.523 273.681 128.734 275.164C124.7 275.736 106.864 278.266 106.864 278.266L102.573 264.811L112.128 263.463Z" fill="#6B96F6"/>
<path d="M22.2852 258.208L33.2808 266.972C33.2808 266.972 61.1695 237.125 65.355 229.791C69.5481 222.45 75.5361 203.137 75.5361 203.137L87.4066 224.634L100.808 267.883L107.859 266.829L115.861 265.632C115.861 265.632 106.419 230.921 104.111 220.455C101.796 209.989 91.3885 176.746 91.3885 176.746C91.3885 176.746 75.6643 176.776 59.3746 179.412C56.192 188.138 48.7183 224.641 48.7183 224.641L22.2852 258.208Z" fill="#3051A1"/>
<path d="M91.3961 176.739C83.3493 180.391 57.9568 179.224 57.9568 179.224C57.9568 179.224 56.3128 172.146 53.0397 159.466C51.5314 153.601 50.2871 147.186 49.729 141.29C49.0653 134.438 49.3368 128.309 51.1619 124.665C54.5631 117.904 61.6974 116.232 61.6974 116.232C61.6974 116.232 70.2043 115.366 75.3552 118.875C79.6388 121.781 80.6946 124.755 83.0099 132.707C83.6132 134.77 84.2844 138.098 85.0537 142.337C86.0114 147.592 87.1125 154.241 88.4021 161.605C88.4926 162.109 88.5831 162.614 88.6736 163.133C89.4579 167.553 90.3629 172.138 91.3961 176.739Z" fill="#35AEB9"/>
<path d="M88.4021 161.612C59.9252 157.358 56.6597 136.148 56.6597 136.148L66.3129 139.86L85.0461 142.344C86.0114 147.6 87.1125 154.248 88.4021 161.612Z" fill="#2F99B1"/>
<path d="M70.1667 109.237L71.3357 117.075C71.3357 117.075 75.2497 122.06 71.8862 123.739C68.3417 125.508 61.7881 119.861 61.4034 116.902C61.0188 113.936 59.1711 104.667 59.1711 104.667" fill="#FFBDB4"/>
<path d="M74.3823 93.9675C74.3823 93.9675 76.2903 101.09 76.1697 105.073C76.049 109.057 74.3823 112.829 70.0459 112.445C65.702 112.053 61.5466 109.418 60.1363 105.954C58.3037 106.512 55.8829 103.809 55.8904 101.429C55.8979 99.0499 57.9945 99.2532 58.7788 100.42C59.5631 101.587 60.6868 102.867 60.6868 102.867L60.4757 96.3845C60.4832 96.3845 67.1877 97.288 74.3823 93.9675Z" fill="#FFBDB4"/>
<path d="M73.3115 98.8316C73.3115 99.2608 73.583 99.5996 73.9149 99.5996C74.2467 99.5996 74.5182 99.2532 74.5182 98.8316C74.5182 98.4024 74.2467 98.0636 73.9149 98.0636C73.583 98.0636 73.3115 98.4099 73.3115 98.8316Z" fill="#2A3F7A"/>
<path d="M68.0323 100.684C68.3655 100.684 68.6356 100.34 68.6356 99.9158C68.6356 99.4917 68.3655 99.1478 68.0323 99.1478C67.6991 99.1478 67.429 99.4917 67.429 99.9158C67.429 100.34 67.6991 100.684 68.0323 100.684Z" fill="#2A3F7A"/>
<path d="M71.7729 103.289C71.3657 103.289 70.9207 103.229 70.6492 103.003C70.5663 102.935 70.5588 102.815 70.6266 102.739C70.6945 102.657 70.8152 102.649 70.8906 102.717C71.1847 102.965 71.9238 102.935 72.3612 102.875L70.966 98.6659C70.9358 98.568 70.9886 98.4626 71.0867 98.425C71.1847 98.3948 71.2903 98.4476 71.328 98.5454L72.8589 103.169L72.6478 103.206C72.5648 103.221 72.1953 103.289 71.7729 103.289Z" fill="#EE6F79"/>
<path d="M65.3777 98.44C65.2646 98.44 65.1515 98.3873 65.0761 98.2894C64.9554 98.1237 64.9856 97.8903 65.1515 97.7623C66.8936 96.4748 68.4245 96.7233 68.4924 96.7383C68.696 96.776 68.8318 96.9717 68.8016 97.175C68.7639 97.3783 68.5754 97.5139 68.3642 97.4837C68.3114 97.4762 67.067 97.288 65.604 98.3722C65.5361 98.4174 65.4607 98.44 65.3777 98.44Z" fill="#2A3F7A"/>
<path d="M71.3356 96.7233C71.1848 96.7233 71.034 96.6254 70.9812 96.4748C70.9133 96.2791 71.0113 96.0607 71.2074 95.9929C73.2436 95.255 74.6388 95.9327 74.6991 95.9628C74.8877 96.0532 74.9631 96.2791 74.8651 96.4673C74.7746 96.6555 74.5483 96.7308 74.3598 96.6329C74.307 96.6104 73.1758 96.0758 71.4638 96.6932C71.4261 96.7158 71.3809 96.7233 71.3356 96.7233Z" fill="#2A3F7A"/>
<path d="M67.8061 103.605L72.6025 105.104C72.6025 105.104 71.3053 106.978 69.2616 106.022C67.2178 105.066 67.8061 103.605 67.8061 103.605Z" fill="white"/>
<path opacity="0.2" d="M75.5439 203.137L87.4144 224.634L100.816 267.883L107.867 266.829L95.5517 231.937L80.6043 189.991L75.5439 203.137Z" fill="#3C2F71"/>
<path d="M71.0491 128.528L66.3281 139.867C66.3281 139.867 79.7069 148.94 84.7899 148.94C89.8729 148.94 111.955 135.711 111.955 135.711C111.955 135.711 114.745 134.084 115.876 131.667C116.63 131.065 116.94 129.491 116.562 129.235C116.796 128.513 116.751 127.722 116.095 127.391C116.095 127.391 118.621 125.388 118.591 125.026C118.493 123.754 111.555 127.458 108.629 129.695L85.5893 136.434L71.0491 128.528Z" fill="#FFBDB4"/>
<path d="M104.835 121.081L104.662 121.232C104.096 121.736 103.236 121.683 102.731 121.119L89.8953 106.753L92.1049 104.787L104.941 119.154C105.446 119.718 105.393 120.577 104.835 121.081Z" fill="#3C3563"/>
<path d="M97.6557 111.029C97.6557 111.029 95.7175 114.387 96.5396 115.268C97.3616 116.142 98.606 114.756 98.606 114.756C98.606 114.756 98.2289 115.63 98.7266 116.172C99.2244 116.714 99.8428 116.172 99.8428 116.172C99.8428 116.172 99.6392 116.925 100.046 117.279C100.461 117.64 100.823 117.279 100.823 117.279C100.823 117.279 100.823 118.099 101.494 118.205C102.166 118.31 102.678 116.3 102.731 115.216C102.784 114.131 102.007 113.725 102.007 113.725C102.007 113.725 101.547 112.897 101.185 112.851C101.389 111.925 100.016 112.031 100.016 112.031C100.016 112.031 98.9227 109.471 97.6557 111.029Z" fill="#FFADA2"/>
<path d="M97.1579 102.461L88.025 110.593L84.835 107.016L90.9738 101.55L94.2242 101.866L96.0794 101.256L97.1579 102.461Z" fill="#FFE698"/>
<path d="M91.7053 173.2L92.5349 178.591L56.8708 184.366L56.6597 176.837L91.7053 173.2Z" fill="#3C3563"/>
<path d="M64.9855 182.115L60.6415 173.667L59.6083 172.951L58.7637 170.459L59.4801 170.218L61.094 171.852L61.1996 173.215L65.8603 181.821" fill="#E9EEF3"/>
<path d="M66.7654 181.023C66.7654 181.023 63.779 173.606 63.5301 172.432C63.2737 171.257 65.7775 170.949 66.0792 171.769C66.3808 172.59 68.7866 179.502 68.7866 179.502" fill="#FFC16B"/>
<path d="M69.171 181.121C69.171 181.121 68.0473 173.207 68.0775 172.003C68.1077 170.806 70.6115 171.099 70.717 171.965C70.8151 172.838 71.4938 180.119 71.4938 180.119" fill="#FFC16B"/>
<path d="M67.4968 179.427C67.4968 179.427 61.2599 178.915 60.6641 181.113C60.0684 183.319 58.3715 199.734 66.0337 200.223C73.696 200.712 72.9494 179.231 72.9494 179.231L67.4968 179.427Z" fill="#3C3563"/>
<path d="M74.6765 174.766L75.589 181.874L78.2588 181.437L77.6026 174.352L74.6765 174.766Z" fill="#3051A1"/>
<path d="M84.0508 173.719L84.82 180.097L88.1232 179.675L87.2258 173.268L84.0508 173.719Z" fill="#3051A1"/>
<path d="M184.256 39.2133V77.5232C184.256 79.8122 182.4 81.6644 180.108 81.6644C177.823 81.6644 175.96 79.8122 175.96 77.5232V39.2133C175.96 37.6547 176.835 36.2844 178.117 35.5841C178.539 35.3507 178.999 35.1926 179.489 35.1248C179.693 35.0872 179.897 35.0721 180.108 35.0721C182.4 35.0721 184.256 36.9319 184.256 39.2133Z" fill="#6B96F6"/>
<path d="M192.974 45.0938V50.6656C192.974 53.0449 191.782 55.1532 189.957 56.4181C189.625 56.6515 189.271 56.8548 188.901 57.0205C188.011 57.4346 187.008 57.668 185.96 57.668H180.108C178.449 57.668 177.091 56.3202 177.091 54.6562C177.091 52.9922 178.449 51.6444 180.108 51.6444H185.96C186.503 51.6444 186.94 51.2077 186.94 50.6656V45.0938C186.94 43.7987 187.755 42.6994 188.901 42.2778C189.225 42.1498 189.587 42.082 189.957 42.082C191.624 42.082 192.974 43.4298 192.974 45.0938Z" fill="#6B96F6"/>
<path d="M183.124 62.9613C183.124 64.6253 181.774 65.9731 180.108 65.9731H175.198C173.449 65.9731 171.842 65.3331 170.613 64.2639C170.183 63.895 169.806 63.4808 169.482 63.0215C168.66 61.8771 168.185 60.4841 168.185 58.9707V47.285C168.185 46.261 168.697 45.3574 169.482 44.8153C169.814 44.5819 170.198 44.4163 170.613 44.3334C170.801 44.2958 170.998 44.2732 171.201 44.2732C172.868 44.2732 174.218 45.621 174.218 47.285V58.9707C174.218 59.5128 174.655 59.9495 175.198 59.9495H180.108C181.774 59.9495 183.124 61.2973 183.124 62.9613Z" fill="#6B96F6"/>
<path opacity="0.2" d="M179.489 35.1249V74.5566H178.117V35.5842C178.539 35.3508 178.999 35.1926 179.489 35.1249Z" fill="#3C2F71"/>
<path opacity="0.2" d="M170.613 44.3334V64.2638C170.183 63.8949 169.806 63.4808 169.482 63.0215V44.8153C169.814 44.5818 170.198 44.4162 170.613 44.3334Z" fill="#3C2F71"/>
<path opacity="0.2" d="M189.957 42.082V56.4181C189.625 56.6515 189.271 56.8548 188.901 57.0205V42.2778C189.225 42.1498 189.587 42.082 189.957 42.082Z" fill="#3C2F71"/>
<path d="M192.755 70.3778C192.679 71.8461 192.37 73.2541 191.865 74.5567C191.458 75.6183 190.915 76.6122 190.266 77.5233C187.86 80.9341 183.924 83.1478 179.489 83.1478C175.055 83.1478 171.126 80.9341 168.72 77.5233C168.071 76.6122 167.528 75.6183 167.121 74.5567C166.616 73.2541 166.307 71.8461 166.231 70.3778H192.755Z" fill="#3C3563"/>
<path opacity="0.2" d="M191.865 74.5566C191.458 75.6183 190.915 76.6122 190.266 77.5232H168.72C168.071 76.6122 167.528 75.6183 167.121 74.5566H191.865Z" fill="#3C2F71"/>
<path d="M194.829 81.9806H127.256V265.985H194.829V81.9806Z" fill="#FFCB61"/>
<path d="M145.364 81.9806H127.256V265.985H145.364V81.9806Z" fill="#FFE698"/>
<path d="M194.821 108.078H145.364V111.707H194.821V108.078Z" fill="#FFE698"/>
<path d="M194.821 153.872H145.364V157.501H194.821V153.872Z" fill="#FFE698"/>
<path d="M194.821 199.666H145.364V203.295H194.821V199.666Z" fill="#FFE698"/>
<path d="M190.492 206.299H149.647V260.594H190.492V206.299Z" fill="#FFE698"/>
<path d="M171.963 206.299H169.934V261.152H171.963V206.299Z" fill="#FFCB61"/>
<path d="M165.371 232.893C165.371 234.716 163.893 236.184 162.076 236.184C160.258 236.184 158.78 234.708 158.78 232.893C158.78 231.079 160.258 229.603 162.076 229.603C163.893 229.603 165.371 231.071 165.371 232.893Z" fill="white"/>
<path d="M182.114 232.893C182.114 234.716 180.636 236.184 178.818 236.184C177.001 236.184 175.522 234.708 175.522 232.893C175.522 231.079 177.001 229.603 178.818 229.603C180.636 229.603 182.114 231.071 182.114 232.893Z" fill="white"/>
<path d="M142.158 109.885C142.158 109.282 141.668 108.793 141.065 108.793C140.462 108.793 139.971 109.282 139.971 109.885C139.971 110.487 140.462 110.977 141.065 110.977C141.668 110.977 142.158 110.487 142.158 109.885Z" fill="#6B96F6"/>
<path d="M142.158 155.912C142.158 155.31 141.668 154.821 141.065 154.821C140.462 154.821 139.971 155.31 139.971 155.912C139.971 156.515 140.462 157.004 141.065 157.004C141.668 156.997 142.158 156.515 142.158 155.912Z" fill="#6B96F6"/>
<path d="M129.745 157.004C130.349 157.004 130.839 156.515 130.839 155.912C130.839 155.309 130.349 154.821 129.745 154.821C129.141 154.821 128.652 155.309 128.652 155.912C128.652 156.515 129.141 157.004 129.745 157.004Z" fill="#6B96F6"/>
<path opacity="0.2" d="M194.821 157.494H185.085V199.666H194.821V157.494Z" fill="#B92F71"/>
<path opacity="0.2" d="M194.821 111.797H185.085V153.872H194.821V111.797Z" fill="#B92F71"/>
<path opacity="0.2" d="M194.821 82.0107H185.085V108.078H194.821V82.0107Z" fill="#B92F71"/>
<path opacity="0.2" d="M270.116 287.437C307.919 287.437 338.564 284.052 338.564 279.877C338.564 275.702 307.919 272.318 270.116 272.318C232.314 272.318 201.669 275.702 201.669 279.877C201.669 284.052 232.314 287.437 270.116 287.437Z" fill="#432F7E"/>
<path d="M386.573 180.443H309.966V270.827H386.573V180.443Z" fill="#FFE698"/>
<path d="M375.528 243.209C381.941 228.181 374.939 210.808 359.887 204.405C344.835 198.002 327.435 204.994 321.021 220.021C314.608 235.049 321.611 252.422 336.662 258.825C351.714 265.228 369.115 258.236 375.528 243.209Z" fill="#FFCB61"/>
<path d="M351.908 254.249C364.425 252.241 372.942 240.481 370.93 227.984C368.917 215.486 357.139 206.983 344.621 208.992C332.104 211.001 323.587 222.761 325.6 235.258C327.612 247.756 339.39 256.258 351.908 254.249Z" fill="#6B96F6"/>
<path d="M323.857 187.099H315.072V190.081H323.857V187.099Z" fill="#6B96F6"/>
<path d="M380.05 187.099H376.505V190.081H380.05V187.099Z" fill="#6B96F6"/>
<path d="M374.771 187.099H371.226V190.081H374.771V187.099Z" fill="#6B96F6"/>
<path d="M386.573 192.566H309.966V196.052H386.573V192.566Z" fill="#FFCB61"/>
<path d="M365.344 227.209C365.344 229.038 363.858 230.514 362.033 230.514C360.2 230.514 358.722 229.031 358.722 227.209C358.722 225.379 360.208 223.903 362.033 223.903C363.858 223.903 365.344 225.387 365.344 227.209Z" fill="white"/>
<path d="M381.422 180.458H362.025V156.974C362.025 151.839 366.196 147.675 371.339 147.675H381.415V180.458H381.422Z" fill="#FFCB61"/>
<path d="M381.422 140.319H371.173V150.551H381.422V140.319Z" fill="#FFCB61"/>
<path d="M381.98 138.444H370.57V142.804H381.98V138.444Z" fill="#6B96F6"/>
<path opacity="0.2" d="M373.79 138.444H372.32V142.804H373.79V138.444Z" fill="#3C2F71"/>
<path opacity="0.2" d="M377.01 138.444H375.54V142.804H377.01V138.444Z" fill="#3C2F71"/>
<path opacity="0.2" d="M380.231 138.444H378.76V142.804H380.231V138.444Z" fill="#3C2F71"/>
<path d="M379.062 155.649H367.048V171.672H379.062V155.649Z" fill="#FFE698"/>
<path d="M286.61 156.944C286.61 156.944 280.855 155.212 281.353 150.559C277.914 148.797 278.51 140.929 283.487 140.628C280.607 136.396 288.306 132.473 291.391 135.982C294.475 132.052 300.554 134.325 300.931 136.81C306.896 135.568 305.863 142.073 305.863 142.442C311.866 143.218 307.937 147.969 307.937 147.969C307.937 147.969 309.257 156.906 300.939 155.438" fill="#2A3F7A"/>
<path d="M299.981 184.961L306.693 191.579L309.996 193.236V198.567L291.399 197.031L299.981 184.961Z" fill="#FFAEA5"/>
<path d="M294.219 173.991L302.613 185.609L294.694 199.365L275.297 185.631L294.219 173.991Z" fill="#6284EC"/>
<path d="M295.396 196.007C294.898 200.637 294.295 205.283 293.638 209.093C293.186 211.743 292.718 213.98 292.251 215.531C277.175 221.705 257.024 214.604 257.024 214.604C257.024 214.604 258.457 191.994 265.086 180.21C271.708 168.426 283.819 165.106 283.819 165.106C283.819 165.106 296.135 169.872 296.497 177.334C296.67 180.993 296.187 188.47 295.396 196.007Z" fill="#6B96F6"/>
<path opacity="0.2" d="M295.396 196.007C294.898 200.637 294.294 205.283 293.638 209.093C273.088 203.19 273.57 184.961 273.57 184.961L295.396 196.007Z" fill="#3C2F71"/>
<path d="M354.944 224.08C358.151 222.746 359.667 219.07 358.331 215.868C356.995 212.667 353.313 211.153 350.106 212.487C346.9 213.82 345.383 217.497 346.719 220.698C348.055 223.9 351.738 225.414 354.944 224.08Z" fill="white"/>
<path d="M295.034 159.715L292.409 176.031L283.819 165.106L286.082 152.411" fill="#FFBDB4"/>
<path d="M304.189 145.755C304.189 145.755 304.189 153.398 303.005 157.358C301.821 161.319 299.136 164.654 294.89 163.103C290.645 161.552 287.032 157.576 286.557 153.729C283.661 152.765 284.136 150.288 284.604 148.112C285.019 146.169 288.035 145.657 288.292 148.707L288.322 151.131L291.286 148.835L289.423 141.667C289.423 141.682 299.657 136.592 304.189 145.755Z" fill="#FFBDB4"/>
<path d="M303.224 150.734C303.338 150.308 303.16 149.891 302.826 149.802C302.492 149.713 302.128 149.986 302.015 150.412C301.901 150.838 302.079 151.255 302.413 151.344C302.747 151.433 303.11 151.16 303.224 150.734Z" fill="#2A3F7A"/>
<path d="M295.019 149.701C294.905 150.13 295.086 150.544 295.418 150.634C295.75 150.725 296.12 150.454 296.233 150.024C296.346 149.595 296.165 149.181 295.833 149.091C295.494 149 295.132 149.271 295.019 149.701Z" fill="#2A3F7A"/>
<path d="M300.177 154.557L299.958 154.542C299.807 154.527 298.45 154.414 298.02 153.804C297.96 153.721 297.982 153.601 298.065 153.541C298.148 153.48 298.269 153.503 298.329 153.586C298.563 153.917 299.317 154.083 299.77 154.143L299.498 149.55C299.491 149.445 299.574 149.354 299.679 149.354C299.785 149.339 299.875 149.429 299.875 149.527L300.177 154.557Z" fill="#EE6F79"/>
<path d="M293.963 147.088C293.834 147.05 293.736 146.945 293.706 146.802C293.669 146.598 293.797 146.403 294 146.357C296.195 145.913 298.05 146.478 298.126 146.508C298.322 146.568 298.435 146.779 298.374 146.982C298.314 147.178 298.103 147.291 297.899 147.231C297.884 147.223 296.142 146.696 294.144 147.103C294.083 147.11 294.023 147.103 293.963 147.088Z" fill="#2A3F7A"/>
<path d="M304.091 148.827C304.016 148.805 303.94 148.752 303.895 148.684C303.865 148.639 303.058 147.532 301.399 147.909C301.195 147.954 300.992 147.826 300.946 147.622C300.901 147.419 301.029 147.216 301.233 147.171C303.405 146.674 304.468 148.187 304.513 148.247C304.634 148.421 304.589 148.654 304.415 148.774C304.317 148.85 304.197 148.865 304.091 148.827Z" fill="#2A3F7A"/>
<path d="M241.986 279.267L232.054 276.459C232.054 276.459 219.686 280.495 218.675 279.546C221.255 276.813 232.574 265.985 232.574 265.985L241.986 270.496V279.267Z" fill="white"/>
<path d="M318.02 268.342L318.284 276.564C318.284 276.564 326.384 279.719 326.384 281.105C322.621 281.105 308.254 281.127 308.254 281.127L308.359 268.32L318.02 268.342Z" fill="white"/>
<path d="M320.909 272.024L307.1 273.01L305.268 241.334L283.495 243.48L278.955 280.562H241.096L239.234 268.53L263.631 262.055C263.631 262.055 254.513 222.104 257.024 214.597C272.756 212.715 292.243 215.523 292.243 215.523C292.243 215.523 321.776 224.348 323.232 230.055C324.408 234.64 320.909 272.024 320.909 272.024Z" fill="#3051A1"/>
<path opacity="0.2" d="M283.495 243.487L285.712 227.954L309.476 233.119L314.604 272.837L307.093 273.01L305.26 241.342L283.495 243.487Z" fill="#3C2F71"/>
<path d="M322.425 208.483C322.425 208.483 299.581 206.691 295.494 204.944C286.723 201.187 272.07 184.991 272.07 184.991L281.61 175.293L301.421 193.801L323.314 200.803C323.314 200.803 326.437 197.874 327.689 197.957C328.941 198.04 326.61 201.059 326.61 201.059C326.61 201.059 328.624 201.277 331.844 201.518C335.947 201.827 338.646 203.077 330.886 203.348C336.98 203.95 338.85 205.027 331.64 205.652C335.14 207.444 337.312 209.161 330.607 207.625C334.333 209.484 334.401 210.456 328.398 209.417C325.592 209.228 322.425 208.483 322.425 208.483Z" fill="#FFBDB4"/>
<path d="M298.684 156.123C298.669 156.123 298.653 156.123 298.638 156.116C297.107 155.747 296.572 155.062 296.549 155.031C296.489 154.949 296.504 154.828 296.587 154.768C296.67 154.708 296.791 154.723 296.851 154.806C296.859 154.821 297.356 155.423 298.729 155.754C298.827 155.777 298.895 155.882 298.865 155.98C298.85 156.071 298.774 156.123 298.684 156.123Z" fill="#EE6F79"/>
<path d="M282.205 171.882L298.397 188.583L286.821 202.06L270.32 184.969L282.205 171.882Z" fill="#6B96F6"/>
<path d="M179.316 289.41C177.906 289.116 176.51 289.538 175.507 290.419C175.945 290.298 176.405 290.268 176.88 290.366C178.494 290.697 179.527 292.278 179.195 293.89C178.863 295.501 177.28 296.533 175.666 296.201C175.191 296.103 174.776 295.893 174.429 295.606C175.002 296.819 176.111 297.752 177.521 298.046C179.912 298.543 182.25 297.007 182.747 294.62C183.245 292.241 181.707 289.907 179.316 289.41Z" fill="#DEE6ED"/>
<path d="M203.456 294.417C204.867 294.71 205.975 295.644 206.548 296.856C206.194 296.578 205.779 296.359 205.312 296.261C203.698 295.93 202.121 296.962 201.782 298.573C201.45 300.184 202.483 301.758 204.097 302.097C204.572 302.195 205.033 302.165 205.47 302.044C204.459 302.925 203.072 303.347 201.661 303.053C199.271 302.556 197.74 300.222 198.23 297.835C198.728 295.456 201.066 293.92 203.456 294.417Z" fill="#DEE6ED"/>
<path d="M200.009 296.641L181.202 292.743L180.594 295.669L199.401 299.568L200.009 296.641Z" fill="#DEE6ED"/>
<path d="M257.024 256.551H200.892V289.545H257.024V256.551Z" fill="#4B67D6"/>
<path opacity="0.2" d="M216.775 256.551H200.892V289.545H216.775V256.551Z" fill="#3C2F71"/>
<path d="M212.19 262.432C212.19 264.743 210.312 266.625 207.989 266.625C205.674 266.625 203.788 264.751 203.788 262.432C203.788 260.12 205.666 258.238 207.989 258.238C210.312 258.238 212.19 260.12 212.19 262.432Z" fill="white"/>
<path d="M209.497 262.432H206.481V247.267C206.481 245.603 207.695 245.039 215.719 244.519C220.41 244.21 226.481 244.037 232.386 244.037C237.703 244.037 242.281 244.18 245.629 244.444C250.471 244.828 252.771 245.355 252.771 247.267V256.551H249.754V248.005C244.747 246.386 214.822 246.951 209.505 248.186V262.432H209.497Z" fill="#3051A1"/>
<path d="M209.769 262.432C209.769 261.453 208.969 260.655 207.989 260.655C207.008 260.655 206.209 261.453 206.209 262.432C206.209 263.41 207.008 264.209 207.989 264.209C208.977 264.209 209.769 263.418 209.769 262.432Z" fill="#3051A1"/>
<path d="M257.024 271H216.767V272.227H257.024V271Z" fill="#3051A1"/>
<path d="M225.855 278.108C224.143 278.108 222.755 276.723 222.755 275.013V269.329H228.954V275.013C228.954 276.723 227.567 278.108 225.855 278.108Z" fill="white"/>
<path d="M250.184 278.108C248.472 278.108 247.084 276.723 247.084 275.013V269.329H253.284V275.013C253.284 276.723 251.896 278.108 250.184 278.108Z" fill="white"/>
<path d="M247.303 305.237L247.205 305.033C246.888 304.348 247.19 303.535 247.876 303.226L265.388 295.177L266.625 297.865L249.113 305.914C248.434 306.223 247.62 305.922 247.303 305.237Z" fill="#FFCB61"/>
<path d="M267.379 303.354L262.266 292.256L266.625 290.26L270.064 297.722L268.812 300.734L268.857 302.677L267.379 303.354Z" fill="#DEE6ED"/>
<path d="M469.025 39.0177C469.025 39.0177 466.483 29.3349 474.394 26.7146C482.306 24.0944 491.235 28.2657 492.456 35.1702C493.452 40.757 490.518 51.2757 481.951 49.7773" fill="#FFAA61"/>
<path d="M461.521 80.4749L446.717 92.5822L451.491 100.006L464.198 93.9902" fill="#2E9CB9"/>
<path d="M439.749 56.9077L445.556 39.6126L442.546 39.0704L436.702 56.1021C436.377 57.0432 437.041 58.0296 438.029 58.0898C438.806 58.135 439.515 57.6531 439.749 56.9077Z" fill="#3051A1"/>
<path d="M439.816 27.5353L437.961 32.9264L442.109 34.3494L448.844 36.661L451.883 37.7C453.376 38.2045 454.998 37.4139 455.503 35.9231C455.986 34.5301 455.314 33.0167 454.002 32.4144C453.919 32.3767 453.829 32.3466 453.738 32.309L450.39 31.1645L443.557 28.8228L439.816 27.5353Z" fill="#FFCB61"/>
<path d="M439.816 27.5278C436.702 26.4586 435.02 31.9099 437.961 32.9189C441.295 34.0558 443.15 28.6723 439.816 27.5278Z" fill="#FFAA61"/>
<path d="M448.738 39.4468L434.877 34.7485L436.566 30.1254L438.308 30.7654C438.308 30.7654 439.56 30.404 438.851 29.4703C438.006 29.1164 436.777 28.6872 436.129 28.4614C435.887 28.3785 435.623 28.499 435.533 28.7399L432.742 36.0134L448.301 41.2238C448.301 41.2238 449.319 40.5537 448.738 39.4468Z" fill="#3051A1"/>
<path d="M440.834 54.5885L436.355 48.6855C436.355 48.6855 435.103 46.1179 436.355 44.2807C437.607 42.4435 440.148 41.5024 441.573 41.6228L444.077 43.9871C444.077 43.9871 445.254 43.6934 445.254 44.5744C445.254 45.4553 445.035 47.7443 445.035 47.7443L446.649 50.3118C446.649 50.3118 443.481 55.2963 440.834 54.5885Z" fill="#FFBDB4"/>
<path d="M490.171 209.025L490.548 215.335C490.548 215.335 480.744 218.527 480.752 219.905C484.515 219.883 500.405 219.664 500.405 219.664L499.349 207.979L490.171 209.025Z" fill="#3C3563"/>
<path d="M465.684 209.793L465.903 215.629C465.903 215.629 457.818 218.829 457.826 220.214C461.589 220.191 475.956 220.131 475.956 220.131V212.828L465.684 209.793Z" fill="#3C3563"/>
<path d="M475.028 138.128L473.15 160.152L476.076 214.996L468.919 214.258L465.842 213.942C465.842 213.942 456.604 167.071 456.061 162.373C454.899 152.434 458.482 110.419 458.482 110.419C458.482 110.419 477.117 109.245 492.351 109.448C494.93 117.188 495.375 134.8 495.375 134.8L499.877 213.942L490.413 213.099L475.028 138.128Z" fill="#3051A1"/>
<path d="M458.474 110.427C466.317 112.671 492.343 109.456 492.343 109.456C492.343 109.456 489.297 99.1479 490.006 89.9469C491.144 75.1516 493.263 68.4504 489.825 60.8381C487.864 56.5011 480.051 54.6715 480.051 54.6715C480.051 54.6715 470.413 53.3463 463.701 61.3049C460.729 64.8287 458.821 75.8066 458.293 87.6731C458.082 92.4392 458.09 97.3484 458.339 101.971C458.512 105.224 458.052 107.596 458.474 110.427Z" fill="#35AEB9"/>
<path d="M483.309 114.275C483.309 114.275 476.242 82.5906 482.042 65.5891C471.159 69.4367 461.348 66.2517 461.348 66.2517C461.348 66.2517 454.915 81.6269 458.482 110.427C466.77 116.978 483.309 114.275 483.309 114.275Z" fill="#3051A1"/>
<path opacity="0.2" d="M461.34 84.6085H472.675C472.675 84.6085 473.241 95.7521 466.446 96.4298C459.658 97.1074 461.34 84.6085 461.34 84.6085Z" fill="#3C2F71"/>
<path d="M473.693 48.5801L472.894 54.2573L469.575 56.6592L471.499 65.5891C471.499 65.5891 479.304 59.0837 484.402 56.2225L481.665 54.0992L483.03 44.9208" fill="#FFBDB4"/>
<path d="M469.756 33.9655C469.756 33.9655 467.2 41.0582 466.981 45.1241C466.755 49.19 470.232 53.0451 475.752 52.759C480.201 52.5256 481.506 50.8089 483.241 47.398C485.066 48.1208 487.758 45.5759 487.954 43.1514C488.15 40.7269 486.001 40.757 485.096 41.8714C484.191 42.9933 483.18 42.1575 483.18 42.1575L483.708 37.6173C483.708 37.6173 477.901 36.5481 475.247 32.5048C473.218 33.7923 469.756 33.9655 469.756 33.9655Z" fill="#FFBDB4"/>
<path d="M470.428 39.0102C470.39 39.4469 470.088 39.7707 469.741 39.7405C469.402 39.7104 469.153 39.334 469.191 38.9048C469.229 38.4681 469.53 38.1443 469.877 38.1744C470.217 38.197 470.465 38.5735 470.428 39.0102Z" fill="#2A3F7A"/>
<path d="M476.333 40.6214C476.295 41.0581 475.993 41.3819 475.646 41.3518C475.307 41.3216 475.058 40.9452 475.096 40.516C475.134 40.0793 475.435 39.7555 475.782 39.7856C476.121 39.8082 476.37 40.1847 476.333 40.6214Z" fill="#2A3F7A"/>
<path d="M471.913 43.6859C471.37 43.6859 470.827 43.5428 470.737 43.5202L470.526 43.46L472.479 38.8896C472.517 38.7918 472.63 38.7466 472.728 38.7918C472.826 38.8294 472.871 38.9423 472.826 39.0402L471.046 43.2115C471.483 43.3019 472.238 43.4073 472.562 43.1739C472.645 43.1137 472.766 43.1362 472.826 43.2191C472.886 43.3019 472.864 43.4224 472.781 43.4826C472.562 43.6332 472.238 43.6859 471.913 43.6859Z" fill="#EE6F79"/>
<path d="M478.55 39.3189C478.459 39.3114 478.369 39.2813 478.294 39.2135C476.906 37.9862 475.639 38.0766 475.586 38.0766C475.36 38.0916 475.156 37.926 475.134 37.6926C475.111 37.4667 475.284 37.2634 475.511 37.2408C475.579 37.2333 477.177 37.1128 478.844 38.581C479.017 38.7316 479.033 38.9952 478.882 39.1683C478.799 39.2813 478.671 39.3265 478.55 39.3189Z" fill="#FFAA61"/>
<path d="M471.8 36.9922C471.747 36.9922 471.695 36.9772 471.649 36.9546C469.968 36.1791 468.776 36.6233 468.723 36.6384C468.512 36.7212 468.271 36.6158 468.18 36.4049C468.097 36.1941 468.203 35.9532 468.414 35.8628C468.474 35.8402 469.975 35.2605 471.996 36.1941C472.207 36.292 472.298 36.5405 472.2 36.7438C472.132 36.917 471.966 37.0073 471.8 36.9922Z" fill="#FFAA61"/>
<path d="M474.952 45.1316L469.839 44.5895C469.839 44.5895 470.292 46.8709 472.6 46.8031C474.907 46.7354 474.952 45.1316 474.952 45.1316Z" fill="white"/>
<path d="M485.224 56.8022L456.71 64.407L447.215 49.5438L438.527 54.6864L452.848 79.2776L489.395 74.519C489.402 74.519 495.865 62.1481 485.224 56.8022Z" fill="#2E9CB9"/>
<path d="M447.298 93.4857C447.298 93.4857 441.86 98.1615 441.574 99.9987C441.287 101.836 442.75 107.227 443.436 107.272C444.123 107.317 443.972 105.314 443.972 105.314C443.972 105.314 445.586 107.566 446.272 107.37C446.958 107.174 445.586 104.637 445.586 104.637C445.586 104.637 447.69 106.346 448.278 105.909C448.866 105.473 447.222 103.522 446.687 102.348C446.928 102.054 447.637 101.55 447.637 101.55C448.316 102.551 449.832 103.462 450.269 102.988C450.857 102.355 449.688 100.533 449.93 100.345C450.171 100.157 451.144 99.4792 451.144 99.4792L447.298 93.4857Z" fill="#FFBDB4"/>
<path opacity="0.2" d="M476.076 215.004L468.919 214.258L464.938 162.215L469.576 120.095L475.028 138.128L473.15 160.152L476.076 215.004Z" fill="#3C2F71"/>
<path d="M485.895 29.124C485.895 29.124 486.159 22.5207 492.577 24.403C498.988 26.2779 498.603 35.012 490.518 34.7786" fill="#FFAA61"/>
<path d="M482.223 36.3749C482.223 36.3749 480.986 42.2403 484.945 43.7989C488.905 45.35 490.337 38.0539 490.337 38.0539L482.223 36.3749Z" fill="#FFAA61"/>
<path d="M405.163 276.09H403.655V281.511H405.163V276.09Z" fill="#FFC16B"/>
<path d="M492.411 224.86H490.903V243.736H492.411V224.86Z" fill="#FFC16B"/>
<path d="M448.435 227.562H508.443V219.28H448.435V227.562Z" fill="#FFE698"/>
<path d="M507.329 227.563H505.82V281.519H507.329V227.563Z" fill="#FFC16B"/>
<path d="M451.053 227.563H449.545V281.519H451.053V227.563Z" fill="#FFC16B"/>
<path d="M435.759 243.736H434.251V253.735H435.759V243.736Z" fill="#FFC16B"/>
<path d="M476.921 242.223H475.413V259.917H476.921V242.223Z" fill="#FFC16B"/>
<path d="M421.045 259.917H419.537V271.437H421.045V259.917Z" fill="#FFC16B"/>
<path d="M462.6 276.09H461.091V281.511H462.6V276.09Z" fill="#FFC16B"/>
<path d="M433.328 243.742H493.336V235.46H433.328V243.742Z" fill="#FFE698"/>
<path d="M418.228 259.915H478.237V251.633H418.228V259.915Z" fill="#FFE698"/>
<path d="M403.129 276.095H463.137V267.813H403.129V276.095Z" fill="#FFE698"/>
<path d="M462.6 259.917H461.091V271.437H462.6V259.917Z" fill="#FFC16B"/>
<path d="M418.029 0H402.546V66.2893H418.029V0Z" fill="#FFCB61"/>
<path d="M425.774 77.3124H410.291V105.864H425.774V77.3124Z" fill="#FFCB61"/>
<path d="M522.691 24.9677H507.208V70.5058H522.691V24.9677Z" fill="#FFCB61"/>
<path d="M405.299 8.92993H389.816V75.2192H405.299V8.92993Z" fill="#FFCB61"/>
<path d="M370.502 262.115L370.517 287.347C370.517 288.868 376.173 290.095 383.149 290.095C390.133 290.095 395.789 288.86 395.789 287.339V280.698L395.781 270.985V262.1L370.502 262.115Z" fill="white"/>
<path d="M370.509 262.115C370.509 263.636 376.165 264.871 383.149 264.864C390.125 264.864 395.789 263.629 395.781 262.108C395.781 260.587 390.125 259.352 383.141 259.36C376.158 259.367 370.509 260.594 370.509 262.115Z" fill="white"/>
<path d="M372.855 262.115C372.855 263.026 377.463 263.772 383.142 263.764C388.828 263.764 393.428 263.019 393.428 262.108C393.428 261.197 388.82 260.451 383.142 260.459C377.463 260.459 372.855 261.197 372.855 262.115Z" fill="#FFCB61"/>
<path d="M371.098 266.618C371.098 265.647 371.882 264.864 372.855 264.864C373.828 264.864 374.612 265.647 374.612 266.618C374.612 267.589 373.828 268.372 372.855 268.372C371.89 268.372 371.098 267.589 371.098 266.618Z" fill="#3051A1"/>
<path d="M386.362 272.694V282.016C391.204 282.219 395.789 280.698 395.789 280.698L395.781 270.985C395.781 270.985 392.29 272.476 386.362 272.694Z" fill="#FFE698"/>
<path d="M370.509 274.772C367.086 274.772 366.693 272.672 366.656 272.032C366.512 269.592 369.303 266.279 372.764 265.88L372.938 267.378C370.223 267.695 368.073 270.413 368.164 271.949C368.224 273.041 369.476 273.274 370.509 273.274V274.772Z" fill="#3051A1"/>
<path d="M525.164 260.406L525.149 285.637C525.149 287.158 519.493 288.386 512.517 288.386C505.534 288.386 499.877 287.151 499.877 285.63V278.989L499.885 269.276V260.391L525.164 260.406Z" fill="white"/>
<path d="M525.165 260.399C525.165 261.92 519.508 263.154 512.525 263.147C505.549 263.147 499.885 261.912 499.893 260.391C499.893 258.87 505.549 257.635 512.533 257.643C519.508 257.643 525.165 258.878 525.165 260.399Z" fill="white"/>
<path d="M522.819 260.399C522.819 261.31 518.211 262.055 512.532 262.048C506.846 262.048 502.246 261.302 502.246 260.391C502.246 259.48 506.854 258.735 512.532 258.742C518.211 258.742 522.819 259.488 522.819 260.399Z" fill="#FFCB61"/>
<path d="M524.569 264.909C524.569 263.937 523.784 263.154 522.811 263.154C521.839 263.154 521.054 263.937 521.054 264.909C521.054 265.88 521.839 266.663 522.811 266.663C523.784 266.663 524.569 265.873 524.569 264.909Z" fill="#3051A1"/>
<path d="M509.312 270.985V280.307C504.47 280.51 499.885 278.989 499.885 278.989L499.893 269.276C499.885 269.276 503.384 270.759 509.312 270.985Z" fill="#FFE698"/>
<path d="M525.157 273.056V271.55C526.19 271.55 527.442 271.324 527.502 270.225C527.593 268.689 525.443 265.97 522.728 265.654L522.902 264.156C526.363 264.555 529.154 267.875 529.011 270.307C528.973 270.955 528.588 273.056 525.157 273.056Z" fill="#3051A1"/>
</svg>
