<svg width="540" height="247" viewBox="0 0 540 247" fill="none" xmlns="http://www.w3.org/2000/svg">
<path d="M518.846 245.997C487.921 245.997 13.6775 246.033 13.6775 245.997C-3.69488 228.384 -8.81142 186.338 28.8121 145.731C42.5925 130.861 6.03146 102.339 29.766 56.5844C38.7854 39.1971 74.8099 9.31116 169.88 32.5028C210.304 42.3632 244.606 26.6176 252.201 20.9325C256.478 17.7323 261.165 14.9366 266.181 12.5199C318.503 -12.7967 408.901 3.32589 448.36 33.7569C453.952 38.0707 479.377 60.3893 459.337 91.0609C446.682 110.431 499.696 128.927 518.531 151.041C566.431 207.272 519.281 245.264 518.846 245.997Z" fill="#DCEAFF"/>
<path d="M368.592 116.291L370.064 116.661L372.025 108.852L370.552 108.483L368.592 116.291Z" fill="#ADC8FE"/>
<path d="M370.78 105.936C370.78 105.942 370.78 105.936 370.78 105.942C370.707 106.545 370.88 107.194 371.45 107.407C372.211 107.692 372.726 107.196 372.92 106.432C372.92 106.428 372.969 106.236 372.969 106.234C373.032 105.966 373.654 106.185 373.744 106.445C373.905 106.913 373.91 107.441 373.714 107.952C373.354 108.887 372.379 109.464 371.384 109.328C370.069 109.147 369.234 107.875 369.549 106.623C369.636 106.274 369.805 105.963 370.028 105.71C370.241 105.465 370.824 105.612 370.78 105.936Z" fill="#ADC8FE"/>
<path d="M370.033 119.341C370.033 119.335 370.033 119.341 370.033 119.335C370.105 118.732 369.933 118.083 369.362 117.87C368.6 117.585 368.084 118.081 367.893 118.845C367.891 118.85 367.844 119.041 367.842 119.045C367.778 119.314 367.156 119.094 367.067 118.833C366.905 118.364 366.901 117.836 367.096 117.325C367.456 116.39 368.432 115.813 369.426 115.95C370.742 116.131 371.576 117.402 371.261 118.654C371.174 119.003 371.006 119.314 370.782 119.567C370.569 119.814 369.988 119.667 370.033 119.341Z" fill="#ADC8FE"/>
<path d="M366.691 84.1132C366.691 84.1132 365.62 82.7718 364.926 81.5965C364.23 80.4211 359.967 77.9469 359.663 80.0293C359.384 81.9414 360.764 81.3729 361.266 82.8825C361.769 84.3921 362.384 85.0416 365.516 86.4234L366.691 84.1132Z" fill="#FFB27D"/>
<path d="M365.67 84.8627C366.605 83.4659 366.884 83.3936 366.884 83.3936C366.884 83.3936 382.346 89.3128 383.824 89.8068C385.299 90.3008 407.362 91.5464 407.362 91.5464L414.02 105.589C414.02 105.589 384.62 99.1541 380.907 97.8319C374.77 95.6473 364.927 87.0878 364.927 87.0878C364.927 87.0878 364.935 85.9593 365.67 84.8627Z" fill="#E58638"/>
<path d="M404.086 216.158C404.086 216.158 403.749 221.366 402.74 222.59H387.229C387.326 222.07 387.765 220.789 389.705 220.463C392.156 220.054 396.259 218.402 397.741 215.293C399.306 212.025 404.086 216.158 404.086 216.158Z" fill="#163560"/>
<path d="M431.657 214.016C431.657 214.016 432.634 221.915 431.306 222.032C431.129 222.047 424.916 222.036 423.227 222.279C420.47 222.675 415.869 222.33 415.869 222.33C415.292 222.354 414.915 221.755 415.209 221.278C415.53 220.757 416.145 220.197 417.317 219.982C419.759 219.53 423.83 217.81 425.256 214.676C426.755 211.38 431.657 214.016 431.657 214.016Z" fill="#163560"/>
<path d="M396.793 146.843C396.793 146.843 400.692 159.935 411.87 182.675C415.53 190.123 417.979 196.151 419.616 200.893C419.829 201.504 420.027 202.094 420.21 202.66C420.508 203.574 420.775 204.432 421.011 205.235C421.19 205.85 421.354 206.433 421.503 206.983C422.968 212.455 422.938 214.944 422.938 214.944C422.938 214.944 425.476 215.862 428.508 215.572C430.052 215.423 433.441 214.033 433.441 214.033C433.441 214.033 433.075 210.366 432.338 205.184C432.255 204.613 432.168 204.027 432.079 203.423C431.959 202.614 431.829 201.777 431.693 200.919C431.6 200.342 431.504 199.756 431.404 199.166C430.105 191.444 428.178 182.479 425.608 176.888C420.327 165.414 419.25 134.01 419.25 134.01L396.793 146.843Z" fill="#233862"/>
<path d="M390.557 140.163C390.68 147.522 391.263 162.957 393.878 180.748C395.141 189.346 395.822 196.236 396.169 201.572C396.21 202.2 396.246 202.805 396.276 203.389C396.329 204.328 396.369 205.213 396.401 206.042C396.425 206.67 396.444 207.266 396.457 207.832C396.604 213.575 396.295 216.213 396.295 216.213C396.295 216.213 396.516 216.343 396.978 216.509H396.983C397.77 216.792 399.248 217.175 401.473 217.175C402.474 217.175 403.334 217.048 404.024 216.886C405.227 216.605 405.915 216.219 405.915 216.219C405.915 216.219 406.502 212.904 407.171 208.092C407.254 207.515 407.335 206.919 407.416 206.301C407.527 205.486 407.631 204.638 407.742 203.763C407.812 203.178 407.884 202.584 407.954 201.979C408.838 194.337 409.522 185.258 408.785 179.126C408.668 178.149 408.612 177.061 408.608 175.883V175.879C408.602 170.358 409.777 162.923 411.189 155.992C411.189 155.992 411.193 155.973 411.202 155.934C412.656 148.801 414.357 142.214 415.277 138.803C415.692 137.257 415.948 136.365 415.948 136.365L415.175 136.339H415.17L409.06 136.152L392.388 135.632L391.361 135.6L390.531 135.575C390.533 135.575 390.505 137.225 390.557 140.163Z" fill="#2A4E96"/>
<path d="M407.809 88.1247L403.678 91.0609L397.71 89.8558C397.793 89.3341 398.187 87.1687 398.545 85.2077C398.566 85.0927 398.587 84.9756 398.608 84.8627C398.915 83.1955 399.181 81.7604 399.181 81.7604L404.756 79.0946L406.834 78.1003C406.827 78.1343 406.672 79.9527 406.651 80.2167C406.263 84.9266 407.809 88.1247 407.809 88.1247Z" fill="#FFB27D"/>
<path d="M398.127 86.6428C398.259 86.5895 406.248 84.3283 407.115 84.603C407.984 84.8776 408.497 86.4895 408.497 86.4895L396.162 89.86C396.164 89.8622 396.458 87.3177 398.127 86.6428Z" fill="#E58638"/>
<path d="M419.639 138.079C418.287 144.006 390.056 125.408 390.43 121.79C390.471 121.392 390.513 120.992 390.554 120.595C391.076 115.56 391.574 110.631 391.61 107.416C391.638 104.626 392.038 101.773 392.572 99.1818C393.062 96.7885 393.665 94.6188 394.191 92.9261C394.559 91.7359 395.249 90.6862 396.164 89.8621C396.814 89.2766 397.576 88.806 398.417 88.4867C398.645 88.393 398.879 88.3185 399.118 88.2524C402.518 87.3049 407.222 86.1339 408.499 86.4916C411.955 87.4689 414.521 93.303 416.339 100.743C419.737 114.663 420.523 134.216 419.639 138.079Z" fill="#F99746"/>
<path d="M406.236 80.2998C405.011 82.5482 400.45 84.4922 398.547 85.2055C398.568 85.0905 398.589 84.9734 398.611 84.8606C398.917 83.1934 399.184 81.7583 399.184 81.7583L404.758 79.0925C405.989 79.0754 406.74 79.3757 406.236 80.2998Z" fill="#FCA56B"/>
<path d="M396.473 81.4474C396.473 81.4474 406.531 84.4581 408.388 78.4196C410.245 72.3811 412.795 68.7018 406.45 66.5236C400.107 64.3454 398.144 66.2958 397.014 68.1674C395.885 70.039 393.905 80.5084 396.473 81.4474Z" fill="#FFB27D"/>
<path d="M397.41 67.5861C397.41 67.5861 398.051 74.6126 399.567 74.3081C401.081 74.0036 402.454 73.7779 402.233 75.8965C402.011 78.0151 399.91 80.4616 404.579 80.8363C409.247 81.2111 415.958 69.66 414.674 67.4733C410.976 61.1601 392.064 59.8868 397.41 67.5861Z" fill="#163560"/>
<path d="M391.285 135.575C394.08 136.543 391.236 132.909 391.285 132.151C391.502 128.819 390.139 124.605 390.557 120.595L407.633 110.801C407.633 110.801 411.685 135.419 391.285 135.575Z" fill="#E58638"/>
<path d="M419.639 138.079C412.349 151.041 411.188 155.992 411.188 155.992C404.843 155.298 393.971 143.329 390.524 140.135C390.524 140.135 390.056 125.408 390.43 121.79L395.7 121.645C395.7 121.645 405.226 123.962 407.696 120.817C410.166 117.674 409.097 102.242 409.097 102.242L416.337 100.738C419.737 114.663 421.596 134.597 419.639 138.079Z" fill="#2A4E96"/>
<path d="M376.386 113.235C376.386 113.235 372.915 110.982 372.257 110.786C371.599 110.59 369.44 110.377 369.34 110.541C369.24 110.703 368.944 111.203 369.321 111.374C369.698 111.542 370.169 111.482 370.026 111.602C369.885 111.719 368.467 111.071 368.139 111.766C367.812 112.46 367.524 114.838 369.189 115.558C370.854 116.28 374.962 115.628 375.258 115.711C377.772 116.412 376.386 113.235 376.386 113.235Z" fill="#FFB27D"/>
<path d="M376.354 112.626C376.354 112.626 393.29 115.39 394.791 114.687C397.187 113.567 393.861 97.0803 393.861 97.0803C393.861 97.0803 393.718 93.3434 398.266 92.4619C402.22 91.6954 406.034 94.5379 406.034 94.5379C406.034 94.5379 409.502 97.5167 409.059 100.819C408.078 108.142 406.549 123.033 401.445 125.316C394.862 128.261 375.813 117.153 375.813 117.153C375.813 117.153 375.179 116.407 375.268 115.023C375.349 113.801 376.354 112.626 376.354 112.626Z" fill="#F99746"/>
<path d="M410.5 101.95L409.097 102.242C409.097 102.242 406.131 89.9218 396.164 89.8622C396.813 89.2766 397.576 88.8061 398.417 88.4867C402.068 89.4236 408.409 92.4194 410.5 101.95Z" fill="#2A4E96"/>
<g opacity="0.5">
<g opacity="0.5">
<path opacity="0.5" d="M419.616 200.893C419.829 201.504 420.027 202.094 420.21 202.66C423.953 202.665 427.507 201.992 430.135 201.336C430.699 201.195 431.225 201.053 431.693 200.919C431.6 200.342 431.504 199.756 431.404 199.166C428.744 199.935 424.275 200.995 419.616 200.893Z" fill="white"/>
</g>
</g>
<g opacity="0.5">
<g opacity="0.5">
<path opacity="0.5" d="M421.011 205.235C421.19 205.85 421.354 206.433 421.503 206.983C424.907 206.891 428.105 206.276 430.52 205.673C431.191 205.505 431.8 205.335 432.336 205.183C432.253 204.613 432.166 204.027 432.076 203.423C429.641 204.136 425.469 205.181 421.011 205.235Z" fill="white"/>
</g>
</g>
<path d="M366.27 83.566C366.27 83.566 366.076 82.2288 365.665 81.26C365.254 80.2912 364.733 79.0605 364.622 79.6929C364.509 80.3274 364.92 81.4069 364.622 81.9307C364.324 82.4545 366.27 83.566 366.27 83.566Z" fill="#FFB27D"/>
<path d="M396.17 201.572C396.21 202.2 396.247 202.805 396.276 203.389C399.73 204.01 403.098 204.032 405.656 203.908C406.433 203.87 407.133 203.819 407.742 203.765C407.813 203.18 407.885 202.586 407.955 201.981C405.417 202.22 400.816 202.484 396.17 201.572Z" fill="white"/>
<path d="M396.401 206.042C396.425 206.67 396.444 207.266 396.457 207.832C399.648 208.333 402.732 208.348 405.11 208.23C405.876 208.192 406.568 208.145 407.169 208.094C407.252 207.517 407.333 206.921 407.414 206.303C405.021 206.525 400.783 206.776 396.401 206.042Z" fill="white"/>
<path d="M104.15 113.912V114.227C104.15 120.268 99.031 125.182 92.7413 125.182H58.55C54.7515 125.182 51.662 128.148 51.662 131.795V132.841C51.662 136.488 54.7515 139.454 58.55 139.454H96.2949C97.0615 139.454 97.6875 140.076 97.6875 140.845C97.6875 141.66 97.3574 142.397 96.8209 142.931C96.2886 143.466 95.5497 143.796 94.7363 143.796H58.55C52.2582 143.796 47.1395 138.881 47.1395 132.841V131.795C47.1395 125.757 52.2582 120.843 58.55 120.843H92.7413C96.5377 120.843 99.6293 117.872 99.6293 114.227V113.912C99.6293 110.264 96.5377 107.296 92.7413 107.296H57.9134C51.6236 107.296 46.505 102.382 46.505 96.3414V94.8744C46.505 88.8338 51.6236 83.9195 57.9134 83.9195H92.7413C96.5377 83.9195 99.6293 80.9535 99.6293 77.3061C99.6293 73.6587 96.5377 70.6906 92.7413 70.6906H24.082C24.4908 69.264 24.9571 67.8182 25.4831 66.3512H92.7434C99.0331 66.3512 104.152 71.2655 104.152 77.3061C104.152 83.3446 99.0331 88.261 92.7434 88.261H57.9134C54.117 88.261 51.0253 91.227 51.0253 94.8744V96.3414C51.0253 99.9909 54.117 102.957 57.9134 102.957H92.7413C99.031 102.957 104.15 107.871 104.15 113.912Z" fill="#BDD1F9"/>
<path d="M300.77 67.6479H242.318V68.9616H300.77V67.6479Z" fill="#99B9FF"/>
<path d="M241.644 68.1121C241.644 67.3456 242.263 66.726 243.03 66.726C243.796 66.726 244.416 67.3456 244.416 68.1121C244.416 68.8786 243.794 69.4982 243.03 69.4982C242.265 69.4982 241.644 68.8786 241.644 68.1121Z" fill="#99B9FF"/>
<path d="M298.984 68.1121C298.984 67.3456 299.606 66.726 300.371 66.726C301.137 66.726 301.757 67.3456 301.757 68.1121C301.757 68.8786 301.137 69.4982 300.371 69.4982C299.606 69.4982 298.984 68.8786 298.984 68.1121Z" fill="#99B9FF"/>
<path d="M295.091 67.6841V112.879C290.604 113.646 278.892 112.988 272.216 113.754C265.539 114.521 250.39 113.492 250.39 113.492V67.8927C250.39 67.1432 250.994 66.5385 251.744 66.5364C258.396 66.5258 287.56 66.4811 293.879 66.4725C294.55 66.4725 295.091 67.0134 295.091 67.6841Z" fill="#F99746"/>
<path d="M295.091 95.2768V112.877C290.604 113.644 278.892 112.986 272.216 113.752C265.539 114.519 250.39 113.49 250.39 113.49V96.5522C250.494 95.9475 250.554 95.5962 250.554 95.5962C250.554 95.5962 260.286 96.3499 268.933 95.8027C277.535 95.2598 287.873 96.6651 295.091 95.2768Z" fill="#FFAF73"/>
<path d="M258.587 105.621C254.929 105.621 250.654 105.444 250.413 105.435L250.458 104.343C250.537 104.345 258.353 104.667 261.894 104.454L262.729 104.403C267.019 104.137 275.945 103.583 279.675 104.205C283.508 104.843 295.336 104.06 295.455 104.051L295.527 105.144C295.035 105.178 283.45 105.942 279.494 105.284C275.887 104.684 266.712 105.252 262.797 105.495L261.96 105.546C261.038 105.599 259.85 105.621 258.587 105.621Z" fill="white"/>
<path d="M258.587 108.029C254.929 108.029 250.654 107.852 250.413 107.844L250.458 106.749C250.537 106.751 258.353 107.073 261.894 106.86L262.729 106.809C267.019 106.543 275.945 105.989 279.675 106.611C283.508 107.25 295.336 106.466 295.455 106.46L295.527 107.552C295.035 107.584 283.452 108.35 279.494 107.692C275.887 107.09 266.712 107.66 262.797 107.903L261.96 107.954C261.038 108.008 259.85 108.029 258.587 108.029Z" fill="white"/>
<path d="M384.733 65.1034C384.733 65.1034 370.774 76.3628 369.36 75.6538C367.946 74.949 367.687 73.1668 367.687 73.1668C364.765 73.7311 362.344 77.4977 361.256 79.4715C360.86 80.1933 360.643 80.6766 360.643 80.6766C359.34 80.9896 358.595 80.0165 358.595 80.0165C360.121 74.2421 366.381 67.288 372.803 64.9224C379.221 62.559 384.043 64.5413 384.733 65.1034Z" fill="#99B9FF"/>
<path d="M386.085 66.4598C387.263 68.9616 384.282 72.8432 379.427 75.1279C374.572 77.4125 369.681 77.2358 368.504 74.734C367.327 72.2321 370.307 68.3505 375.162 66.0659C380.017 63.7812 384.908 63.9558 386.085 66.4598Z" fill="#D4E4FF"/>
<path d="M378.235 70.6117C378.301 70.7501 378.107 70.978 377.803 71.1206C377.5 71.2633 377.2 71.2676 377.134 71.1292C377.068 70.9908 377.262 70.7629 377.566 70.6181C377.871 70.4755 378.171 70.4733 378.235 70.6117Z" fill="#99B9FF"/>
<path d="M374.515 72.362C374.581 72.5004 374.387 72.7282 374.083 72.8709C373.781 73.0135 373.48 73.0178 373.414 72.8794C373.348 72.741 373.542 72.5132 373.847 72.3705C374.149 72.2279 374.449 72.2236 374.515 72.362Z" fill="#99B9FF"/>
<path d="M380.096 69.7366C380.162 69.875 379.968 70.1029 379.664 70.2455C379.359 70.3882 379.061 70.3925 378.995 70.2541C378.929 70.1157 379.123 69.8878 379.428 69.743C379.732 69.6004 380.03 69.5961 380.096 69.7366Z" fill="#99B9FF"/>
<path d="M381.957 68.8594C382.023 68.9978 381.83 69.2256 381.525 69.3704C381.223 69.5131 380.923 69.5173 380.857 69.3768C380.791 69.2384 380.984 69.0106 381.289 68.8658C381.593 68.7252 381.891 68.721 381.957 68.8594Z" fill="#99B9FF"/>
<path d="M384.366 67.7266C384.432 67.865 384.239 68.0929 383.936 68.2376C383.634 68.3803 383.334 68.3846 383.268 68.244C383.202 68.1056 383.396 67.8778 383.7 67.7351C384.002 67.5904 384.3 67.5861 384.366 67.7266Z" fill="#99B9FF"/>
<path d="M376.374 71.4869C376.44 71.6253 376.247 71.8531 375.942 71.9958C375.64 72.1384 375.34 72.1427 375.274 72.0043C375.208 71.8659 375.401 71.638 375.706 71.4954C376.01 71.3506 376.311 71.3485 376.374 71.4869Z" fill="#99B9FF"/>
<path d="M372.229 73.4394C372.295 73.5778 372.101 73.8056 371.799 73.9483C371.494 74.0909 371.196 74.0952 371.13 73.9547C371.064 73.8163 371.258 73.5884 371.562 73.4458C371.865 73.3031 372.163 73.301 372.229 73.4394Z" fill="#99B9FF"/>
<path d="M377.708 69.4918C377.774 69.6302 377.581 69.858 377.276 70.0007C376.972 70.1433 376.674 70.1476 376.608 70.0092C376.542 69.8708 376.735 69.6429 377.04 69.4982C377.344 69.3576 377.642 69.3534 377.708 69.4918Z" fill="#99B9FF"/>
<path d="M373.988 71.2441C374.054 71.3825 373.86 71.6104 373.557 71.753C373.255 71.8957 372.955 71.8999 372.889 71.7594C372.823 71.621 373.017 71.3932 373.321 71.2505C373.623 71.1079 373.922 71.1057 373.988 71.2441Z" fill="#99B9FF"/>
<path d="M372.052 71.9595C372.118 72.0979 371.924 72.3258 371.62 72.4684C371.315 72.6111 371.017 72.6153 370.951 72.4769C370.885 72.3385 371.079 72.1107 371.384 71.968C371.688 71.8254 371.988 71.8211 372.052 71.9595Z" fill="#99B9FF"/>
<path d="M382.883 66.8622C382.949 67.0006 382.755 67.2284 382.451 67.3732C382.149 67.5158 381.848 67.5201 381.782 67.3796C381.716 67.2412 381.91 67.0133 382.215 66.8707C382.519 66.7259 382.819 66.7238 382.883 66.8622Z" fill="#99B9FF"/>
<path d="M373.298 70.2051C373.364 70.3435 373.17 70.5713 372.868 70.714C372.564 70.8566 372.265 70.8609 372.199 70.7204C372.133 70.582 372.327 70.3541 372.63 70.2115C372.934 70.0688 373.232 70.0646 373.298 70.2051Z" fill="#99B9FF"/>
<path d="M379.57 68.6167C379.636 68.7551 379.442 68.9829 379.138 69.1256C378.835 69.2682 378.535 69.2725 378.469 69.1341C378.403 68.9957 378.597 68.7679 378.901 68.6231C379.206 68.4804 379.504 68.4783 379.57 68.6167Z" fill="#99B9FF"/>
<path d="M381.431 67.7415C381.497 67.8799 381.303 68.1078 380.999 68.2504C380.694 68.3931 380.396 68.3973 380.33 68.2568C380.264 68.1184 380.458 67.8906 380.763 67.7479C381.067 67.6053 381.365 67.601 381.431 67.7415Z" fill="#99B9FF"/>
<path d="M375.848 70.3669C375.914 70.5053 375.72 70.7331 375.416 70.8758C375.113 71.0184 374.813 71.0227 374.749 70.8843C374.683 70.7459 374.877 70.5159 375.179 70.3733C375.484 70.2327 375.782 70.2285 375.848 70.3669Z" fill="#99B9FF"/>
<path d="M378.705 71.6082C378.772 71.7466 378.578 71.9744 378.273 72.1192C377.971 72.2619 377.671 72.2661 377.605 72.1256C377.539 71.9872 377.732 71.7594 378.037 71.6146C378.341 71.4741 378.639 71.4698 378.705 71.6082Z" fill="#99B9FF"/>
<path d="M374.983 73.3606C375.049 73.499 374.855 73.7268 374.551 73.8695C374.246 74.0121 373.948 74.0164 373.882 73.878C373.816 73.7396 374.01 73.5118 374.314 73.367C374.619 73.2243 374.917 73.2222 374.983 73.3606Z" fill="#99B9FF"/>
<path d="M373.687 74.5849C373.753 74.7233 373.559 74.9511 373.255 75.0959C372.952 75.2386 372.652 75.2428 372.588 75.1023C372.522 74.9639 372.716 74.7361 373.018 74.5934C373.323 74.4486 373.621 74.4465 373.687 74.5849Z" fill="#99B9FF"/>
<path d="M380.567 70.7331C380.633 70.8715 380.439 71.0994 380.137 71.2442C379.832 71.3868 379.534 71.3911 379.468 71.2505C379.402 71.1121 379.596 70.8843 379.898 70.7417C380.203 70.5969 380.501 70.5947 380.567 70.7331Z" fill="#99B9FF"/>
<path d="M382.425 69.858C382.491 69.9964 382.297 70.2243 381.995 70.3669C381.69 70.5096 381.392 70.5138 381.326 70.3733C381.26 70.2349 381.454 70.0071 381.756 69.8644C382.061 69.7218 382.361 69.7196 382.425 69.858Z" fill="#99B9FF"/>
<path d="M383.954 69.1383C384.02 69.2767 383.827 69.5045 383.522 69.6493C383.22 69.792 382.92 69.7962 382.856 69.6557C382.79 69.5173 382.983 69.2895 383.286 69.1468C383.588 69.0042 383.89 68.9999 383.954 69.1383Z" fill="#99B9FF"/>
<path d="M382.954 70.9758C383.02 71.1142 382.826 71.3421 382.521 71.4868C382.219 71.6295 381.919 71.6338 381.853 71.4932C381.787 71.3548 381.981 71.127 382.285 70.9843C382.589 70.8417 382.888 70.8374 382.954 70.9758Z" fill="#99B9FF"/>
<path d="M376.845 72.4855C376.911 72.6239 376.717 72.8517 376.415 72.9944C376.11 73.137 375.812 73.1413 375.746 73.0029C375.68 72.8645 375.874 72.6367 376.179 72.494C376.481 72.3492 376.779 72.3449 376.845 72.4855Z" fill="#99B9FF"/>
<path d="M379.231 72.7282C379.297 72.8666 379.103 73.0944 378.798 73.2371C378.496 73.3797 378.196 73.384 378.132 73.2435C378.066 73.1051 378.26 72.8773 378.562 72.7346C378.867 72.5919 379.167 72.5898 379.231 72.7282Z" fill="#99B9FF"/>
<path d="M376.629 67.1965C376.695 67.3349 376.502 67.5627 376.197 67.7054C375.895 67.848 375.595 67.8523 375.529 67.7118C375.463 67.5734 375.656 67.3455 375.961 67.2029C376.265 67.0623 376.563 67.0581 376.629 67.1965Z" fill="#99B9FF"/>
<path d="M379.781 73.8929C379.847 74.0313 379.653 74.2591 379.348 74.4039C379.044 74.5466 378.746 74.5508 378.68 74.4103C378.614 74.2719 378.808 74.0441 379.112 73.9014C379.417 73.7587 379.715 73.7545 379.781 73.8929Z" fill="#99B9FF"/>
<path d="M381.092 71.8531C381.158 71.9915 380.964 72.2193 380.66 72.3641C380.358 72.5067 380.057 72.511 379.991 72.3705C379.925 72.2321 380.119 72.0042 380.424 71.8616C380.728 71.7168 381.026 71.7147 381.092 71.8531Z" fill="#99B9FF"/>
<path d="M377.371 73.6033C377.437 73.7417 377.243 73.9696 376.938 74.1122C376.634 74.2549 376.336 74.2591 376.27 74.1207C376.204 73.9823 376.397 73.7545 376.702 73.6097C377.006 73.4692 377.307 73.4649 377.371 73.6033Z" fill="#99B9FF"/>
<path d="M375.685 74.3975C375.751 74.5359 375.557 74.7637 375.255 74.9064C374.952 75.0491 374.652 75.0533 374.586 74.9128C374.52 74.7744 374.714 74.5466 375.018 74.4039C375.321 74.2612 375.621 74.2591 375.685 74.3975Z" fill="#99B9FF"/>
<path d="M377.183 68.376C377.249 68.5144 377.055 68.7423 376.751 68.8849C376.446 69.0276 376.148 69.0318 376.082 68.8913C376.016 68.7529 376.21 68.5251 376.514 68.3824C376.819 68.2398 377.117 68.2355 377.183 68.376Z" fill="#99B9FF"/>
<path d="M379.043 67.4988C379.109 67.6372 378.916 67.8651 378.611 68.0077C378.309 68.1504 378.009 68.1546 377.943 68.0162C377.877 67.8778 378.07 67.65 378.375 67.5074C378.679 67.3647 378.977 67.3604 379.043 67.4988Z" fill="#99B9FF"/>
<path d="M378.608 66.5726C378.674 66.711 378.48 66.9388 378.176 67.0815C377.871 67.2242 377.573 67.2284 377.507 67.09C377.441 66.9516 377.635 66.7238 377.937 66.5811C378.244 66.4363 378.542 66.4342 378.608 66.5726Z" fill="#99B9FF"/>
<path d="M381.523 72.7665C381.589 72.9049 381.395 73.1328 381.09 73.2754C380.788 73.4181 380.488 73.4223 380.424 73.2839C380.358 73.1455 380.552 72.9177 380.854 72.7751C381.159 72.6324 381.457 72.6281 381.523 72.7665Z" fill="#99B9FF"/>
<path d="M377.984 74.4337C378.05 74.5721 377.856 74.8 377.554 74.9447C377.249 75.0874 376.951 75.0917 376.885 74.9511C376.819 74.8127 377.013 74.5849 377.317 74.4401C377.62 74.2975 377.918 74.2932 377.984 74.4337Z" fill="#99B9FF"/>
<path d="M374.886 68.3249C374.952 68.4633 374.758 68.6912 374.454 68.8338C374.152 68.9765 373.851 68.9807 373.785 68.8402C373.719 68.7018 373.913 68.474 374.218 68.3313C374.522 68.1887 374.822 68.1865 374.886 68.3249Z" fill="#99B9FF"/>
<path d="M380.906 66.6237C380.972 66.7621 380.778 66.9899 380.473 67.1326C380.169 67.2753 379.871 67.2795 379.805 67.139C379.739 67.0006 379.933 66.7728 380.237 66.6301C380.542 66.4874 380.84 66.4853 380.906 66.6237Z" fill="#99B9FF"/>
<path d="M375.322 69.2512C375.388 69.3896 375.194 69.6174 374.889 69.76C374.587 69.9027 374.287 69.907 374.223 69.7664C374.157 69.628 374.351 69.4002 374.653 69.2575C374.955 69.1149 375.256 69.1128 375.322 69.2512Z" fill="#99B9FF"/>
<path d="M346.183 221.981H343.3V60.5299C343.3 59.8762 343.83 59.3439 344.486 59.3439H345.097C345.697 59.3439 346.183 59.8293 346.183 60.4298V221.981Z" fill="#AEC3FF"/>
<path d="M346.267 123.329L346.101 121.36C347.844 121.305 349.377 120.806 350.787 119.831C355.331 116.69 358.052 108.966 358.652 97.4912C359.114 88.6911 358.135 80.7661 358.124 80.6873L361.359 80.5361C361.525 81.8499 365.27 112.807 353.223 121.134C351.234 122.51 348.894 123.249 346.267 123.329Z" fill="#99B9FF"/>
<path d="M372.843 156.352H346.804C345.665 156.352 344.741 155.428 344.741 154.288C344.741 153.149 345.665 152.225 346.804 152.225H372.843C373.982 152.225 374.906 153.149 374.906 154.288C374.906 155.428 373.982 156.352 372.843 156.352Z" fill="#AEC3FF"/>
<path d="M363.255 82.5887H345.039C344.083 82.5887 343.3 81.8052 343.3 80.8491C343.3 79.8931 344.083 79.1096 345.039 79.1096H363.255C364.211 79.1096 364.995 79.8931 364.995 80.8491C364.995 81.8052 364.211 82.5887 363.255 82.5887Z" fill="#AEC3FF"/>
<path d="M371.837 125.778L370.257 148.056H363.784L362.496 125.778H371.837Z" fill="#F99746"/>
<path d="M370.257 148.056H363.784V152.225H370.257V148.056Z" fill="white"/>
<path d="M371.839 124.39H362.496V125.78H371.839V124.39Z" fill="#D87932"/>
<path d="M369.755 133.396C369.755 132.643 369.144 132.032 368.39 132.032C367.636 132.032 367.025 132.643 367.025 133.396C367.025 134.15 367.636 134.761 368.39 134.761C369.144 134.761 369.755 134.15 369.755 133.396Z" fill="white"/>
<path d="M367.934 136.712C367.934 135.777 367.176 135.021 366.243 135.021C365.309 135.021 364.553 135.779 364.553 136.712C364.553 137.646 365.311 138.402 366.243 138.402C367.176 138.402 367.934 137.646 367.934 136.712Z" fill="white"/>
<path d="M366.368 133.907C366.368 133.437 365.987 133.054 365.514 133.054C365.041 133.054 364.66 133.437 364.66 133.907C364.66 134.378 365.043 134.761 365.514 134.761C365.985 134.761 366.368 134.38 366.368 133.907Z" fill="white"/>
<path d="M366.073 133.614C366.073 133.45 365.941 133.318 365.777 133.318C365.613 133.318 365.481 133.45 365.481 133.614C365.481 133.778 365.613 133.91 365.777 133.91C365.941 133.91 366.073 133.775 366.073 133.614Z" fill="#F99746"/>
<path d="M366.013 137.365C366.013 137.072 365.775 136.835 365.483 136.835C365.189 136.835 364.953 137.074 364.953 137.365C364.953 137.659 365.192 137.896 365.483 137.896C365.775 137.896 366.013 137.657 366.013 137.365Z" fill="#F99746"/>
<path d="M369.44 133.835C369.44 133.518 369.182 133.26 368.865 133.26C368.548 133.26 368.29 133.518 368.29 133.835C368.29 134.152 368.548 134.41 368.865 134.41C369.182 134.408 369.44 134.152 369.44 133.835Z" fill="#F99746"/>
<path d="M360.053 132.317L358.473 148.056H352L350.71 132.317H360.053Z" fill="#F99746"/>
<path d="M358.473 148.056H352V152.225H358.473V148.056Z" fill="white"/>
<path d="M360.053 131.335H350.71V132.317H360.053V131.335Z" fill="#D87932"/>
<path d="M357.968 136.582C357.968 135.828 357.357 135.217 356.603 135.217C355.849 135.217 355.238 135.828 355.238 136.582C355.238 137.336 355.849 137.947 356.603 137.947C357.357 137.949 357.968 137.336 357.968 136.582Z" fill="white"/>
<path d="M356.148 139.897C356.148 138.962 355.39 138.206 354.457 138.206C353.522 138.206 352.767 138.964 352.767 139.897C352.767 140.832 353.525 141.588 354.457 141.588C355.392 141.59 356.148 140.832 356.148 139.897Z" fill="white"/>
<path d="M354.583 137.095C354.583 136.624 354.202 136.241 353.729 136.241C353.258 136.241 352.875 136.624 352.875 137.095C352.875 137.565 353.256 137.949 353.729 137.949C354.199 137.949 354.583 137.565 354.583 137.095Z" fill="white"/>
<path d="M354.287 136.799C354.287 136.635 354.155 136.503 353.991 136.503C353.827 136.503 353.695 136.635 353.695 136.799C353.695 136.963 353.827 137.095 353.991 137.095C354.155 137.095 354.287 136.963 354.287 136.799Z" fill="#F99746"/>
<path d="M354.227 140.551C354.227 140.257 353.989 140.021 353.697 140.021C353.403 140.021 353.167 140.259 353.167 140.551C353.167 140.842 353.405 141.081 353.697 141.081C353.991 141.081 354.227 140.845 354.227 140.551Z" fill="#F99746"/>
<path d="M357.656 137.02C357.656 136.703 357.398 136.446 357.081 136.446C356.764 136.446 356.506 136.703 356.506 137.02C356.506 137.338 356.764 137.595 357.081 137.595C357.398 137.595 357.656 137.338 357.656 137.02Z" fill="#F99746"/>
<path d="M367.684 73.1668C364.763 73.7311 362.342 77.4977 361.254 79.4715C361.388 77.0186 366.032 71.4251 367.284 71.868C368.536 72.3066 367.684 73.1668 367.684 73.1668Z" fill="#7FA5EA"/>
<path d="M363.189 236.783L358.643 245.337H356.299L358.115 236.783H363.189Z" fill="#95B1EF"/>
<path d="M460.13 236.783L464.676 245.337H467.02L465.204 236.783H460.13Z" fill="#95B1EF"/>
<path d="M509.299 176.784L497.972 207.783C491.018 226.819 472.911 239.479 452.645 239.479H371.046C353.571 239.479 338.46 227.296 334.757 210.217L330.252 189.442C341.188 191.186 352.792 192.14 364.633 192.498C433.062 194.578 509.299 176.784 509.299 176.784Z" fill="#BDD1F9"/>
<path d="M411.772 239.481H371.046C353.571 239.481 338.46 227.298 334.757 210.219L330.252 189.444C341.188 191.188 352.792 192.142 364.633 192.5C364.145 200.129 364.767 233.394 411.772 239.481Z" fill="#AEC3FF"/>
<path d="M384.119 193.952C374.67 193.952 366.178 193.671 359.122 193.302C339.31 192.272 326.206 190.36 326.076 190.341C325.048 190.189 324.337 189.231 324.488 188.203C324.639 187.174 325.597 186.463 326.626 186.614C326.754 186.634 339.721 188.524 359.369 189.542C377.487 190.483 405.154 190.854 434.082 187.285C463.041 183.712 482.89 180.171 494.443 177.829C506.961 175.293 512.704 173.577 512.759 173.56C513.755 173.26 514.805 173.824 515.105 174.821C515.406 175.817 514.841 176.867 513.845 177.167C513.611 177.237 507.943 178.932 495.293 181.5C483.663 183.859 463.682 187.428 434.542 191.022C416.605 193.238 399.152 193.952 384.119 193.952Z" fill="#95B1EF"/>
<path d="M225.59 55.7667H171.431V124.741H225.59V55.7667Z" fill="#99B9FF"/>
<path d="M223.396 57.9258H173.627V122.85H223.396V57.9258Z" fill="#BDD1F9"/>
<path d="M101.037 163.095H34.1152V245.475H101.037V163.095Z" fill="#BDD1F9"/>
<path d="M101.037 175.378H34.1152V176.496H101.037V175.378Z" fill="#AEC3FF"/>
<path d="M53.9165 174.288H36.1289V164.781H53.9165V174.288ZM36.3525 174.065H53.6929V165.005H36.3525V174.065Z" fill="#AEC3FF"/>
<path d="M63.5938 169.536C63.5938 167.775 65.0203 166.348 66.7812 166.348C68.5421 166.348 69.9687 167.775 69.9687 169.536C69.9687 171.297 68.5421 172.723 66.7812 172.723C65.0203 172.723 63.5938 171.295 63.5938 169.536Z" fill="#AEC3FF"/>
<path d="M72.209 169.536C72.209 168.101 73.3715 166.936 74.8066 166.936C76.2417 166.936 77.4043 168.099 77.4043 169.536C77.4043 170.971 76.2417 172.134 74.8066 172.134C73.3715 172.134 72.209 170.971 72.209 169.536Z" fill="#AEC3FF"/>
<path d="M95.7182 166.48H81.4736V172.591H95.7182V166.48Z" fill="#AEC3FF"/>
<path d="M66.7812 231.905C80.4751 231.905 91.5761 220.804 91.5761 207.11C91.5761 193.417 80.4751 182.316 66.7812 182.316C53.0874 182.316 41.9863 193.417 41.9863 207.11C41.9863 220.804 53.0874 231.905 66.7812 231.905Z" fill="#AEC3FF"/>
<path d="M67.7777 227.025C78.776 226.481 87.2509 217.124 86.7069 206.126C86.1629 195.128 76.8061 186.653 65.8078 187.197C54.8095 187.741 46.3345 197.098 46.8785 208.096C47.4225 219.094 56.7793 227.569 67.7777 227.025Z" fill="#95B1EF"/>
<path d="M86.3836 212.472H85.0443C83.3856 212.472 82.0293 211.115 82.0293 209.457V206.776C82.0293 205.117 83.3856 203.761 85.0443 203.761H86.3836C88.0423 203.761 89.3986 205.117 89.3986 206.776V209.457C89.4007 211.115 88.0423 212.472 86.3836 212.472Z" fill="#AEC3FF"/>
<path d="M238.561 161.979H164.257V245.337H238.561V161.979Z" fill="#BDD1F9"/>
<path d="M238.561 187.551H164.257V188.537H238.561V187.551Z" fill="#AEC3FF"/>
<path d="M207.941 166.48H195.908C195.512 166.48 195.187 166.155 195.187 165.759V165.55C195.187 165.154 195.512 164.828 195.908 164.828H207.941C208.337 164.828 208.662 165.154 208.662 165.55V165.759C208.662 166.155 208.337 166.48 207.941 166.48Z" fill="#AEC3FF"/>
<path d="M238.561 217.801H164.257V218.787H238.561V217.801Z" fill="#AEC3FF"/>
<path d="M207.941 192.227H195.908C195.512 192.227 195.187 191.901 195.187 191.505V191.297C195.187 190.898 195.512 190.575 195.908 190.575H207.941C208.337 190.575 208.662 190.901 208.662 191.297V191.505C208.662 191.903 208.337 192.227 207.941 192.227Z" fill="#AEC3FF"/>
<path d="M207.941 223.827H195.908C195.512 223.827 195.187 223.501 195.187 223.105V222.897C195.187 222.501 195.512 222.175 195.908 222.175H207.941C208.337 222.175 208.662 222.501 208.662 222.897V223.105C208.662 223.501 208.337 223.827 207.941 223.827Z" fill="#AEC3FF"/>
<path d="M242.662 157.633H159.628V163.095H242.662V157.633Z" fill="#95B1EF"/>
<path d="M197.508 145.729C196.595 145.729 195.85 144.982 195.85 144.07V128.972C195.85 128.058 196.597 127.313 197.508 127.313C198.422 127.313 199.167 128.061 199.167 128.972V144.07C199.167 144.984 198.42 145.729 197.508 145.729Z" fill="#95B1EF"/>
<path d="M188.712 137.487C188.712 137.487 192.724 135.979 194.076 136.895C195.428 137.812 193.657 140.657 192.583 140.845C191.51 141.032 188.387 140.566 188.387 140.566L188.712 137.487Z" fill="#FFB27D"/>
<path d="M189.359 139.405C189.989 137.689 189.457 136.835 189.457 136.835C189.457 136.835 174.695 133.976 173.319 133.06C171.944 132.144 159.49 114.874 159.49 114.874L139.92 116.697C139.92 116.697 164.332 137.204 167.864 139.456C173.7 143.176 187.808 141.057 187.808 141.057C187.808 141.057 188.862 140.753 189.359 139.405Z" fill="#ED7D2B"/>
<path d="M188.877 142.007L190.245 143.135L196.227 135.881L194.859 134.753L188.877 142.007Z" fill="#35488B"/>
<path d="M196.362 132.187C196.358 132.193 196.362 132.187 196.358 132.193C195.979 132.794 195.836 133.565 196.33 134.074C196.99 134.755 197.782 134.491 198.368 133.78C198.37 133.778 198.517 133.599 198.521 133.594C198.724 133.345 199.269 133.886 199.232 134.206C199.169 134.78 198.909 135.34 198.445 135.781C197.597 136.588 196.279 136.705 195.3 136.064C194.001 135.215 193.76 133.456 194.718 132.291C194.987 131.966 195.319 131.725 195.681 131.57C196.03 131.421 196.571 131.868 196.362 132.187Z" fill="#35488B"/>
<path d="M188.852 145.953C188.857 145.946 188.852 145.953 188.857 145.946C189.236 145.348 189.378 144.575 188.884 144.066C188.224 143.385 187.432 143.649 186.847 144.36C186.845 144.364 186.698 144.541 186.693 144.545C186.491 144.794 185.946 144.253 185.982 143.934C186.046 143.359 186.306 142.799 186.77 142.358C187.62 141.551 188.935 141.434 189.915 142.075C191.214 142.925 191.454 144.684 190.496 145.848C190.228 146.174 189.896 146.415 189.534 146.57C189.185 146.719 188.644 146.272 188.852 145.953Z" fill="#35488B"/>
<path d="M194.076 136.895C194.076 136.895 191.742 136.822 191.668 137.979C191.593 139.135 191.412 140.91 192.583 140.842C193.757 140.776 197.044 138.123 194.076 136.895Z" fill="#FFB27D"/>
<path d="M202.237 139.19C202.237 139.19 216.963 125.782 222.661 133.294C224.147 135.253 220.919 137.578 218.596 137.938C214.446 138.579 207.577 136.433 202.237 139.19Z" fill="#758BEA"/>
<path d="M225.858 145.729C225.858 150.833 220.343 155.285 212.16 157.648H185.27C177.09 155.285 171.575 150.833 171.575 145.729H225.858Z" fill="#BDD1F9"/>
<path d="M227.198 145.729H170.237C169.579 145.729 169.042 145.19 169.042 144.534C169.042 143.877 169.579 143.34 170.237 143.34H227.198C227.856 143.34 228.392 143.877 228.392 144.534C228.392 145.192 227.854 145.729 227.198 145.729Z" fill="#A2C5FC"/>
<path d="M208.416 148.126C208.416 148.126 209.404 153.686 206.691 155.198C203.976 156.712 201.834 153.494 204.215 152.044C206.593 150.594 207.543 150.66 208.416 148.126Z" fill="#758BEA"/>
<path d="M208.615 143.34C208.615 143.34 216.104 144.339 219.048 149.945C221.993 155.551 224.331 163.421 218.316 164.628C212.301 165.835 209.51 162.767 211.379 155.704C214.019 145.729 208.615 143.34 208.615 143.34Z" fill="#758BEA"/>
<path d="M101.036 233.113C101.036 233.113 98.3998 235.557 98.9129 237.292C99.4282 239.028 101.807 240.186 102.128 242.309C102.45 244.432 103.736 245.588 104.894 245.588C106.052 245.588 110.413 245.588 110.413 245.588C110.413 245.588 111.265 244.095 109.208 243.644C107.151 243.195 106.374 240.701 106.504 238.385C106.631 236.07 106.31 232.983 106.31 232.983L101.936 231.954L101.036 233.113Z" fill="#2C3A64"/>
<path d="M133.379 239.36C133.379 239.36 132.764 244.921 133.922 245.498H148.85C148.85 245.498 148.878 243.731 146.497 243.346C144.119 242.96 139.939 241.544 139.232 238.395C138.523 235.244 133.379 239.36 133.379 239.36Z" fill="#2C3A64"/>
<path d="M145.886 160.336C145.886 160.336 145.105 170.083 144.187 181.8C142.94 197.716 141.439 217.269 141.289 220.972C141.032 227.404 140.003 237.691 140.003 237.691C140.003 237.691 137.561 240.135 132.672 239.104C132.672 239.104 128.316 224.419 127.073 208.88C127.053 208.624 127.034 208.369 127.015 208.111C125.857 192.293 124.058 158.983 124.058 158.983L145.886 160.336Z" fill="#35488B"/>
<path d="M145.886 160.336C145.886 160.336 145.105 170.083 144.187 181.8L127.073 208.88C127.053 208.624 127.034 208.369 127.015 208.111C125.857 192.293 124.058 158.983 124.058 158.983L145.886 160.336Z" fill="#2C3A64"/>
<path d="M142.318 161.492C142.318 161.492 141.595 163.306 140.37 166.306C137.509 173.294 131.913 186.721 126.371 198.619C123.803 204.134 121.245 209.318 118.978 213.383C109.718 229.976 106.824 234.605 106.824 234.605C106.824 234.605 106.69 234.552 106.469 234.456C105.508 234.052 102.847 232.874 101.629 231.795C101.333 231.531 101.12 231.275 101.039 231.035C101.039 231.035 104.58 199.009 110.78 191.201C114.283 186.789 118.399 173.549 118.592 168.923C118.678 166.881 118.933 163.962 119.191 161.33C119.421 158.954 119.659 156.818 119.774 155.785C119.823 155.366 119.849 155.13 119.849 155.13L136.108 159.735L142.318 161.492Z" fill="#35488B"/>
<path d="M139.009 166.031C131.727 165.652 128.49 164.843 124.321 163.821C121.813 163.208 120.156 161.918 119.188 161.328C119.417 158.951 119.656 156.816 119.771 155.783L126.31 159.128L139.009 166.031Z" fill="#2C3A64"/>
<path d="M148.522 105.919C148.522 105.919 154.269 116.028 159.884 117.348C159.884 117.348 159.714 114.866 158.809 112.692C158.519 111.998 158.651 111.199 159.124 110.616C159.35 110.337 159.563 110.071 159.761 109.819C161.174 108.007 161.847 106.898 161.847 106.898L159.942 101.773L158.649 98.296C158.027 99.4245 157.342 100.385 156.628 101.209C152.945 105.442 148.522 105.919 148.522 105.919Z" fill="#FFB27D"/>
<path d="M156.626 101.209C156.626 101.209 155.94 106.274 159.76 109.817C161.174 108.005 161.847 106.896 161.847 106.896L159.941 101.771C157.895 101.151 156.626 101.209 156.626 101.209Z" fill="#ED975D"/>
<path d="M163.359 107.646C163.359 107.646 154.774 104.298 156.942 98.9838C159.107 93.6693 159.458 89.6578 165.033 91.572C170.605 93.484 170.837 95.9433 170.545 97.8936C170.254 99.8419 165.648 108.378 163.359 107.646Z" fill="#FFB27D"/>
<path d="M158.449 130.149C157.516 132.843 156.292 135.604 154.861 138.215C154.58 138.73 154.303 139.239 154.046 139.744C153.871 140.078 153.705 140.412 153.541 140.742C150.409 147.058 148.965 152.534 148.341 156.835C148.222 157.663 148.131 158.445 148.067 159.184C147.784 162.339 118.279 152.066 119.231 147.652C119.859 144.745 120.715 141.692 121.517 139.09C122.686 135.279 123.734 132.436 123.734 132.436C129.253 119.303 137.086 112.232 143.189 108.499C144.294 107.82 145.341 107.252 146.31 106.781C150.017 104.963 152.54 104.509 152.54 104.509C152.54 104.509 153.803 110.818 159.213 113.32C159.22 113.339 160.059 116.746 160.063 116.761C160.966 120.004 160.246 124.965 158.449 130.149Z" fill="#F99746"/>
<path d="M155.708 89.1127C155.648 88.9934 155.474 88.8678 155.048 88.7358C155.048 88.7358 155.448 88.6017 155.913 88.7039C156.153 88.1162 156.739 87.1133 157.837 87.1069C157.837 87.1069 157.207 87.2709 156.975 87.9011C158.48 86.9472 161.272 86.6683 168.241 88.9913C177.424 92.051 172.836 97.3805 171.445 97.8085C170.053 98.2364 167.491 95.494 165.185 95.1192C162.882 94.7445 161.634 97.9554 160.757 98.2215C159.877 98.4877 160.378 97.7574 159.458 97.0249C158.538 96.2924 158.01 98.015 158.029 99.2223C158.048 100.432 156.255 101.577 156.255 101.577C156.255 101.577 156.255 101.577 155.203 99.6481C154.152 97.719 154.437 90.7117 155.442 89.4512C155.529 89.3384 155.619 89.2255 155.708 89.1127Z" fill="#2B478B"/>
<path d="M140.26 125.354C140.26 125.354 141.248 132.834 144.588 138.494C147.929 144.153 149.409 135.345 149.409 135.345L140.26 125.354Z" fill="#ED7D2B"/>
<path d="M153.539 140.742C150.407 147.058 148.964 152.534 148.34 156.835C148.221 157.663 148.129 158.445 148.065 159.184C147.782 162.339 147.944 164.662 148.061 165.982C148.365 169.427 122.476 162.776 119.012 157.795C117.108 155.053 119.497 145.642 121.514 139.09C121.852 139.171 137.902 142.991 149.006 133.06L153.539 140.742Z" fill="#35488B"/>
<path d="M155.506 122.967L153.907 119.778C153.912 119.723 154.082 114.148 150.737 110.878C148.934 109.11 146.395 108.314 143.185 108.499C144.29 107.82 145.337 107.252 146.306 106.781C148.599 107.135 150.518 108.065 152.044 109.562C155.975 113.411 155.517 122.708 155.506 122.967Z" fill="#2C3A64"/>
<path d="M177.587 144.928C177.587 144.928 182.623 144.026 183.458 144.124C184.294 144.221 187.167 145.586 187.195 145.825C187.222 146.063 187.073 146.251 186.566 146.261C186.058 146.272 184.401 145.978 184.497 146.185C184.593 146.391 189.351 147.564 189.36 148.533C189.366 149.502 186.649 151.176 184.42 151.19C182.191 151.205 177.941 148.414 177.568 148.365C174.402 147.937 177.587 144.928 177.587 144.928Z" fill="#FFB27D"/>
<path d="M178.529 146.981C178.627 145.987 177.586 144.93 177.586 144.93C177.586 144.93 162.641 140.819 161.404 139.571C160.167 138.323 154.437 118.449 154.437 118.449C154.437 118.449 152.465 110.405 147.847 109.519C143.833 108.748 141.061 110.735 139.245 113.062C137.081 115.837 136.871 119.661 138.666 122.686C142.694 129.474 150.821 142.952 153.195 145.254C158.478 150.379 177.565 149.321 177.565 149.321C177.565 149.321 178.331 148.976 178.529 146.981Z" fill="#F99746"/>
<path d="M457.776 98.9944C457.776 98.9944 464.656 96.9057 468.71 100.838C472.766 104.771 471.968 109.285 477.753 108.934C483.538 108.582 484.86 110.709 484.113 114.037C483.366 117.365 490.526 116.429 492.692 120.489C494.857 124.549 495.166 132.025 483.996 131.642C472.826 131.257 467.873 125.246 463.091 127.743C458.309 130.239 450.422 126.223 452.492 122.725C454.561 119.226 450.546 120.17 449.837 113.024C449.13 105.874 452.945 99.5331 457.776 98.9944Z" fill="#163560"/>
<path d="M448.542 118.196C448.542 118.196 448.912 115.249 450.341 113.954C451.759 112.668 453.42 112.079 453.782 112.947C454.146 113.816 453.092 116.25 452.737 117.021C452.381 117.793 452.364 119.052 450.835 119.38C449.306 119.708 448.542 118.196 448.542 118.196Z" fill="#FFB27D"/>
<path d="M452.381 117.793L450.113 115.973C449.777 115.703 449.722 115.211 449.992 114.872L454.084 109.773C454.355 109.436 454.847 109.381 455.185 109.651L457.453 111.472C457.789 111.742 457.845 112.234 457.574 112.573L453.482 117.672C453.211 118.011 452.717 118.064 452.381 117.793Z" fill="#F99746"/>
<path d="M452.355 117.316L450.584 115.894C450.294 115.662 450.247 115.238 450.48 114.949L454.265 110.233C454.497 109.943 454.921 109.896 455.211 110.128L456.982 111.551C457.272 111.783 457.319 112.206 457.087 112.496L453.301 117.212C453.069 117.502 452.645 117.549 452.355 117.316Z" fill="#8C9DF4"/>
<path d="M472.164 121.722C466.126 120.446 466.168 121.066 462.217 121.168C462.217 121.168 457.513 121.42 454.37 122.318C449.113 123.821 444.921 129.472 444.921 129.472L451.509 119.382L448.134 117.583C448.134 117.583 432.863 131.657 436.591 137.197C439.698 141.815 451.983 132.238 451.692 133.612C451.687 133.629 451.685 133.643 451.683 133.656C450.78 139.954 455.756 149.234 455.756 149.234L465.027 156.511L473.872 150.217H473.874L474.594 149.958C474.594 149.958 476.052 149.234 476.487 145.786C476.54 145.361 476.849 141.72 477.155 138.051C477.485 134.091 477.811 130.1 477.811 130.1L472.164 121.722Z" fill="#8C9DF4"/>
<path d="M456.438 151.282C456.438 151.282 452.95 161.483 453.57 168.95C453.945 173.464 460.004 205.558 460.345 207.641C460.664 209.604 465.021 235.018 465.021 235.018C465.021 235.018 464.271 239.249 465.873 238.798C468.093 238.172 468.794 237.42 468.794 237.42C468.794 237.42 472.113 194.846 470.059 179.639C468.004 164.432 467.98 151.28 467.98 151.28H456.438V151.282Z" fill="#ED7D2B"/>
<path d="M474.508 150.886C474.508 150.886 481.015 159.616 481.622 165.518C482.229 171.42 482.574 192.148 483.866 197.902C485.159 203.655 489.907 214.727 489.907 232.67C489.907 232.67 489.413 233.698 487.89 234.245C487.403 234.42 487.626 233.545 486.994 233.69C485.738 233.977 475.518 208.318 474.945 207.164C471.734 200.702 465.44 178.291 458.396 166.4C456.706 163.544 459.433 152.191 459.433 152.191L474.508 150.886Z" fill="#F99746"/>
<path d="M464.782 123.366C465.942 122.84 466.449 121.977 466.195 120.723C465.825 118.884 465.146 117.163 465.065 114.478L464.677 114.568L458.166 116.086C458.166 116.086 458.453 120.119 458.456 120.133C458.632 122.744 459.265 125.863 464.782 123.366Z" fill="#FFB27D"/>
<path d="M458.169 116.086C458.169 116.086 458.386 118.143 458.456 120.087C462.121 119.861 463.948 116.45 464.678 114.57L458.169 116.086Z" fill="#E8945B"/>
<path d="M457.006 117.966C457.006 117.966 465.687 117.819 465.512 112.413C465.338 107.007 466.341 103.349 460.79 103.215C455.239 103.08 454.23 105.178 453.848 106.996C453.469 108.814 454.743 117.866 457.006 117.966Z" fill="#FFB27D"/>
<path d="M456.457 103.472C456.457 103.472 459.374 110.528 463.518 111.446C467.661 112.366 469.407 111.206 469.407 111.206C469.407 111.206 466.173 108.808 465.372 104.46C465.372 104.458 458.363 100.004 456.457 103.472Z" fill="#163560"/>
<path d="M457.57 103.17C457.57 103.17 455.609 103.979 454.841 105.455C454.089 106.898 453.471 107.362 453.706 109.658C453.706 109.658 451.525 106.3 453.701 103.476C456.007 100.483 457.57 103.17 457.57 103.17Z" fill="#163560"/>
<path d="M473.872 150.217L474.594 149.958C474.594 149.958 476.052 149.234 476.486 145.786C476.54 145.361 476.848 141.72 477.155 138.051C477.155 138.051 473.887 134.797 472.886 136.741C471.885 138.685 474.195 142.35 473.348 144.515C472.496 146.681 471.029 149.585 473.872 150.217Z" fill="#6980E2"/>
<path d="M455.756 149.232C455.756 149.232 457.468 150.586 460.87 150.654C464.933 150.735 475.002 149.617 475.002 149.617C475.002 149.617 475.449 150.867 475.432 152.187C475.432 152.187 463.136 155.289 456.011 152.64C456.009 152.643 455.089 150.914 455.756 149.232Z" fill="#233862"/>
<path d="M459.897 154.156C458.875 154.156 458.042 153.215 458.042 152.057C458.042 150.901 458.875 149.96 459.897 149.96C460.919 149.96 461.751 150.901 461.751 152.057C461.749 153.215 460.919 154.156 459.897 154.156ZM459.897 150.575C459.213 150.575 458.657 151.242 458.657 152.059C458.657 152.877 459.213 153.543 459.897 153.543C460.58 153.543 461.136 152.877 461.136 152.059C461.136 151.239 460.578 150.575 459.897 150.575Z" fill="white"/>
<path d="M472.711 202.907C472.711 202.907 481.422 200.978 486.287 198.687C486.287 198.687 491.203 226.231 493.071 235.646C493.36 237.111 494.097 239.33 494.38 240.65C494.908 243.111 494.312 245.334 494.312 245.334H479.237C479.237 245.334 479.333 243.016 481.979 242.158C484.628 241.3 487.394 239.462 487.324 238.316C487.254 237.171 472.711 202.907 472.711 202.907Z" fill="#FFB93E"/>
<path d="M458.434 203.633L471.316 203.538C471.316 203.538 470.236 234.929 470.728 238.27C471.22 241.608 471.316 245.334 471.316 245.334H454.714C454.714 245.334 454.499 243.384 457.148 241.804C459.797 240.224 462.801 241.583 463.804 239.366C464.802 237.15 458.434 203.633 458.434 203.633Z" fill="#FFB93E"/>
<path d="M457.413 114.738C457.474 115.14 457.257 115.509 456.925 115.56C456.593 115.611 456.276 115.326 456.212 114.923C456.15 114.521 456.367 114.152 456.699 114.101C457.031 114.05 457.351 114.333 457.413 114.738Z" fill="white"/>
<path d="M500.405 139.196C500.405 139.196 501.968 136.275 503.422 136.09C504.877 135.905 507.513 134.902 507.344 135.462C507.176 136.022 505.507 136.228 505.373 136.567C505.241 136.905 507.932 137.152 508.694 137.138C509.457 137.123 511.235 136.908 511.215 137.291C511.196 137.674 508.175 139.529 505.926 139.514C503.678 139.499 500.997 140.615 500.997 140.615L500.405 139.196Z" fill="#FFB27D"/>
<path d="M472.52 133.952C472.52 133.952 481.19 147.562 486.132 148.831C490.026 149.83 501.505 142.286 501.505 142.286C502.178 139.771 500.949 138.309 500.949 138.309C500.949 138.309 489.319 140.938 488.276 140.615C484.075 139.316 480.296 128.797 477.811 125.282C475.726 122.335 472.164 121.722 472.164 121.722L472.52 133.952Z" fill="#8C9DF4"/>
<path d="M444.533 128.359L449.098 125.218L446.809 130.298L442.333 130.707L444.533 128.359Z" fill="#8C9DF4"/>
<path d="M256.552 199.624C256.552 199.624 241.896 202.978 241.896 212.597C241.896 212.597 242.046 217.441 247.303 216.102C251.406 215.059 246.819 209.359 256.552 199.624Z" fill="#8C9DF4"/>
<path d="M255.667 198.393C255.667 198.393 245.315 196.328 244.363 198.749C242.892 202.479 250.076 197.567 255.667 198.393Z" fill="#8C9DF4"/>
<path d="M536.724 246.657H0.585539C0.264025 246.657 0 246.393 0 246.071V245.922C0 245.601 0.264025 245.337 0.585539 245.337H536.722C537.044 245.337 537.308 245.601 537.308 245.922V246.071C537.31 246.393 537.046 246.657 536.724 246.657Z" fill="#233862"/>
<path d="M267.329 198.868C267.329 198.868 273.613 206.11 271.117 210.681C270.768 211.32 270.034 212.429 268.019 211.703C266.005 210.975 268.447 208.333 268.356 204.992C268.281 202.339 267.329 198.868 267.329 198.868Z" fill="#8C9DF4"/>
<path d="M261.962 197.452C263.597 197.71 267.402 196.573 267.679 196.547C270.038 196.322 267.762 193.999 267.762 193.999C267.762 193.999 264.053 193.183 263.431 193.232C263.227 193.249 262.89 193.315 262.526 193.405L263.163 194.026C263.163 194.026 260.074 194.352 260.039 195.07C260.008 195.791 260.536 197.229 261.962 197.452Z" fill="#FFB27D"/>
<path d="M263.432 193.232L260.805 193.552C260.805 194.241 262.825 194.016 262.925 194.356C263.023 194.697 263.49 193.882 263.49 193.882L263.432 193.232Z" fill="#FFB27D"/>
<path d="M287.936 193.443C287.936 193.443 284.402 193.788 284.63 194.163C284.858 194.537 286.408 194.701 286.408 194.701L287.651 193.903L287.936 193.443Z" fill="#FFB27D"/>
<path d="M267.035 195.148C266.467 193.505 267.259 192.992 267.259 192.992C267.259 192.992 283.454 185.311 284.778 184.466C286.103 183.621 295.007 167.405 295.007 167.405C295.007 167.405 298.307 160.774 302.511 160.908C306.164 161.023 308.194 163.302 309.32 165.688C310.661 168.533 310.095 171.912 307.936 174.199C303.085 179.33 293.349 189.493 290.825 191.035C285.211 194.467 268.381 197.244 268.381 197.244C268.381 197.244 267.483 196.439 267.035 195.148Z" fill="#E58638"/>
<path d="M269.406 212.749C271.85 215.566 277.005 217.386 286.95 217.848C287.749 217.886 288.552 217.916 289.359 217.942C290.189 217.967 291.021 217.984 291.854 217.995C294.556 218.033 297.245 218.001 299.809 217.916C302.294 217.831 304.661 217.695 306.806 217.516C311 217.167 314.347 216.66 316.076 216.079C316.594 215.904 316.966 215.725 317.175 215.538C317.352 215.38 317.496 215.193 317.605 214.982C318.233 213.82 317.905 211.912 317.147 209.81C316.042 206.751 314.015 203.284 312.65 201.112C312.376 200.678 312.133 200.299 311.924 199.984C311.509 199.347 311.249 198.975 311.249 198.975C311.249 198.975 306.603 199.407 300.243 200.231C298.946 200.399 297.575 200.584 296.159 200.784C282.485 202.718 268.86 206.195 268.873 210.807C268.875 211.505 268.829 212.084 269.406 212.749Z" fill="#2B478B"/>
<path d="M286.337 217.791C287.167 217.816 291.021 217.982 291.854 217.993C294.556 218.031 297.245 217.999 299.809 217.914L302.219 208.203C298.491 213.404 287.536 217.456 286.337 217.791Z" fill="#2C3A64"/>
<path d="M294.392 245.997H281.136C281.344 245.492 281.849 244.834 283.08 244.619C285.169 244.253 288.792 243.124 288.328 240.109C287.858 237.054 292.942 236.66 292.942 236.66C292.942 236.66 295.057 244.834 294.392 245.997Z" fill="#2C3A64"/>
<path d="M269.19 212.25C269.19 212.25 285.634 238.121 287.004 241.195C287.004 241.195 292.599 241.717 293.945 237.718C293.945 237.718 284.17 210.417 279.873 208.167C275.576 205.916 269.19 212.25 269.19 212.25Z" fill="#2B478B"/>
<path d="M302.354 157.783C302.354 157.783 296.692 165.533 291.644 165.948C291.644 165.948 292.006 164.306 292.817 162.712C293.336 161.685 293.326 160.474 292.757 159.473C292.749 159.458 292.74 159.443 292.732 159.428C291.739 157.672 291.301 156.622 291.301 156.622L293.622 152.421L294.101 150.162C294.493 151.222 294.952 152.2 295.466 153.007C298.11 157.159 302.354 157.783 302.354 157.783Z" fill="#FFB27D"/>
<path d="M295.687 152.964C295.687 152.964 296.509 156.848 292.732 159.426C291.739 157.67 291.301 156.62 291.301 156.62L293.622 152.419C295.476 152.144 295.687 152.964 295.687 152.964Z" fill="#ED975D"/>
<path d="M290.592 158.962C290.592 158.962 297.695 155.093 295.216 150.705C292.738 146.319 291.986 142.865 287.347 145.15C282.707 147.434 282.779 149.602 283.25 151.267C283.72 152.932 288.682 159.854 290.592 158.962Z" fill="#FFB27D"/>
<path d="M295.193 141.971C295.232 141.86 295.37 141.73 295.728 141.571C295.728 141.571 295.364 141.498 294.972 141.639C294.697 141.153 294.075 140.346 293.117 140.461C293.117 140.461 293.684 140.534 293.956 141.057C292.538 140.393 290.077 140.463 284.268 143.259C276.612 146.945 281.2 151.075 282.461 151.293C283.721 151.51 285.646 148.835 287.611 148.254C289.576 147.671 291.02 150.328 291.814 150.462C292.608 150.596 292.093 150.015 292.813 149.276C293.533 148.537 294.184 149.977 294.301 151.031C294.418 152.085 295.689 152.962 295.689 152.962C295.689 152.962 296.109 152.883 296.809 151.086C297.51 149.289 296.482 143.219 295.466 142.233C295.374 142.15 295.285 142.06 295.193 141.971Z" fill="#2B478B"/>
<path d="M337.605 237.539C337.605 237.539 339.258 240.048 339.643 240.859C340.026 241.672 339.273 243.401 338.14 243.661C337.141 243.891 336.992 245.662 336.992 245.662H341.836C342.349 245.662 342.811 245.379 343.009 244.945C343.693 243.442 343.848 241.487 343.987 240.831C344.276 239.456 344.847 238.302 344.596 236.903C344.344 235.508 341.957 234.699 337.607 234.712C332.827 234.729 337.605 237.539 337.605 237.539Z" fill="#233862"/>
<path d="M323.362 207.302C319.708 211.173 292.886 203.165 295.134 201.125C295.707 200.608 295.511 199.984 295.743 199.149C296.857 195.189 294.64 188.414 293.691 185.788C293.469 185.179 293.316 184.794 293.288 184.717C292.381 182.267 291.681 179.714 291.221 177.246C290.337 172.513 290.352 168.111 291.561 165.416C291.57 165.401 291.572 165.388 291.581 165.38C296.606 163.91 299.372 156.52 299.372 156.52C299.372 156.52 315.29 161.04 321.066 183.755C321.066 183.755 321.364 185.203 321.733 187.377H321.735C321.846 188.043 321.965 188.78 322.084 189.563C322.702 193.605 323.059 198.787 323.425 202.648C323.44 202.782 323.453 202.918 323.466 203.056C323.649 204.717 323.968 206.659 323.362 207.302Z" fill="#F99746"/>
<path d="M302.24 203.461C302.24 203.461 304.915 203.812 310.308 204.21C315.897 204.624 321.821 205.505 322.783 207.383C323.102 208.005 322.879 209.578 322.257 211.752C320.88 216.558 317.539 224.295 313.725 231.156C323.522 231.722 336.851 233.886 336.851 233.886C339.031 236.351 338.118 239.236 338.118 239.236C337.419 239.243 335.316 239.539 332.448 240.003C322.053 241.676 309.392 245.117 301.544 245.117C299.828 245.117 298.542 243.897 298.02 242.305V242.302C294.792 232.482 302.24 203.461 302.24 203.461Z" fill="#2B478B"/>
<path d="M322.257 212.48C316.849 212.31 303.288 205.652 303.51 205.599C306.035 204.977 308.294 204.547 310.31 204.276C315.9 204.728 321.823 205.686 322.785 207.728C323.101 208.405 322.879 210.115 322.257 212.48Z" fill="#2C3A64"/>
<path d="M302.042 157.625C302.042 157.625 295.237 159.041 294.573 165.003C294.089 169.344 297.537 179.179 297.537 179.179L299.74 178.274C299.74 178.274 295.574 166.133 296.214 164.068C297.036 161.419 300.948 157.459 304.546 159.041L302.042 157.625Z" fill="#2B478B"/>
<path d="M323.362 207.302C319.708 211.173 292.309 203.25 294.556 201.21C295.126 200.693 295.51 199.984 295.742 199.149C296.855 195.189 294.639 188.414 293.689 185.788C293.468 185.179 291.373 177.966 291.343 177.889L299.057 176.22C299.057 176.22 301.239 179.978 304.073 181.907C307.789 184.438 313.796 187.364 321.731 187.377H321.733C321.844 188.043 321.963 188.78 322.083 189.563C322.7 193.605 323.058 198.787 323.424 202.648C323.439 202.782 323.452 202.918 323.464 203.056C323.65 204.717 323.969 206.659 323.362 207.302Z" fill="#2B478B"/>
<path d="M265.204 245.337H259.894V186.157C259.894 182.017 256.528 178.649 252.389 178.649H238.563V173.339H252.389C259.455 173.339 265.207 179.088 265.207 186.157V245.337H265.204Z" fill="#BDD1F9"/>
<path d="M250.437 172.723H249.479V179.509H250.437V172.723Z" fill="#91B5F8"/>
<path d="M266.148 191.044V190.085H259.363V191.044H266.148Z" fill="#91B5F8"/>
<path d="M266.148 202.436V201.478H259.363V202.436H266.148Z" fill="#91B5F8"/>
<path d="M265.632 237.409H259.215V245.334H265.632V237.409Z" fill="#91B5F8"/>
<path d="M266.012 188.942L290.958 198.745C291.456 198.941 292.02 198.696 292.216 198.197L292.38 197.778C292.546 197.356 292.338 196.882 291.918 196.716L266.831 186.857L266.012 188.942Z" fill="#2B478B"/>
<path d="M263.591 188.122L264.147 188.339L264.315 187.076C264.46 185.991 265.552 185.307 266.527 185.69L273.814 188.554L274.535 186.717L265.307 183.091C264.409 182.737 263.397 183.338 263.216 184.332L262.799 186.64C262.684 187.277 263.014 187.896 263.591 188.122Z" fill="#2B478B"/>
<path d="M268.642 188.344L273.198 190.134L274.221 187.53L269.666 185.74L268.642 188.344Z" fill="#2B478B"/>
<path d="M272.582 188.535C272.644 188.375 272.567 188.196 272.408 188.135C272.248 188.073 272.069 188.15 272.007 188.309C271.946 188.469 272.024 188.648 272.182 188.71C272.342 188.771 272.521 188.693 272.582 188.535Z" fill="#6C7AFF"/>
<path d="M270.745 187.813C270.806 187.656 270.73 187.475 270.57 187.413C270.41 187.351 270.232 187.428 270.17 187.588C270.108 187.747 270.185 187.926 270.344 187.988C270.504 188.05 270.683 187.971 270.745 187.813Z" fill="#6C7AFF"/>
<path d="M293.173 193.132C293.173 193.132 291.951 193.419 290.642 193.462C289.462 193.5 288.214 193.283 287.65 193.52C286.455 194.018 282.672 196.618 284.499 197.731C286.326 198.845 288.208 198.455 289.458 197.444C290.705 196.432 294.099 196.349 294.099 196.349L293.173 193.132Z" fill="#FFB27D"/>
<path d="M305.89 163.095C314.094 165.463 319.089 185.15 317.935 191.043C316.779 196.935 293.622 197.244 293.622 197.244C293.622 197.244 292.321 196.226 292.167 195.174C291.971 193.833 292.182 193.215 292.182 193.215C292.182 193.215 306.825 189.24 307.159 187.549C307.494 185.859 300.112 176.897 300.222 172.038C300.335 167.179 301.421 161.805 305.89 163.095Z" fill="#F99746"/>
<path d="M274.601 245.337C274.601 245.337 271.426 240.316 262.423 241.374C253.419 242.43 247.006 247.272 225.526 241.868C204.046 236.464 205.986 246.161 193.754 244.072C181.523 241.983 176.153 245.337 176.153 245.337H274.601Z" fill="#8C9DF4"/>
<path d="M251.885 172.723C251.885 172.723 254.344 167.224 259.082 168.226C259.082 168.226 260.297 168.531 259.993 169.774C259.688 171.018 255.984 169.325 251.885 172.723Z" fill="#8C9DF4"/>
</svg>
